<?xml version="1.0" encoding="UTF-8"?>
<svg width="22px" height="9px" viewBox="0 0 22 9" version="1.1" xmlns="http://www.w3.org/2000/svg" xmlns:xlink="http://www.w3.org/1999/xlink">
    <!-- Generator: Sketch 39.1 (31720) - http://www.bohemiancoding.com/sketch -->
    <title>Shape</title>
    <desc>Created with Sketch.</desc>
    <defs></defs>
    <g id="Page-1" stroke="none" stroke-width="1" fill="none" fill-rule="evenodd">
        <g id="adminPanelMockup" transform="translate(-1049.000000, -398.000000)" fill="#ADADAD">
            <g id="Group-8" transform="translate(70.000000, 107.000000)">
                <path d="M997.085276,288.628762 L997.018978,288.562266 C995.470163,287.013682 992.935888,287.013682 991.387336,288.562266 L987.799229,292.150866 C986.250645,293.699451 986.250645,296.23366 987.799229,297.782278 L987.865495,297.84851 C987.994341,297.977619 988.131116,298.094028 988.272432,298.20152 L989.586028,296.887826 C989.432998,296.797443 989.287833,296.689293 989.156355,296.55788 L989.089859,296.491385 C988.248972,295.650761 988.248972,294.282449 989.089859,293.441496 L992.67836,289.853291 C993.519313,289.012338 994.887329,289.012338 995.72815,289.853291 L995.794646,289.919491 C996.635303,290.760443 996.635303,292.128756 995.794646,292.969379 L994.171143,294.592883 C994.452952,295.2889 994.586503,296.030718 994.574855,296.770792 L997.085375,294.260272 C998.633992,292.711622 998.633992,290.177478 997.085276,288.628762 Z M991.782197,293.799244 C991.653352,293.670398 991.516576,293.553759 991.375228,293.44653 L990.061632,294.759862 C990.214661,294.850278 990.359793,294.958494 990.491304,295.089907 L990.5578,295.156369 C991.39872,295.997322 991.39872,297.365338 990.5578,298.206225 L986.969266,301.794792 C986.128314,302.635547 984.760264,302.635547 983.91941,301.794792 L983.852915,301.728296 C983.012291,300.887278 983.012291,299.519294 983.852915,298.678441 L985.476451,297.054937 C985.194609,296.358985 985.061124,295.617069 985.072771,294.877061 L982.562285,297.387482 C981.013634,298.936001 981.013634,301.470309 982.562285,303.019124 L982.628517,303.085455 C984.177431,304.633908 986.711574,304.633908 988.260225,303.085455 L991.848397,299.497151 C993.396982,297.948566 993.396982,295.413995 991.848397,293.865443 L991.782197,293.799244 Z" id="Shape" transform="translate(989.823811, 295.823811) rotate(-315.000000) translate(-989.823811, -295.823811) "></path>
            </g>
        </g>
    </g>
</svg>