<?xml version="1.0" encoding="UTF-8"?>
<svg width="24px" height="28px" viewBox="0 0 24 28" version="1.1" xmlns="http://www.w3.org/2000/svg" xmlns:xlink="http://www.w3.org/1999/xlink">
    <!-- Generator: Sketch 39.1 (31720) - http://www.bohemiancoding.com/sketch -->
    <title>XMLID_92_</title>
    <desc>Created with Sketch.</desc>
    <defs></defs>
    <g id="Page-1" stroke="none" stroke-width="1" fill="none" fill-rule="evenodd">
        <g id="main" transform="translate(-169.000000, -428.000000)" fill="#fc8f42">
            <g id="Group-10" transform="translate(81.000000, 217.000000)">
                <g id="Group-9" transform="translate(38.000000, 209.000000)">
                    <path d="M73.2553197,24.4816687 C72.4312554,24.1453911 72.0787432,23.6991325 72.1128335,23.0332789 C72.1479373,22.2560673 71.7054082,21.6867914 71.495246,21.4618719 C71.6222094,20.9786163 71.993241,19.3068676 71.4956146,17.8548056 C70.9608573,16.3005659 69.3282077,13.926793 67.6435935,11.5934137 C66.9539556,10.6351648 66.9213395,9.59355799 66.8836559,8.38743861 C66.8475386,7.23704418 66.8068145,5.93306186 66.1629682,4.48347858 C65.4629191,2.90509446 64.0582139,2 62.308828,2 C61.2681521,2 60.1999275,2.3240677 59.3778903,2.88902878 C57.6945659,4.04658391 57.9170743,6.5703644 58.0643076,8.24036879 C58.0844854,8.46905226 58.1034654,8.68506679 58.1145217,8.86950078 C58.2125544,10.5050787 58.1233668,11.3671172 58.0067226,11.6291254 C57.9312633,11.8003397 57.559771,12.2876347 57.1666268,12.8035725 C56.7600307,13.3371366 56.2990744,13.9419406 55.9212247,14.5055246 C55.4704033,15.1836799 55.1064662,16.2202375 54.7545068,17.2226441 C54.4969867,17.9561571 54.2537477,18.649001 54.0169582,19.0630365 C53.5681639,19.8595269 53.6798327,20.6022203 53.7730743,20.9454751 C53.6031756,21.0630758 53.3577253,21.2946052 53.1505115,21.7310409 C52.9000859,22.2635034 52.3919559,22.5496561 51.3353405,22.7520836 C50.8497839,22.8510482 50.5149617,23.0544856 50.3399034,23.356704 C50.0851474,23.7965364 50.2239042,24.3491957 50.350499,24.7268769 C50.5375351,25.2821068 50.420983,25.633532 50.2090703,26.271569 C50.1602382,26.4188224 50.1048645,26.5855383 50.0487537,26.7694214 C49.9603953,27.0596135 49.9922743,27.3234579 50.1432852,27.5536102 C50.5423261,28.1614437 51.7067407,28.3758057 52.9054298,28.5168165 C53.6211421,28.6014597 54.4044822,28.8866943 55.1621164,29.1626568 C55.904456,29.4329274 56.6720408,29.7124702 57.3697866,29.797297 C57.4758351,29.8106086 57.5808701,29.8173103 57.6821276,29.8173103 C58.7356104,29.8173103 59.2115849,29.1207942 59.3625036,28.8346415 C59.7409061,28.7577099 61.0460123,28.5113083 62.3911054,28.4782589 C63.7340795,28.4400685 65.0334732,28.70428 65.4015565,28.7864445 C65.5172793,29.007141 65.8223415,29.5112361 66.3086352,29.7709493 C66.5759217,29.9165503 66.9478747,30 67.3288569,30 L67.3289491,30 C67.7358216,30 68.509856,29.9041567 69.1224681,29.2619886 C69.7335139,28.6167909 71.2602071,27.7931265 72.3750525,27.1917193 C72.6238196,27.057502 72.8565551,26.9319143 73.0606363,26.8185365 C73.6868846,26.4726195 74.028617,25.9783474 73.9981199,25.4625014 C73.9726904,25.0340527 73.6880824,24.6582076 73.2553197,24.4816687 Z M59.3916186,24.3574581 C59.3136715,23.810307 58.607265,23.2676542 57.7891896,22.6393485 C57.1202824,22.1255221 56.3620954,21.5432101 56.1532231,21.0500397 C55.721566,20.0326691 56.0618242,18.2437786 56.6550878,17.3226185 C56.9482645,16.8613958 57.1877259,16.161942 57.4193558,15.4855311 C57.6694128,14.7551394 57.9280385,13.9999607 58.2172534,13.6693749 C58.6752613,13.1532535 59.098534,12.1490108 59.1735327,11.3575696 C59.6024257,11.765546 60.2677396,12.2832281 60.8823787,12.2832281 C60.9770024,12.2832281 61.068862,12.2709264 61.1566676,12.2462311 C61.5771762,12.1252336 62.195685,11.7691264 62.7938318,11.4248618 C63.3095169,11.1279681 63.9454394,10.7618542 64.1847166,10.7285294 C64.5949981,11.3155234 66.9790166,16.5723054 67.2226242,18.260487 C67.4153726,19.5962334 67.2117521,20.7004505 67.109389,21.1329386 C67.0270195,21.1217385 66.9288025,21.1126499 66.8256102,21.1126499 C66.1615862,21.1126499 65.9857907,21.4738064 65.9399992,21.6894537 C65.8222494,22.2497328 65.809811,24.0412855 65.8085211,24.4438455 C65.5684148,24.7478082 64.3541547,26.1792143 62.6108498,26.4365406 C61.9007577,26.5393609 61.2376551,26.5915055 60.6400611,26.5915055 C60.1292592,26.5915055 59.8032821,26.5522135 59.6679344,26.5317412 L58.7919055,25.5330068 C59.1373233,25.3630778 59.4826489,25.0044918 59.3916186,24.3574581 Z M60.5032392,7.88912714 C60.4758748,7.90087804 60.4489711,7.91345517 60.4225281,7.92685854 C60.4198561,7.86773684 60.413683,7.8077889 60.404193,7.74765736 C60.3085559,7.19912917 59.9435131,6.80097574 59.5363642,6.80097574 C59.5062357,6.80097574 59.475923,6.80327084 59.4426619,6.80832005 C59.2004364,6.84853015 59.010452,7.02984282 58.9063384,7.28689368 C58.9976451,6.72285064 59.3183705,6.30523479 59.6988921,6.30523479 C60.1457516,6.30523479 60.5232327,6.90526495 60.5232327,7.61545977 C60.5232327,7.70496856 60.516691,7.79401832 60.5032392,7.88912714 Z M63.9754758,8.31206762 C64.0163841,8.18225693 64.0384968,8.041797 64.0384968,7.89601243 C64.0384968,7.25210001 63.6284917,6.74763769 63.1050672,6.74763769 C62.5935282,6.74763769 62.17735,7.26274926 62.17735,7.89601243 C62.17735,7.93916026 62.1794691,7.98239988 62.1835231,8.02554771 C62.1564351,8.01517387 62.1299921,8.00507544 62.104194,7.99534423 C62.0453191,7.81770372 62.0155592,7.63235169 62.0155592,7.44314389 C62.0155592,6.67318474 62.509408,6.04671506 63.1165842,6.04671506 C63.7236681,6.04671506 64.2176091,6.67318474 64.2176091,7.44314389 C64.2176091,7.76344763 64.1288822,8.06915455 63.9754758,8.31206762 Z M63.527787,9.81067417 C63.5190341,9.84959901 63.5004227,9.86685814 63.2945909,9.97353425 C63.1906615,10.0274231 63.0613026,10.0945318 62.8994196,10.1927619 L62.791252,10.2580345 C62.3565544,10.5205936 61.3387283,11.1355878 61.0624125,11.1716667 C60.8747315,11.196821 60.7586401,11.1242959 60.4976189,10.9475734 C60.438744,10.9076387 60.3760915,10.8652253 60.3092929,10.8225365 C59.8387545,10.5149017 59.5360878,10.1760536 59.5019053,10.0435806 C59.6553118,9.92542902 60.0355569,9.62972872 60.2302403,9.45465872 C60.6254115,9.08854484 61.0230704,8.84251044 61.2198728,8.84251044 C61.2302842,8.84251044 61.2396821,8.84324487 61.2494485,8.84508095 C61.4807098,8.88575007 62.0511237,9.11259746 62.4677626,9.27821166 C62.6603268,9.3547761 62.8266322,9.42087489 62.9436449,9.46273746 C63.312281,9.58887599 63.5044766,9.75026721 63.527787,9.81067417 Z M66.8397992,26.9201634 C67.0477501,25.9855081 67.2873036,24.7140244 67.2485144,23.9644457 C67.2395772,23.7941495 67.2244669,23.6087974 67.2098173,23.4295963 C67.1824529,23.0945121 67.1418209,22.596476 67.1837428,22.4487636 C67.192035,22.4449078 67.2012486,22.4416029 67.2114757,22.438757 C67.2132263,22.8672975 67.3066522,23.7220834 67.9926967,24.0201706 C68.1971464,24.1090368 68.4308033,24.1540207 68.6871256,24.1540207 C69.3743679,24.1540207 70.1368852,23.8181103 70.4492262,23.5068951 C70.6331296,23.3236546 70.787826,23.0994695 70.8961779,22.9219208 C70.9198568,22.9910491 70.9344143,23.0813841 70.926767,23.1977915 C70.8859508,23.8298612 71.1942378,24.6683978 71.7809597,24.9774097 L71.8663697,25.0221182 C72.0753342,25.1313648 72.6303613,25.4217405 72.6392985,25.5594463 C72.6392064,25.5595381 72.6345996,25.5756956 72.6036419,25.6043384 C72.4646087,25.7309359 71.9752745,25.9799081 71.5020641,26.2207096 C70.6626132,26.6477813 69.7111249,27.1318632 69.2837982,27.5796825 C68.6821502,28.2105588 68.0016339,28.6343255 67.5907074,28.6343255 C67.5412304,28.6343255 67.4961759,28.6280828 67.4560967,28.6154139 C67.00979,28.47679 66.6424439,27.8351727 66.8397992,26.9201634 Z M51.6271352,24.5357412 C51.58162,24.3234906 51.545687,24.1559486 51.5842919,23.9936393 C51.6123013,23.8733762 52.2081447,23.7444836 52.4626242,23.689493 C52.8203883,23.6121024 53.1904064,23.5321412 53.4323554,23.3858058 C53.7595303,23.1883357 53.9367078,22.8241497 54.0929704,22.5028361 C54.2061134,22.2704805 54.3229418,22.0302297 54.461975,21.9513702 C54.4698066,21.94678 54.4817843,21.9414554 54.504634,21.9414554 C54.7651024,21.9414554 55.3116531,22.4870458 55.6265738,22.9753507 C55.7064557,23.0984597 55.8544261,23.3451367 56.0256148,23.6307386 C56.5376144,24.484331 57.2386771,25.6534535 57.6048255,26.0452724 C57.9347644,26.3975239 58.4688767,27.0747611 58.3374908,27.6556043 C58.2413008,28.1062695 57.7292091,28.4727506 57.6084188,28.5538135 C57.5645621,28.5637283 57.510294,28.5687775 57.4464437,28.5687775 C56.7456575,28.5687775 55.3584581,27.9878425 54.6131702,27.6757093 L54.5028834,27.629532 C54.0867052,27.4556554 53.4072945,27.3461334 52.7502728,27.2401917 C52.2274932,27.155824 51.5115966,27.0404265 51.3929255,26.9361373 C51.2967355,26.8286349 51.4083122,26.4791376 51.5067134,26.1707683 C51.577566,25.9491538 51.650722,25.7200113 51.6908011,25.4801277 C51.747649,25.0974892 51.6807583,24.7859986 51.6271352,24.5357412 Z" id="XMLID_92_"></path>
                </g>
            </g>
        </g>
    </g>
</svg>