<?xml version="1.0" encoding="UTF-8"?>
<svg width="15px" height="12px" viewBox="0 0 15 12" version="1.1" xmlns="http://www.w3.org/2000/svg" xmlns:xlink="http://www.w3.org/1999/xlink">
    <!-- Generator: Sketch 39.1 (31720) - http://www.bohemiancoding.com/sketch -->
    <title>Shape</title>
    <desc>Created with Sketch.</desc>
    <defs></defs>
    <g id="Page-1" stroke="none" stroke-width="1" fill="none" fill-rule="evenodd">
        <g id="webLogin" transform="translate(-465.000000, -468.000000)" fill="#FF6A00">
            <g id="Group-14" transform="translate(447.000000, 311.000000)">
                <g id="Group-16" transform="translate(0.000000, 135.000000)">
                    <g id="Group-17">
                        <path d="M31.5,22 L19.5,22 C18.675,22 18.0075,22.675 18.0075,23.5 L18,32.5 C18,33.325 18.675,34 19.5,34 L31.5,34 C32.325,34 33,33.325 33,32.5 L33,23.5 C33,22.675 32.325,22 31.5,22 L31.5,22 Z M31,24.4285714 L25,28 L19,24.4285714 L19,23 L25,26.5714286 L31,23 L31,24.4285714 L31,24.4285714 Z" id="Shape"></path>
                    </g>
                </g>
            </g>
        </g>
    </g>
</svg>