<?xml version="1.0" encoding="UTF-8"?>
<svg width="25px" height="30px" viewBox="0 0 25 30" version="1.1" xmlns="http://www.w3.org/2000/svg" xmlns:xlink="http://www.w3.org/1999/xlink">
    <!-- Generator: Sketch 39.1 (31720) - http://www.bohemiancoding.com/sketch -->
    <title>Shape</title>
    <desc>Created with Sketch.</desc>
    <defs></defs>
    <g id="Page-1" stroke="none" stroke-width="1" fill="none" fill-rule="evenodd">
        <g id="main" transform="translate(-119.000000, -428.000000)" fill="#fc8f42">
            <g id="Group-10" transform="translate(81.000000, 217.000000)">
                <g id="Group-9" transform="translate(38.000000, 209.000000)">
                    <path d="M5,24.4921916 C5,25.2429725 5.5,25.743493 6.25,25.743493 L7.5,25.743493 L7.5,30.1230479 C7.5,31.124089 8.375,32 9.375,32 C10.375,32 11.25,31.124089 11.25,30.1230479 L11.25,25.743493 L13.75,25.743493 L13.75,30.1230479 C13.75,31.124089 14.625,32 15.625,32 C16.625,32 17.5,31.124089 17.5,30.1230479 L17.5,25.743493 L18.75,25.743493 C19.5,25.743493 20,25.2429725 20,24.4921916 L20,11.9791777 L5,11.9791777 L5,24.4921916 L5,24.4921916 Z M1.875,11.9791777 C0.875,11.9791777 0,12.8551377 0,13.8561298 L0,22.6152395 C0,23.6162807 0.875,24.4921916 1.875,24.4921916 C2.875,24.4921916 3.75,23.6162807 3.75,22.6152395 L3.75,13.8561298 C3.75,12.8550887 2.875,11.9791777 1.875,11.9791777 Z M23.125,11.9791777 C22.125,11.9791777 21.25,12.8551377 21.25,13.8561298 L21.25,22.6152395 C21.25,23.6162807 22.125,24.4921916 23.125,24.4921916 C24.125,24.4921916 25,23.6162807 25,22.6152395 L25,13.8561298 C25,12.8550887 24.125,11.9791777 23.125,11.9791777 Z M16.875,4.7216296 L18.5,3.09493779 C18.75,2.84467751 18.75,2.46928709 18.5,2.21902681 C18.249951,1.96871747 17.875,1.96871747 17.624951,2.21902681 L15.749951,4.09597891 C14.874951,3.47032821 13.749951,3.22001886 12.499951,3.22001886 C11.249951,3.22001886 10.124951,3.47032821 9.12495098,3.9707997 L7.37495098,2.0938476 C7.12495098,1.96871747 6.62495098,1.96871747 6.37495098,2.0938476 C6.24995098,2.34415695 6.24995098,2.84467751 6.37495098,3.09488872 L7.99995098,4.72158053 C6.24995098,6.09801207 4.99995098,8.22517537 4.99995098,10.7277782 L19.999951,10.7277782 C20,8.22527351 18.75,5.972931 16.875,4.7216296 Z M10,8.22527351 L8.75,8.22527351 L8.75,6.97397211 L10,6.97397211 L10,8.22527351 Z M16.25,8.22527351 L15,8.22527351 L15,6.97397211 L16.25,6.97397211 L16.25,8.22527351 Z" id="Shape"></path>
                </g>
            </g>
        </g>
    </g>
</svg>