<?xml version="1.0" encoding="UTF-8"?>
<svg width="14px" height="17px" viewBox="0 0 14 17" version="1.1" xmlns="http://www.w3.org/2000/svg" xmlns:xlink="http://www.w3.org/1999/xlink">
    <!-- Generator: Sketch 39.1 (31720) - http://www.bohemiancoding.com/sketch -->
    <title>Shape</title>
    <desc>Created with Sketch.</desc>
    <defs></defs>
    <g id="Page-1" stroke="none" stroke-width="1" fill="none" fill-rule="evenodd">
        <g id="webLogin" transform="translate(-467.000000, -530.000000)" fill="#FF6A00">
            <g id="Group-14" transform="translate(447.000000, 311.000000)">
                <g id="Group-16" transform="translate(0.000000, 135.000000)">
                    <g id="Group-17">
                        <path d="M32.1428571,89.6666667 L31.3333333,89.6666667 L31.3333333,88.047619 C31.3333333,85.8133333 29.52,84 27.2857143,84 C25.0514286,84 23.2380952,85.8133333 23.2380952,88.047619 L23.2380952,89.6666667 L22.4285714,89.6666667 C21.5380952,89.6666667 20.8095238,90.3952381 20.8095238,91.2857143 L20.8095238,99.3809524 C20.8095238,100.271429 21.5380952,101 22.4285714,101 L32.1428571,101 C33.0333333,101 33.7619048,100.271429 33.7619048,99.3809524 L33.7619048,91.2857143 C33.7619048,90.3952381 33.0333333,89.6666667 32.1428571,89.6666667 L32.1428571,89.6666667 Z M27.2857143,96.952381 C26.3952381,96.952381 25.6666667,96.2238095 25.6666667,95.3333333 C25.6666667,94.4428571 26.3952381,93.7142857 27.2857143,93.7142857 C28.1761905,93.7142857 28.9047619,94.4428571 28.9047619,95.3333333 C28.9047619,96.2238095 28.1761905,96.952381 27.2857143,96.952381 L27.2857143,96.952381 Z M29.7952381,89.6666667 L24.7761905,89.6666667 L24.7761905,88.047619 C24.7761905,86.6633333 25.9014286,85.5380952 27.2857143,85.5380952 C28.67,85.5380952 29.7952381,86.6633333 29.7952381,88.047619 L29.7952381,89.6666667 L29.7952381,89.6666667 Z" id="Shape"></path>
                    </g>
                </g>
            </g>
        </g>
    </g>
</svg>