<?xml version="1.0" encoding="UTF-8"?>
<svg width="24px" height="29px" viewBox="0 0 24 29" version="1.1" xmlns="http://www.w3.org/2000/svg" xmlns:xlink="http://www.w3.org/1999/xlink">
    <!-- Generator: Sketch 39.1 (31720) - http://www.bohemiancoding.com/sketch -->
    <title>Apple_3_</title>
    <desc>Created with Sketch.</desc>
    <defs></defs>
    <g id="Page-1" stroke="none" stroke-width="1" fill="none" fill-rule="evenodd">
        <g id="main" transform="translate(-216.000000, -426.000000)" fill="#fc8f42">
            <g id="Group-10" transform="translate(81.000000, 217.000000)">
                <g id="Group-9" transform="translate(38.000000, 209.000000)">
                    <path d="M110.525223,2.19437496 C111.590328,0.966699166 113.38648,0.057981329 114.862061,0 C115.056841,1.70013872 114.366509,3.39912509 113.330979,4.63165288 C112.296686,5.85453733 110.615188,6.8139585 108.955903,6.68586586 C108.735258,5.01593081 109.569882,3.28310178 110.525223,2.19437496 Z M118.959754,25.3997643 C117.724555,27.1675884 116.453532,28.9329864 114.438035,28.9631901 C112.468079,28.9982457 111.833247,27.8116299 109.578483,27.8116299 C107.322542,27.8116299 106.614947,28.9329864 104.749805,28.9982457 C102.811899,29.067144 101.340031,27.0938381 100.098645,25.326014 C97.5677973,21.7287456 95.6348414,15.1528381 98.2347414,10.7181155 C99.5229662,8.51045823 101.82822,7.11478213 104.33073,7.08093948 C106.230398,7.04224482 108.030262,8.34124493 109.197646,8.34124493 C110.357667,8.34124493 112.54703,6.78248119 114.836259,7.01568016 C115.796549,7.05194881 118.497552,7.39389309 120.232015,9.88430034 C120.092736,9.97127234 117.008359,11.735518 117.041648,15.4101151 C117.087249,19.798865 120.960586,21.2598004 121,21.2730827 C120.960524,21.3746714 120.376182,23.3576207 118.959754,25.3997643 Z" id="Apple_3_"></path>
                </g>
            </g>
        </g>
    </g>
</svg>