<?xml version="1.0" encoding="UTF-8"?>
<svg width="101px" height="60px" viewBox="0 0 101 60" version="1.1" xmlns="http://www.w3.org/2000/svg" xmlns:xlink="http://www.w3.org/1999/xlink">
    <!-- Generator: Sketch 39.1 (31720) - http://www.bohemiancoding.com/sketch -->
    <title>Capa_1</title>
    <desc>Created with Sketch.</desc>
    <defs></defs>
    <g id="Page-1" stroke="none" stroke-width="1" fill="none" fill-rule="evenodd">
        <g id="features" transform="translate(-257.000000, -1658.000000)" fill="#FF6A00">
            <g id="group" transform="translate(257.000000, 1658.000000)">
                <g id="Capa_1">
                    <g id="Group">
                        <path d="M50.3554192,29.3064164 L50.3554192,29.3064164 L50.4380368,29.3064164 L50.5206544,29.3064164 L50.5206544,29.3064164 C63.7601227,29.1630717 61.8392638,11.6340614 61.8392638,11.6340614 C61.3022495,-0.0792491468 51.4087935,0.0231399317 50.4380368,0.0640955631 C49.4672802,0.0231399317 39.5944785,-0.0792491468 39.0368098,11.6340614 C39.0368098,11.6545392 37.1159509,29.1835495 50.3554192,29.3064164 Z" id="Shape"></path>
                        <path d="M81.3370143,35.2859386 L81.3370143,35.2859386 L81.3989775,35.2859386 L81.4609407,35.2859386 L81.4609407,35.2859386 C92.097955,35.1835495 90.5695297,21.0743345 90.5695297,21.0743345 C90.1357873,11.6545392 82.1838446,11.7364505 81.3989775,11.7569283 C80.6141104,11.7159727 72.6621677,11.6545392 72.2284254,21.0743345 C72.2284254,21.0948123 70.6793456,35.1835495 81.3370143,35.2859386 Z" id="Shape"></path>
                        <path d="M100.855419,49.5794539 C100.772802,46.5487372 100.173824,44.4395222 97.0550102,42.4941297 C92.9034765,39.9139249 88.2562372,37.681843 88.2562372,37.681843 L84.5591002,49.2722867 L82.4110429,43.1903754 C86.1907975,37.9480546 82.1425358,37.681843 81.4196319,37.681843 L81.4196319,37.681843 L81.3989775,37.681843 L81.3783231,37.681843 L81.3783231,37.681843 C80.6554192,37.681843 76.6071575,37.9480546 80.3869121,43.1903754 L78.2388548,49.2518089 L74.5417178,37.6613652 C74.5417178,37.6613652 73.2198364,38.2961775 71.3609407,39.2791126 C70.9271984,38.9309898 70.4521472,38.5828669 69.9151329,38.2552218 C64.7515337,35.0402048 58.9889571,32.2552218 58.9889571,32.2552218 L54.403681,46.6511263 L51.7186094,39.0948123 C56.4278119,32.5828669 51.3881391,32.2552218 50.4793456,32.234744 L50.4793456,32.234744 L50.4586912,32.234744 L50.4380368,32.234744 L50.4380368,32.234744 C49.5292434,32.234744 44.4895706,32.5623891 49.198773,39.0948123 L46.5137014,46.6511263 L41.9284254,32.2552218 C41.9284254,32.2552218 36.1658487,35.0402048 31.0022495,38.2552218 C30.4445808,38.6033447 29.9695297,38.9514676 29.5357873,39.2995904 C27.6562372,38.2961775 26.3137014,37.6613652 26.3137014,37.6613652 L22.6165644,49.2518089 L20.4685072,43.1903754 C24.2482618,37.9480546 20.2,37.681843 19.4770961,37.681843 L19.4770961,37.681843 L19.4564417,37.681843 L19.4357873,37.681843 L19.4357873,37.681843 C18.7128834,37.681843 14.6646217,37.9480546 18.4443763,43.1903754 L16.296319,49.2518089 L12.599182,37.6613652 C12.599182,37.6613652 7.95194274,39.8934471 3.800409,42.4736519 C0.660940695,44.4190444 0.0826175869,46.5282594 0,49.5589761 L0,59.8183618 L19.4151329,59.8183618 L26.2104294,59.8183618 L38.8715746,59.8183618 L50.396728,59.8183618 L61.9218814,59.8183618 L74.6243354,59.8183618 L81.3783231,59.8183618 L100.876074,59.8183618 L100.855419,49.5794539 Z" id="Shape"></path>
                        <path d="M19.3325153,35.2859386 L19.3325153,35.2859386 L19.3944785,35.2859386 L19.4564417,35.2859386 L19.4564417,35.2859386 C30.1141104,35.1835495 28.5650307,21.0743345 28.5650307,21.0743345 C28.1312883,11.6545392 20.1793456,11.7364505 19.3944785,11.7569283 C18.6096115,11.7159727 10.6576687,11.6545392 10.2239264,21.0743345 C10.2239264,21.0948123 8.69550102,35.1835495 19.3325153,35.2859386 Z" id="Shape"></path>
                    </g>
                </g>
            </g>
        </g>
    </g>
</svg>