<?xml version="1.0" encoding="UTF-8"?>
<svg width="74px" height="73px" viewBox="0 0 74 73" version="1.1" xmlns="http://www.w3.org/2000/svg" xmlns:xlink="http://www.w3.org/1999/xlink">
    <!-- Generator: Sketch 39.1 (31720) - http://www.bohemiancoding.com/sketch -->
    <title>Group 9</title>
    <desc>Created with Sketch.</desc>
    <defs></defs>
    <g id="Page-1" stroke="none" stroke-width="1" fill="none" fill-rule="evenodd">
        <g id="features" transform="translate(-264.000000, -2257.000000)" fill="#FF6A00">
            <g id="Group-9" transform="translate(220.000000, 2206.000000)">
                <g id="Group">
                    <g id="Group-9" transform="translate(44.000000, 51.000000)">
                        <path d="M53,49.6316658 L60.6795698,48.5555556 L60.6829268,56.1772467 L53.0070153,56.2222222 L53,49.6316658 Z M60.6769609,58.8288607 L60.6829268,66.4444444 L53.0004308,65.360429 L53,58.7777778 L60.6769609,58.8288607 Z M63.2439024,47.6847304 L74,46 L74,56.1305818 L63.2439024,56.2222222 L63.2439024,47.6847304 Z M74,58.7968809 L73.9974809,69 L63.2589488,67.3517051 L63.2439024,58.7777778 L74,58.7968809 Z" id="Shape"></path>
                        <path d="M5,22.4921916 C5,23.2429725 5.5,23.743493 6.25,23.743493 L7.5,23.743493 L7.5,28.1230479 C7.5,29.124089 8.375,30 9.375,30 C10.375,30 11.25,29.124089 11.25,28.1230479 L11.25,23.743493 L13.75,23.743493 L13.75,28.1230479 C13.75,29.124089 14.625,30 15.625,30 C16.625,30 17.5,29.124089 17.5,28.1230479 L17.5,23.743493 L18.75,23.743493 C19.5,23.743493 20,23.2429725 20,22.4921916 L20,9.97917769 L5,9.97917769 L5,22.4921916 L5,22.4921916 Z M1.875,9.97917769 C0.875,9.97917769 0,10.8551377 0,11.8561298 L0,20.6152395 C0,21.6162807 0.875,22.4921916 1.875,22.4921916 C2.875,22.4921916 3.75,21.6162807 3.75,20.6152395 L3.75,11.8561298 C3.75,10.8550887 2.875,9.97917769 1.875,9.97917769 Z M23.125,9.97917769 C22.125,9.97917769 21.25,10.8551377 21.25,11.8561298 L21.25,20.6152395 C21.25,21.6162807 22.125,22.4921916 23.125,22.4921916 C24.125,22.4921916 25,21.6162807 25,20.6152395 L25,11.8561298 C25,10.8550887 24.125,9.97917769 23.125,9.97917769 Z M16.875,2.7216296 L18.5,1.09493779 C18.75,0.844677512 18.75,0.469287094 18.5,0.219026815 C18.249951,-0.0312825349 17.875,-0.0312825349 17.624951,0.219026815 L15.749951,2.09597891 C14.874951,1.47032821 13.749951,1.22001886 12.499951,1.22001886 C11.249951,1.22001886 10.124951,1.47032821 9.12495098,1.9707997 L7.37495098,0.0938476046 C7.12495098,-0.0312825349 6.62495098,-0.0312825349 6.37495098,0.0938476046 C6.24995098,0.344156954 6.24995098,0.844677512 6.37495098,1.09488872 L7.99995098,2.72158053 C6.24995098,4.09801207 4.99995098,6.22517537 4.99995098,8.72777815 L19.999951,8.72777815 C20,6.22527351 18.75,3.972931 16.875,2.7216296 Z M10,6.22527351 L8.75,6.22527351 L8.75,4.97397211 L10,4.97397211 L10,6.22527351 Z M16.25,6.22527351 L15,6.22527351 L15,4.97397211 L16.25,4.97397211 L16.25,6.22527351 Z" id="Shape"></path>
                        <path d="M14.5252227,46.194375 C15.5903284,44.9666992 17.3864801,44.0579813 18.8620605,44 C19.0568411,45.7001387 18.3665085,47.3991251 17.3309787,48.6316529 C16.2966864,49.8545373 14.615188,50.8139585 12.9559025,50.6858659 C12.7352584,49.0159308 13.5698821,47.2831018 14.5252227,46.194375 Z M22.9597539,69.3997643 C21.7245554,71.1675884 20.4535317,72.9329864 18.4380353,72.9631901 C16.4680785,72.9982457 15.8332473,71.8116299 13.5784826,71.8116299 C11.3225424,71.8116299 10.6149468,72.9329864 8.74980524,72.9982457 C6.81189935,73.067144 5.34003136,71.0938381 4.09864548,69.326014 C1.56779731,65.7287456 -0.365158634,59.1528381 2.23474135,54.7181155 C3.52296615,52.5104582 5.8282203,51.1147821 8.33072999,51.0809395 C10.2303975,51.0422448 12.0302616,52.3412449 13.1976458,52.3412449 C14.3576668,52.3412449 16.5470302,50.7824812 18.8362589,51.0156802 C19.7965494,51.0519488 22.4975522,51.3938931 24.2320151,53.8843003 C24.0927358,53.9712723 21.0083594,55.735518 21.0416478,59.4101151 C21.0872492,63.798865 24.960586,65.2598004 25,65.2730827 C24.9605241,65.3746714 24.3761824,67.3576207 22.9597539,69.3997643 Z" id="Apple_3_"></path>
                        <path d="M73.2553197,22.4816687 C72.4312554,22.1453911 72.0787432,21.6991325 72.1128335,21.0332789 C72.1479373,20.2560673 71.7054082,19.6867914 71.495246,19.4618719 C71.6222094,18.9786163 71.993241,17.3068676 71.4956146,15.8548056 C70.9608573,14.3005659 69.3282077,11.926793 67.6435935,9.59341373 C66.9539556,8.63516482 66.9213395,7.59355799 66.8836559,6.38743861 C66.8475386,5.23704418 66.8068145,3.93306186 66.1629682,2.48347858 C65.4629191,0.90509446 64.0582139,0 62.308828,0 C61.2681521,0 60.1999275,0.324067699 59.3778903,0.889028781 C57.6945659,2.04658391 57.9170743,4.5703644 58.0643076,6.24036879 C58.0844854,6.46905226 58.1034654,6.68506679 58.1145217,6.86950078 C58.2125544,8.50507872 58.1233668,9.36711716 58.0067226,9.62912544 C57.9312633,9.80033967 57.559771,10.2876347 57.1666268,10.8035725 C56.7600307,11.3371366 56.2990744,11.9419406 55.9212247,12.5055246 C55.4704033,13.1836799 55.1064662,14.2202375 54.7545068,15.2226441 C54.4969867,15.9561571 54.2537477,16.649001 54.0169582,17.0630365 C53.5681639,17.8595269 53.6798327,18.6022203 53.7730743,18.9454751 C53.6031756,19.0630758 53.3577253,19.2946052 53.1505115,19.7310409 C52.9000859,20.2635034 52.3919559,20.5496561 51.3353405,20.7520836 C50.8497839,20.8510482 50.5149617,21.0544856 50.3399034,21.356704 C50.0851474,21.7965364 50.2239042,22.3491957 50.350499,22.7268769 C50.5375351,23.2821068 50.420983,23.633532 50.2090703,24.271569 C50.1602382,24.4188224 50.1048645,24.5855383 50.0487537,24.7694214 C49.9603953,25.0596135 49.9922743,25.3234579 50.1432852,25.5536102 C50.5423261,26.1614437 51.7067407,26.3758057 52.9054298,26.5168165 C53.6211421,26.6014597 54.4044822,26.8866943 55.1621164,27.1626568 C55.904456,27.4329274 56.6720408,27.7124702 57.3697866,27.797297 C57.4758351,27.8106086 57.5808701,27.8173103 57.6821276,27.8173103 C58.7356104,27.8173103 59.2115849,27.1207942 59.3625036,26.8346415 C59.7409061,26.7577099 61.0460123,26.5113083 62.3911054,26.4782589 C63.7340795,26.4400685 65.0334732,26.70428 65.4015565,26.7864445 C65.5172793,27.007141 65.8223415,27.5112361 66.3086352,27.7709493 C66.5759217,27.9165503 66.9478747,28 67.3288569,28 L67.3289491,28 C67.7358216,28 68.509856,27.9041567 69.1224681,27.2619886 C69.7335139,26.6167909 71.2602071,25.7931265 72.3750525,25.1917193 C72.6238196,25.057502 72.8565551,24.9319143 73.0606363,24.8185365 C73.6868846,24.4726195 74.028617,23.9783474 73.9981199,23.4625014 C73.9726904,23.0340527 73.6880824,22.6582076 73.2553197,22.4816687 Z M59.3916186,22.3574581 C59.3136715,21.810307 58.607265,21.2676542 57.7891896,20.6393485 C57.1202824,20.1255221 56.3620954,19.5432101 56.1532231,19.0500397 C55.721566,18.0326691 56.0618242,16.2437786 56.6550878,15.3226185 C56.9482645,14.8613958 57.1877259,14.161942 57.4193558,13.4855311 C57.6694128,12.7551394 57.9280385,11.9999607 58.2172534,11.6693749 C58.6752613,11.1532535 59.098534,10.1490108 59.1735327,9.35756956 C59.6024257,9.765546 60.2677396,10.2832281 60.8823787,10.2832281 C60.9770024,10.2832281 61.068862,10.2709264 61.1566676,10.2462311 C61.5771762,10.1252336 62.195685,9.76912635 62.7938318,9.4248618 C63.3095169,9.12796805 63.9454394,8.76185418 64.1847166,8.72852937 C64.5949981,9.31552338 66.9790166,14.5723054 67.2226242,16.260487 C67.4153726,17.5962334 67.2117521,18.7004505 67.109389,19.1329386 C67.0270195,19.1217385 66.9288025,19.1126499 66.8256102,19.1126499 C66.1615862,19.1126499 65.9857907,19.4738064 65.9399992,19.6894537 C65.8222494,20.2497328 65.809811,22.0412855 65.8085211,22.4438455 C65.5684148,22.7478082 64.3541547,24.1792143 62.6108498,24.4365406 C61.9007577,24.5393609 61.2376551,24.5915055 60.6400611,24.5915055 C60.1292592,24.5915055 59.8032821,24.5522135 59.6679344,24.5317412 L58.7919055,23.5330068 C59.1373233,23.3630778 59.4826489,23.0044918 59.3916186,22.3574581 Z M60.5032392,5.88912714 C60.4758748,5.90087804 60.4489711,5.91345517 60.4225281,5.92685854 C60.4198561,5.86773684 60.413683,5.8077889 60.404193,5.74765736 C60.3085559,5.19912917 59.9435131,4.80097574 59.5363642,4.80097574 C59.5062357,4.80097574 59.475923,4.80327084 59.4426619,4.80832005 C59.2004364,4.84853015 59.010452,5.02984282 58.9063384,5.28689368 C58.9976451,4.72285064 59.3183705,4.30523479 59.6988921,4.30523479 C60.1457516,4.30523479 60.5232327,4.90526495 60.5232327,5.61545977 C60.5232327,5.70496856 60.516691,5.79401832 60.5032392,5.88912714 Z M63.9754758,6.31206762 C64.0163841,6.18225693 64.0384968,6.041797 64.0384968,5.89601243 C64.0384968,5.25210001 63.6284917,4.74763769 63.1050672,4.74763769 C62.5935282,4.74763769 62.17735,5.26274926 62.17735,5.89601243 C62.17735,5.93916026 62.1794691,5.98239988 62.1835231,6.02554771 C62.1564351,6.01517387 62.1299921,6.00507544 62.104194,5.99534423 C62.0453191,5.81770372 62.0155592,5.63235169 62.0155592,5.44314389 C62.0155592,4.67318474 62.509408,4.04671506 63.1165842,4.04671506 C63.7236681,4.04671506 64.2176091,4.67318474 64.2176091,5.44314389 C64.2176091,5.76344763 64.1288822,6.06915455 63.9754758,6.31206762 Z M63.527787,7.81067417 C63.5190341,7.84959901 63.5004227,7.86685814 63.2945909,7.97353425 C63.1906615,8.02742313 63.0613026,8.09453177 62.8994196,8.19276192 L62.791252,8.25803448 C62.3565544,8.52059358 61.3387283,9.13558777 61.0624125,9.1716667 C60.8747315,9.19682096 60.7586401,9.1242959 60.4976189,8.94757343 C60.438744,8.90763874 60.3760915,8.86522535 60.3092929,8.82253654 C59.8387545,8.51490174 59.5360878,8.17605361 59.5019053,8.04358061 C59.6553118,7.92542902 60.0355569,7.62972872 60.2302403,7.45465872 C60.6254115,7.08854484 61.0230704,6.84251044 61.2198728,6.84251044 C61.2302842,6.84251044 61.2396821,6.84324487 61.2494485,6.84508095 C61.4807098,6.88575007 62.0511237,7.11259746 62.4677626,7.27821166 C62.6603268,7.3547761 62.8266322,7.42087489 62.9436449,7.46273746 C63.312281,7.58887599 63.5044766,7.75026721 63.527787,7.81067417 Z M66.8397992,24.9201634 C67.0477501,23.9855081 67.2873036,22.7140244 67.2485144,21.9644457 C67.2395772,21.7941495 67.2244669,21.6087974 67.2098173,21.4295963 C67.1824529,21.0945121 67.1418209,20.596476 67.1837428,20.4487636 C67.192035,20.4449078 67.2012486,20.4416029 67.2114757,20.438757 C67.2132263,20.8672975 67.3066522,21.7220834 67.9926967,22.0201706 C68.1971464,22.1090368 68.4308033,22.1540207 68.6871256,22.1540207 C69.3743679,22.1540207 70.1368852,21.8181103 70.4492262,21.5068951 C70.6331296,21.3236546 70.787826,21.0994695 70.8961779,20.9219208 C70.9198568,20.9910491 70.9344143,21.0813841 70.926767,21.1977915 C70.8859508,21.8298612 71.1942378,22.6683978 71.7809597,22.9774097 L71.8663697,23.0221182 C72.0753342,23.1313648 72.6303613,23.4217405 72.6392985,23.5594463 C72.6392064,23.5595381 72.6345996,23.5756956 72.6036419,23.6043384 C72.4646087,23.7309359 71.9752745,23.9799081 71.5020641,24.2207096 C70.6626132,24.6477813 69.7111249,25.1318632 69.2837982,25.5796825 C68.6821502,26.2105588 68.0016339,26.6343255 67.5907074,26.6343255 C67.5412304,26.6343255 67.4961759,26.6280828 67.4560967,26.6154139 C67.00979,26.47679 66.6424439,25.8351727 66.8397992,24.9201634 Z M51.6271352,22.5357412 C51.58162,22.3234906 51.545687,22.1559486 51.5842919,21.9936393 C51.6123013,21.8733762 52.2081447,21.7444836 52.4626242,21.689493 C52.8203883,21.6121024 53.1904064,21.5321412 53.4323554,21.3858058 C53.7595303,21.1883357 53.9367078,20.8241497 54.0929704,20.5028361 C54.2061134,20.2704805 54.3229418,20.0302297 54.461975,19.9513702 C54.4698066,19.94678 54.4817843,19.9414554 54.504634,19.9414554 C54.7651024,19.9414554 55.3116531,20.4870458 55.6265738,20.9753507 C55.7064557,21.0984597 55.8544261,21.3451367 56.0256148,21.6307386 C56.5376144,22.484331 57.2386771,23.6534535 57.6048255,24.0452724 C57.9347644,24.3975239 58.4688767,25.0747611 58.3374908,25.6556043 C58.2413008,26.1062695 57.7292091,26.4727506 57.6084188,26.5538135 C57.5645621,26.5637283 57.510294,26.5687775 57.4464437,26.5687775 C56.7456575,26.5687775 55.3584581,25.9878425 54.6131702,25.6757093 L54.5028834,25.629532 C54.0867052,25.4556554 53.4072945,25.3461334 52.7502728,25.2401917 C52.2274932,25.155824 51.5115966,25.0404265 51.3929255,24.9361373 C51.2967355,24.8286349 51.4083122,24.4791376 51.5067134,24.1707683 C51.577566,23.9491538 51.650722,23.7200113 51.6908011,23.4801277 C51.747649,23.0974892 51.6807583,22.7859986 51.6271352,22.5357412 Z" id="XMLID_92_"></path>
                    </g>
                </g>
            </g>
        </g>
    </g>
</svg>