<?xml version="1.0" encoding="UTF-8"?>
<svg width="67px" height="97px" viewBox="0 0 67 97" version="1.1" xmlns="http://www.w3.org/2000/svg" xmlns:xlink="http://www.w3.org/1999/xlink">
    <!-- Generator: Sketch 39.1 (31720) - http://www.bohemiancoding.com/sketch -->
    <title>Group 11</title>
    <desc>Created with Sketch.</desc>
    <defs></defs>
    <g id="Page-1" stroke="none" stroke-width="1" fill="none" fill-rule="evenodd">
        <g id="features" transform="translate(-275.000000, -1030.000000)">
            <g id="Group-9" transform="translate(220.000000, 972.000000)">
                <g id="Group">
                    <g id="Group-11" transform="translate(38.000000, 58.000000)">
                        <g id="rocket" transform="translate(53.000000, 53.000000) rotate(-21.000000) translate(-53.000000, -53.000000) translate(12.000000, 12.000000)">
                            <g id="Layer_1" transform="translate(0.530076, 0.484647)">
                                <path d="M40.0156029,51.3692395 C36.6776169,54.4983643 27.2895312,77.4452802 27.2895312,77.4452802 C25.8291623,79.9485801 27.9154036,81.826055 32.7137585,79.3227551 L49.6123127,70.1439888 C58.7917742,65.137389 60.4607672,63.6771307 60.4607672,53.4553227 L58.7917742,41.1474315 C58.1659019,36.975265 55.03654,36.1408317 51.9071781,39.4785649 L40.0156029,51.3692395 Z" id="Shape" stroke="#FF6A00" stroke-width="4" fill="#FFFBDB"></path>
                                <path d="M29.5843966,40.9388232 C26.2464106,44.2765564 3.50638083,53.663931 3.50638083,53.663931 C1.00289132,55.1241893 -0.874725816,53.0381061 1.6287637,48.2401146 L10.5996011,31.1342319 C15.6065801,21.9554655 17.066949,20.2865989 27.2895312,20.2865989 L39.5983546,21.9554655 C43.7708372,22.5812905 44.6053337,25.7104154 41.2673476,28.8395403 L29.5843966,40.9388232 Z" id="Shape" stroke="#FF6A00" stroke-width="4" fill="#FFFBDB"></path>
                                <path d="M64.0073774,45.945423 C47.7346956,62.2168724 22.6998004,57.8360976 22.6998004,57.8360976 C22.6998004,57.8360976 18.3186938,32.8030985 34.5913756,16.531649 C50.8640574,0.260199632 75.4817043,-1.40866697 78.8196903,1.72045791 C81.9490522,4.8495828 80.2800592,29.6739736 64.0073774,45.945423 Z" id="Shape" stroke="#FF6A00" stroke-width="5" fill="#FFFBDB"></path>
                                <path d="M16.8583249,66.5976472 C15.1893319,68.2665139 14.1462113,69.7267721 12.4772183,68.0579055 L12.4772183,68.0579055 C10.8082252,66.3890389 12.2685941,65.3459973 13.9375871,63.6771307 L34.5913756,37.1838733 C36.2603686,35.5150067 43.3535889,34.0547484 44.8139578,35.723615 L44.8139578,35.723615 C46.4829508,37.3924816 45.0225819,44.4851647 43.3535889,45.945423 L16.8583249,66.5976472 Z" id="Shape" stroke="#FF6A00" stroke-width="4" fill="#FFFBDB"></path>
                                <ellipse id="Oval" fill="#FF6A00" cx="53.441874" cy="26.7517204" rx="8.34496504" ry="8.34433303"></ellipse>
                                <ellipse id="Oval" fill="#FF6A00" cx="65.8885837" cy="15.0696542" rx="4.17248252" ry="4.17216652"></ellipse>
                            </g>
                        </g>
                    </g>
                </g>
            </g>
        </g>
    </g>
</svg>