<?xml version="1.0" encoding="UTF-8"?>
<svg width="64px" height="88px" viewBox="0 0 64 88" version="1.1" xmlns="http://www.w3.org/2000/svg" xmlns:xlink="http://www.w3.org/1999/xlink">
    <!-- Generator: Sketch 39.1 (31720) - http://www.bohemiancoding.com/sketch -->
    <title>Shape</title>
    <desc>Created with Sketch.</desc>
    <defs></defs>
    <g id="Page-1" stroke="none" stroke-width="1" fill="none" fill-rule="evenodd">
        <g id="features" transform="translate(-950.000000, -1319.000000)" fill="#FF6A00">
            <path d="M981.192308,1332.12217 L981.192308,1319.76923 L965.038462,1336.23982 L981.192308,1352.71041 L981.192308,1340.35747 C994.519231,1340.35747 1005.42308,1351.47511 1005.42308,1365.06335 C1005.42308,1369.181 1004.21154,1373.29864 1002.59615,1376.59276 L1008.65385,1382.76923 C1011.48077,1377.41629 1013.5,1371.65158 1013.5,1365.06335 C1013.5,1346.9457 998.961538,1332.12217 981.192308,1332.12217 Z M982.807692,1386.41176 C969.480769,1386.41176 958.576923,1375.29412 958.576923,1361.70588 C958.576923,1357.58824 959.788462,1353.47059 961.403846,1350.17647 L955.346154,1344 C952.519231,1349.35294 950.5,1355.11765 950.5,1361.70588 C950.5,1379.82353 965.038462,1394.64706 982.807692,1394.64706 L982.807692,1407 L998.961538,1390.52941 L982.807692,1374.05882 L982.807692,1386.41176 Z" id="Shape" transform="translate(982.000000, 1363.384615) rotate(-180.000000) translate(-982.000000, -1363.384615) "></path>
        </g>
    </g>
</svg>