<?xml version="1.0" encoding="UTF-8"?>
<svg width="79px" height="79px" viewBox="0 0 79 79" version="1.1" xmlns="http://www.w3.org/2000/svg" xmlns:xlink="http://www.w3.org/1999/xlink">
    <!-- Generator: Sketch 39.1 (31720) - http://www.bohemiancoding.com/sketch -->
    <title>Shape</title>
    <desc>Created with Sketch.</desc>
    <defs></defs>
    <g id="Page-1" stroke="none" stroke-width="1" fill="none" fill-rule="evenodd">
        <g id="features" transform="translate(-949.000000, -1975.000000)" fill="#FF6A00">
            <path d="M1019.22222,1975 L957.777778,1975 C952.95,1975 949,1978.95 949,1983.77778 L949,2045.22222 C949,2050.05 952.95,2054 957.777778,2054 L1019.22222,2054 C1024.05,2054 1028,2050.05 1028,2045.22222 L1028,1983.77778 C1028,1978.95 1024.05,1975 1019.22222,1975 L1019.22222,1975 Z M1015.33333,1980 L961.666667,1980 C957.45,1980 954,1983.45 954,1987.66667 L954,2041.33333 C954,2045.55 957.45,2049 961.666667,2049 L1015.33333,2049 C1019.55,2049 1023,2045.55 1023,2041.33333 L1023,1987.66667 C1023,1983.45 1019.55,1980 1015.33333,1980 L1015.33333,1980 Z M978,2035 L969,2035 L969,2006 L978,2006 L978,2035 L978,2035 Z M993,2034 L984,2034 L984,1995 L993,1995 L993,2034 L993,2034 Z M1008,2034 L999,2034 L999,2019 L1008,2019 L1008,2034 L1008,2034 Z" id="Shape"></path>
        </g>
    </g>
</svg>