<?xml version="1.0" encoding="UTF-8"?>
<svg width="88px" height="103px" viewBox="0 0 88 103" version="1.1" xmlns="http://www.w3.org/2000/svg" xmlns:xlink="http://www.w3.org/1999/xlink">
    <!-- Generator: Sketch 39.1 (31720) - http://www.bohemiancoding.com/sketch -->
    <title>Group 13</title>
    <desc>Created with Sketch.</desc>
    <defs></defs>
    <g id="Page-1" stroke="none" stroke-width="1" fill="none" fill-rule="evenodd">
        <g id="features" transform="translate(-949.000000, -734.000000)">
            <g id="Group-7" transform="translate(380.000000, 696.000000)">
                <g id="Group-13" transform="translate(572.000000, 41.000000)">
                    <path d="M40.5251502,3.00007635 L40.8529931,3.00007635 L42.2652478,3.70952738 C43.206751,4.18249473 43.8288092,4.49237665 44.1314226,4.63917312 C44.4340517,4.78595785 45.4638073,5.26299744 47.2206894,6.0702919 C48.9775871,6.87761377 49.8854665,7.28534694 49.9443276,7.29349143 C50.0031691,7.30164648 50.4697079,7.49328068 51.343944,7.86839403 C52.2181997,8.24351012 52.8906935,8.52077494 53.3614255,8.7001885 C53.8321575,8.87959032 54.5130572,9.12423806 55.4041248,9.43413171 C56.2951924,9.74400971 56.8584091,9.93972203 57.0937751,10.0212687 C57.3291489,10.1028153 57.623376,10.2006705 57.9764563,10.3148342 C58.329521,10.4289979 58.7834607,10.5676264 59.3382755,10.7307197 C59.8931059,10.893809 60.5992431,11.0895194 61.4566869,11.3178508 C62.3141307,11.5461782 63.1463372,11.7500448 63.9533063,11.9294505 C64.7603146,12.1088484 65.2815017,12.2230122 65.5168677,12.2719417 C65.7522415,12.3208673 66.5003887,12.4594958 67.7613093,12.6878272 C69.0222377,12.9161625 69.8124145,13.0547929 70.1318398,13.1037186 C70.4512729,13.1526481 71.2330438,13.27497 72.4771525,13.4706843 C73.721269,13.6663946 74.3517332,13.7642498 74.368545,13.7642498 C74.3853553,13.7642498 74.9906017,13.8784175 76.1842843,14.1067527 C77.3779652,14.3350841 77.9789989,14.4533259 77.9873852,14.4614783 L78,14.4737126 L77.9243466,18.1188777 C77.8739072,20.5489487 77.7478124,23.6884902 77.5460623,27.5375023 C77.3443121,31.3864753 77.1845956,34.077483 77.0669126,35.6105253 C76.9492218,37.1436067 76.814721,38.456513 76.6634104,39.5492442 C76.5120998,40.6419754 76.3355694,41.6776168 76.1338193,42.6561686 C75.9320692,43.6347204 75.7135151,44.6214167 75.4781569,45.6162575 C75.2427831,46.6110982 75.0326349,47.4836347 74.8477123,48.2338669 C74.662778,48.984099 74.4442239,49.7914013 74.1920499,50.6557737 C73.9398603,51.5201853 73.7885478,52.0420783 73.7381122,52.2214527 C73.6876727,52.4008545 73.6120154,52.6291741 73.5111404,52.9064115 C73.4102653,53.1836724 73.2925784,53.5261714 73.1580796,53.9339085 C73.0235848,54.3416417 72.8134366,54.9287689 72.527635,55.69529 C72.2418257,56.4618111 72.0064597,57.0734109 71.8215371,57.5300893 C71.6365988,57.9867285 71.4096192,58.5330941 71.1405981,59.1691861 C70.8716045,59.8052388 70.5269419,60.5717796 70.1066102,61.4688082 C69.6863138,62.3658369 69.434136,62.8877299 69.3500767,63.0344872 C69.2660174,63.1812719 68.9591912,63.7154012 68.4295982,64.636875 C67.9000051,65.5583489 67.5805799,66.1047145 67.4713224,66.2759718 C67.3620375,66.4472291 67.1014537,66.8794349 66.6895711,67.5725891 C66.277661,68.2657316 66.0086713,68.7060819 65.882602,68.8936399 C65.7565131,69.081198 65.5631708,69.3747713 65.3025753,69.77436 C65.0419798,70.1739487 64.8318316,70.4838306 64.6721307,70.7040058 C64.5124102,70.924177 64.327472,71.1851333 64.117316,71.4868746 C63.9071599,71.7885964 63.7054176,72.0658612 63.5120891,72.3186691 C63.3187489,72.5714731 63.1674363,72.7835037 63.0581514,72.954761 C62.9488704,73.1260066 62.7891558,73.3461817 62.5790076,73.6152864 C62.3688477,73.8843911 62.1671054,74.1534919 61.9737808,74.4225887 C61.7804366,74.6916934 61.5702884,74.9689582 61.3433362,75.2543832 C61.1163644,75.5397964 60.9230202,75.7844442 60.7633036,75.9883264 C60.6035832,76.1921852 60.2631333,76.5795375 59.741954,77.1503836 C59.2207473,77.7212022 58.6070753,78.3735831 57.9009382,79.1075263 C57.1948011,79.8414304 56.5727232,80.4693387 56.0347046,80.9912512 C55.4967252,81.5131246 55.1394635,81.8433873 54.9629194,81.9820393 C54.7863831,82.1206678 54.3744731,82.4713113 53.7271892,83.0339698 C53.0799053,83.5966282 52.6848071,83.9391272 52.5418946,84.0614668 C52.3989899,84.1837867 52.0459213,84.4855046 51.4826888,84.9666203 C50.9194564,85.4477361 50.549576,85.757618 50.3730476,85.8962661 C50.1965192,86.0348946 49.9947769,86.1979859 49.7678207,86.38554 C49.5408528,86.5730941 49.2256208,86.8299586 48.8221244,87.1561334 C48.4186399,87.4823199 48.1118137,87.7228759 47.9016459,87.8778011 C47.6914899,88.0327382 47.4897476,88.1713667 47.2964191,88.2936866 C47.1030749,88.4160027 46.7500064,88.6280333 46.2372134,88.9297786 C45.7244322,89.2315003 45.3881755,89.4353669 45.2284433,89.5413783 C45.0687267,89.6473858 44.8879934,89.7574695 44.6862433,89.8716293 C44.4844932,89.9858009 44.274345,90.116277 44.0557987,90.2630578 C43.8372367,90.4098347 43.6775202,90.5158442 43.576649,90.5810862 C43.47577,90.6463243 43.2572159,90.76049 42.9209866,90.9235832 C42.5847378,91.0866804 42.1812336,91.2742404 41.7104742,91.4862632 C41.2397422,91.6982782 40.9118915,91.8369048 40.7269218,91.9021429 L40.4495145,92 L40.1468952,91.9266057 C39.9451451,91.877684 39.7265909,91.7961373 39.4912328,91.6819658 C39.255859,91.567806 38.8607608,91.3720936 38.3059382,91.0948288 C37.7511077,90.8175718 37.4316825,90.6463223 37.3476624,90.5810803 C37.2635992,90.5158422 37.0492382,90.3731395 36.7045795,90.1529722 C36.3599247,89.9327893 36.0993409,89.7696921 35.9228282,89.6636807 C35.7462998,89.5576732 35.4016371,89.3538066 34.8888402,89.0520809 C34.376059,88.7503513 34.0229905,88.5383207 33.8296345,88.415989 C33.6362943,88.2936729 33.434552,88.1550464 33.2244077,88.0001094 C33.0142517,87.8451723 32.7746729,87.6616904 32.5056715,87.4496637 C32.23667,87.2376409 31.8794083,86.9481593 31.4338863,86.581219 C30.9883525,86.2142553 30.6016602,85.8962289 30.2738094,85.6271399 C29.9459704,85.3580352 29.4668129,84.950302 28.8363369,84.4039403 C28.2058727,83.8575552 27.8023882,83.5150562 27.6258833,83.3764433 C27.4493549,83.2378187 27.0626822,82.9116479 26.4658652,82.3979307 C25.8690247,81.8842018 25.5369808,81.5947202 25.4697334,81.529486 C25.402482,81.4642401 25.1040618,81.174739 24.5744726,80.6609827 C24.0448796,80.1472537 23.6749992,79.7803017 23.4648314,79.5601266 C23.2546753,79.3399554 22.7923297,78.8506795 22.0777945,78.0922989 C21.3632592,77.3339183 20.9345373,76.8690955 20.7916287,76.6978303 C20.648724,76.5265847 20.4385758,76.2737925 20.1611841,75.9394536 C19.8837806,75.6051109 19.6652265,75.3360101 19.5055217,75.1321513 C19.3458051,74.9282769 19.1860866,74.7162463 19.0263662,74.4960594 C18.8666457,74.2758921 18.6985213,74.0475725 18.5219928,73.8111005 C18.3454644,73.5746208 18.1857479,73.3625901 18.0428432,73.1750086 C17.8999346,72.9874545 17.7780447,72.820289 17.6771736,72.6735121 C17.5762985,72.5267234 17.4375948,72.3350873 17.2610625,72.0986036 C17.0845341,71.862116 16.9332235,71.6500853 16.8071306,71.4625116 C16.6810378,71.2749575 16.5129133,71.0303098 16.3027573,70.7285684 C16.0926013,70.4268388 15.9328828,70.1903552 15.8236018,70.0191174 C15.7143208,69.8478679 15.5377904,69.5787671 15.2940107,69.2118151 C15.0502309,68.8448553 14.8905124,68.592063 14.8148551,68.4534385 C14.7391979,68.314806 14.5290497,67.9641626 14.1844105,67.401508 C13.8397557,66.8388339 13.6127957,66.4718623 13.5035304,66.3005932 C13.3942494,66.1293515 13.1210469,65.6604564 12.683923,64.8939079 C12.2467991,64.1273593 11.9189483,63.5483766 11.7003706,63.1569598 C11.4818087,62.7655313 11.2884664,62.3985597 11.120344,62.056045 C10.9522215,61.7135538 10.7168555,61.1998053 10.414246,60.5147995 C10.1116208,59.8298015 9.96030827,59.479158 9.96030827,59.4628691 C9.96030827,59.4465554 9.80899568,59.0714393 9.50637052,58.3375208 C9.20374927,57.6035776 8.96838329,57.0245949 8.80027256,56.6005728 C8.63215008,56.1765115 8.3967841,55.5322946 8.09417461,54.6679222 C7.79154944,53.8035107 7.48893604,52.882029 7.18633438,51.9034772 C6.88370922,50.9249254 6.5474525,49.734343 6.17756424,48.3317299 C5.80769165,46.9291559 5.54708828,45.88537 5.39575415,45.200372 C5.24444352,44.5154131 5.03429532,43.5205528 4.76530955,42.215791 C4.49631201,40.9110291 4.3365935,40.0547816 4.28615401,39.6470485 C4.23571845,39.2393153 4.12643746,37.9916627 3.95831106,35.9040908 C3.79018859,33.8165189 3.6809076,32.2426758 3.63046811,31.1825618 C3.58003255,30.1224477 3.52118909,28.9970994 3.45393775,27.806517 C3.38668641,26.6159345 3.29421728,24.6669754 3.17653037,21.9596397 C3.05884346,19.2523039 3,17.3359619 3,16.2106136 L3,14.5225912 L3.16392147,14.4369743 C3.27320246,14.3798885 3.5716227,14.3105723 4.0591822,14.2290257 C4.5467417,14.1474791 5.21923554,14.0414677 6.07666371,13.9109915 C6.93409188,13.7805153 8.23704991,13.5684846 9.98553781,13.2748995 C11.7340492,12.9813301 12.9865717,12.7692994 13.7431052,12.6388076 C14.4996779,12.5083314 15.5000225,12.3044648 16.7441391,12.0272078 C17.9882556,11.7499508 19.0642536,11.4889945 19.972133,11.244339 C20.8800124,10.9996991 21.6617833,10.7713795 22.3174457,10.5593801 C22.9731473,10.3473573 23.4859285,10.184264 23.8557893,10.0701003 C24.2256619,9.9559366 24.5787305,9.84177092 24.914995,9.72760328 C25.2512439,9.61343564 25.9237377,9.3687879 26.9324765,8.99366007 C27.9412271,8.61854789 28.8869234,8.23935956 29.7695654,7.85609508 C30.6522075,7.47282668 31.122959,7.27711436 31.1818201,7.26895813 C31.2406616,7.26080307 31.6651708,7.0773251 32.4553476,6.71852422 C33.245544,6.35972059 33.9600675,6.03353013 34.598918,5.73995285 C35.2377686,5.44638731 35.8682327,5.15281394 36.4903106,4.85923274 C37.1123885,4.5656672 37.8857534,4.18240663 38.8104055,3.70945103 L40.1974424,3 L40.5252854,3 L40.5251502,3.00007635 Z" id="Shape" stroke="#000000" stroke-width="2" fill="#FFFF00"></path>
                    <path d="M39.5251472,4.00007635 L39.8529902,4.00007635 L41.265245,4.70952738 C42.2067482,5.18249473 42.8288065,5.49237665 43.13142,5.63917312 C43.4340491,5.78595785 44.4638047,6.26299744 46.2206869,7.0702919 C47.9775848,7.87761377 48.8854643,8.28534694 48.9443254,8.29349143 C49.0031669,8.30164648 49.4697057,8.49328068 50.3439419,8.86839403 C51.2181977,9.24351012 51.8906916,9.52077494 52.3614236,9.7001885 C52.8321556,9.87959032 53.5130554,10.1242381 54.404123,10.4341317 C55.2951907,10.7440097 55.8584075,10.939722 56.0937735,11.0212687 C56.3291473,11.1028153 56.6233744,11.2006705 56.9764548,11.3148342 C57.3295195,11.4289979 57.7834592,11.5676264 58.338274,11.7307197 C58.8931045,11.893809 59.5992417,12.0895194 60.4566856,12.3178508 C61.3141295,12.5461782 62.146336,12.7500448 62.9533052,12.9294505 C63.7603135,13.1088484 64.2815007,13.2230122 64.5168667,13.2719417 C64.7522406,13.3208673 65.5003878,13.4594958 66.7613085,13.6878272 C68.022237,13.9161625 68.8124138,14.0547929 69.1318391,14.1037186 C69.4512723,14.1526481 70.2330432,14.27497 71.477152,14.4706843 C72.7212687,14.6663946 73.3517329,14.7642498 73.3685448,14.7642498 C73.385355,14.7642498 73.9906015,14.8784175 75.1842841,15.1067527 C76.3779652,15.3350841 76.9789989,15.4533259 76.9873852,15.4614783 L77,15.4737126 L76.9243466,19.1188777 C76.8739072,21.5489487 76.7478123,24.6884902 76.5460622,28.5375023 C76.3443121,32.3864753 76.1845955,35.077483 76.0669125,36.6105253 C75.9492217,38.1436067 75.8147209,39.456513 75.6634103,40.5492442 C75.5120997,41.6419754 75.3355693,42.6776168 75.1338192,43.6561686 C74.932069,44.6347204 74.7135149,45.6214167 74.4781567,46.6162575 C74.2427829,47.6110982 74.0326347,48.4836347 73.8477121,49.2338669 C73.6627777,49.984099 73.4442236,50.7914013 73.1920496,51.6557737 C72.93986,52.5201853 72.7885474,53.0420783 72.7381119,53.2214527 C72.6876724,53.4008545 72.6120151,53.6291741 72.51114,53.9064115 C72.410265,54.1836724 72.292578,54.5261714 72.1580793,54.9339085 C72.0235844,55.3416417 71.8134362,55.9287689 71.5276346,56.69529 C71.2418252,57.4618111 71.0064592,58.0734109 70.8215366,58.5300893 C70.6365983,58.9867285 70.4096187,59.5330941 70.1405976,60.1691861 C69.871604,60.8052388 69.5269413,61.5717796 69.1066096,62.4688082 C68.6863132,63.3658369 68.4341353,63.8877299 68.350076,64.0344872 C68.2660167,64.1812719 67.9591905,64.7154012 67.4295974,65.636875 C66.9000043,66.5583489 66.580579,67.1047145 66.4713216,67.2759718 C66.3620366,67.4472291 66.1014529,67.8794349 65.6895702,68.5725891 C65.2776601,69.2657316 65.0086704,69.7060819 64.882601,69.8936399 C64.7565121,70.081198 64.5631699,70.3747713 64.3025743,70.77436 C64.0419788,71.1739487 63.8318306,71.4838306 63.6721297,71.7040058 C63.5124092,71.924177 63.3274709,72.1851333 63.1173149,72.4868746 C62.9071588,72.7885964 62.7054165,73.0658612 62.512088,73.3186691 C62.3187477,73.5714731 62.1674351,73.7835037 62.0581502,73.954761 C61.9488692,74.1260066 61.7891546,74.3461817 61.5790064,74.6152864 C61.3688464,74.8843911 61.1671041,75.1534919 60.9737795,75.4225887 C60.7804353,75.6916934 60.5702871,75.9689582 60.3433349,76.2543832 C60.1163631,76.5397964 59.9230189,76.7844442 59.7633023,76.9883264 C59.6035818,77.1921852 59.2631319,77.5795375 58.7419526,78.1503836 C58.2207458,78.7212022 57.6070738,79.3735831 56.9009366,80.1075263 C56.1947994,80.8414304 55.5727215,81.4693387 55.0347029,81.9912512 C54.4967235,82.5131246 54.1394617,82.8433873 53.9629176,82.9820393 C53.7863813,83.1206678 53.3744712,83.4713113 52.7271873,84.0339698 C52.0799033,84.5966282 51.6848051,84.9391272 51.5418926,85.0614668 C51.3989879,85.1837867 51.0459193,85.4855046 50.4826868,85.9666203 C49.9194543,86.4477361 49.5495738,86.757618 49.3730454,86.8962661 C49.196517,87.0348946 48.9947747,87.1979859 48.7678185,87.38554 C48.5408506,87.5730941 48.2256185,87.8299586 47.8221222,88.1561334 C47.4186376,88.4823199 47.1118114,88.7228759 46.9016436,88.8778011 C46.6914875,89.0327382 46.4897452,89.1713667 46.2964167,89.2936866 C46.1030725,89.4160027 45.7500039,89.6280333 45.2372109,89.9297786 C44.7244297,90.2315003 44.3881729,90.4353669 44.2284407,90.5413783 C44.0687241,90.6473858 43.8879908,90.7574695 43.6862407,90.8716293 C43.4844905,90.9858009 43.2743423,91.116277 43.055796,91.2630578 C42.837234,91.4098347 42.6775175,91.5158442 42.5766463,91.5810862 C42.4757673,91.6463243 42.2572132,91.76049 41.9209839,91.9235832 C41.584735,92.0866804 41.1812308,92.2742404 40.7104714,92.4862632 C40.2397394,92.6982782 39.9118885,92.8369048 39.7269189,92.9021429 L39.4495115,93 L39.1468922,92.9266057 C38.9451421,92.877684 38.7265879,92.7961373 38.4912298,92.6819658 C38.2558559,92.567806 37.8607577,92.3720936 37.305935,92.0948288 C36.7511046,91.8175718 36.4316793,91.6463223 36.3476592,91.5810803 C36.263596,91.5158422 36.049235,91.3731395 35.7045762,91.1529722 C35.3599214,90.9327893 35.0993376,90.7696921 34.9228249,90.6636807 C34.7462965,90.5576732 34.4016338,90.3538066 33.8888369,90.0520809 C33.3760556,89.7503513 33.022987,89.5383207 32.8296311,89.415989 C32.6362908,89.2936729 32.4345485,89.1550464 32.2244042,89.0001094 C32.0142481,88.8451723 31.7746694,88.6616904 31.5056679,88.4496637 C31.2366664,88.2376409 30.8794047,87.9481593 30.4338826,87.581219 C29.9883488,87.2142553 29.6016565,86.8962289 29.2738057,86.6271399 C28.9459666,86.3580352 28.4668091,85.950302 27.8363331,85.4039403 C27.2058688,84.8575552 26.8023843,84.5150562 26.6258794,84.3764433 C26.4493509,84.2378187 26.0626782,83.9116479 25.4658612,83.3979307 C24.8690207,82.8842018 24.5369767,82.5947202 24.4697293,82.529486 C24.4024779,82.4642401 24.1040576,82.174739 23.5744685,81.6609827 C23.0448754,81.1472537 22.6749949,80.7803017 22.4648271,80.5601266 C22.254671,80.3399554 21.7923254,79.8506795 21.0777901,79.0922989 C20.3632548,78.3339183 19.9345328,77.8690955 19.7916242,77.6978303 C19.6487195,77.5265847 19.4385713,77.2737925 19.1611795,76.9394536 C18.8837761,76.6051109 18.6652219,76.3360101 18.5055171,76.1321513 C18.3458005,75.9282769 18.186082,75.7162463 18.0263615,75.4960594 C17.8666411,75.2758921 17.6985166,75.0475725 17.5219882,74.8111005 C17.3454598,74.5746208 17.1857432,74.3625901 17.0428385,74.1750086 C16.8999299,73.9874545 16.77804,73.820289 16.6771688,73.6735121 C16.5762938,73.5267234 16.4375901,73.3350873 16.2610577,73.0986036 C16.0845293,72.862116 15.9332187,72.6500853 15.8071258,72.4625116 C15.681033,72.2749575 15.5129085,72.0303098 15.3027525,71.7285684 C15.0925964,71.4268388 14.9328779,71.1903552 14.8235969,71.0191174 C14.7143159,70.8478679 14.5377855,70.5787671 14.2940058,70.2118151 C14.050226,69.8448553 13.8905075,69.592063 13.8148502,69.4534385 C13.7391929,69.314806 13.5290447,68.9641626 13.1844055,68.401508 C12.8397507,67.8388339 12.6127906,67.4718623 12.5035253,67.3005932 C12.3942443,67.1293515 12.1210418,66.6604564 11.6839179,65.8939079 C11.2467939,65.1273593 10.9189431,64.5483766 10.7003654,64.1569598 C10.4818035,63.7655313 10.2884612,63.3985597 10.1203387,63.056045 C9.95221623,62.7135538 9.71685023,62.1998053 9.41424072,61.5147995 C9.11161945,60.8298015 8.96030881,60.479158 8.96030881,60.4628691 C8.96030881,60.4465554 8.80899622,60.0714393 8.50637103,59.3375208 C8.20374976,58.6035776 7.96838375,58.0245949 7.80027302,57.6005728 C7.63215053,57.1765115 7.39678452,56.5322946 7.09417501,55.6679222 C6.79154982,54.8035107 6.48893639,53.882029 6.18633471,52.9034772 C5.88370952,51.9249254 5.54745278,50.734343 5.17756449,49.3317299 C4.80769187,47.9291559 4.54708848,46.88537 4.39575434,46.200372 C4.2444437,45.5154131 4.03429548,44.5205528 3.76530968,43.215791 C3.49631213,41.9110291 3.33659361,41.0547816 3.28615411,40.6470485 C3.23571854,40.2393153 3.12643755,38.9916627 2.95831114,36.9040908 C2.79018865,34.8165189 2.68090766,33.2426758 2.63046816,32.1825618 C2.58003259,31.1224477 2.52118913,29.9970994 2.45393778,28.806517 C2.38668644,27.6159345 2.2942173,25.6669754 2.17653038,22.9596397 C2.05884346,20.2523039 2,18.3359619 2,17.2106136 L2,15.5225912 L2.16392149,15.4369743 C2.27320248,15.3798885 2.57162274,15.3105723 3.05918228,15.2290257 C3.54674182,15.1474791 4.21923571,15.0414677 5.07666395,14.9109915 C5.93409219,14.7805153 7.23705032,14.5684846 8.98553835,14.2748995 C10.7340499,13.9813301 11.9865725,13.7692994 12.743106,13.6388076 C13.4996788,13.5083314 14.5000235,13.3044648 15.7441401,13.0272078 C16.9882568,12.7499508 18.0642548,12.4889945 18.9721343,12.244339 C19.8800138,11.9996991 20.6617848,11.7713795 21.3174472,11.5593801 C21.9731488,11.3473573 22.4859301,11.184264 22.8557909,11.0701003 C23.2256636,10.9559366 23.5787322,10.8417709 23.9149967,10.7276033 C24.2512456,10.6134396 24.9237395,10.3687918 25.9324784,9.99366007 C26.941229,9.61854789 27.8869254,9.23935956 28.7695675,8.85609508 C29.6522096,8.47282668 30.1229612,8.27711436 30.1818223,8.26895813 C30.2406638,8.26080268 30.665173,8.07732471 31.4553499,7.71852422 C32.2455464,7.35972059 32.9600699,7.03353013 33.5989205,6.73995285 C34.2377711,6.44638339 34.8682353,6.15281002 35.4903132,5.85923274 C36.1123911,5.5656672 36.8857562,5.18240663 37.8104083,4.70945103 L39.1974454,4 L39.5252883,4 L39.5251472,4.00007635 Z" id="Shape" stroke="#000000" stroke-width="2" fill="#FFFF00"></path>
                    <path d="M40.5273779,3.52167293e-05 L40.8814464,3.52167293e-05 L42.4066556,0.765294745 C43.4234617,1.27546776 44.095287,1.60971365 44.4221315,1.76803242 C44.7489643,1.92635901 45.8610984,2.44093412 47.7585339,3.31175775 C49.6559969,4.18255007 50.6364913,4.62234833 50.7000171,4.63115251 C50.7635705,4.63994848 51.2674248,4.84665111 52.21158,5.25126042 C53.1557627,5.65586151 53.882036,5.9549298 54.3903998,6.14846529 C54.8988029,6.34197731 55.6341737,6.605868 56.5965122,6.94013737 C57.5588508,7.27439109 58.1671306,7.48549581 58.4213518,7.57345155 C58.6755611,7.66141511 58.9933278,7.76696943 59.3746516,7.89011451 C59.7559559,8.01325959 60.2462031,8.16279373 60.8453932,8.33871695 C61.4445755,8.51464408 62.2071801,8.7257488 63.133207,8.97203113 C64.0592338,9.21832128 64.9580269,9.43823019 65.8295862,9.63175786 C66.7011455,9.82526987 67.2640161,9.94841495 67.518198,10.0011931 C67.7723995,10.0539712 68.5803937,10.2035054 69.9421806,10.4497955 C71.3039675,10.6960857 72.157371,10.8456198 72.502391,10.898398 C72.8473757,10.9511761 73.6916816,11.0831175 75.0353087,11.2942223 C76.3789594,11.505327 77.0598626,11.6108794 77.0780185,11.6108794 C77.0961747,11.6108794 77.7498442,11.7340244 79.0390269,11.9803146 C80.3282096,12.2266047 80.9773303,12.354148 80.986389,12.3629443 L81,12.3761389 L80.9182869,16.3079693 C80.8638115,18.9291896 80.7276309,22.3156694 80.509745,26.4674088 C80.2918591,30.6191481 80.1193667,33.5217892 79.9922679,35.1753321 C79.8651652,36.8289923 79.7199066,38.2451548 79.5564922,39.4238196 C79.3930699,40.6024844 79.2024158,41.719559 78.9845299,42.7750435 C78.766644,43.8305672 78.5305983,44.894895 78.2763929,45.968027 C78.0221914,47.041159 77.7952236,47.9823457 77.5954896,48.791587 C77.3957557,49.6008283 77.15971,50.4716402 76.8873526,51.4040226 C76.6149913,52.3364051 76.4515749,52.8993445 76.3971034,53.0928409 C76.342628,53.2863529 76.2609228,53.5326352 76.1519877,53.8316879 C76.0430408,54.1307523 75.9159361,54.5001953 75.7706736,54.940017 C75.625419,55.3798349 75.3984512,56.013149 75.0897704,56.8399596 C74.7810935,57.6668093 74.5268919,58.3265164 74.3271658,58.8190811 C74.1274357,59.3116457 73.8823121,59.9009781 73.591795,60.5870783 C73.3012778,61.2731784 72.9290437,62.1000085 72.4750925,63.0675686 C72.0211413,64.0351287 71.7487839,64.5980681 71.6580204,64.7563869 C71.5672293,64.9147174 71.2358556,65.4908631 70.6638993,66.4848239 C70.0919429,67.4787848 69.7469621,68.0681172 69.6289569,68.2528211 C69.5109282,68.4375407 69.2294929,68.903732 68.784651,69.6513949 C68.3398091,70.3990578 68.0492959,70.8740532 67.9131113,71.0763811 C67.7769267,71.2786895 67.5681148,71.5953466 67.2866756,72.0263524 C67.0052364,72.4573582 66.7782686,72.7916041 66.6057724,73.0290901 C66.4332761,73.2665799 66.2335421,73.5480594 66.0065704,73.8735285 C65.7796027,74.1989859 65.5617129,74.4980542 65.352901,74.7707334 C65.1440891,75.0434126 64.9806727,75.2721062 64.8626518,75.456814 C64.7446348,75.6415336 64.5721425,75.8790313 64.3451747,76.1693071 C64.1182031,76.4595751 63.9003133,76.7498392 63.6915053,77.0400994 C63.4827051,77.3303714 63.2557374,77.6294397 63.010602,77.9373043 C62.7654745,78.245169 62.5566626,78.5090597 62.3841663,78.7289764 C62.211674,78.9488814 61.8439886,79.3666888 61.2811101,79.9823985 C60.7182395,80.5981434 60.0554921,81.3018324 59.2928679,82.0934653 C58.5302437,82.8850983 57.8584184,83.5623942 57.277392,84.1253532 C56.6963263,84.6883122 56.310485,85.044549 56.1198682,85.1940636 C55.9292082,85.3436016 55.4843507,85.7218293 54.7852955,86.3287466 C54.0862364,86.9356873 53.6595543,87.3051108 53.5052491,87.4370171 C53.3509126,87.5689663 52.9696201,87.8944276 52.3613717,88.4134009 C51.7530918,88.9323781 51.3536239,89.266624 51.1629678,89.4161385 C50.9723157,89.5656766 50.7544259,89.7415998 50.5092984,89.9439082 C50.2641748,90.1462244 49.9237231,90.4233018 49.4879435,90.7751404 C49.0521638,91.1269829 48.7207901,91.3864715 48.4938224,91.5536062 C48.2668546,91.720733 48.0489648,91.8702652 47.8401529,92.0022028 C47.631341,92.134152 47.2500289,92.3628455 46.6962166,92.6882833 C46.1424043,93.0137407 45.7792481,93.2336496 45.6067479,93.3480101 C45.4342516,93.4623627 45.2390605,93.5811076 45.0211746,93.7042449 C44.8032848,93.8273939 44.5763171,93.9681336 44.3402714,94.1264641 C44.1042257,94.2847946 43.9317314,94.3991434 43.8227884,94.4695103 C43.7138455,94.5398772 43.4777998,94.6630243 43.1146514,94.8389514 C42.7515069,95.0148668 42.3157273,95.2171673 41.8073125,95.445853 C41.2989094,95.6745466 40.9448507,95.8240787 40.7451363,95.8944496 L40.4455413,96 L40.1187065,95.9208328 C39.9008206,95.8680547 39.664775,95.780097 39.4105695,95.6569597 C39.156368,95.5338107 38.7296663,95.322706 38.1304643,95.0236455 C37.531282,94.7245811 37.1863012,94.5398635 37.095522,94.4694927 C37.0047349,94.3991257 36.7732184,94.2451954 36.4009724,94.0077016 C36.02875,93.7702039 35.7473147,93.5942807 35.5566665,93.4799319 C35.3660144,93.3655871 34.9937802,93.1456782 34.439964,92.8202052 C33.8861517,92.4947439 33.5048396,92.2660504 33.2960277,92.1341246 C33.0872158,92.0021871 32.869326,91.8526549 32.6423583,91.6855281 C32.4153944,91.5184051 32.1566638,91.3204871 31.8661662,91.091774 C31.5756491,90.8630726 31.1898078,90.5508176 30.7086424,90.155009 C30.2274928,89.759173 29.809869,89.4161229 29.4557711,89.1258588 C29.1017045,88.8355908 28.5842235,88.3957925 27.9033281,87.806464 C27.2224327,87.2171355 26.7866531,86.8476925 26.5959892,86.6981349 C26.405337,86.5486007 25.9877132,86.1967465 25.3431178,85.6425721 C24.6985223,85.0883977 24.3399148,84.7761427 24.2672954,84.7058071 C24.1946641,84.6354401 23.8723683,84.3231851 23.300408,83.7690421 C22.7284477,83.214899 22.3289798,82.8190826 22.1020042,82.5815927 C21.8750364,82.344095 21.3757113,81.8163331 20.6040288,80.9983072 C19.8323463,80.1802813 19.3693329,79.6789124 19.2149885,79.4942007 C19.060652,79.3094811 18.8336843,79.0368058 18.5340853,78.6761748 C18.2344902,78.315532 17.9984445,78.0252679 17.8259483,77.8053824 C17.6534559,77.5854814 17.4809616,77.3567878 17.3084653,77.1193019 C17.135973,76.881812 16.9544007,76.6355297 16.7637486,76.3804549 C16.5730965,76.1253723 16.4006022,75.8966788 16.2462657,75.6943743 C16.0919292,75.4920581 15.9602875,75.3117367 15.8513406,75.1534101 C15.7423976,74.9950796 15.5926001,74.788377 15.401948,74.5333022 C15.2112959,74.2782196 15.0478795,74.0495261 14.9116988,73.8472216 C14.7755182,73.6449133 14.593944,73.3810226 14.3669762,73.0555496 C14.1400085,72.7300922 13.9675142,72.4750057 13.8494933,72.29029 C13.7314724,72.1055705 13.5408203,71.8153064 13.2775369,71.4194977 C13.0142574,71.0236617 12.8417631,70.7509864 12.760054,70.6014718 C12.6783487,70.4519415 12.451381,70.0737139 12.0791507,69.4667888 C11.7069244,68.859848 11.4618008,68.4640315 11.3437799,68.2793393 C11.225759,68.0946198 10.930697,67.5888488 10.4585939,66.7620266 C9.98650257,65.9351769 9.63244386,65.3106473 9.39641779,64.8884379 C9.16037211,64.4662284 8.95156021,64.0704119 8.76998209,63.7009884 C8.58840789,63.3315532 8.33420637,62.7773984 8.00737751,62.038524 C7.68054474,61.2996771 7.51712835,60.9214494 7.51712835,60.903841 C7.51712835,60.8862346 7.35371196,60.481614 7.02687919,59.6899791 C6.70004641,58.8983442 6.44584488,58.2738146 6.2642746,57.8163904 C6.0827004,57.3589642 5.82849888,56.6640599 5.50167002,55.7316774 C5.17483725,54.7992949 4.84801231,53.8053419 4.52119522,52.7498182 C4.19436245,51.6942946 3.83120621,50.4100578 3.4317265,48.897108 C3.03225855,47.3841973 2.75082325,46.2582989 2.58742058,45.5194128 C2.42400616,44.7805658 2.19703841,43.7074534 1.90651733,42.3000755 C1.61600018,40.8927368 1.44350587,39.9691585 1.38903439,39.5293406 C1.33456292,39.0895228 1.21654008,37.7437155 1.03496588,35.4919187 C0.853391681,33.2401219 0.735368843,31.5424799 0.680897368,30.3989927 C0.626425892,29.2555055 0.56287453,28.0416631 0.490243281,26.7574655 C0.417615954,25.4732288 0.317750928,23.3709857 0.190648204,20.4507362 C0.0635494014,17.5304476 0,15.4634213 0,14.2496571 L0,12.4288348 L0.177031316,12.336479 C0.295052193,12.2749045 0.617347966,12.2001374 1.14391864,12.1121778 C1.67048931,12.0242181 2.39678218,11.9098713 3.32279727,11.7691375 C4.24882412,11.6283997 5.65602025,11.3997061 7.54438565,11.0830569 C9.43275106,10.7663998 10.7854796,10.5377063 11.6025714,10.3969763 C12.4196631,10.2562346 13.5000343,10.0363257 14.843685,9.73724957 C16.1873356,9.43818128 17.3494081,9.15670179 18.3299025,8.8928111 C19.3103969,8.62892432 20.1547029,8.38264199 20.8628203,8.15396412 C21.5709377,7.92526276 22.12475,7.74933955 22.5242571,7.62619447 C22.9237251,7.5030494 23.3050372,7.37990432 23.6681934,7.25675924 C24.0313418,7.13361025 24.7576347,6.86971956 25.8470721,6.46508717 C26.9365016,6.06048608 27.9578368,5.65146333 28.9110779,5.23801893 C29.8643189,4.82461366 30.3727219,4.61350893 30.436287,4.60470475 C30.4998404,4.59590878 30.958305,4.39799076 31.811681,4.01095069 C32.6650845,3.62392275 33.436767,3.27208806 34.1267285,2.95544662 C34.8167293,2.63878561 35.4976326,2.32212852 36.1694383,2.00547535 C36.841244,1.68881434 37.6764916,1.27540907 38.6751811,0.765259528 L40.1731564,0 L40.527225,0 L40.527225,6.45640037e-07 L40.5273779,3.52167293e-05 Z" id="Shape" stroke="#FF6A00" stroke-width="6" fill="#FFFBDB"></path>
                    <path d="M40.5219396,9 L40.8060718,9 L42.0299963,9.62174505 C42.845946,10.0362418 43.3850602,10.3078155 43.6473389,10.4364662 C43.9096139,10.5651096 44.8020646,10.9831972 46.3246909,11.6907288 C47.8473503,12.3982532 48.634168,12.755588 48.6851443,12.7627332 C48.7361425,12.7698799 49.1404736,12.9378295 49.8981375,13.2665819 C50.6558234,13.5953357 51.2386446,13.8383285 51.6466011,13.9955602 C52.0545943,14.1527919 52.644703,14.3671854 53.4169274,14.6387409 C54.1891884,14.9103219 54.677308,15.0818459 54.8812863,15.1533129 C55.0852755,15.2247871 55.3402667,15.31055 55.6462597,15.4106016 C55.9522491,15.5106568 56.3456671,15.6321514 56.8265138,15.7750853 C57.3073605,15.9180192 57.919332,16.0895432 58.6624281,16.2896572 C59.4055389,16.489764 60.126787,16.6684332 60.8261724,16.8256649 C61.5255578,16.9828929 61.977258,17.0829463 62.1812729,17.125825 C62.3852658,17.1687037 63.0336567,17.2901983 64.1264455,17.4903087 C65.219249,17.6904264 65.9040777,17.8119228 66.1809315,17.8547979 C66.4577743,17.8976802 67.1353154,18.0048861 68.2135548,18.1764156 C69.2917831,18.3479377 69.8381849,18.4336988 69.85276,18.4336988 C69.8673289,18.4336988 70.391868,18.5337559 71.4263773,18.7338699 C72.4609169,18.9339839 72.9818122,19.0376118 72.9890632,19.0447534 L73,19.0554712 L72.934434,22.2501034 C72.8907197,24.3798581 72.7814375,27.1313215 72.6065874,30.5044935 C72.4317338,33.8777748 72.2933124,36.2362501 72.1913232,37.5799193 C72.0893231,38.9235157 71.9727552,40.0741541 71.8416195,41.0318347 C71.7104875,41.9895153 71.5574946,42.897161 71.3826409,43.7547718 C71.2077946,44.6123826 71.0183731,45.4771387 70.8143765,46.34904 C70.6103836,47.2209412 70.4282497,47.9856275 70.2679748,48.6430987 C70.1076962,49.3006064 69.9182747,50.0081308 69.6997104,50.7656718 C69.481146,51.5232493 69.3500085,51.9806539 69.3062978,52.1378856 C69.2625835,52.2951136 69.1970157,52.4952167 69.1095943,52.7381949 C69.0221693,52.981184 68.9201728,53.2813569 68.8036049,53.6387136 C68.6870444,53.9960447 68.5049123,54.5106112 68.2572087,55.182413 C68.0095051,55.8542149 67.8055085,56.3902353 67.6452189,56.7904743 C67.4849367,57.1906805 67.2882277,57.6695208 67.0550919,58.2269952 C66.8219634,58.7844331 66.5232652,59.4562313 66.1589974,60.2423897 C65.7947332,61.0285481 65.5761799,61.4859527 65.5033373,61.6146035 C65.4304837,61.7432469 65.1645612,62.2113693 64.7055699,63.0189708 C64.2466005,63.8265649 63.969765,64.3054052 63.8750634,64.4554917 C63.7803508,64.6055818 63.5545099,64.9843705 63.1975406,65.5918579 C62.840553,66.1993489 62.6074245,66.5852647 62.4981552,66.7496051 C62.3888785,66.913982 62.221316,67.1712653 61.9954677,67.5214549 C61.7696232,67.8716517 61.5874892,68.1432254 61.449066,68.336176 C61.3106428,68.5291375 61.150366,68.7578398 60.9682358,69.0222829 C60.7861018,69.2867114 60.6112518,69.5297041 60.4436857,69.7512612 C60.2761232,69.9728182 60.1449857,70.1586309 60.0502731,70.3086991 C59.9555642,70.4587782 59.8171447,70.6517361 59.6350144,70.8875727 C59.4528768,71.1234166 59.2780268,71.3592641 59.1104643,71.5951153 C58.9428982,71.8309628 58.7607643,72.0739556 58.5640626,72.3240936 C58.3673536,72.574228 58.1997874,72.7886215 58.0613642,72.9672744 C57.9229409,73.1459381 57.6278866,73.4854098 57.1762011,73.9856895 C56.7245155,74.4859691 56.1926706,75.0577157 55.5806662,75.7009293 C54.9686948,76.3441465 54.4295623,76.8944574 53.9632687,77.351862 C53.4970117,77.8092666 53.1873822,78.0987034 53.0343802,78.2201725 C52.8813819,78.3416707 52.5244016,78.6489888 51.9634394,79.1421269 C51.4024772,79.6352649 51.060072,79.9354378 50.9362239,80.0426455 C50.8123684,80.149846 50.5063827,80.4142745 50.0182668,80.835931 C49.5301508,81.2575875 49.20959,81.5291612 49.0565843,81.6506521 C48.9035933,81.7721431 48.7287451,81.9150788 48.5320397,82.0794594 C48.3353344,82.2438326 48.0621427,82.4689623 47.7124646,82.7548484 C47.3627645,83.0407199 47.0968421,83.2515408 46.9146972,83.3873113 C46.7325633,83.5230963 46.5577151,83.6445909 46.3901526,83.751795 C46.2225865,83.8589954 45.9166007,84.044808 45.4721955,84.3092329 C45.0278012,84.5736614 44.7363906,84.7523306 44.5979637,84.8452405 C44.4595441,84.9381469 44.3029093,85.0346258 44.1280593,85.1346774 C43.9532129,85.2347398 43.771079,85.3490892 43.5816575,85.4777253 C43.392236,85.6063651 43.2538146,85.6992714 43.1663933,85.7564443 C43.0789646,85.8136244 42.8895431,85.9136814 42.5981289,86.0566154 C42.3067146,86.1995529 41.9570219,86.3639317 41.5490507,86.5497516 C41.1410575,86.7355606 40.8569345,86.8570551 40.6966816,86.9142353 L40.4562637,87 L40.1939941,86.9356765 C40.0191478,86.8927977 39.8297263,86.821329 39.6257297,86.7212701 C39.4217368,86.6212186 39.0793317,86.4496964 38.5985142,86.2067036 C38.1176822,85.9637145 37.8408467,85.8136299 37.7680078,85.7564497 C37.6951542,85.6992733 37.5093765,85.5742079 37.2106747,85.3812537 C36.9119729,85.1882849 36.6861319,85.0453455 36.5331519,84.9524355 C36.3801609,84.8595292 36.0814627,84.6808618 35.6370574,84.4164333 C35.1926631,84.1519939 34.8866774,83.9661813 34.7191003,83.8589954 C34.5515378,83.751795 34.3766915,83.6303022 34.1945612,83.4945172 C34.0124236,83.3587285 33.8047833,83.1979242 33.5716401,83.0121043 C33.338508,82.8262844 33.0288785,82.5725737 32.6427517,82.2509724 C32.2566212,81.9293638 31.9215036,81.6506448 31.6373988,81.4148155 C31.3532721,81.1789717 30.9380097,80.8216369 30.3916117,80.3428111 C29.8452136,79.8639854 29.4955208,79.5638125 29.3425335,79.4422925 C29.1895425,79.3208015 28.8544248,79.0349374 28.3371806,78.5846999 C27.8199108,78.1344405 27.532144,77.8807299 27.4738802,77.823568 C27.415598,77.7663879 27.1569631,77.5126773 26.6979754,77.0624361 C26.239006,76.6122133 25.9184452,76.2906046 25.7362929,76.0976103 C25.554159,75.9046488 25.1534534,75.4758434 24.5341761,74.8111941 C23.9148989,74.1465448 23.5433435,73.7391751 23.41951,73.589085 C23.2956582,73.4390059 23.1135243,73.217467 22.8731083,72.9244686 C22.6326922,72.6314518 22.4432707,72.3956043 22.3048438,72.216926 C22.1664243,72.0382513 22.0280029,71.8524386 21.8895796,71.6594881 C21.7511527,71.4665302 21.6054437,71.2664271 21.4524527,71.0591787 C21.2994617,70.8519231 21.1610403,70.6661104 21.0371885,70.5017408 C20.9133367,70.3373675 20.8076983,70.1908628 20.7202733,70.0622267 C20.6328483,69.9335796 20.5126403,69.7656264 20.3596492,69.5583671 C20.2066582,69.3511115 20.0755207,69.1652988 19.9662367,69.0009292 C19.85696,68.8365559 19.7112547,68.6221623 19.5291208,68.3577484 C19.3469905,68.093309 19.2085709,67.8860607 19.113862,67.7360034 C19.0191531,67.5859206 18.8661603,67.350073 18.6548835,67.0284608 C18.4436067,66.7068558 18.3051853,66.4852988 18.2396192,66.3637896 C18.1740496,66.2422878 17.9919157,65.9349879 17.6932175,65.4418899 C17.3945157,64.9487591 17.1978067,64.6271505 17.1030904,64.4770641 C17.0083815,64.3269886 16.7716093,63.9160463 16.3927737,63.2442372 C16.013938,62.572428 15.729815,62.0650068 15.5404045,61.7219734 C15.350983,61.3789218 15.1834206,61.0573132 15.0377171,60.7571476 C14.89201,60.456982 14.6880134,60.0067409 14.4257274,59.4064242 C14.1634523,58.8060784 14.0323148,58.4987603 14.0323148,58.4844698 C14.0323148,58.4701761 13.9011773,58.1414222 13.6389023,57.4982083 C13.3766346,56.8549911 13.172638,56.3475698 13.0269125,55.9759446 C12.8812054,55.6043193 12.6772088,55.0397179 12.4149228,54.2821404 C12.1526478,53.5245629 11.8903691,52.7169688 11.6280867,51.859358 C11.3658117,51.0017472 11.0744011,49.9583237 10.7538549,48.7290877 C10.4332978,47.4998516 10.2074568,46.5850789 10.0763321,45.9847695 C9.94519644,45.3844602 9.76306252,44.5125589 9.52993038,43.3690657 C9.2968019,42.2255725 9.15838049,41.4751585 9.11466615,41.1178237 C9.07095548,40.7604889 8.97624474,39.6670305 8.83053395,37.8374486 C8.68482682,36.0078668 8.59011791,34.628526 8.54640724,33.6994264 C8.5026929,32.7703267 8.45169467,31.7840652 8.39341255,30.7406418 C8.33512677,29.6972183 8.25498748,27.9891419 8.15299469,25.6164126 C8.05099823,23.2436833 8,21.5641879 8,20.5779263 L8,19.098534 L8.14206336,19.0234981 C8.23677226,18.9734705 8.49540718,18.9127214 8.91796812,18.8412508 C9.34053638,18.7697838 9.92335758,18.6768757 10.6664317,18.5625264 C11.4095425,18.4481734 12.5387838,18.2623608 14.0541555,18.0050885 C15.5695273,17.7478016 16.6550432,17.5619889 17.3107033,17.4476505 C17.9664001,17.3333012 18.8333626,17.1546302 19.911591,16.9116374 C20.9898194,16.6686446 21.9223516,16.4399424 22.7091877,16.2255305 C23.4960238,16.011126 24.1735649,15.8110229 24.741811,15.6252212 C25.3100571,15.4394049 25.7544697,15.2964692 26.0750488,15.196414 C26.3956023,15.0963588 26.7015881,14.9963018 26.993006,14.8962429 C27.2844202,14.7961877 27.8672414,14.5817941 28.7414696,14.2530621 C29.6157197,13.9243119 30.4353132,13.5919855 31.20025,13.2560827 C31.9652234,12.9201837 32.3731983,12.7486615 32.4241745,12.7415163 C32.4751691,12.734367 32.8430807,12.5735645 33.5279093,12.2591088 C34.2127197,11.9446491 34.8319786,11.6587849 35.3856863,11.4015162 C35.9393572,11.1442293 36.485759,10.8869461 37.0248915,10.6296665 C37.564024,10.3723796 38.2342775,10.0364805 39.0356521,9.62196925 L40.237714,9.0002242 L40.5218462,9.0002242 L40.5219396,9 Z" id="Shape" fill="#FFFBDB"></path>
                    <polygon id="Path" fill="#FF6A00" points="57.1887912 27 64 30.7564981 40.2386544 59 24 47.4868602 28.147598 41.4102081 39.3524173 48.3091704"></polygon>
                </g>
            </g>
        </g>
    </g>
</svg>