<?xml version="1.0" encoding="UTF-8"?>
<svg width="59px" height="35px" viewBox="0 0 59 35" version="1.1" xmlns="http://www.w3.org/2000/svg" xmlns:xlink="http://www.w3.org/1999/xlink">
    <!-- Generator: Sketch 39.1 (31720) - http://www.bohemiancoding.com/sketch -->
    <title>AmericanExpress-dark</title>
    <desc>Created with Sketch.</desc>
    <defs></defs>
    <g id="Page-1" stroke="none" stroke-width="1" fill="none" fill-rule="evenodd">
        <g id="pricing" transform="translate(-721.000000, -1211.000000)">
            <g id="Group-15" transform="translate(348.000000, 1159.000000)">
                <g id="Group-8" transform="translate(191.000000, 5.000000)">
                    <g id="AmericanExpress-dark" transform="translate(182.000000, 47.000000)">
                        <rect id="Rectangle" fill="#0072CE" x="0" y="0" width="58.3333333" height="35" rx="4"></rect>
                        <path d="M49.2376274,20.2215901 L47.1766869,20.2215901 C46.970921,20.2215901 46.8342194,20.2292725 46.7190648,20.3068072 C46.5997719,20.3832039 46.5538242,20.4965896 46.5538242,20.646253 C46.5538242,20.8242273 46.6545667,20.9452953 46.8011143,20.997649 C46.9204071,21.0390483 47.048547,21.0511409 47.2369041,21.0511409 L47.8497781,21.0675014 C48.4682172,21.0827239 48.8810332,21.1887117 49.1327468,21.4472084 C49.1785518,21.4832016 49.2060919,21.523605 49.2376274,21.5640084 L49.2376274,20.2215901 Z M49.2376274,23.3319432 C48.96294,23.7324209 48.4276919,23.9354339 47.7030879,23.9354339 L45.5192872,23.9354339 L45.5192872,22.9237831 L47.6942408,22.9237831 C47.9099953,22.9237831 48.0609664,22.8954723 48.1518629,22.8069831 C48.2306304,22.7340008 48.2855679,22.6280129 48.2855679,22.4992625 C48.2855679,22.361834 48.2306304,22.2527162 48.1474394,22.1872741 C48.0653899,22.1152877 47.9459544,22.0825666 47.7490356,22.0825666 C46.6872438,22.0465734 45.3626083,22.1152877 45.3626083,20.6223524 C45.3626083,19.9380548 45.7983981,19.217764 46.9850478,19.217764 L49.2374847,19.217764 L49.2374847,18.2790955 L47.1447233,18.2790955 C46.5131562,18.2790955 46.0543925,18.429897 45.7294766,18.6643508 L45.7294766,18.2790955 L42.633999,18.2790955 C42.1389908,18.2790955 41.5579377,18.4014439 41.2831076,18.6643508 L41.2831076,18.2790955 L35.7553977,18.2790955 L35.7553977,18.6643508 C35.3154697,18.347952 34.5731715,18.2790955 34.2305614,18.2790955 L30.5844247,18.2790955 L30.5844247,18.6643508 C30.2363922,18.3283194 29.4624158,18.2790955 28.9906669,18.2790955 L24.9100246,18.2790955 L23.97623,19.2866205 L23.1016538,18.2790955 L17.0060187,18.2790955 L17.0060187,24.8620098 L22.9869272,24.8620098 L23.949118,23.838551 L24.8555152,24.8620098 L28.5421772,24.8652819 L28.5421772,23.3167207 L28.9046219,23.3167207 C29.3937796,23.3242608 29.9706945,23.3046282 30.4796868,23.0852546 L30.4796868,24.8618675 L33.5205122,24.8618675 L33.5205122,23.1461443 L33.6672025,23.1461443 C33.854418,23.1461443 33.8728256,23.1538266 33.8728256,23.3403368 L33.8728256,24.8617253 L43.1103141,24.8617253 C43.6967896,24.8617253 44.3098063,24.7120619 44.6492772,24.4404768 L44.6492772,24.8617253 L47.5793715,24.8617253 C48.1891063,24.8617253 48.7845715,24.7765082 49.2376274,24.5582727 L49.2376274,23.3319432 L49.2376274,23.3319432 Z M44.7269031,21.4472084 C44.9470811,21.6744065 45.0650897,21.961214 45.0650897,22.4467665 C45.0650897,23.4616894 44.4290991,23.9354339 43.2886826,23.9354339 L41.0861888,23.9354339 L41.0861888,22.9237831 L43.2798355,22.9237831 C43.4943057,22.9237831 43.6464183,22.8954723 43.7417384,22.8069831 C43.8195071,22.7340008 43.8753007,22.6280129 43.8753007,22.4992625 C43.8753007,22.361834 43.8149409,22.2527162 43.7373149,22.1872741 C43.6508419,22.1152877 43.531549,22.0825666 43.3346303,22.0825666 C42.2771193,22.0465734 40.9527692,22.1152877 40.9527692,20.6223524 C40.9527692,19.9380548 41.3839928,19.217764 42.5695009,19.217764 L44.8364927,19.217764 L44.8364927,20.2218747 L42.7621389,20.2218747 C42.5565157,20.2218747 42.4228107,20.229557 42.309083,20.3070918 C42.1852239,20.3834884 42.1392762,20.4968741 42.1392762,20.6465375 C42.1392762,20.8245118 42.2444422,20.9455798 42.3867089,20.9979336 C42.5060018,21.0393329 42.6341417,21.0514254 42.8267796,21.0514254 L43.4355155,21.067786 C44.0493884,21.0827239 44.470766,21.1885695 44.7269031,21.4472084 L44.7269031,21.4472084 Z M34.5230857,21.1558484 C34.3718292,21.2453335 34.1847564,21.2530158 33.9647211,21.2530158 L32.5909985,21.2530158 L32.5909985,20.1934215 L33.9834141,20.1934215 C34.1847564,20.1934215 34.3862414,20.1976895 34.5230857,20.2786386 C34.6696332,20.3550353 34.7572478,20.5011421 34.7572478,20.703017 C34.7572478,20.9048919 34.6696332,21.0675014 34.5230857,21.1558484 L34.5230857,21.1558484 Z M35.2060228,21.7429786 C35.4577364,21.8355935 35.6635023,22.0016174 35.7599639,22.139046 C35.9196394,22.369374 35.9427559,22.5843374 35.9473222,23.0001798 L35.9473222,23.9354339 L34.8120426,23.9354339 L34.8120426,23.3451739 C34.8120426,23.061354 34.83944,22.6411014 34.6292506,22.4217278 C34.46401,22.2527162 34.2121538,22.2123128 33.7996232,22.2123128 L32.5911412,22.2123128 L32.5911412,23.9354339 L31.4548628,23.9354339 L31.4548628,19.2176217 L34.0656063,19.2176217 C34.6380977,19.2176217 35.0550518,19.2428027 35.4262009,19.4402674 C35.7830805,19.6552307 36.0075393,19.9497205 36.0075393,20.4879113 C36.0073967,21.2409232 35.5036841,21.6251826 35.2060228,21.7429786 L35.2060228,21.7429786 Z M36.6345402,19.2176217 L40.4086741,19.2176217 L40.4086741,20.1932793 L37.7606873,20.1932793 L37.7606873,21.0509986 L40.3440333,21.0509986 L40.3440333,22.0135678 L37.7606873,22.0135678 L37.7606873,22.9522363 L40.4086741,22.9565042 L40.4086741,23.9354339 L36.6345402,23.9354339 L36.6345402,19.2176217 L36.6345402,19.2176217 Z M29.005079,21.3948546 L27.5437419,21.3948546 L27.5437419,20.1934215 L29.0182069,20.1934215 C29.4264567,20.1934215 29.7098485,20.3593032 29.7098485,20.7718735 C29.7098485,21.1798913 29.4395846,21.3948546 29.005079,21.3948546 L29.005079,21.3948546 Z M26.4174521,23.5063608 L24.6812849,21.5846369 L26.4174521,19.723945 L26.4174521,23.5063608 L26.4174521,23.5063608 Z M21.9338398,22.9522363 L19.153575,22.9522363 L19.153575,22.0135678 L21.6361785,22.0135678 L21.6361785,21.0509986 L19.153575,21.0509986 L19.153575,20.1932793 L21.9886346,20.1932793 L23.2255129,21.5681341 L21.9338398,22.9522363 L21.9338398,22.9522363 Z M30.9238956,20.7718735 C30.9238956,22.0824243 29.9431544,22.3530135 28.9547078,22.3530135 L27.5437419,22.3530135 L27.5437419,23.9354339 L25.3458144,23.9354339 L23.9533989,22.373642 L22.5063312,23.9354339 L18.0271425,23.9354339 L18.0271425,19.2176217 L22.5752528,19.2176217 L23.9665268,20.7640489 L25.40489,19.2176217 L29.0182069,19.2176217 C29.9156143,19.2176217 30.9238956,19.4653061 30.9238956,20.7718735 L30.9238956,20.7718735 Z" id="EXPRESS" fill="#FFFFFF"></path>
                        <path d="M12.631996,13.7807992 L11.8580196,11.9004746 L11.0884667,13.7807992 L12.631996,13.7807992 Z M29.6825938,13.0320552 C29.5271992,13.1260928 29.3434083,13.1292227 29.1232303,13.1292227 L27.7495078,13.1292227 L27.7495078,12.0815787 L29.1419233,12.0815787 C29.3389848,12.0815787 29.5446079,12.0903992 29.6781702,12.1666535 C29.8248605,12.2353678 29.9156143,12.3816169 29.9156143,12.583634 C29.9156143,12.7897769 29.829284,12.9556586 29.6825938,13.0320552 L29.6825938,13.0320552 Z M39.482585,13.7807992 L38.7000469,11.9004746 L37.9217897,13.7807992 L39.482585,13.7807992 L39.482585,13.7807992 Z M21.2148009,15.816051 L20.0555486,15.816051 L20.0512678,12.1219821 L18.4115622,15.816051 L17.418692,15.816051 L15.7747056,12.11871 L15.7747056,15.816051 L13.4747513,15.816051 L13.0402457,14.7639968 L10.6857821,14.7639968 L10.246853,15.816051 L9.01867911,15.816051 L11.0436606,11.0993769 L12.7237487,11.0993769 L14.6469888,15.5650944 L14.6469888,11.0993769 L16.4926029,11.0993769 L17.9724904,14.2990728 L19.3319434,11.0993769 L21.2146582,11.0993769 L21.2146582,15.816051 L21.2148009,15.816051 Z M25.8351148,15.816051 L22.0575562,15.816051 L22.0575562,11.0993769 L25.8351148,11.0993769 L25.8351148,12.0815787 L23.1884122,12.0815787 L23.1884122,12.931758 L25.7716156,12.931758 L25.7716156,13.8985951 L23.1884122,13.8985951 L23.1884122,14.8405357 L25.8351148,14.8405357 L25.8351148,15.816051 L25.8351148,15.816051 Z M31.1613397,12.3696666 C31.1613397,13.1216826 30.6579125,13.51021 30.3645321,13.6268678 C30.6119648,13.7207631 30.8232958,13.8866448 30.9238956,14.0240733 C31.083571,14.2586693 31.1111111,14.4682266 31.1111111,14.8894751 L31.1111111,15.816051 L29.9705518,15.816051 L29.966271,15.2212385 C29.966271,14.9374186 29.9935257,14.5292585 29.7877598,14.3023449 C29.6225193,14.1364632 29.370663,14.10047 28.9635548,14.10047 L27.7496505,14.10047 L27.7496505,15.816051 L26.6189371,15.816051 L26.6189371,11.0993769 L29.2198346,11.0993769 C29.7977485,11.0993769 30.2235496,11.1145993 30.5891336,11.3252947 C30.9468694,11.5359901 31.1613397,11.8435683 31.1613397,12.3696666 L31.1613397,12.3696666 Z M32.9709947,15.816051 L31.8171648,15.816051 L31.8171648,11.0993769 L32.9709947,11.0993769 L32.9709947,15.816051 L32.9709947,15.816051 Z M46.3569054,15.816051 L44.7544432,15.816051 L42.6110251,12.2759135 L42.6110251,15.816051 L40.3080743,15.816051 L39.8680036,14.7639968 L37.5189623,14.7639968 L37.0920196,15.816051 L35.768811,15.816051 C35.2191508,15.816051 34.5232284,15.6948407 34.1291054,15.294363 C33.7317005,14.8938853 33.5249358,14.3514265 33.5249358,13.4937072 C33.5249358,12.7941871 33.6485095,12.1547032 34.1345278,11.6493758 C34.5001118,11.272941 35.0726032,11.0993769 35.8518594,11.0993769 L36.9466136,11.0993769 L36.9466136,12.1100318 L35.8748332,12.1100318 C35.4621599,12.1100318 35.2291394,12.171206 35.0046805,12.3894415 C34.8118999,12.5880443 34.6796218,12.9634832 34.6796218,13.4578562 C34.6796218,13.9631837 34.7803643,14.3275259 34.9905537,14.5655363 C35.1646414,14.7521887 35.4809957,14.8088105 35.7786569,14.8088105 L36.2865076,14.8088105 L37.8802655,11.0995192 L39.5746231,11.0995192 L41.4891588,15.5608265 L41.4891588,11.0995192 L43.2109139,11.0995192 L45.198652,14.3844321 L45.198652,11.0995192 L46.3569054,11.0995192 L46.3569054,15.816051 L46.3569054,15.816051 Z M9.00555119,16.7424846 L10.9376383,16.7424846 L11.3732855,15.6948407 L12.3486042,15.6948407 L12.7831098,16.7424846 L16.5846411,16.7424846 L16.5846411,15.9415292 L16.9239692,16.745899 L18.8974379,16.745899 L19.236766,15.9295789 L19.236766,16.7424846 L28.6843012,16.7424846 L28.6798776,15.0227779 L28.8626696,15.0227779 C28.9906669,15.0271882 29.0280529,15.0389962 29.0280529,15.2496916 L29.0280529,16.7424846 L33.9143498,16.7424846 L33.9143498,16.3421492 C34.3084728,16.5527023 34.9214895,16.7424846 35.728143,16.7424846 L37.7838038,16.7424846 L38.2237318,15.6948407 L39.1990505,15.6948407 L39.6292752,16.7424846 L43.5906247,16.7424846 L43.5906247,15.7473367 L44.1905135,16.7424846 L47.3649013,16.7424846 L47.3649013,10.1641228 L44.2233333,10.1641228 L44.2233333,10.9410353 L43.7834053,10.1641228 L40.5597878,10.1641228 L40.5597878,10.9410353 L40.1558189,10.1641228 L35.8014881,10.1641228 C35.0726032,10.1641228 34.4319037,10.2655582 33.9143498,10.54824 L33.9143498,10.1641228 L30.9094834,10.1641228 L30.9094834,10.54824 C30.5801439,10.25688 30.1313688,10.1641228 29.6323652,10.1641228 L18.6544287,10.1641228 L17.9178383,11.863201 L17.1614133,10.1641228 L13.7036337,10.1641228 L13.7036337,10.9410353 L13.3237802,10.1641228 L10.3748502,10.1641228 L9.0054085,13.2918322 L9.0054085,16.7424846 L9.00555119,16.7424846 Z" id="AMERICAN" fill="#FFFFFF"></path>
                    </g>
                </g>
            </g>
        </g>
    </g>
</svg>