<?xml version="1.0" encoding="UTF-8"?>
<svg width="59px" height="35px" viewBox="0 0 59 35" version="1.1" xmlns="http://www.w3.org/2000/svg" xmlns:xlink="http://www.w3.org/1999/xlink">
    <!-- Generator: Sketch 39.1 (31720) - http://www.bohemiancoding.com/sketch -->
    <title>Bitcoin-dark</title>
    <desc>Created with Sketch.</desc>
    <defs></defs>
    <g id="Page-1" stroke="none" stroke-width="1" fill="none" fill-rule="evenodd">
        <g id="pricing" transform="translate(-805.000000, -1164.000000)">
            <g id="Group-15" transform="translate(348.000000, 1159.000000)">
                <g id="Group-8" transform="translate(191.000000, 5.000000)">
                    <g id="Bitcoin-dark" transform="translate(266.388889, 0.000000)">
                        <rect id="Rectangle" fill="#F7931A" x="0" y="0" width="58.3333333" height="35" rx="4"></rect>
                        <g id="Bitcoin" transform="translate(16.172694, 10.939583)" fill="#FFFFFF">
                            <path d="M4.28316239,3.03571429 C4.67145299,3.03571429 5.00649573,3.1047619 5.2882906,3.24077381 C5.57128205,3.37797619 5.80521368,3.56279762 5.99247863,3.7952381 C6.17735043,4.02886905 6.31495726,4.30208333 6.40380342,4.61488095 C6.49205128,4.92886905 6.53632479,5.26607143 6.53632479,5.62738095 C6.53632479,6.18184524 6.43431624,6.70625 6.22790598,7.20029762 C6.02179487,7.69494048 5.74179487,8.12410714 5.38581197,8.49017857 C5.03012821,8.85595238 4.61012821,9.14404762 4.12581197,9.35684524 C3.64209402,9.5702381 3.11649573,9.6764881 2.55200855,9.6764881 C2.47901709,9.6764881 2.35068376,9.67470238 2.16940171,9.67053571 C1.98811966,9.66696429 1.77961538,9.6485119 1.54628205,9.61696429 C1.31145299,9.58452381 1.06316239,9.53630952 0.800811966,9.47172619 C0.538760684,9.40833333 0.289871795,9.31934524 0.0553418803,9.20654762 L2.15115385,0.445238095 L4.0282906,0.155654762 L3.27803419,3.26458333 C3.43867521,3.19255952 3.60051282,3.13660714 3.76205128,3.09613095 C3.92448718,3.05684524 4.09769231,3.03571429 4.28316239,3.03571429 L4.28316239,3.03571429 Z M2.70876068,8.1952381 C2.99145299,8.1952381 3.25769231,8.12619048 3.50807692,7.99017857 C3.75905983,7.85446429 3.97564103,7.67083333 4.15692308,7.44196429 C4.33820513,7.2125 4.48209402,6.95357143 4.58679487,6.66428571 C4.69149573,6.37529762 4.74444444,6.07380952 4.74444444,5.75982143 C4.74444444,5.37440476 4.67982906,5.0735119 4.55059829,4.85625 C4.42136752,4.63958333 4.18264957,4.53095238 3.83564103,4.53095238 C3.72196581,4.53095238 3.57538462,4.55238095 3.39380342,4.59077381 C3.21162393,4.63214286 3.04858974,4.71696429 2.90230769,4.84464286 L2.1032906,8.14672619 C2.15145299,8.1547619 2.19423077,8.16309524 2.23042735,8.17053571 C2.26602564,8.17857143 2.30521368,8.18452381 2.34440171,8.18869048 C2.38598291,8.19345238 2.43324786,8.19553571 2.49038462,8.19553571 C2.54752137,8.19553571 2.61991453,8.1952381 2.70876068,8.1952381 L2.70876068,8.1952381 Z" id="path8316"></path>
                            <path d="M8.48376068,9.50833333 L6.69068376,9.50833333 L8.20495726,3.16934524 L10.0102991,3.16934524 L8.48376068,9.50833333 L8.48376068,9.50833333 Z M9.35606838,2.39761905 C9.10568376,2.39761905 8.87893162,2.32321429 8.67760684,2.175 C8.47448718,2.02738095 8.37397436,1.8 8.37397436,1.49375 C8.37397436,1.32529762 8.40837607,1.16696429 8.4765812,1.01815476 C8.54568376,0.869345238 8.63632479,0.74077381 8.74970085,0.632142857 C8.86307692,0.524107143 8.99410256,0.437797619 9.14307692,0.372619048 C9.29294872,0.308630952 9.45239316,0.276785714 9.62230769,0.276785714 C9.87239316,0.276785714 10.0982479,0.350892857 10.3001709,0.499404762 C10.5014957,0.648511905 10.602906,0.875892857 10.602906,1.18035714 C10.602906,1.34940476 10.5688034,1.50833333 10.4997009,1.65714286 C10.4311966,1.80595238 10.3408547,1.93392857 10.2274786,2.04315476 C10.1152991,2.15119048 9.98277778,2.23720238 9.83410256,2.30178571 C9.68423077,2.36666667 9.52568376,2.39761905 9.35606838,2.39761905 L9.35606838,2.39761905 Z" id="path8318"></path>
                            <path d="M11.5811111,1.59077381 L13.4591453,1.30119048 L12.9978632,3.16934524 L15.0090171,3.16934524 L14.6458547,4.63928571 L12.6466667,4.63928571 L12.114188,6.85684524 C12.0651282,7.04166667 12.0373077,7.21428571 12.0295299,7.37440476 C12.0208547,7.53571429 12.0411966,7.67410714 12.0896581,7.79047619 C12.1378205,7.90714286 12.2245726,7.99702381 12.3502137,8.0610119 C12.4752564,8.12559524 12.6544444,8.15803571 12.8889744,8.15803571 C13.0822222,8.15803571 13.2706838,8.13988095 13.4528632,8.10327381 C13.6338462,8.06785714 13.8175214,8.01785714 14.0032906,7.95267857 L14.1370085,9.32738095 C13.8947009,9.41577381 13.6323504,9.49196429 13.3496581,9.55595238 C13.0666667,9.62053571 12.7313248,9.65178571 12.3439316,9.65178571 C11.7869231,9.65178571 11.3549573,9.56994048 11.0474359,9.40595238 C10.7402137,9.24077381 10.5230342,9.01547619 10.392906,8.73005952 C10.2645726,8.44583333 10.2074359,8.11785714 10.2235897,7.7485119 C10.2403419,7.37827381 10.2962821,6.9889881 10.392906,6.57916667 L11.5811111,1.59077381 L11.5811111,1.59077381 Z" id="path8320"></path>
                            <path d="M14.9300427,6.97797619 C14.9300427,6.43184524 15.0188889,5.9172619 15.1965812,5.43482143 C15.3736752,4.95238095 15.6291453,4.53065476 15.9605983,4.16845238 C16.2908547,3.80803571 16.692906,3.52261905 17.1661538,3.31339286 C17.6373077,3.1047619 18.1647009,2.99970238 18.7462393,2.99970238 C19.11,2.99970238 19.4351709,3.03363095 19.7211538,3.10238095 C20.0083333,3.17142857 20.2682906,3.2610119 20.5031197,3.37321429 L19.8847863,4.77232143 C19.7232479,4.70714286 19.5554274,4.64970238 19.3822222,4.59732143 C19.2087179,4.54434524 18.9969231,4.51875 18.7465385,4.51875 C18.1482479,4.51875 17.675,4.72380952 17.322906,5.1327381 C16.9723077,5.5422619 16.7955128,6.09315476 16.7955128,6.78452381 C16.7955128,7.19434524 16.884359,7.52529762 17.0626496,7.77886905 C17.2400427,8.03214286 17.5676068,8.15803571 18.043547,8.15803571 C18.2783761,8.15803571 18.5048291,8.13363095 18.7220085,8.0860119 C18.9406838,8.03779762 19.1336325,7.97738095 19.3038462,7.90535714 L19.4375641,9.33928571 C19.210812,9.42708333 18.9607265,9.50625 18.6864103,9.57529762 C18.4114957,9.6422619 18.0842308,9.6764881 17.7046154,9.6764881 C17.2038462,9.6764881 16.7796581,9.60386905 16.4329487,9.46011905 C16.0859402,9.31428571 15.7990598,9.12053571 15.5732051,8.87529762 C15.3461538,8.62946429 15.1831197,8.3422619 15.0823077,8.01279762 C14.9811966,7.68452381 14.9300427,7.33869048 14.9300427,6.97797619 L14.9300427,6.97797619 Z" id="path8322"></path>
                            <path d="M22.8944872,9.67708333 C22.4664103,9.67708333 22.0948718,9.6125 21.7795726,9.48422619 C21.4651709,9.35565476 21.2049145,9.17559524 20.9988034,8.94196429 C20.7926923,8.70952381 20.6380342,8.43392857 20.5324359,8.11666667 C20.4265385,7.79970238 20.3759829,7.44821429 20.3759829,7.06339286 C20.3759829,6.58035714 20.4540598,6.09761905 20.6114103,5.61607143 C20.7681624,5.13392857 21.0005983,4.70059524 21.3087179,4.31517857 C21.6141453,3.92916667 21.9907692,3.61369048 22.4347009,3.36755952 C22.877735,3.1235119 23.3877778,3.00059524 23.9603419,3.00059524 C24.3803419,3.00059524 24.7503846,3.06547619 25.0698718,3.19375 C25.3878632,3.32232143 25.6499145,3.50357143 25.8572222,3.7360119 C26.0621368,3.96964286 26.2179915,4.24404762 26.3226923,4.56190476 C26.4282906,4.87827381 26.4800427,5.23065476 26.4800427,5.61577381 C26.4800427,6.09732143 26.4031624,6.58005952 26.2505983,7.06309524 C26.097735,7.54345238 25.8712821,7.97797619 25.5721368,8.3639881 C25.2735897,8.74940476 24.9002564,9.06458333 24.4518376,9.30982143 C24.0034188,9.55446429 23.4838034,9.67708333 22.8944872,9.67708333 L22.8944872,9.67708333 Z M23.7904274,4.51934524 C23.5244872,4.51934524 23.2896581,4.59613095 23.0883333,4.74791667 C22.8864103,4.90119048 22.7167949,5.09404762 22.5800855,5.3264881 C22.4418803,5.55982143 22.3392735,5.81517857 22.2701709,6.09166667 C22.2016667,6.36934524 22.1678632,6.63154762 22.1678632,6.88095238 C22.1678632,7.28303571 22.2330769,7.59613095 22.3611111,7.82172619 C22.4912393,8.04583333 22.7245726,8.15863095 23.0641026,8.15863095 C23.3309402,8.15863095 23.5645726,8.08244048 23.767094,7.92916667 C23.9678205,7.77708333 24.1374359,7.58422619 24.2753419,7.35119048 C24.4126496,7.11904762 24.5161538,6.86309524 24.5852564,6.5860119 C24.6531624,6.30922619 24.6875641,6.04553571 24.6875641,5.79672619 C24.6875641,5.39553571 24.6226496,5.08184524 24.4934188,4.85654762 C24.364188,4.63184524 24.1296581,4.51934524 23.7904274,4.51934524 L23.7904274,4.51934524 Z" id="path8324"></path>
                            <path d="M28.4334615,9.50833333 L26.639188,9.50833333 L28.1534615,3.16934524 L29.9597009,3.16934524 L28.4334615,9.50833333 L28.4334615,9.50833333 Z M29.3045726,2.39761905 C29.0544872,2.39761905 28.827735,2.32321429 28.6267094,2.175 C28.4244872,2.02738095 28.3230769,1.8 28.3230769,1.49375 C28.3230769,1.32529762 28.3577778,1.16696429 28.4262821,1.01815476 C28.4947863,0.869345238 28.5857265,0.74077381 28.6991026,0.632142857 C28.8118803,0.524107143 28.9441026,0.437797619 29.0927778,0.372619048 C29.2417521,0.308630952 29.4011966,0.276785714 29.570812,0.276785714 C29.8214957,0.276785714 30.0479487,0.350892857 30.2495726,0.499404762 C30.4514957,0.648511905 30.5532051,0.875892857 30.5532051,1.18035714 C30.5532051,1.34940476 30.5170085,1.50833333 30.4491026,1.65714286 C30.3811966,1.80595238 30.2905556,1.93392857 30.1774786,2.04315476 C30.0638034,2.15119048 29.9333761,2.23720238 29.7844017,2.30178571 C29.6342308,2.36666667 29.4750855,2.39761905 29.3045726,2.39761905 L29.3045726,2.39761905 Z" id="path8326"></path>
                            <path d="M31.250812,3.45833333 C31.3869231,3.41875 31.5388889,3.37113095 31.7043162,3.31934524 C31.8703419,3.26755952 32.0555128,3.21934524 32.2625214,3.17589286 C32.4674359,3.13125 32.6983761,3.0952381 32.9526496,3.06666667 C33.2069231,3.03809524 33.4961966,3.02410714 33.8183761,3.02410714 C34.7636752,3.02410714 35.415812,3.29791667 35.7756838,3.84434524 C36.1349573,4.39077381 36.1974786,5.13839286 35.9638462,6.08571429 L35.1394017,9.50833333 L33.3346581,9.50833333 L34.1339744,6.1577381 C34.1824359,5.9485119 34.2210256,5.74613095 34.2491453,5.5485119 C34.2778632,5.35297619 34.2760684,5.18035714 34.2428632,5.03095238 C34.211453,4.88333333 34.1360684,4.76279762 34.0197009,4.66904762 C33.9012393,4.5764881 33.7223504,4.53065476 33.4797436,4.53065476 C33.2461111,4.53065476 33.0082906,4.55565476 32.7653846,4.60386905 L31.5900427,9.50833333 L29.7847009,9.50833333 L31.250812,3.45833333 L31.250812,3.45833333 Z" id="path8328"></path>
                        </g>
                        <g id="Accepted-Here" transform="translate(24.803036, 22.249107)" fill="#FFFFFF">
                            <path d="M0.957264957,1.97678571 L0.605470085,2.6125 L0.224957265,2.6125 C0.492991453,2.13154762 0.754444444,1.68869048 1.00931624,1.28392857 C1.26418803,0.879166667 1.51606838,0.49702381 1.76495726,0.1375 L2.10598291,0.1375 C2.14188034,0.316071429 2.17478632,0.49672619 2.20470085,0.678571429 C2.23461538,0.860714286 2.26393162,1.05178571 2.29264957,1.25178571 C2.32136752,1.45178571 2.34888889,1.6639881 2.37521368,1.88779762 C2.40153846,2.11160714 2.42905983,2.35297619 2.45777778,2.61279762 L2.10598291,2.61279762 C2.09401709,2.50565476 2.08324786,2.39791667 2.07367521,2.28958333 C2.06410256,2.18125 2.05333333,2.07708333 2.04136752,1.97708333 L0.957264957,1.97708333 L0.957264957,1.97678571 Z M2.00905983,1.69791667 C1.98991453,1.50535714 1.96777778,1.31339286 1.94264957,1.12291667 C1.91752137,0.932440476 1.88820513,0.736011905 1.85470085,0.533630952 C1.77094017,0.655059524 1.66683761,0.811904762 1.54239316,1.00327381 C1.41794872,1.1952381 1.27675214,1.4264881 1.11880342,1.69791667 L2.00905983,1.69791667 L2.00905983,1.69791667 Z" id="path8332"></path>
                            <path d="M3.73004274,2.66577381 C3.57448718,2.66577381 3.43747863,2.64315476 3.31901709,2.59791667 C3.20055556,2.55267857 3.10183761,2.48839286 3.02286325,2.40505952 C2.94388889,2.32202381 2.88465812,2.22113095 2.84517094,2.10327381 C2.80568376,1.98541667 2.78594017,1.85267857 2.78594017,1.70505952 C2.78594017,1.49077381 2.82004274,1.2860119 2.88824786,1.09077381 C2.95645299,0.895833333 3.05337607,0.723214286 3.17901709,0.573214286 C3.30465812,0.423214286 3.45602564,0.303571429 3.63311966,0.213988095 C3.81021368,0.124702381 4.00735043,0.0800595238 4.22542735,0.0800595238 C4.41209402,0.0800595238 4.56106838,0.0991071429 4.67235043,0.137202381 C4.78363248,0.175297619 4.86320513,0.211011905 4.91106838,0.244345238 L4.76747863,0.530059524 C4.71213675,0.494345238 4.63764957,0.460416667 4.54311966,0.42827381 C4.44858974,0.396428571 4.3367094,0.380059524 4.20747863,0.380059524 C4.04235043,0.380059524 3.89397436,0.41875 3.76235043,0.496428571 C3.6307265,0.573809524 3.51944444,0.673809524 3.42850427,0.796428571 C3.3375641,0.919047619 3.26816239,1.05714286 3.22029915,1.21071429 C3.1724359,1.36428571 3.14850427,1.51607143 3.14850427,1.66607143 C3.14850427,2.13035714 3.3507265,2.3625 3.75517094,2.3625 C3.84132479,2.3625 3.91850427,2.35625 3.9867094,2.34434524 C4.05491453,2.3327381 4.11534188,2.31875 4.16799145,2.30327381 C4.22064103,2.28779762 4.26730769,2.27083333 4.30799145,2.2514881 C4.34867521,2.23244048 4.38457265,2.21577381 4.41568376,2.2014881 L4.45876068,2.5014881 C4.43004274,2.51815476 4.39235043,2.5360119 4.34568376,2.55505952 C4.29901709,2.57410714 4.24457265,2.59196429 4.18235043,2.60892857 C4.12012821,2.62559524 4.0507265,2.63928571 3.9741453,2.65 C3.8975641,2.66071429 3.81619658,2.66577381 3.73004274,2.66577381 L3.73004274,2.66577381 Z" id="path8334"></path>
                            <path d="M5.74688034,2.66577381 C5.59132479,2.66577381 5.45431624,2.64315476 5.3358547,2.59791667 C5.21739316,2.55267857 5.11867521,2.48839286 5.03970085,2.40505952 C4.9607265,2.32202381 4.90149573,2.22113095 4.86200855,2.10327381 C4.82252137,1.98541667 4.80277778,1.85267857 4.80277778,1.70505952 C4.80277778,1.49077381 4.83688034,1.2860119 4.90508547,1.09077381 C4.9732906,0.895833333 5.07021368,0.723214286 5.1958547,0.573214286 C5.32149573,0.423214286 5.47286325,0.303571429 5.64995726,0.213988095 C5.82705128,0.124702381 6.02418803,0.0800595238 6.24226496,0.0800595238 C6.42893162,0.0800595238 6.57790598,0.0991071429 6.68918803,0.137202381 C6.80047009,0.175297619 6.88004274,0.211011905 6.92790598,0.244345238 L6.78431624,0.530059524 C6.72897436,0.494345238 6.65448718,0.460416667 6.55995726,0.42827381 C6.46542735,0.396428571 6.35354701,0.380059524 6.22431624,0.380059524 C6.05918803,0.380059524 5.91081197,0.41875 5.77918803,0.496428571 C5.6475641,0.573809524 5.53628205,0.673809524 5.44534188,0.796428571 C5.35440171,0.919047619 5.285,1.05714286 5.23713675,1.21071429 C5.1892735,1.36428571 5.16534188,1.51607143 5.16534188,1.66607143 C5.16534188,2.13035714 5.3675641,2.3625 5.77200855,2.3625 C5.85816239,2.3625 5.93534188,2.35625 6.00354701,2.34434524 C6.07175214,2.3327381 6.13217949,2.31875 6.18482906,2.30327381 C6.23747863,2.28779762 6.2841453,2.27083333 6.32482906,2.2514881 C6.36551282,2.23244048 6.40141026,2.21577381 6.43252137,2.2014881 L6.47559829,2.5014881 C6.44688034,2.51815476 6.40918803,2.5360119 6.36252137,2.55505952 C6.3158547,2.57410714 6.26141026,2.59196429 6.19918803,2.60892857 C6.13696581,2.62559524 6.0675641,2.63928571 5.99098291,2.65 C5.91440171,2.66071429 5.83303419,2.66577381 5.74688034,2.66577381 L5.74688034,2.66577381 Z" id="path8336"></path>
                            <polygon id="path8338" points="6.7107265 2.61220238 7.30662393 0.137202381 8.77482906 0.137202381 8.70662393 0.426488095 7.58303419 0.426488095 7.40354701 1.17291667 8.40149573 1.17291667 8.3332906 1.45505952 7.33893162 1.45505952 7.12713675 2.32291667 8.3332906 2.32291667 8.26508547 2.61220238 6.7107265 2.61220238"></polygon>
                            <path d="M9.81405983,0.112202381 C10.1036325,0.112202381 10.3220085,0.166964286 10.469188,0.276488095 C10.6163675,0.386011905 10.6899573,0.545535714 10.6899573,0.755059524 C10.6899573,0.916964286 10.6594444,1.05714286 10.5984188,1.17470238 C10.5373932,1.29255952 10.450641,1.38958333 10.3381624,1.46607143 C10.2256838,1.5422619 10.0904701,1.5985119 9.93252137,1.63541667 C9.77457265,1.67232143 9.59867521,1.69107143 9.40482906,1.69107143 L9.15713675,1.69107143 L8.93457265,2.6125 L8.58636752,2.6125 L9.17508547,0.169642857 C9.27559829,0.145833333 9.38209402,0.130357143 9.49457265,0.123214286 C9.60705128,0.11577381 9.71354701,0.112202381 9.81405983,0.112202381 L9.81405983,0.112202381 Z M9.77098291,0.405059524 C9.60106838,0.405059524 9.49816239,0.409821429 9.46226496,0.419345238 L9.22534188,1.4014881 L9.45149573,1.4014881 C9.55200855,1.4014881 9.65491453,1.39285714 9.76021368,1.37470238 C9.86551282,1.35684524 9.96004274,1.32529762 10.0438034,1.28035714 C10.1275641,1.23511905 10.1963675,1.17261905 10.2502137,1.09255952 C10.3040598,1.01279762 10.3309829,0.910119048 10.3309829,0.783928571 C10.3309829,0.648214286 10.2807265,0.551190476 10.1802137,0.492559524 C10.0797009,0.43422619 9.9432906,0.405059524 9.77098291,0.405059524 L9.77098291,0.405059524 Z" id="path8340"></path>
                            <polygon id="path8342" points="12.8135897 0.137202381 12.7453846 0.426488095 11.9951282 0.426488095 11.4674359 2.61220238 11.1192308 2.61220238 11.6469231 0.426488095 10.8966667 0.426488095 10.9648718 0.137202381 12.8135897 0.137202381"></polygon>
                            <polygon id="path8344" points="12.4905128 2.61220238 13.0864103 0.137202381 14.5546154 0.137202381 14.4864103 0.426488095 13.3628205 0.426488095 13.1833333 1.17291667 14.1812821 1.17291667 14.1130769 1.45505952 13.1187179 1.45505952 12.9069231 2.32291667 14.1130769 2.32291667 14.0448718 2.61220238 12.4905128 2.61220238"></polygon>
                            <path d="M15.5884615,0.112202381 C15.9570085,0.112202381 16.2322222,0.198511905 16.4141026,0.371130952 C16.5959829,0.54375 16.6869231,0.776488095 16.6869231,1.06934524 C16.6869231,1.27410714 16.6546154,1.47113095 16.59,1.66011905 C16.5253846,1.84970238 16.4248718,2.01666667 16.2884615,2.16220238 C16.1520513,2.30714286 15.9779487,2.42291667 15.7661538,2.50863095 C15.554359,2.59434524 15.3012821,2.63720238 15.0069231,2.63720238 C14.9064103,2.63720238 14.7975214,2.63244048 14.6802564,2.62291667 C14.5629915,2.61339286 14.4600855,2.59672619 14.3715385,2.57291667 L14.9494872,0.169345238 C15.05,0.145535714 15.1564957,0.130059524 15.2689744,0.122916667 C15.381453,0.11577381 15.4879487,0.112202381 15.5884615,0.112202381 L15.5884615,0.112202381 Z M15.5597436,0.405059524 C15.3802564,0.405059524 15.2725641,0.409821429 15.2366667,0.419345238 L14.7771795,2.3264881 C14.7963248,2.33125 14.8286325,2.33541667 14.8741026,2.3389881 C14.9195726,2.34255952 14.9937607,2.34434524 15.0966667,2.34434524 C15.2857265,2.34434524 15.4562393,2.31309524 15.6082051,2.25 C15.7601709,2.18690476 15.8888034,2.09880952 15.9941026,1.98541667 C16.0994017,1.87232143 16.1807692,1.73809524 16.2382051,1.58214286 C16.295641,1.42619048 16.324359,1.25535714 16.324359,1.06964286 C16.324359,0.860119048 16.2633333,0.69702381 16.1412821,0.580059524 C16.0192308,0.463690476 15.8253846,0.405059524 15.5597436,0.405059524 L15.5597436,0.405059524 Z" id="path8346"></path>
                            <polygon id="path8348" points="19.3684615 2.61220238 19.0202564 2.61220238 19.2966667 1.46220238 18.144359 1.46220238 17.8679487 2.61220238 17.5197436 2.61220238 18.115641 0.137202381 18.4638462 0.137202381 18.2125641 1.17291667 19.3651709 1.17291667 19.616453 0.137202381 19.9646581 0.137202381 19.3684615 2.61220238"></polygon>
                            <polygon id="path8350" points="19.9176923 2.61220238 20.5135897 0.137202381 21.9817949 0.137202381 21.9132906 0.426488095 20.7897009 0.426488095 20.6102137 1.17291667 21.6081624 1.17291667 21.5396581 1.45505952 20.5452991 1.45505952 20.3338034 2.32291667 21.5396581 2.32291667 21.4711538 2.61220238 19.9176923 2.61220238"></polygon>
                            <path d="M23.0210256,0.112202381 C23.2866667,0.112202381 23.497265,0.16577381 23.6528205,0.272916667 C23.8083761,0.380059524 23.8858547,0.537202381 23.8858547,0.744047619 C23.8858547,0.953571429 23.8245299,1.12946429 23.7012821,1.27113095 C23.5780342,1.41279762 23.4051282,1.51458333 23.1825641,1.57619048 C23.2112821,1.6264881 23.2447863,1.69017857 23.2830769,1.76755952 C23.3213675,1.84494048 23.3608547,1.93065476 23.4015385,2.02470238 C23.4419231,2.11845238 23.4817094,2.21636905 23.52,2.3172619 C23.5582906,2.41875 23.5914957,2.51666667 23.6205128,2.61190476 L23.2651282,2.61190476 C23.2319231,2.52142857 23.1969231,2.4297619 23.1610256,2.33690476 C23.1254274,2.24404762 23.0886325,2.1547619 23.0518376,2.06904762 C23.0144444,1.98333333 22.9776496,1.90297619 22.9402564,1.82797619 C22.9034615,1.75297619 22.8690598,1.68660714 22.8379487,1.6297619 C22.8068376,1.63214286 22.7757265,1.63392857 22.7446154,1.63511905 C22.7135043,1.63630952 22.6826923,1.63690476 22.6512821,1.63690476 L22.3748718,1.63690476 L22.1415385,2.61190476 L21.7933333,2.61190476 L22.3823504,0.169047619 C22.4828632,0.145238095 22.5890598,0.129761905 22.7018376,0.122619048 C22.8140171,0.11577381 22.9205128,0.112202381 23.0210256,0.112202381 L23.0210256,0.112202381 Z M22.9779487,0.405059524 C22.8080342,0.405059524 22.7051282,0.409821429 22.6689316,0.419345238 L22.4427778,1.35535714 L22.6548718,1.35535714 C22.7529915,1.35535714 22.8535043,1.34821429 22.9564103,1.33392857 C23.0593162,1.31964286 23.1532479,1.29166667 23.237906,1.25 C23.3228632,1.20833333 23.392265,1.15 23.4461111,1.075 C23.4999573,1 23.5271795,0.900595238 23.5271795,0.776785714 C23.5271795,0.643452381 23.4763248,0.548214286 23.3746154,0.491071429 C23.272906,0.433630952 23.1403846,0.405059524 22.9779487,0.405059524 L22.9779487,0.405059524 Z" id="path8352"></path>
                            <polygon id="path8354" points="23.9124786 2.61220238 24.5083761 0.137202381 25.9765812 0.137202381 25.9080769 0.426488095 24.7844872 0.426488095 24.605 1.17291667 25.6029487 1.17291667 25.5344444 1.45505952 24.5400855 1.45505952 24.3285897 2.32291667 25.5344444 2.32291667 25.4659402 2.61220238 23.9124786 2.61220238"></polygon>
                        </g>
                        <path d="M11.2161529,20.6160714 C13.8585759,20.6160714 16.0006829,18.4848935 16.0006829,15.8559524 C16.0006829,13.2270112 13.8585759,11.0958333 11.2161529,11.0958333 C8.57373004,11.0958333 6.43162303,13.2270112 6.43162303,15.8559524 C6.43162303,18.4848935 8.57373004,20.6160714 11.2161529,20.6160714 Z M13.3257286,15.177381 C13.4208568,14.54375 12.9359423,14.2032738 12.2730363,13.9758929 L12.4881218,13.1172619 L11.9631218,12.9869048 L11.75372,13.8229167 C11.6158141,13.7886905 11.4740192,13.75625 11.3328226,13.7244048 L11.54372,12.8830357 L11.0190192,12.7526786 L10.8036346,13.6110119 C10.6893611,13.585119 10.5771816,13.5595238 10.4682927,13.5324405 L10.468891,13.5297619 L9.74466021,13.35 L9.60495936,13.9080357 C9.60495936,13.9080357 9.99444654,13.9967262 9.98636962,14.002381 C10.1990619,14.0553571 10.2376517,14.1952381 10.2310705,14.30625 L9.98607047,15.2839286 C10.0007286,15.2875 10.0195747,15.2925595 10.0408141,15.3014881 C10.0231645,15.2967262 10.0046175,15.2922619 9.98517303,15.2875 L9.64175423,16.6577381 C9.61572859,16.7217262 9.54961748,16.8181548 9.40094226,16.7815476 C9.40632688,16.7889881 9.01923286,16.6869048 9.01923286,16.6869048 L8.75837816,17.285119 L9.44162603,17.4544643 C9.56876278,17.4860119 9.69350637,17.5193452 9.81585679,17.5505952 L9.59867731,18.41875 L10.123079,18.5491071 L10.3384636,17.6901786 C10.4817542,17.7285714 10.6208568,17.7645833 10.7569679,17.7982143 L10.5424807,18.6529762 L11.0674807,18.7833333 L11.2849594,17.9169643 C12.1806004,18.0854167 12.8539765,18.0175595 13.1372671,17.2116071 C13.3658141,16.5625 13.1258995,16.1883929 12.6547457,15.9443452 C12.9981645,15.8657738 13.256626,15.641369 13.3257286,15.177381 L13.3257286,15.177381 Z M12.1258568,16.8514881 C11.9634209,17.5002976 10.8655576,17.1494048 10.5095747,17.0613095 L10.7979508,15.9113095 C11.1539337,15.9997024 12.2954722,16.1747024 12.1258568,16.8514881 L12.1258568,16.8514881 Z M12.2882927,15.1681548 C12.1402158,15.7580357 11.2263269,15.4583333 10.9298739,15.385119 L11.1913269,14.3416667 C11.4877799,14.4154762 12.4423525,14.5526786 12.2882927,15.1681548 L12.2882927,15.1681548 Z" id="circle8306" fill="#FFFFFF"></path>
                    </g>
                </g>
            </g>
        </g>
    </g>
</svg>