<?xml version="1.0" encoding="UTF-8"?>
<svg width="59px" height="35px" viewBox="0 0 59 35" version="1.1" xmlns="http://www.w3.org/2000/svg" xmlns:xlink="http://www.w3.org/1999/xlink">
    <!-- Generator: Sketch 39.1 (31720) - http://www.bohemiancoding.com/sketch -->
    <title>Maestro-dark</title>
    <desc>Created with Sketch.</desc>
    <defs></defs>
    <g id="Page-1" stroke="none" stroke-width="1" fill="none" fill-rule="evenodd">
        <g id="pricing" transform="translate(-672.000000, -1164.000000)">
            <g id="Group-15" transform="translate(348.000000, 1159.000000)">
                <g id="Group-8" transform="translate(191.000000, 5.000000)">
                    <g id="Maestro-dark" transform="translate(133.194444, 0.000000)">
                        <rect id="Rectangle" fill="#000066" x="0" y="0" width="58.3333333" height="35" rx="4"></rect>
                        <path d="M48.799619,17.4905109 C48.799619,23.9394571 43.5928701,29.1666667 37.1684434,29.1666667 C30.7453035,29.1666667 25.5378193,23.9394571 25.5378193,17.4905109 C25.5378193,11.0413802 30.7453035,5.81398615 37.1684434,5.81398615 C43.5928701,5.81398615 48.799619,11.0413802 48.799619,17.4905109" id="Fill-356" fill="#CC0000"></path>
                        <path d="M28.183658,24.9054428 C27.8625102,24.5144354 27.5667307,24.1012851 27.2977901,23.6687597 L31.4199529,23.6687597 C31.6673856,23.2724011 31.8907368,22.8594353 32.0901904,22.4322611 L26.6279203,22.4322611 C26.4417023,22.032212 26.276257,21.6196153 26.1354446,21.1961316 L32.5817469,21.1961316 C32.969992,20.0317821 33.1797399,18.7862419 33.1797399,17.4905109 C33.1797399,16.6420674 33.0896641,15.8146596 32.9187039,15.0178829 L25.7994067,15.0178829 C25.8894825,14.5966135 26.0030883,14.1843858 26.1369153,13.7813843 L32.5810116,13.7813843 C32.4396477,13.3579006 32.2751215,12.9454884 32.0890874,12.5454393 L26.6290232,12.5454393 C26.8284768,12.1182651 27.0523795,11.7060374 27.2990769,11.3087562 L31.4186661,11.3087562 C31.1499093,10.877338 30.8533945,10.4649258 30.5327982,10.0733648 L28.1851287,10.0733648 C28.546351,9.6332739 28.9388241,9.22012359 29.3590553,8.83760433 C27.294665,6.95859152 24.5547062,5.81398615 21.5492996,5.81398615 C15.1252405,5.81398615 9.91775629,11.0413802 9.91775629,17.4905109 C9.91775629,23.9394571 15.1252405,29.1666667 21.5492996,29.1666667 C24.5548901,29.1666667 27.2950327,28.0220613 29.3590553,26.1437866 C29.779838,25.7605292 30.1728626,25.3464563 30.5340849,24.9054428 L28.183658,24.9054428" id="Fill-357" fill="#0066CC"></path>
                        <path d="M29.1932423,20.6458796 C28.696171,20.7779991 28.2154603,20.8425827 27.7073593,20.8414755 C26.0861787,20.8399994 25.2418559,20.0987645 25.2418559,18.6812474 C25.2418559,17.0251402 26.3166992,15.8070941 27.7757433,15.8070941 C28.9691558,15.8070941 29.7309397,16.4900192 29.7309397,17.5600767 C29.7309397,17.9151018 29.6794678,18.2610852 29.5531779,18.7500751 L26.6702008,18.7500751 C26.5676246,19.4424109 27.07113,19.7463227 27.9283207,19.7463227 C28.4417528,19.7463227 28.9059189,19.6536914 29.4202701,19.4461014 L29.1932423,20.6458796 L29.1932423,20.6458796 Z M28.4180389,17.773387 C28.4180389,17.6689461 28.5783371,16.9256815 27.7439411,16.9096279 C27.2832677,16.9096279 26.9529285,17.2170456 26.8192854,17.773387 L28.4180389,17.773387 L28.4180389,17.773387 Z" id="Fill-359" fill="#000066"></path>
                        <path d="M30.1699214,17.4486239 C30.1699214,18.0603225 30.5129447,18.4830681 31.2929276,18.7976824 C31.8890823,19.0427309 31.9828347,19.1137728 31.9828347,19.3328034 C31.9828347,19.6363461 31.7195928,19.7754776 31.1346516,19.7717871 C30.6954861,19.7686502 30.2945568,19.7149536 29.821567,19.5833876 L29.6121867,20.6992072 C30.0327855,20.7971897 30.6223225,20.8292969 31.1449459,20.8414755 C32.7017867,20.8414755 33.4205548,20.3297892 33.4205548,19.2237494 C33.4205548,18.5587232 33.1207311,18.1677158 32.3813742,17.8761671 C31.7633439,17.6281662 31.6909156,17.5748386 31.6909156,17.3502723 C31.6909156,17.0867714 31.9357747,16.9535447 32.4131764,16.9535447 C32.7027058,16.9535447 33.0988555,16.9801162 33.4749679,17.0258783 L33.6858188,15.9039694 C33.3027209,15.8506418 32.7216401,15.8078322 32.3850507,15.8078322 C30.7357444,15.8078322 30.164958,16.5531266 30.1699214,17.4486239" id="Fill-360" fill="#000066"></path>
                        <path d="M24.4515786,20.7615764 L23.2421731,20.7615764 L23.2710342,20.253027 C22.9022749,20.6541832 22.4109022,20.8411065 21.7443413,20.8411065 C20.9553508,20.8411065 20.414896,20.2995271 20.414896,19.5206493 C20.414896,18.3367402 21.3544417,17.6538151 22.9699236,17.6538151 C23.1359205,17.6538151 23.347139,17.6663628 23.5640563,17.6909045 C23.6089103,17.532398 23.621043,17.4641239 23.621043,17.3781355 C23.621043,17.0541105 23.3668086,16.9347232 22.6870121,16.9347232 C22.0167746,16.9373065 21.5645573,17.0371343 21.1448776,17.1502478 L21.3515005,16.0641367 C22.0772541,15.8788741 22.552266,15.8070941 23.0899634,15.8070941 C24.3409141,15.8070941 25.0015925,16.2997744 25.0015925,17.2249802 C25.0120707,17.4720585 24.9265906,17.9676912 24.883391,18.184692 C24.8344927,18.5000444 24.4877928,20.3297892 24.4515786,20.7615764 L24.4515786,20.7615764 Z M23.389971,18.6015328 C23.2368421,18.5864018 23.1701125,18.5817887 23.0651466,18.5817887 C22.2403096,18.5817887 21.8221006,18.8283134 21.8221006,19.3149045 C21.8221006,19.620477 22.0261498,19.8114599 22.3443564,19.8114599 C22.9370184,19.8114599 23.3649704,19.3137974 23.389971,18.6015328 L23.389971,18.6015328 Z" id="Fill-361" fill="#000066"></path>
                        <path d="M35.9687808,20.6848143 C35.5720796,20.7938682 35.2626968,20.8414755 34.9283134,20.8414755 C34.1874859,20.8414755 33.7828801,20.4613551 33.7828801,19.7845193 C33.7595339,19.5985186 33.9406047,18.7393726 33.9817822,18.5000444 C34.022592,18.259978 34.6643361,14.7602867 34.6643361,14.7602867 L36.1037107,14.7602867 L35.8860581,15.9183623 L36.624312,15.9183623 L36.4237555,17.0998726 L35.6821927,17.0998726 C35.6821927,17.0998726 35.275381,19.1512313 35.275381,19.3080771 C35.275381,19.5566316 35.4253848,19.6647629 35.7700626,19.6647629 C35.9347726,19.6647629 36.0621655,19.6492629 36.1605136,19.6197389 L35.9687808,20.6848143" id="Fill-362" fill="#000066"></path>
                        <path d="M42.4003768,15.8070941 C41.345387,15.8070941 40.5211015,16.2434945 40.0422291,16.971259 L40.4578646,15.8914218 C39.6920365,15.6092838 39.198274,16.0121008 38.752123,16.5844957 C38.752123,16.5844957 38.677305,16.6795258 38.6026707,16.7664369 L38.6026707,15.9178088 L37.2511661,15.9178088 C37.0680732,17.415594 36.7443518,18.9345995 36.4912204,20.4357062 L36.4300057,20.76213 L37.8839026,20.76213 C38.0219576,20.000413 38.1351957,19.3822559 38.2480662,18.8892065 C38.5568975,17.5366421 39.0767636,17.1233072 39.8571141,17.3063555 C39.6769625,17.6947795 39.5782468,18.1450193 39.5782468,18.6430509 C39.5782468,19.8522398 40.2319398,20.8414755 41.8560616,20.8414755 C43.4947059,20.8414755 44.6813167,19.96277 44.6813167,17.9590186 C44.6813167,16.7505678 43.8904879,15.8070941 42.4003768,15.8070941 L42.4003768,15.8070941 Z M41.9772044,19.6662391 C41.4637723,19.6741737 41.1523674,19.2416483 41.1523674,18.5943364 C41.1523674,17.8274526 41.6066068,16.9607411 42.3365884,16.9607411 C42.9255739,16.9607411 43.1272334,17.4296179 43.1272334,17.9291256 C43.1272334,19.0200344 42.6818177,19.6662391 41.9772044,19.6662391 L41.9772044,19.6662391 Z" id="Fill-363" fill="#000066"></path>
                        <polyline id="Fill-364" fill="#000066" points="19.7374892 20.76213 18.2894747 20.76213 19.1499744 16.2110182 17.1688582 20.76213 15.848972 20.76213 15.6077895 16.2377742 14.7445324 20.76213 13.4308963 20.76213 14.5496746 14.8422155 16.8124154 14.8422155 17.0008393 18.1424359 18.4343313 14.8422155 20.8786944 14.8422155 19.7374892 20.76213"></polyline>
                        <path d="M29.5564868,20.2810747 C29.0597831,20.4133787 28.5788886,20.4779623 28.0709714,20.4768552 C26.4497908,20.475379 25.605468,19.7339596 25.605468,18.316627 C25.605468,16.6605198 26.6801275,15.4424737 28.1389878,15.4424737 C29.3325841,15.4424737 30.0945518,16.1253988 30.0945518,17.1952718 C30.0945518,17.5502969 30.0428961,17.8955422 29.91679,18.3854547 L27.0339967,18.3854547 C26.9312368,19.0770524 27.4343744,19.3815178 28.2915652,19.3815178 C28.8049972,19.3815178 29.269531,19.2888865 29.7836984,19.0809275 L29.5564868,20.2810747 L29.5564868,20.2810747 Z M28.7812834,17.4087666 C28.7812834,17.3041412 28.9415816,16.5610611 28.1075532,16.544823 C27.6468798,16.544823 27.3165406,16.8522407 27.1825299,17.4087666 L28.7812834,17.4087666 L28.7812834,17.4087666 Z" id="Fill-366" fill="#FFFFFF"></path>
                        <path d="M30.5335335,17.0836344 C30.5335335,17.6955176 30.876373,18.1178942 31.6561721,18.4328775 C32.2526945,18.6781105 32.346263,18.7489679 32.346263,18.9674449 C32.346263,19.2715412 32.0828372,19.4106727 31.4984475,19.4071667 C31.0587305,19.4038453 30.6578013,19.3501487 30.1851791,19.2185827 L29.9754312,20.3340332 C30.3962138,20.4323848 30.9861184,20.464492 31.5081904,20.4768552 C33.0650311,20.4768552 33.7841669,19.9649843 33.7841669,18.8585755 C33.7841669,18.1939183 33.4841593,17.8025418 32.7448025,17.5113622 C32.1267722,17.2635458 32.05416,17.2094801 32.05416,16.9856519 C32.05416,16.722151 32.2993868,16.5883707 32.7766047,16.5883707 C33.0661341,16.5883707 33.4621,16.6154958 33.8383962,16.6612579 L34.0492471,15.539349 C33.6661492,15.4852834 33.0850684,15.4430273 32.7488467,15.4430273 C31.0991727,15.4430273 30.5283863,16.1879526 30.5335335,17.0836344" id="Fill-367" fill="#FFFFFF"></path>
                        <path d="M24.8151907,20.3967715 L23.6054176,20.3967715 L23.6346463,19.8882221 C23.2657031,20.2890092 22.7746981,20.475748 22.1079534,20.475748 C21.3191467,20.475748 20.7781404,19.9343532 20.7781404,19.1554753 C20.7781404,17.9719353 21.71787,17.2890102 23.3333519,17.2890102 C23.4993487,17.2890102 23.7103835,17.3017424 23.9276684,17.3253615 C23.9725224,17.167224 23.9844713,17.0995036 23.9844713,17.0133306 C23.9844713,16.6885675 23.7304207,16.5697338 23.050808,16.5697338 C22.3803867,16.5725016 21.9281694,16.6723294 21.5086736,16.7856274 L21.7147449,15.6993318 C22.4406823,15.5140692 22.9155105,15.4424737 23.4535755,15.4424737 C24.7045262,15.4424737 25.3650208,15.9346005 25.3650208,16.8601753 C25.3758666,17.1074381 25.2898351,17.6021482 25.2471869,17.8198871 C25.1977372,18.1352395 24.8512211,19.9649843 24.8151907,20.3967715 L24.8151907,20.3967715 Z M23.7533993,18.2369125 C23.6004542,18.2210434 23.5335408,18.2169838 23.4283911,18.2169838 C22.6039218,18.2169838 22.1855289,18.4631395 22.1855289,18.9493615 C22.1855289,19.2554876 22.3899458,19.4468395 22.7076008,19.4468395 C23.3006305,19.4468395 23.7285825,18.9486234 23.7533993,18.2369125 L23.7533993,18.2369125 Z" id="Fill-368" fill="#FFFFFF"></path>
                        <path d="M36.3322091,20.3200094 C35.9353241,20.4292479 35.6261251,20.4768552 35.2915578,20.4768552 C34.5507303,20.4768552 34.1464922,20.0965502 34.1464922,19.4197144 C34.1229622,19.2337137 34.3040329,18.3745677 34.3450266,18.1352395 C34.3862041,17.8951731 35.0279483,14.3954818 35.0279483,14.3954818 L36.467139,14.3954818 L36.2496702,15.5531884 L36.9879242,15.5531884 L36.7871838,16.7350677 L36.0458048,16.7350677 C36.0458048,16.7350677 35.6386254,18.7864264 35.6386254,18.9425341 C35.6386254,19.1920112 35.788813,19.2994044 36.1334908,19.2994044 C36.2982009,19.2994044 36.42541,19.2846425 36.5243095,19.2547495 L36.3322091,20.3200094" id="Fill-369" fill="#FFFFFF"></path>
                        <path d="M43.4910293,17.5635826 C43.4910293,18.655414 43.0450622,19.3016187 42.3404488,19.3016187 C41.8270168,19.3089997 41.5157957,18.8770279 41.5157957,18.229716 C41.5157957,17.4628323 41.9700351,16.5959362 42.6998329,16.5959362 C43.2890021,16.5959362 43.4910293,17.0648129 43.4910293,17.5635826 L43.4910293,17.5635826 Z M45.0447449,17.5942137 C45.0447449,16.3859474 44.2537324,15.4424737 42.7639889,15.4424737 C41.0501589,15.4424737 39.9416751,16.5891088 39.9416751,18.2784305 C39.9416751,19.4874349 40.5953681,20.4768552 42.2196737,20.4768552 C43.858318,20.4768552 45.0447449,19.5981496 45.0447449,17.5942137 L45.0447449,17.5942137 Z" id="Fill-370" fill="#FFFFFF"></path>
                        <path d="M37.6144105,15.5526348 C37.4315015,17.0507891 37.1075963,18.5696101 36.8546487,20.0705323 L36.7936178,20.3975096 L38.2473309,20.3975096 C38.7712412,17.4984455 38.9471647,16.6726984 40.0451704,16.9633245 L40.5733087,15.591754 C39.8072967,15.3096161 39.3144534,15.7126175 38.8683024,16.2853815 C38.9085608,16.0276008 38.984298,15.7786773 38.966099,15.5526348 L37.6144105,15.5526348" id="Fill-371" fill="#FFFFFF"></path>
                        <polyline id="Fill-372" fill="#FFFFFF" points="20.1009175 20.3975096 18.6532707 20.3975096 19.5135865 15.8463978 17.5322865 20.3975096 16.2124003 20.3975096 15.9710339 15.8729693 15.1077769 20.3975096 13.7943246 20.3975096 14.912919 14.4774106 17.1758437 14.4774106 17.295332 18.1424359 18.8882031 14.4774106 21.2421227 14.4774106 20.1009175 20.3975096"></polyline>
                    </g>
                </g>
            </g>
        </g>
    </g>
</svg>