<?xml version="1.0" encoding="UTF-8"?>
<svg width="59px" height="35px" viewBox="0 0 59 35" version="1.1" xmlns="http://www.w3.org/2000/svg" xmlns:xlink="http://www.w3.org/1999/xlink">
    <!-- Generator: Sketch 39.1 (31720) - http://www.bohemiancoding.com/sketch -->
    <title>MasterCard-dark</title>
    <desc>Created with Sketch.</desc>
    <defs></defs>
    <g id="Page-1" stroke="none" stroke-width="1" fill="none" fill-rule="evenodd">
        <g id="pricing" transform="translate(-606.000000, -1164.000000)">
            <g id="Group-15" transform="translate(348.000000, 1159.000000)">
                <g id="Group-8" transform="translate(191.000000, 5.000000)">
                    <g id="MasterCard-dark" transform="translate(67.083333, 0.000000)">
                        <rect id="Rectangle" fill="#000066" x="0" y="0" width="58.3333333" height="35" rx="4"></rect>
                        <path d="M32.7416955,17.7831513 C32.7416955,24.070467 27.645316,29.1666667 21.3581801,29.1666667 C15.0708643,29.1666667 9.974125,24.070467 9.974125,17.7831513 C9.974125,11.4960154 15.0708643,6.39927604 21.3581801,6.39927604 C27.645316,6.39927604 32.7416955,11.4960154 32.7416955,17.7831513" id="Fill-333" fill="#CC0000"></path>
                        <path d="M36.6415619,6.39927604 C33.6994817,6.39927604 31.0196953,7.51519408 28.9990615,9.34585377 C28.5879906,9.71896582 28.2042645,10.1219412 27.8500419,10.5510021 L30.15006,10.5510021 C30.4641649,10.9334689 30.7536236,11.3355448 31.0178963,11.7566901 L26.9820257,11.7566901 C26.7406002,12.1436544 26.5211226,12.5457303 26.3261112,12.9623781 L31.6734509,12.9623781 C31.856229,13.3525806 32.0170594,13.7544766 32.1555822,14.1675264 L25.84398,14.1675264 C25.7126532,14.5600676 25.6018349,14.9623234 25.5133242,15.3724948 L32.4858781,15.3724948 C32.6528251,16.1496617 32.7416955,16.9559723 32.7416955,17.7831513 C32.7416955,19.0469469 32.5357103,20.2634289 32.1555822,21.3994957 L25.84398,21.3994957 C25.9825028,21.8121857 26.1433331,22.2146214 26.3257514,22.6053636 L31.6734509,22.6053636 C31.4780798,23.020932 31.2596815,23.4233677 31.0168169,23.8108717 L26.9820257,23.8108717 C27.245219,24.2307577 27.5352173,24.6333733 27.8500419,25.0153004 L30.1493404,25.0153004 C29.7958374,25.4447211 29.4117515,25.8476965 28.9994213,26.2208085 C31.0198752,28.0514682 33.6994817,29.1666667 36.6415619,29.1666667 C42.9285179,29.1666667 48.0250774,24.070467 48.0250774,17.7831513 C48.0250774,11.4965551 42.9285179,6.39927604 36.6415619,6.39927604" id="Fill-334" fill="#FF9900"></path>
                        <path d="M18.6998018,19.0294966 C18.570094,19.0147448 18.5128859,19.0100674 18.4238356,19.0100674 C17.723306,19.0100674 17.3690834,19.2504135 17.3690834,19.7251689 C17.3690834,20.0175059 17.5419671,20.2033424 17.8118167,20.2033424 C18.315356,20.2033424 18.6782138,19.7240895 18.6998018,19.0294966 L18.6998018,19.0294966 Z M19.5987607,21.1219104 L18.5744116,21.1219104 L18.5979785,20.6352816 C18.2856726,21.0195475 17.8688449,21.2030452 17.3027004,21.2030452 C16.6331136,21.2030452 16.1738296,20.6802566 16.1738296,19.92054 C16.1738296,18.7769174 16.9724045,18.1100291 18.3434204,18.1100291 C18.4839221,18.1100291 18.663462,18.1229818 18.8473195,18.1461889 C18.8854583,17.9911153 18.8955327,17.925272 18.8955327,17.8416187 C18.8955327,17.5307519 18.6803726,17.4141769 18.1030743,17.4141769 C17.4984313,17.4080603 16.9997493,17.5586364 16.7948435,17.6259189 C16.8077963,17.5478424 16.9662879,16.5697276 16.9662879,16.5697276 C17.5819048,16.3887484 17.9881184,16.3211061 18.4452436,16.3211061 C19.5066521,16.3211061 20.0688387,16.7974806 20.0675794,17.6980587 C20.0697382,17.939664 20.0296206,18.2366785 19.9675552,18.6285001 C19.8603349,19.3085211 19.6300633,20.7669682 19.5987607,21.1219104 L19.5987607,21.1219104 Z" id="Fill-336" fill="#000066"></path>
                        <polyline id="Fill-337" fill="#000066" points="15.6566179 21.1219104 14.4205268 21.1219104 15.128972 16.6834242 13.5478332 21.1219104 12.7057225 21.1219104 12.6015606 16.7082503 11.8574953 21.1219104 10.70074 21.1219104 11.6669815 15.3476687 13.444211 15.3476687 13.5516111 18.5797473 14.6358668 15.3476687 16.6124252 15.3476687 15.6566179 21.1219104"></polyline>
                        <path d="M38.1685509,19.0294966 C38.0388432,19.0147448 37.9823547,19.0100674 37.8934842,19.0100674 C37.1924149,19.0100674 36.8385521,19.2504135 36.8385521,19.7251689 C36.8385521,20.0175059 37.0107162,20.2033424 37.2812854,20.2033424 C37.7844649,20.2033424 38.1475026,19.7240895 38.1685509,19.0294966 L38.1685509,19.0294966 Z M39.0680495,21.1219104 L38.0440603,21.1219104 L38.0672673,20.6352816 C37.7549614,21.0195475 37.3383136,21.2030452 36.7725289,21.2030452 C36.1020426,21.2030452 35.6432983,20.6802566 35.6432983,19.92054 C35.6432983,18.7769174 36.442233,18.1100291 37.8128891,18.1100291 C37.9532109,18.1100291 38.132391,18.1229818 38.3164285,18.1461889 C38.3547471,17.9911153 38.3646416,17.925272 38.3646416,17.8416187 C38.3646416,17.5307519 38.1494815,17.4141769 37.5721833,17.4141769 C36.9675403,17.4080603 36.4690381,17.5586364 36.2634127,17.6259189 C36.2770851,17.5478424 36.4359365,16.5697276 36.4359365,16.5697276 C37.0511936,16.3887484 37.457767,16.3211061 37.9141727,16.3211061 C38.9763007,16.3211061 39.5377677,16.7974806 39.5366883,17.6980587 C39.5388471,17.939664 39.4990893,18.2366785 39.4366641,18.6285001 C39.3298037,19.3085211 39.0989923,20.7669682 39.0680495,21.1219104 L39.0680495,21.1219104 Z" id="Fill-338" fill="#000066"></path>
                        <path d="M25.0910996,21.0504902 C24.7527082,21.1569908 24.4891551,21.2030452 24.2031145,21.2030452 C23.5714865,21.2030452 23.2266187,20.8400075 23.2266187,20.1713202 C23.2178037,19.9637159 23.3174681,19.4177202 23.3959044,18.9197578 C23.4675045,18.4809823 23.9320056,15.7152038 23.9320056,15.7152038 L25.1601811,15.7152038 L25.016801,16.4259877 L25.7588874,16.4259877 L25.5914007,17.5546786 L24.8467957,17.5546786 C24.7041352,18.447521 24.5006687,19.5600209 24.49833,19.7075387 C24.49833,19.9496837 24.627498,20.0554648 24.921634,20.0554648 C25.0624955,20.0554648 25.1715148,20.0410728 25.2548083,20.0112094 L25.0910996,21.0504902" id="Fill-339" fill="#000066"></path>
                        <path d="M28.8574804,21.0125314 C28.4354356,21.1415195 28.0286823,21.2044844 27.5971029,21.2030452 C26.2217694,21.2012462 25.504869,20.4834462 25.504869,19.1081128 C25.504869,17.5030474 26.4167807,16.3211061 27.6550306,16.3211061 C28.6676862,16.3211061 29.3147855,16.9827773 29.3147855,18.0200792 C29.3147855,18.364947 29.2705302,18.7009997 29.16313,19.1752154 L26.7168535,19.1752154 C26.6342795,19.8564957 27.0699966,20.1401976 27.7850981,20.1401976 C28.2242333,20.1401976 28.6210921,20.0495281 29.0620264,19.8449821 L28.8574804,21.0125314 L28.8574804,21.0125314 Z M28.1670252,18.2287629 C28.1740413,18.1307175 28.2970927,17.3904301 27.5949441,17.3904301 C27.2042018,17.3904301 26.924098,17.6887039 26.8105812,18.2287629 L28.1670252,18.2287629 L28.1670252,18.2287629 Z" id="Fill-340" fill="#000066"></path>
                        <path d="M20.3399476,17.9107002 C20.3399476,18.5041894 20.6277872,18.9138211 21.2808232,19.2216295 C21.7811244,19.4571183 21.859021,19.5267395 21.859021,19.7399207 C21.859021,20.0322577 21.6381041,20.1650237 21.1493165,20.1650237 C20.7803422,20.1650237 20.4374533,20.107096 20.0418538,19.9791873 C20.0418538,19.9791873 19.8797641,21.0146902 19.8720284,21.0641626 C20.1528519,21.1249687 20.4032723,21.1816371 21.1581316,21.2030452 C22.4620449,21.2030452 23.0643492,20.7065219 23.0643492,19.63342 C23.0643492,18.9882996 22.8124896,18.6096106 22.1932747,18.3246494 C21.6753433,18.0870019 21.6154367,18.0337516 21.6154367,17.8146337 C21.6154367,17.5607952 21.8210621,17.4310875 22.2202596,17.4310875 C22.4629444,17.4310875 22.7941398,17.456993 23.1084246,17.5014283 L23.2841867,16.4123153 C22.9643249,16.3614037 22.4789555,16.3211061 22.1965129,16.3211061 C20.8141633,16.3211061 20.3354501,17.0430438 20.3399476,17.9107002" id="Fill-341" fill="#000066"></path>
                        <path d="M34.8681104,16.445057 C35.2113591,16.445057 35.5319404,16.5342873 35.9725148,16.7568233 L36.174902,15.5036417 C35.9932033,15.4324014 35.3561783,15.0148542 34.8164791,15.0148542 C33.98966,15.0148542 33.28985,15.4257452 32.7985438,16.102348 C32.0811037,15.8648804 31.7858882,16.3448529 31.4246496,16.8233862 L31.1035286,16.8982245 C31.127815,16.7408122 31.1499427,16.5844793 31.1429266,16.4259877 L30.0073995,16.4259877 C29.8526857,17.8797574 29.5779788,19.351697 29.3629986,20.8060065 L29.30669,21.1219104 L30.5431409,21.1219104 C30.7494859,19.7809378 30.862283,18.9226362 30.9310047,18.3412002 L31.3965852,18.083224 C31.4665662,17.8239885 31.6837052,17.736917 32.1205017,17.7475311 C32.0634735,18.0537205 32.0325308,18.3762807 32.0325308,18.7099947 C32.0325308,20.2465183 32.8625881,21.2030452 34.192407,21.2030452 C34.535116,21.2030452 34.8294319,21.1580702 35.285118,21.0339394 L35.5017172,19.7181528 C35.0919056,19.9194606 34.7563926,20.0142677 34.4521822,20.0142677 C33.7336627,20.0142677 33.298845,19.4837434 33.298845,18.6074518 C33.298845,17.3357406 33.9450448,16.445057 34.8681104,16.445057" id="Fill-342" fill="#000066"></path>
                        <path d="M45.3314387,15.3476687 L45.0567318,17.0158789 C44.7194198,16.5713467 44.3563821,16.2493261 43.8771292,16.2493261 C43.2535967,16.2493261 42.6860131,16.7221026 42.3143402,17.4183146 C41.7967687,17.3109145 41.2619268,17.1283162 41.2619268,17.1283162 L41.261567,17.1328137 C41.302764,16.7436906 41.3202143,16.5069425 41.3160766,16.4259877 L40.1807294,16.4259877 C40.0265553,17.8797574 39.7514886,19.351697 39.5366883,20.8060065 L39.47984,21.1219104 L40.7166507,21.1219104 C40.8835976,20.0381944 41.0111466,19.1372565 41.1052341,18.4237742 C41.5279985,18.0416672 41.7395606,17.7093924 42.165743,17.7309803 C41.9766684,18.1882855 41.8663899,18.7146721 41.8663899,19.2547311 C41.8663899,20.428217 42.4596992,21.2030452 43.3584783,21.2030452 C43.8114658,21.2030452 44.1590321,21.0467123 44.4979632,20.684754 L44.4396757,21.1215506 L45.6090239,21.1215506 L46.5504392,15.3476687 L45.3314387,15.3476687 L45.3314387,15.3476687 Z M43.78592,20.037115 C43.3653145,20.037115 43.1523132,19.7251689 43.1523132,19.111351 C43.1523132,18.1882855 43.5504313,17.5339901 44.110819,17.5339901 C44.5355622,17.5339901 44.7658339,17.85709 44.7658339,18.4536376 C44.7658339,19.3846187 44.3610595,20.037115 43.78592,20.037115 L43.78592,20.037115 Z" id="Fill-343" fill="#000066"></path>
                        <polyline id="Fill-344" fill="#FFFFFF" points="16.0120997 20.7792014 14.7763685 20.7792014 15.4846337 16.3407152 13.9038548 20.7792014 13.0613843 20.7792014 12.9574023 16.3664409 12.2131571 20.7792014 11.0564018 20.7792014 12.0226433 15.0054994 13.7998727 15.0054994 13.8495251 18.5797473 15.0487367 15.0054994 16.9680869 15.0054994 16.0120997 20.7792014"></polyline>
                        <path d="M19.0554635,18.6875072 C18.9259357,18.6723956 18.8687276,18.6682579 18.7796772,18.6682579 C18.0791477,18.6682579 17.7247452,18.9082442 17.7247452,19.3826398 C17.7247452,19.674617 17.8978087,19.8615329 18.1678382,19.8615329 C18.6711977,19.8615329 19.0340555,19.38228 19.0554635,18.6875072 L19.0554635,18.6875072 Z M19.9542426,20.7792014 L18.9304332,20.7792014 L18.9538202,20.2929324 C18.6415142,20.6770184 18.2246866,20.860696 17.6585421,20.860696 C16.9887754,20.860696 16.5296713,20.3371878 16.5296713,19.5776511 C16.5296713,18.4338486 17.3284261,17.7678598 18.699442,17.7678598 C18.8395838,17.7678598 19.0191238,17.7806327 19.2031612,17.8043794 C19.2413,17.6489461 19.2513743,17.5829229 19.2513743,17.4989097 C19.2513743,17.1882228 19.0362143,17.0725473 18.458916,17.0725473 C17.8540931,17.0653513 17.355591,17.2159274 17.1505053,17.28303 C17.1636379,17.2053133 17.3219497,16.2271985 17.3219497,16.2271985 C17.9377465,16.0465791 18.3439601,15.9783971 18.8010853,15.9783971 C19.8623138,15.9783971 20.4243206,16.4553113 20.4234211,17.3555296 C20.4254,17.5967751 20.3856422,17.8952288 20.3233968,18.285971 C20.2159967,18.9654523 19.985725,20.4247989 19.9542426,20.7792014 L19.9542426,20.7792014 Z" id="Fill-345" fill="#FFFFFF"></path>
                        <path d="M36.5303839,15.1609327 L36.3279967,16.4139344 C35.8867027,16.192118 35.5670208,16.102348 35.2241319,16.102348 C34.3014262,16.102348 33.654147,16.994111 33.654147,18.2660021 C33.654147,19.1422937 34.0891445,19.6717387 34.8076641,19.6717387 C35.1120544,19.6717387 35.448287,19.5776511 35.8571991,19.3756237 L35.6400601,20.6914103 C35.1850937,20.8153613 34.8905978,20.860696 34.5480687,20.860696 C33.2173504,20.860696 32.3885523,19.9039892 32.3885523,18.3678254 C32.3885523,16.3036558 33.5343338,14.8610399 35.1721409,14.8610399 C35.7118401,14.8610399 36.3492249,15.0896924 36.5303839,15.1609327" id="Fill-346" fill="#FFFFFF"></path>
                        <path d="M38.5240327,18.6875072 C38.3952245,18.6723956 38.3378365,18.6682579 38.2489661,18.6682579 C37.5487963,18.6682579 37.1942139,18.9082442 37.1942139,19.3826398 C37.1942139,19.674617 37.3670976,19.8615329 37.6369472,19.8615329 C38.1401267,19.8615329 38.5033443,19.38228 38.5240327,18.6875072 L38.5240327,18.6875072 Z M39.4235314,20.7792014 L38.399722,20.7792014 L38.4229291,20.2929324 C38.1106232,20.6770184 37.6937955,20.860696 37.1281907,20.860696 C36.4577044,20.860696 35.99914,20.3371878 35.99914,19.5776511 C35.99914,18.4338486 36.7971752,17.7678598 38.1685509,17.7678598 C38.3086928,17.7678598 38.4878729,17.7806327 38.6717304,17.8043794 C38.7100491,17.6489461 38.7201235,17.5829229 38.7201235,17.4989097 C38.7201235,17.1882228 38.5055031,17.0725473 37.927845,17.0725473 C37.3235618,17.0653513 36.8252396,17.2159274 36.6197941,17.28303 C36.6327469,17.2053133 36.7912385,16.2271985 36.7912385,16.2271985 C37.4070353,16.0465791 37.8128891,15.9783971 38.2700143,15.9783971 C39.3312429,15.9783971 39.8937893,16.4553113 39.8923501,17.3555296 C39.8948687,17.5967751 39.8547511,17.8952288 39.7925058,18.285971 C39.6854654,18.9654523 39.4551938,20.4247989 39.4235314,20.7792014 L39.4235314,20.7792014 Z" id="Fill-347" fill="#FFFFFF"></path>
                        <path d="M25.4465814,20.7079611 C25.1085498,20.8144618 24.8446369,20.860696 24.5589562,20.860696 C23.9271483,20.860696 23.5821006,20.4974784 23.5821006,19.8295107 C23.5734654,19.6211868 23.6733098,19.0760906 23.751926,18.5775885 C23.8229864,18.1384532 24.2876674,15.3730345 24.2876674,15.3730345 L25.5162026,15.3730345 L25.3724628,16.0836385 L26.0031912,16.0836385 L25.8351649,17.2119696 L25.2024575,17.2119696 C25.059797,18.1057115 24.8563304,19.2174918 24.8538118,19.3650096 C24.8538118,19.6078742 24.9835195,19.7129357 25.2772958,19.7129357 C25.4181573,19.7129357 25.5269966,19.6990834 25.61065,19.6685005 L25.4465814,20.7079611" id="Fill-348" fill="#FFFFFF"></path>
                        <path d="M29.2136819,20.6707219 C28.7914572,20.8000698 28.3838044,20.8610558 27.9527646,20.860696 C26.5772513,20.8597965 25.8608905,20.1410971 25.8608905,18.7659435 C25.8608905,17.1603384 26.7726224,15.9783971 28.0099727,15.9783971 C29.0237077,15.9783971 29.6704473,16.6400683 29.6704473,17.6786295 C29.6704473,18.0227777 29.6254723,18.3586505 29.5193315,18.8330461 L27.0726951,18.8330461 C26.9897614,19.5143264 27.4260182,19.798568 28.1404001,19.798568 C28.5798951,19.798568 28.976574,19.7075387 29.418048,19.502453 L29.2136819,20.6707219 L29.2136819,20.6707219 Z M28.5230468,17.8860539 C28.5297031,17.7878286 28.6532942,17.047901 27.9513254,17.047901 C27.5602234,17.047901 27.2801195,17.3467145 27.166243,17.8860539 L28.5230468,17.8860539 L28.5230468,17.8860539 Z" id="Fill-349" fill="#FFFFFF"></path>
                        <path d="M20.6954295,17.5679912 C20.6954295,18.1625598 20.9836289,18.571292 21.6368448,18.8794602 C22.137146,19.1147691 22.2146827,19.1843903 22.2146827,19.3977514 C22.2146827,19.6904482 21.9939458,19.8224946 21.5047984,19.8224946 C21.1361838,19.8224946 20.7931151,19.7652865 20.3973356,19.6377376 C20.3973356,19.6377376 20.2354259,20.6725209 20.2278701,20.7212737 C20.5085137,20.7827994 20.759114,20.8389281 21.5136135,20.860696 C22.8178865,20.860696 23.4201909,20.3643526 23.4201909,19.2912507 C23.4201909,18.6457705 23.1679714,18.2672614 22.5489364,17.9830199 C22.0308252,17.7446527 21.9712784,17.6919421 21.9712784,17.4724644 C21.9712784,17.2186259 22.1767239,17.0880187 22.5762812,17.0880187 C22.8184262,17.0880187 23.1499815,17.1150036 23.4640864,17.159259 L23.6400283,16.0703259 C23.3199867,16.0197741 22.834977,15.9783971 22.5523545,15.9783971 C21.1696452,15.9783971 20.6912918,16.7005147 20.6954295,17.5679912" id="Fill-350" fill="#FFFFFF"></path>
                        <path d="M45.9646857,20.7792014 L44.7956972,20.7792014 L44.853625,20.342225 C44.514514,20.7043631 44.1671276,20.860696 43.71414,20.860696 C42.8160806,20.860696 42.2218718,20.0867673 42.2218718,18.9120221 C42.2218718,17.3501326 43.1431383,16.0336263 44.232791,16.0336263 C44.7120439,16.0336263 45.0749016,16.2293573 45.4129332,16.6740694 L45.6871004,15.0054994 L46.9059211,15.0054994 L45.9646857,20.7792014 L45.9646857,20.7792014 Z M44.1414019,19.6942261 C44.717261,19.6942261 45.1213158,19.0420896 45.1213158,18.112008 C45.1213158,17.5152806 44.891224,17.1911012 44.4664807,17.1911012 C43.9059132,17.1911012 43.507975,17.8455765 43.507975,18.7690018 C43.507975,19.3835393 43.7211561,19.6942261 44.1414019,19.6942261 L44.1414019,19.6942261 Z" id="Fill-351" fill="#FFFFFF"></path>
                        <path d="M40.536751,16.0836385 C40.3822171,17.5370484 40.1073303,19.008988 39.8923501,20.4634774 L39.8360415,20.7792014 L41.0721326,20.7792014 C41.5143261,17.9076419 41.6206469,17.3472542 42.3143402,17.4172352 C42.4246188,16.8295028 42.6302442,16.3148096 42.7833388,16.0553942 C42.2657673,15.9474544 41.9766684,16.2399713 41.5977996,16.7958615 C41.6280227,16.5553356 41.6825324,16.3220056 41.6722781,16.0836385 L40.536751,16.0836385" id="Fill-352" fill="#FFFFFF"></path>
                        <path d="M30.363601,16.0836385 C30.2083475,17.5370484 29.9331009,19.008988 29.7184805,20.4634774 L29.6623518,20.7792014 L30.8988027,20.7792014 C31.3411761,17.9076419 31.447137,17.3472542 32.139751,17.4172352 C32.2507492,16.8295028 32.4567343,16.3148096 32.6094692,16.0553942 C32.0924374,15.9474544 31.8027988,16.2399713 31.4246496,16.7958615 C31.4545129,16.5553356 31.5093824,16.3220056 31.4985884,16.0836385 L30.363601,16.0836385" id="Fill-353" fill="#FFFFFF"></path>
                    </g>
                </g>
            </g>
        </g>
    </g>
</svg>