<?xml version="1.0" encoding="UTF-8"?>
<svg width="59px" height="35px" viewBox="0 0 59 35" version="1.1" xmlns="http://www.w3.org/2000/svg" xmlns:xlink="http://www.w3.org/1999/xlink">
    <!-- Generator: Sketch 39.1 (31720) - http://www.bohemiancoding.com/sketch -->
    <title>Paypal-dark</title>
    <desc>Created with Sketch.</desc>
    <defs></defs>
    <g id="Page-1" stroke="none" stroke-width="1" fill="none" fill-rule="evenodd">
        <g id="pricing" transform="translate(-872.000000, -1164.000000)">
            <g id="Group-15" transform="translate(348.000000, 1159.000000)">
                <g id="Group-8" transform="translate(191.000000, 5.000000)">
                    <g id="Paypal-dark" transform="translate(362.972222, 17.500000) scale(1, -1) translate(-362.972222, -17.500000) translate(333.472222, 0.000000)">
                        <rect id="Rectangle" fill="#00457C" x="0" y="0" width="58.3333333" height="35" rx="4"></rect>
                        <path d="M45.7486251,22.1705273 L44.5721789,14.6853283 C44.5492635,14.5404439 44.6612532,14.4092349 44.8079856,14.4092349 L45.9914542,14.4092349 C46.1873438,14.4092349 46.3544043,14.5519016 46.3847118,14.7455736 L47.5448955,22.0962371 C47.5678108,22.2411215 47.4558212,22.3723305 47.3087192,22.3723305 L45.9848014,22.3723305 C45.8668981,22.3723305 45.7667357,22.2869522 45.7486251,22.1705273" id="Shape" fill="#FFFFFF"></path>
                        <path d="M30.9953688,19.7206511 L29.615641,19.7206511 C29.4836927,19.7206511 29.3602453,19.6552314 29.2863247,19.5458289 L27.3828695,16.7427601 L26.5763959,19.4364264 C26.5257603,19.6049654 26.370527,19.7206511 26.194596,19.7206511 L24.8385228,19.7206511 C24.6747887,19.7206511 24.5594725,19.5595042 24.6123258,19.4046406 L26.1313939,14.9450113 L24.7025089,12.9288272 C24.5905192,12.7706371 24.7036177,12.5518322 24.8976592,12.5518322 L26.2759087,12.5518322 C26.4063785,12.5518322 26.5287171,12.6157735 26.6033769,12.7229583 L31.191628,19.3455041 C31.3014,19.5040637 31.1883015,19.7206511 30.9953688,19.7206511" id="Shape" fill="#FFFFFF"></path>
                        <path d="M42.2176602,17.0488283 C42.0849728,16.2645308 41.4625614,15.7378466 40.6682847,15.7378466 C40.2702223,15.7378466 39.9512549,15.8660988 39.7464949,16.1085584 C39.5432133,16.3488003 39.4670751,16.6914222 39.531386,17.0724829 C39.6548334,17.8501275 40.2875936,18.3934438 41.0696735,18.3934438 C41.4596046,18.3934438 41.7759847,18.2640828 41.9848104,18.0194056 C42.1951145,17.7728805 42.2779055,17.4284105 42.2176602,17.0488283 M44.1307251,19.720688 L42.7580198,19.720688 C42.640486,19.720688 42.5403236,19.6353098 42.5218435,19.5188848 L42.4615982,19.135237 L42.3655014,19.2742077 C42.0683406,19.7055343 41.4056426,19.8500491 40.7440533,19.8500491 C39.2275723,19.8500491 37.932114,18.7005839 37.6800448,17.0887454 C37.5488357,16.2844894 37.7351156,15.5160848 38.1912057,14.9797909 C38.6099658,14.4871102 39.2076138,14.2819806 39.9198387,14.2819806 C41.1424852,14.2819806 41.8203371,15.0670172 41.8203371,15.0670172 L41.758983,14.685587 C41.7360676,14.5407026 41.8480573,14.4094936 41.9951593,14.4094936 L43.2311115,14.4094936 C43.4273707,14.4094936 43.5940616,14.5517907 43.6247387,14.7454627 L44.3669014,19.4445946 C44.3898168,19.589479 44.2774575,19.720688 44.1307251,19.720688" id="Shape" fill="#FFFFFF"></path>
                        <path d="M21.7712987,17.0488283 C21.6386113,16.2645308 21.0161999,15.7378466 20.2219232,15.7378466 C19.8238608,15.7378466 19.5048934,15.8660988 19.3001334,16.1085584 C19.0972214,16.3488003 19.0207135,16.6914222 19.0850245,17.0724829 C19.2084718,17.8501275 19.8412321,18.3934438 20.623312,18.3934438 C21.0132431,18.3934438 21.3296232,18.2640828 21.5384489,18.0194056 C21.748753,17.7728805 21.831544,17.4284105 21.7712987,17.0488283 M23.6843636,19.720688 L22.3116583,19.720688 C22.1941245,19.720688 22.0939621,19.6353098 22.075482,19.5188848 L22.0152367,19.135237 L21.9195095,19.2742077 C21.6219791,19.7055343 20.959281,19.8500491 20.2976918,19.8500491 C18.7812108,19.8500491 17.4857525,18.7005839 17.2336833,17.0887454 C17.1024742,16.2844894 17.2887541,15.5160848 17.7448442,14.9797909 C18.1636043,14.4871102 18.7612523,14.2819806 19.4734772,14.2819806 C20.6961237,14.2819806 21.3739756,15.0670172 21.3739756,15.0670172 L21.3126215,14.685587 C21.2897061,14.5407026 21.4016958,14.4094936 21.5487978,14.4094936 L22.78475,14.4094936 C22.9810092,14.4094936 23.1477001,14.5517907 23.1783772,14.7454627 L23.9205399,19.4445946 C23.9434553,19.589479 23.831096,19.720688 23.6843636,19.720688" id="Shape" fill="#FFFFFF"></path>
                        <path d="M15.4469117,19.6877195 C15.2902001,18.6587448 14.5044242,18.6587448 13.7441509,18.6587448 L13.3117154,18.6587448 L13.6151595,20.579941 C13.63327,20.6959963 13.7334324,20.7813746 13.8509661,20.7813746 L14.0494429,20.7813746 C14.5668871,20.7813746 15.0555022,20.7813746 15.3075714,20.486801 C15.4583694,20.3105004 15.5038306,20.0488215 15.4469117,19.6877195 M15.1161171,22.3725153 L12.2494765,22.3725153 C12.0532174,22.3725153 11.8865264,22.2298486 11.8558494,22.0361766 L10.6967745,14.6855131 C10.6738592,14.5406287 10.7858488,14.4094197 10.9325812,14.4094197 L12.3015906,14.4094197 C12.4974801,14.4094197 12.6641711,14.5520864 12.6948481,14.7453887 L13.0079018,16.7286782 C13.0382093,16.9223501 13.2052698,17.0650169 13.4011594,17.0650169 L14.308165,17.0650169 C16.1964665,17.0650169 17.2864256,17.9786754 17.5710199,19.7900995 C17.6992721,20.581789 17.5761943,21.2042004 17.2054826,21.6399623 C16.7978105,22.1189677 16.0752367,22.3725153 15.1161171,22.3725153" id="Shape" fill="#FFFFFF"></path>
                        <path d="M35.8932363,19.6877195 C35.7365246,18.6587448 34.9507487,18.6587448 34.1904754,18.6587448 L33.75804,18.6587448 L34.061484,20.579941 C34.0795946,20.6959963 34.179757,20.7813746 34.2972907,20.7813746 L34.4957675,20.7813746 C35.0132116,20.7813746 35.5018267,20.7813746 35.7538959,20.486801 C35.9046939,20.3105004 35.9501551,20.0488215 35.8932363,19.6877195 M35.5624416,22.3725153 L32.6958011,22.3725153 C32.4995419,22.3725153 32.332851,22.2298486 32.3021739,22.0361766 L31.1430991,14.6855131 C31.1201837,14.5406287 31.232543,14.4094197 31.3789058,14.4094197 L32.8499255,14.4094197 C32.9870482,14.4094197 33.1038428,14.5092125 33.1252797,14.6444871 L33.4542264,16.7286782 C33.4845338,16.9223501 33.6515943,17.0650169 33.8474839,17.0650169 L34.7544895,17.0650169 C36.642791,17.0650169 37.7327502,17.9786754 38.0173444,19.7900995 C38.1455967,20.581789 38.0225189,21.2042004 37.6518071,21.6399623 C37.244135,22.1189677 36.5215613,22.3725153 35.5624416,22.3725153" id="Shape" fill="#FFFFFF"></path>
                    </g>
                </g>
            </g>
        </g>
    </g>
</svg>