<?xml version="1.0" encoding="UTF-8"?>
<svg width="59px" height="35px" viewBox="0 0 59 35" version="1.1" xmlns="http://www.w3.org/2000/svg" xmlns:xlink="http://www.w3.org/1999/xlink">
    <!-- Generator: Sketch 39.1 (31720) - http://www.bohemiancoding.com/sketch -->
    <title>Visa-dark</title>
    <desc>Created with Sketch.</desc>
    <defs></defs>
    <g id="Page-1" stroke="none" stroke-width="1" fill="none" fill-rule="evenodd">
        <g id="pricing" transform="translate(-539.000000, -1164.000000)">
            <g id="Group-15" transform="translate(348.000000, 1159.000000)">
                <g id="Group-8" transform="translate(191.000000, 5.000000)">
                    <g id="Visa-dark">
                        <rect id="Rectangle" fill="#26337A" x="0" y="0" width="58.3333333" height="35" rx="4"></rect>
                        <polyline id="Fill-3" fill="#FFFFFF" points="24.2024946 23.0689437 25.9960914 11.9423944 28.8630914 11.9423944 27.0696586 23.0689437 24.2024946 23.0689437"></polyline>
                        <path d="M37.4691747,12.215493 C36.9023011,11.9921831 36.01075,11.748662 34.9001237,11.748662 C32.0655914,11.748662 30.0703011,13.2585915 30.0537392,15.4207042 C30.0357016,17.0200235 31.4775645,17.9119484 32.564578,18.4435211 C33.6817634,18.9884038 34.0571102,19.3370892 34.0526828,19.8242958 C34.0449758,20.5694836 33.1609677,20.910939 32.3366478,20.910939 C31.1887984,20.910939 30.5789624,20.7428404 29.636086,20.3274413 L29.2672984,20.1503052 L28.866371,22.640892 C29.5349113,22.9507981 30.7742608,23.2197887 32.0605081,23.2339202 C35.072957,23.2339202 37.0303683,21.74223 37.0533253,19.4333803 C37.0636559,18.1651643 36.2996801,17.2038967 34.6451371,16.4102347 C33.6432285,15.8942723 33.0283091,15.5524883 33.0353602,15.0302817 C33.0360161,14.5678873 33.5548441,14.0727934 34.6777688,14.0727934 C35.6155618,14.0576761 36.2944328,14.2742488 36.8234274,14.5003521 L37.0808737,14.6275352 L37.4691747,12.215493" id="Fill-4" fill="#FFFFFF"></path>
                        <path d="M41.2867581,19.1241315 C41.5243629,18.4846009 42.4288683,16.014061 42.4288683,16.014061 C42.4121425,16.0434742 42.6651613,15.3696009 42.8099543,14.9525587 L43.0034489,15.9121831 C43.0034489,15.9121831 43.5535968,18.5679108 43.6669059,19.1241315 L41.2867581,19.1241315 L41.2867581,19.1241315 Z M44.8237742,11.9537324 L42.6080968,11.9537324 C41.9208629,11.9537324 41.4064624,12.1505869 41.1053978,12.8760563 L36.8476962,23.0728873 L39.8589973,23.0728873 C39.8589973,23.0728873 40.3502769,21.7011502 40.4617823,21.4001174 C40.7902312,21.4001174 43.7162634,21.4058685 44.1339167,21.4058685 C44.2198414,21.7941549 44.4830269,23.0728873 44.4830269,23.0728873 L47.1440699,23.0728873 L44.8237742,11.9537324 L44.8237742,11.9537324 Z" id="Fill-5" fill="#FFFFFF"></path>
                        <path d="M21.7972581,11.9517606 L18.9910941,19.5373944 L18.6905215,17.9954225 C18.1675941,16.2188028 16.5397796,14.2931455 14.7189624,13.3282629 L17.2862097,23.0592488 L20.3204677,23.0574413 L24.8354516,11.9517606 L21.7972581,11.9517606" id="Fill-6" fill="#FFFFFF"></path>
                        <path d="M16.3861317,11.9442019 L11.7627581,11.9442019 L11.7247151,12.1747418 C15.3222392,13.0964085 17.7025511,15.3211268 18.6905215,17.9954225 L17.6858253,12.8829577 C17.5125,12.1778638 17.0087581,11.9688498 16.3861317,11.9442019" id="Fill-7" fill="#ED982D"></path>
                    </g>
                </g>
            </g>
        </g>
    </g>
</svg>