<svg width="60" height="60" viewBox="0 0 60 60" fill="none" xmlns="http://www.w3.org/2000/svg">
<path d="M29.9992 32.5459C29.4556 32.5459 29.0164 32.1067 29.0164 31.5631C29.0164 31.0195 29.4556 30.5803 29.9992 30.5803C30.5428 30.5803 30.982 31.0195 30.982 31.5631C30.982 32.1067 30.5428 32.5459 29.9992 32.5459ZM30.2296 29.6228C30.154 29.6156 30.0784 29.6084 29.9992 29.6084C28.9192 29.6084 28.0444 30.4831 28.0444 31.5631C28.0444 32.0707 28.2388 32.5351 28.5556 32.8807L27.5225 34.893L29.164 35.6274L29.9668 33.5179C29.9776 33.5179 29.9884 33.5179 29.9956 33.5179C31.0756 33.5179 31.9503 32.6431 31.9503 31.5631C31.9503 30.9691 31.6875 30.4399 31.27 30.0835L34.9239 20.4609L30.2224 29.6264L30.2296 29.6228Z" fill="#FF872C"/>
<path d="M29.9985 21.7853C30.2757 21.7853 30.4989 21.5621 30.4989 21.2849V19.3734C30.4989 19.0962 30.2757 18.873 29.9985 18.873C29.7213 18.873 29.498 19.0962 29.498 19.3734V21.2849C29.498 21.5621 29.7213 21.7853 29.9985 21.7853Z" fill="#FF872C"/>
<path d="M22.3776 24.6503C22.572 24.8447 22.8888 24.8447 23.0868 24.6503C23.2812 24.4559 23.2812 24.1391 23.0868 23.9411L21.7368 22.5911C21.5424 22.3967 21.2256 22.3967 21.0276 22.5911C20.8332 22.7855 20.8332 23.1023 21.0276 23.3003L22.3776 24.6503Z" fill="#FF872C"/>
<path d="M19.7254 31.0645H17.8139C17.5367 31.0645 17.3135 31.2876 17.3135 31.5648C17.3135 31.8419 17.5367 32.0651 17.8139 32.0651H19.7254C20.0026 32.0651 20.2258 31.8419 20.2258 31.5648C20.2258 31.2876 20.0026 31.0645 19.7254 31.0645Z" fill="#FF872C"/>
<path d="M22.3776 38.4681L21.0276 39.818C20.8332 40.0124 20.8332 40.3292 21.0276 40.5272C21.222 40.7216 21.5388 40.7216 21.7368 40.5272L23.0868 39.1773C23.2812 38.9829 23.2812 38.6661 23.0868 38.4681C22.8924 38.2737 22.5756 38.2737 22.3776 38.4681Z" fill="#FF872C"/>
<path d="M29.9985 41.3438C29.7213 41.3438 29.498 41.5669 29.498 41.8441V43.7557C29.498 44.0329 29.7213 44.2561 29.9985 44.2561C30.2757 44.2561 30.4989 44.0329 30.4989 43.7557V41.8441C30.4989 41.5669 30.2757 41.3438 29.9985 41.3438Z" fill="#FF872C"/>
<path d="M37.6196 38.4681C37.4252 38.2737 37.1084 38.2737 36.9104 38.4681C36.7161 38.6625 36.7161 38.9793 36.9104 39.1773L38.2604 40.5272C38.4548 40.7216 38.7716 40.7216 38.9695 40.5272C39.1639 40.3328 39.1639 40.016 38.9695 39.818L37.6196 38.4681Z" fill="#FF872C"/>
<path d="M42.1873 31.0645H40.2758C39.9986 31.0645 39.7754 31.2876 39.7754 31.5648C39.7754 31.8419 39.9986 32.0651 40.2758 32.0651H42.1873C42.4645 32.0651 42.6877 31.8419 42.6877 31.5648C42.6877 31.2876 42.4645 31.0645 42.1873 31.0645Z" fill="#FF872C"/>
<path d="M37.6196 24.6503L38.9695 23.3003C39.1639 23.1059 39.1639 22.7891 38.9695 22.5911C38.7752 22.3967 38.4584 22.3967 38.2604 22.5911L36.9104 23.9411C36.7161 24.1355 36.7161 24.4523 36.9104 24.6503C37.1048 24.8447 37.4216 24.8447 37.6196 24.6503Z" fill="#FF872C"/>
<path d="M29.9985 31.2344C29.8149 31.2344 29.6709 31.3819 29.6709 31.5619C29.6709 31.7455 29.8185 31.8894 29.9985 31.8894C30.1821 31.8894 30.3261 31.7419 30.3261 31.5619C30.3261 31.3783 30.1785 31.2344 29.9985 31.2344Z" fill="#FF872C"/>
<path d="M28.3859 15.0511V14.2843C27.4895 13.7407 26.8955 12.7544 26.8955 11.6312C26.8955 9.91401 28.2851 8.52444 30.0023 8.52444C31.7195 8.52444 33.1091 9.91401 33.1091 11.6312C33.1091 12.7544 32.5115 13.7371 31.6187 14.2843V15.0511C32.9003 14.4463 33.7859 13.1432 33.7859 11.6312C33.7859 9.54322 32.0939 7.84766 30.0023 7.84766C27.9143 7.84766 26.2188 9.53962 26.2188 11.6312C26.2188 13.1432 27.1043 14.4463 28.3859 15.0511Z" fill="#FF872C"/>
<path d="M40.8092 18.7887C40.9892 18.9399 41.1656 19.0947 41.3384 19.2567C41.8496 19.7283 42.3284 20.2251 42.7711 20.7471L43.0267 20.4699C43.4371 20.7507 44.0023 20.6931 44.3515 20.3151L45.4351 19.1379C45.8167 18.7239 45.7915 18.0759 45.3775 17.6943L43.5631 16.0204C43.1491 15.6388 42.5011 15.664 42.1196 16.078L41.036 17.2551C40.6868 17.6331 40.6796 18.2019 40.9928 18.5871L40.8092 18.7851V18.7887Z" fill="#FF872C"/>
<path d="M15.6962 20.5191C16.0742 20.8683 16.643 20.8755 17.0282 20.5623L17.2262 20.7459C17.3774 20.5659 17.5322 20.3895 17.6942 20.2167C18.1658 19.7055 18.6626 19.2267 19.1846 18.7839L18.9074 18.5283C19.1882 18.1179 19.1306 17.5527 18.7526 17.2035L17.5754 16.12C17.1614 15.7384 16.5134 15.7636 16.1318 16.1776L14.4579 17.9919C14.0763 18.4059 14.1015 19.0539 14.5155 19.4355L15.6926 20.5191H15.6962Z" fill="#FF872C"/>
<path d="M29.9984 44.8286C22.6797 44.8286 16.7218 38.8743 16.7218 31.5556C16.7218 24.237 22.6761 18.2791 29.9984 18.2791C37.3171 18.2791 43.275 24.2334 43.275 31.5556C43.275 38.8743 37.3207 44.8286 29.9984 44.8286ZM28.6304 13.2824C28.472 13.2824 28.346 13.1312 28.346 12.9476V10.7409C28.346 10.5573 28.472 10.4061 28.6304 10.4061C28.7888 10.4061 28.9148 10.5573 28.9148 10.7409V12.9476C28.9148 13.1312 28.7888 13.2824 28.6304 13.2824ZM29.2604 10.7409C29.2604 10.5573 29.3864 10.4061 29.5448 10.4061C29.7032 10.4061 29.8292 10.5573 29.8292 10.7409V12.9476C29.8292 13.1312 29.7032 13.2824 29.5448 13.2824C29.3864 13.2824 29.2604 13.1312 29.2604 12.9476V10.7409ZM30.1712 10.7409C30.1712 10.5573 30.2972 10.4061 30.4556 10.4061C30.614 10.4061 30.74 10.5573 30.74 10.7409V12.9476C30.74 13.1312 30.614 13.2824 30.4556 13.2824C30.2972 13.2824 30.1712 13.1312 30.1712 12.9476V10.7409ZM31.082 10.7409C31.082 10.5573 31.208 10.4061 31.3664 10.4061C31.5248 10.4061 31.6508 10.5573 31.6508 10.7409V12.9476C31.6508 13.1312 31.5248 13.2824 31.3664 13.2824C31.208 13.2824 31.082 13.1312 31.082 12.9476V10.7409ZM41.475 20.0719C38.6994 17.2963 35.0959 15.6512 31.2224 15.3632V13.7684C31.658 13.6892 31.9928 13.2284 31.9928 12.674V10.9389C31.9928 10.3269 31.586 9.83008 31.0892 9.83008H28.904C28.4036 9.83008 28.0004 10.3269 28.0004 10.9389V12.674C28.0004 13.232 28.3352 13.6892 28.7708 13.7684V15.3632C24.8973 15.6512 21.2938 17.2963 18.5182 20.0719C15.4511 23.139 13.7627 27.2141 13.7627 31.552C13.7627 35.89 15.4511 39.9651 18.5182 43.0322C21.5854 46.0993 25.6605 47.7877 29.9984 47.7877C34.3363 47.7877 38.4115 46.0993 41.4786 43.0322C44.5457 39.9651 46.2341 35.89 46.2341 31.552C46.2341 27.2141 44.5457 23.139 41.4786 20.0719H41.475Z" fill="#FF872C"/>
</svg>
