<svg id="Layer_1" data-name="Layer 1" xmlns="http://www.w3.org/2000/svg" width="25.5" height="21.65397" viewBox="0 0 25.5 21.65397"><title>folder-filled</title><path d="M253.60541,113.99889a3.23835,3.23835,0,0,0-2.37381-.99151H241.13543v-0.48076a3.3859,3.3859,0,0,0-3.36543-3.36537H232.9623a3.38581,3.38581,0,0,0-3.36537,3.36537v14.42323a3.38609,3.38609,0,0,0,3.36537,3.36537h18.26925a3.38618,3.38618,0,0,0,3.36537-3.36537V116.373A3.23858,3.23858,0,0,0,253.60541,113.99889Z" transform="translate(-229.34692 -108.91124)" style="fill:#fef16f;stroke:#dd6d22;stroke-miterlimit:10;stroke-width:0.5px"/><ellipse cx="7.08352" cy="10.60355" rx="0.90253" ry="1.13732" style="fill:#dd6d22;stroke:#dd6d22;stroke-miterlimit:10;stroke-width:0.5px"/><ellipse cx="17.44187" cy="10.63613" rx="0.94109" ry="1.18595" style="fill:#dd6d22;stroke:#dd6d22;stroke-miterlimit:10;stroke-width:0.5px"/><ellipse cx="12.17136" cy="9.99373" rx="1.19198" ry="1.50219" style="fill:#dd6d22;stroke:#dd6d22;stroke-miterlimit:10;stroke-width:0.5px"/><path d="M245.39627,123.05714a2.67531,2.67531,0,0,0-.75905.21833,5.0878,5.0878,0,0,1,.688.66822v1.80148a7.50168,7.50168,0,0,0,3.09214-.37887v-1.28752a2.93941,2.93941,0,0,0-1.83356-1.02163h-1.18757Z" transform="translate(-229.34692 -108.91124)" style="fill:#dd6d22;stroke:#dd6d22;stroke-miterlimit:10;stroke-width:0.5px"/><path d="M237.80128,123.31633h-1.056a2.62473,2.62473,0,0,0-1.62991.89711v1.1306a6.74863,6.74863,0,0,0,2.74908.3327v-1.58191a4.46969,4.46969,0,0,1,.61169-0.58658A2.412,2.412,0,0,0,237.80128,123.31633Z" transform="translate(-229.34692 -108.91124)" style="fill:#dd6d22;stroke:#dd6d22;stroke-miterlimit:10;stroke-width:0.5px"/><path d="M240.934,122.80276a3.1989,3.1989,0,0,0-2.07953,1.32293v1.66744a7.33917,7.33917,0,0,0,5.50616,0v-1.66744a3.1987,3.1987,0,0,0-2.07953-1.32293H240.934Z" transform="translate(-229.34692 -108.91124)" style="fill:#dd6d22;stroke:#dd6d22;stroke-miterlimit:10;stroke-width:0.5px"/></svg>