<svg id="artwork" xmlns="http://www.w3.org/2000/svg" xmlns:xlink="http://www.w3.org/1999/xlink" width="135" height="40" viewBox="0 0 135 40"><defs><linearGradient id="linear-gradient" x1="17.79533" y1="28.95534" x2="1.01233" y2="45.73734" gradientTransform="translate(0 2)" gradientUnits="userSpaceOnUse"><stop offset="0" stop-color="#00a0ff"/><stop offset="0.007" stop-color="#00a1ff"/><stop offset="0.26" stop-color="#00beff"/><stop offset="0.512" stop-color="#00d2ff"/><stop offset="0.76" stop-color="#00dfff"/><stop offset="1" stop-color="#00e3ff"/></linearGradient><linearGradient id="linear-gradient-2" x1="29.834" y1="40.3" x2="5.637" y2="40.3" gradientTransform="translate(0 2)" gradientUnits="userSpaceOnUse"><stop offset="0" stop-color="#ffe000"/><stop offset="0.409" stop-color="#ffbd00"/><stop offset="0.775" stop-color="orange"/><stop offset="1" stop-color="#ff9c00"/></linearGradient><linearGradient id="linear-gradient-3" x1="20.8155" y1="42.5345" x2="-1.9425" y2="65.2925" gradientTransform="translate(0 2)" gradientUnits="userSpaceOnUse"><stop offset="0" stop-color="#ff3a44"/><stop offset="1" stop-color="#c31162"/></linearGradient><linearGradient id="linear-gradient-4" x1="3.2615" y1="20.46149" x2="13.4245" y2="30.6245" gradientTransform="translate(0 2)" gradientUnits="userSpaceOnUse"><stop offset="0" stop-color="#32a071"/><stop offset="0.069" stop-color="#2da771"/><stop offset="0.476" stop-color="#15cf74"/><stop offset="0.801" stop-color="#06e775"/><stop offset="1" stop-color="#00f076"/></linearGradient></defs><title>Get_it_on_Google_play</title><path d="M126,62.25H1a4.95143,4.95143,0,0,1-5-5v-30a4.95143,4.95143,0,0,1,5-5H126a4.95143,4.95143,0,0,1,5,5v30A5.01453,5.01453,0,0,1,126,62.25Z" transform="translate(4 -22.25)" style="fill:#1a2733"/><path d="M43.4,32.45a2.72383,2.72383,0,0,1-.7,2,3.11131,3.11131,0,1,1-2.2-5.3,2.66265,2.66265,0,0,1,1.2.3,2.17763,2.17763,0,0,1,.9.7l-0.5.5a1.8648,1.8648,0,0,0-1.6-.7,1.98969,1.98969,0,0,0-1.6.7,2.41428,2.41428,0,0,0,0,3.4,2.57493,2.57493,0,0,0,1.6.7,2.19323,2.19323,0,0,0,1.7-.7,1.656,1.656,0,0,0,.5-1.2H40.5v-0.8h2.9v0.4Zm4.6-2.5H45.3v1.9h2.5v0.7H45.3v1.9H48v0.8H44.5v-6H48v0.7Zm3.3,5.3H50.5v-5.3H48.8v-0.7H53v0.7H51.3v5.3Zm4.6,0v-6h0.8v6H55.9Zm4.2,0H59.3v-5.3H57.6v-0.7h4.1v0.7H60v5.3h0.1Zm9.5-.8a3.13888,3.13888,0,1,1,.9-2.2A2.94026,2.94026,0,0,1,69.6,34.45Zm-3.8-.5a2.35986,2.35986,0,0,0,1.6.7,1.98969,1.98969,0,0,0,1.6-.7,2.41251,2.41251,0,0,0,.7-1.7,2.06,2.06,0,0,0-.7-1.7,2.35986,2.35986,0,0,0-1.6-.7,1.98969,1.98969,0,0,0-1.6.7,2.41251,2.41251,0,0,0-.7,1.7A2.06,2.06,0,0,0,65.8,33.95Zm5.8,1.3v-6h0.9l2.9,4.7v-4.7h0.8v6H75.4l-3.1-4.9v4.9H71.6Z" transform="translate(4 -22.25)" style="fill:#fff;stroke:#fff;stroke-miterlimit:10;stroke-width:0.20000000298023224px"/><path d="M64.1,44.05a4.20713,4.20713,0,0,0-4.3,4.3,4.26817,4.26817,0,0,0,4.3,4.3,4.20713,4.20713,0,0,0,4.3-4.3A4.1487,4.1487,0,0,0,64.1,44.05Zm0,6.8a2.60833,2.60833,0,0,1,0-5.2,2.42242,2.42242,0,0,1,2.4,2.6A2.48221,2.48221,0,0,1,64.1,50.85Zm-9.3-6.8a4.20713,4.20713,0,0,0-4.3,4.3,4.26818,4.26818,0,0,0,4.3,4.3,4.20713,4.20713,0,0,0,4.3-4.3A4.1487,4.1487,0,0,0,54.8,44.05Zm0,6.8a2.60833,2.60833,0,0,1,0-5.2,2.42242,2.42242,0,0,1,2.4,2.6A2.48221,2.48221,0,0,1,54.8,50.85Zm-11.1-5.5v1.8H48a3.78131,3.78131,0,0,1-1,2.3,4.4262,4.4262,0,0,1-3.3,1.3,4.65579,4.65579,0,0,1-4.7-4.8,4.71716,4.71716,0,0,1,4.7-4.8,4.95833,4.95833,0,0,1,3.3,1.3l1.3-1.3a6.408,6.408,0,0,0-4.5-1.8,6.60075,6.60075,0,1,0,0,13.2,5.755,5.755,0,0,0,4.6-1.9,6.0199,6.0199,0,0,0,1.6-4.2,3.74959,3.74959,0,0,0-.1-1.1H43.7Zm45.4,1.4a3.88535,3.88535,0,0,0-3.6-2.7,4.02752,4.02752,0,0,0-4,4.3,4.18484,4.18484,0,0,0,4.2,4.3,4.10211,4.10211,0,0,0,3.5-1.9l-1.4-1a2.4375,2.4375,0,0,1-2.1,1.2,2.16962,2.16962,0,0,1-2.1-1.3l5.7-2.4Zm-5.8,1.4a2.42927,2.42927,0,0,1,2.2-2.5,1.76884,1.76884,0,0,1,1.6.9Zm-4.7,4.1h1.9V39.75H78.6v12.5Zm-3-7.3a3.29257,3.29257,0,0,0-2.3-1,4.29681,4.29681,0,0,0-4.1,4.3,4.14071,4.14071,0,0,0,4.1,4.2,2.87127,2.87127,0,0,0,2.2-1h0.1v0.6a2.27342,2.27342,0,0,1-4.4,1l-1.6.7a4.12546,4.12546,0,0,0,3.8,2.5c2.2,0,4-1.3,4-4.4v-7.6H75.6v0.7Zm-2.2,5.9a2.60833,2.60833,0,0,1,0-5.2A2.61957,2.61957,0,0,1,73.4,50.85Zm24.4-11.1H93.3v12.5h1.9v-4.7h2.6A3.90488,3.90488,0,1,0,97.8,39.75Zm0.1,6H95.2v-4.3h2.7a2.19649,2.19649,0,0,1,2.2,2.1A2.28851,2.28851,0,0,1,97.9,45.75Zm11.5-1.8a3.36122,3.36122,0,0,0-3.3,1.9l1.7,0.7a1.76641,1.76641,0,0,1,1.7-.9,1.87929,1.87929,0,0,1,2,1.6v0.1a3.96653,3.96653,0,0,0-1.9-.5c-1.8,0-3.6,1-3.6,2.8a2.92961,2.92961,0,0,0,3.1,2.8,2.81406,2.81406,0,0,0,2.4-1.2h0.1v1h1.8v-4.8A3.78451,3.78451,0,0,0,109.4,43.95Zm-0.2,6.9a1.34087,1.34087,0,0,1-1.5-1.1c0-1,1.1-1.3,2-1.3a3.86718,3.86718,0,0,1,1.7.4A2.329,2.329,0,0,1,109.2,50.85Zm10.5-6.6-2.1,5.4h-0.1l-2.2-5.4h-2l3.3,7.6-1.9,4.2h1.9l5.1-11.8h-2Zm-16.8,8h1.9V39.75h-1.9v12.5Z" transform="translate(4 -22.25)" style="fill:#fff"/><path d="M6.4,29.75a1.955,1.955,0,0,0-.4,1.4v22.1a1.97823,1.97823,0,0,0,.5,1.4l0.1,0.1L19,42.35v-0.2Z" transform="translate(4 -22.25)" style="fill:url(#linear-gradient)"/><path d="M23,46.55l-4.1-4.1v-0.3l4.1-4.1,0.1,0.1,4.9,2.8c1.4,0.8,1.4,2.1,0,2.9Z" transform="translate(4 -22.25)" style="fill:url(#linear-gradient-2)"/><path d="M23.1,46.45l-4.2-4.2L6.4,54.75a1.75616,1.75616,0,0,0,2.1.1l14.6-8.4" transform="translate(4 -22.25)" style="fill:url(#linear-gradient-3)"/><path d="M23.1,38.05L8.5,29.75a1.62085,1.62085,0,0,0-2.1.1l12.5,12.4Z" transform="translate(4 -22.25)" style="fill:url(#linear-gradient-4)"/><path d="M23,46.35L8.5,54.55a1.63535,1.63535,0,0,1-2,0l-0.1.1,0.1,0.1a1.63535,1.63535,0,0,0,2,0Z" transform="translate(4 -22.25)" style="opacity:0.20000000298023224;isolation:isolate"/><path d="M6.4,54.55a1.955,1.955,0,0,1-.4-1.4v0.1a1.97823,1.97823,0,0,0,.5,1.4v-0.1H6.4Zm21.6-11-5,2.8,0.1,0.1,4.9-2.8a1.66232,1.66232,0,0,0,1-1.4A1.7464,1.7464,0,0,1,28,43.55Z" transform="translate(4 -22.25)" style="opacity:0.11999999731779099;isolation:isolate"/><path d="M8.5,29.85L28,40.95a1.7464,1.7464,0,0,1,1,1.3,1.66232,1.66232,0,0,0-1-1.4L8.5,29.75c-1.4-.8-2.5-0.2-2.5,1.4v0.1C6,29.75,7.1,29.05,8.5,29.85Z" transform="translate(4 -22.25)" style="fill:#fff;opacity:0.25;isolation:isolate"/></svg>