<svg viewBox="0 0 383 444" fill="none" xmlns="http://www.w3.org/2000/svg" id="el_y3nAopbV4"><style>@-webkit-keyframes kf_el_r-zLmYDDxJ_an__pjpdZolb{0%{opacity: 0;}43.48%{opacity: 1;}65.22%{opacity: 1;}94.20%{opacity: 0;}100%{opacity: 0;}}@keyframes kf_el_r-zLmYDDxJ_an__pjpdZolb{0%{opacity: 0;}43.48%{opacity: 1;}65.22%{opacity: 1;}94.20%{opacity: 0;}100%{opacity: 0;}}#el_y3nAopbV4 *{-webkit-animation-duration: 2.3s;animation-duration: 2.3s;-webkit-animation-iteration-count: infinite;animation-iteration-count: infinite;-webkit-animation-timing-function: cubic-bezier(0, 0, 1, 1);animation-timing-function: cubic-bezier(0, 0, 1, 1);}#el_r-zLmYDDxJ{fill: #38AB43;-webkit-animation-fill-mode: backwards;animation-fill-mode: backwards;opacity: 0;-webkit-animation-name: kf_el_r-zLmYDDxJ_an__pjpdZolb;animation-name: kf_el_r-zLmYDDxJ_an__pjpdZolb;-webkit-animation-timing-function: cubic-bezier(0, 0, 1, 1);animation-timing-function: cubic-bezier(0, 0, 1, 1);}#el_tmrxW8EhTu{fill: #222222;}#el_8sxKc7Gsuv{fill: #FF872C;}</style>
<path d="M382.087 114.322C381.854 102.334 381.631 91.0099 381.631 80.0545C381.631 71.4717 374.497 64.5134 365.694 64.5134C297.538 64.5134 245.645 45.4124 202.391 4.40046C196.203 -1.46786 186.356 -1.46578 180.171 4.40046C136.921 45.4124 85.0368 64.5134 16.8848 64.5134C8.0835 64.5134 0.948079 71.4717 0.948079 80.0545C0.948079 91.012 0.727089 102.34 0.491225 114.33C-1.69317 225.886 -4.68503 378.667 186.061 443.142C187.752 443.714 189.516 444 191.28 444C193.043 444 194.809 443.714 196.499 443.142C387.26 378.665 384.272 225.88 382.087 114.322Z" id="el_r-zLmYDDxJ"/>
<path d="M348.413 132.956C348.22 123.043 348.036 113.679 348.036 104.62C348.036 97.5232 342.161 91.7694 334.909 91.7694C278.769 91.7694 236.025 75.9748 200.397 42.0621C195.3 37.2096 187.189 37.2113 182.094 42.0621C146.469 75.9748 103.732 91.7694 47.5955 91.7694C40.3459 91.7694 34.4684 97.5232 34.4684 104.62C34.4684 113.681 34.2864 123.048 34.0921 132.963C32.2928 225.208 29.8284 351.543 186.946 404.857C188.339 405.33 189.792 405.566 191.245 405.566C192.697 405.566 194.152 405.33 195.543 404.857C352.673 351.541 350.212 225.203 348.413 132.956Z" id="el_tmrxW8EhTu"/>
<g clip-path="url(#clip0)" id="el_3gWmKhO_zk">
<path fill-rule="evenodd" clip-rule="evenodd" d="M86.4335 199.135L86.4359 199.139L155.889 149.742V176.072L104.949 212.303L181.342 266.639V306.797L86.4335 239.29V199.135ZM292.443 199.135L292.439 199.139L222.988 149.742V176.072L273.928 212.303L197.532 266.639V306.797L292.443 239.29V199.135ZM203.987 138.808H174.892V210.635L158.456 198.943L139.721 212.268L189.438 247.632L239.159 212.268L220.423 198.943L203.987 210.635V138.808Z" id="el_8sxKc7Gsuv"/>
</g>
<defs>
<clipPath id="clip0">
<rect width="209.753" height="168.305" fill="white" transform="translate(86.4335 138.808)"/>
</clipPath>
</defs>
</svg>