<svg width="125" height="30" viewBox="0 0 125 30" fill="none" xmlns="http://www.w3.org/2000/svg">
<path d="M69.431 22.3995H73.4551V11.8274H77.8115V8.43652H65.0751V11.8274H69.431V22.3995ZM53.6695 22.499H57.4031L63.294 8.43652H58.8759L55.5778 17.273L52.2801 8.43652H47.7787L53.6695 22.499ZM37.7731 15.3783V11.6879H39.6608C41.1127 11.6879 41.9841 12.326 41.9841 13.523C41.9841 14.6601 41.1127 15.3783 39.6814 15.3783H37.7731ZM33.749 22.3995H37.7731V18.4101H39.7643C43.3735 18.4101 46.0081 16.6745 46.0081 13.3832C46.0081 10.2515 43.6434 8.43652 39.9718 8.43652H33.749V22.3995Z" fill="#222222"/>
<path d="M110.157 22.2285H114.618L117.381 18.153L120.123 22.2285H124.687L119.775 15.3136L124.482 8.7074H120.021L117.462 12.5124L114.925 8.7074H110.361L115.069 15.3523L110.157 22.2285ZM102.502 19.1186C100.333 19.1186 98.839 17.4193 98.839 15.4682C98.839 13.4784 100.292 11.8173 102.461 11.8173C104.651 11.8173 106.146 13.5171 106.146 15.4682C106.146 17.4571 104.693 19.1186 102.502 19.1186ZM102.461 22.499C106.882 22.499 110.198 19.3501 110.198 15.4682C110.198 11.5468 106.923 8.43652 102.502 8.43652C98.0823 8.43652 94.7666 11.5855 94.7666 15.4682C94.7666 19.3891 98.0413 22.499 102.461 22.499ZM84.4927 14.0967V11.7209H87.0718C88.2586 11.7209 88.8723 12.1455 88.8723 12.8797C88.8723 13.7103 88.1974 14.0967 86.9899 14.0967H84.4927ZM84.4927 19.2154V16.7238H87.5221C88.852 16.7238 89.4657 17.2066 89.4657 17.9403C89.4657 18.7709 88.7702 19.2154 87.5631 19.2154H84.4927ZM80.625 22.2285H88.013C91.4312 22.2285 93.4368 20.8188 93.4368 18.5004C93.4368 16.627 92.3314 15.6996 90.5917 15.1587C91.8604 14.6372 92.802 13.7103 92.802 12.1455C92.802 11.1796 92.4542 10.4649 91.8811 9.92436C91.042 9.13244 89.7729 8.7074 87.9716 8.7074H80.625V22.2285Z" fill="#FC8F42"/>
<path d="M25.8167 7.72443C25.8009 6.91447 25.7859 6.14932 25.7859 5.40909C25.7859 4.82917 25.3039 4.35901 24.7091 4.35901C20.1039 4.35901 16.5977 3.0684 13.6751 0.297328C13.257 -0.0991795 12.5917 -0.0990395 12.1737 0.297328C9.25139 3.0684 5.74573 4.35901 1.14087 4.35901C0.546183 4.35901 0.0640594 4.82917 0.0640594 5.40909C0.0640594 6.14946 0.0491276 6.91489 0.0331909 7.72499C-0.114404 15.2626 -0.316556 25.5856 12.5717 29.942C12.686 29.9807 12.8051 30 12.9243 30C13.0435 30 13.1628 29.9807 13.2769 29.942C26.1662 25.5855 25.9643 15.2621 25.8167 7.72443Z" fill="#38AB43"/>
<path d="M23.609 8.984C23.596 8.31425 23.5835 7.68154 23.5835 7.06945C23.5835 6.58991 23.1865 6.20114 22.6966 6.20114C18.9033 6.20114 16.0152 5.13394 13.6079 2.84254C13.2635 2.51467 12.7155 2.51478 12.3712 2.84254C9.96411 5.13394 7.07651 6.20114 3.28348 6.20114C2.79364 6.20114 2.39652 6.58991 2.39652 7.06945C2.39652 7.68166 2.38422 8.31459 2.37109 8.98446C2.24952 15.2173 2.083 23.7534 12.699 27.3557C12.7932 27.3876 12.8913 27.4036 12.9895 27.4036C13.0877 27.4036 13.1859 27.3876 13.2799 27.3557C23.8968 23.7533 23.7305 15.2169 23.609 8.984Z" fill="#222222"/>
<g clip-path="url(#clip0)">
<path fill-rule="evenodd" clip-rule="evenodd" d="M5.83984 13.455L5.84001 13.4554L10.5328 10.1177V11.8968L7.09087 14.3448L12.2526 18.0162V20.7295L5.83984 16.1682V13.455ZM19.7594 13.455L19.7591 13.4554L15.0665 10.1177V11.8968L18.5084 14.3448L13.3465 18.0162V20.7295L19.7594 16.1682V13.455ZM13.7826 9.37891H11.8168V14.2321L10.7062 13.4421L9.44033 14.3424L12.7996 16.7319L16.1591 14.3424L14.8932 13.4421L13.7826 14.2321V9.37891Z" fill="#FF872C"/>
</g>
<defs>
<clipPath id="clip0">
<rect width="14.1725" height="11.372" fill="white" transform="translate(5.83984 9.37891)"/>
</clipPath>
</defs>
</svg>
