<svg width="80" height="80" viewBox="0 0 80 80" fill="none" xmlns="http://www.w3.org/2000/svg">
<path d="M66.1991 43.6523C65.4392 44.0497 65.1428 44.9931 65.537 45.7591C67.1046 48.8046 67.8995 52.1569 67.8995 55.7228C67.8995 67.3861 58.4859 76.8748 46.915 76.8748C41.8566 76.8748 36.9824 75.1124 33.1901 71.9125C31.4605 70.4532 29.2944 69.6495 27.0902 69.6494L15.2617 69.6489C11.0362 69.6489 7.0509 67.3861 4.86105 63.7434C3.70923 61.8275 3.10046 59.6306 3.10046 57.3904V54.4974C3.10046 51.4137 4.72572 48.5052 7.34219 46.9071C8.07436 46.4599 8.30829 45.499 7.86462 44.7609C7.42094 44.0228 6.46771 43.7872 5.73538 44.2343C4.74587 44.8387 3.86162 45.5817 3.10046 46.4297V41.588C3.10046 33.004 4.18763 24.4393 6.33191 16.1318C7.2901 12.4194 10.167 9.48983 13.8401 8.48631L33.0823 3.22887C34.4503 2.85478 35.9078 3.50874 36.5482 4.78306L40.4577 12.5604C41.1455 13.9286 41.2192 15.5314 40.6599 16.9578C40.1007 18.3841 38.9597 19.5031 37.5299 20.0277L29.2359 23.0703C27.0191 23.8834 24.5778 23.1526 23.1606 21.252L21.2471 18.686L22.2097 18.2322C22.9851 17.8666 23.3198 16.9365 22.957 16.1547C22.5943 15.3731 21.6716 15.0362 20.896 15.4014L19.9316 15.8563C18.6858 16.4437 17.1944 16.0016 16.4622 14.8279C16.0066 14.0974 15.0496 13.8774 14.3246 14.3369C13.5998 14.7962 13.3817 15.7609 13.8375 16.4916C14.7309 17.9238 16.1538 18.8454 17.7058 19.1384L19.3779 21.3806V21.8831C19.3779 27.6992 21.4862 33.2989 25.3141 37.6505C28.2714 41.0123 29.9 45.3381 29.9 49.8311V54.0089C29.9 54.872 30.5941 55.5715 31.4503 55.5715C32.3065 55.5715 33.0005 54.872 33.0005 54.0089V49.8311C33.0005 46.8121 32.3709 43.858 31.1807 41.1445C35.1851 36.7507 40.8138 34.2455 46.7543 34.2455C50.1705 34.2455 53.4303 35.0407 56.443 36.6091C57.2039 37.0054 58.1388 36.7046 58.5318 35.9378C58.9248 35.171 58.6265 34.2285 57.8658 33.8323C54.4577 32.058 50.6154 31.1203 46.7544 31.1203C40.3022 31.1203 34.1698 33.6961 29.6387 38.2496C29.0438 37.3132 28.3749 36.4191 27.6341 35.577C25.0204 32.6058 23.3306 28.9646 22.727 25.089C24.9112 26.5723 27.7009 26.9588 30.2964 26.0069L38.5905 22.9643C40.8532 22.1342 42.6584 20.3636 43.5434 18.1064C44.4285 15.8492 44.3119 13.3129 43.2236 11.1478L39.3141 3.37045C38.0125 0.781339 35.051 -0.54689 32.2714 0.212388L13.0289 5.46998C8.28473 6.76618 4.56899 10.5501 3.33129 15.3448C1.12082 23.9092 0 32.7387 0 41.588V57.3904C0 60.2017 0.763953 62.9587 2.20939 65.3631C4.95748 69.9344 9.95882 72.7741 15.2615 72.7741L27.0901 72.7746C28.5678 72.7746 30.0273 73.3195 31.1999 74.3089C35.5492 77.9789 41.1304 80 46.915 80C60.1955 80 71 69.1093 71 55.7228C71 51.7084 70.0626 47.7653 68.2891 44.3197C67.8949 43.5537 66.9595 43.2548 66.1991 43.6523V43.6523Z" fill="#FF872C"/>
<path d="M35.6264 61.4375C35.0257 60.8542 34.0515 60.8542 33.4506 61.4375C32.8498 62.0209 32.8498 62.9668 33.4506 63.5503C37.0698 67.0645 41.8817 69 47 69C52.1183 69 56.9302 67.0645 60.5494 63.5503C61.1502 62.967 61.1502 62.021 60.5494 61.4375C59.9487 60.8542 58.9745 60.8542 58.3736 61.4375C52.1025 67.5272 41.8978 67.5272 35.6264 61.4375V61.4375Z" fill="#FF872C"/>
<path d="M79.8482 10.5145C79.5921 9.96606 79.0539 9.61726 78.4631 9.61726H72.0109L74.7952 2.15107C74.9767 1.6642 74.9138 1.11654 74.6272 0.686676C74.3404 0.256811 73.8667 0 73.3605 0H62.849C62.1917 0 61.6072 0.430657 61.3947 1.07142L56.0825 17.0879C55.9222 17.5714 55.9982 18.105 56.2868 18.5208C56.5753 18.9364 57.0409 19.1831 57.5369 19.1831H64.2611L62.0454 30.0923C61.8997 30.8097 62.251 31.5364 62.8945 31.8488C63.1048 31.9509 63.3279 32 63.5491 32C64.0049 32 64.4509 31.7908 64.75 31.4053L79.6634 12.1893C80.0323 11.714 80.1042 11.063 79.8482 10.5145ZM66.3739 24.2422L67.6571 17.924C67.7519 17.4573 67.6374 16.9715 67.3455 16.6013C67.0537 16.2312 66.6155 16.0165 66.1527 16.0165H59.6861L63.9481 3.16659H71.1237L68.3394 10.6328C68.1579 11.1196 68.2208 11.6673 68.5074 12.0972C68.7942 12.527 69.2679 12.7839 69.7741 12.7839H75.2667L66.3739 24.2422Z" fill="#FF872C"/>
<path d="M64.5605 40.5605C64.8395 40.2815 65 39.8945 65 39.5C65 39.104 64.8395 38.7185 64.5605 38.4395C64.2815 38.1605 63.8945 38 63.5 38C63.1055 38 62.7185 38.1605 62.4395 38.4395C62.1605 38.7185 62 39.104 62 39.5C62 39.8945 62.1605 40.2815 62.4395 40.5605C62.7185 40.8395 63.1055 41 63.5 41C63.8945 41.0001 64.2815 40.8395 64.5605 40.5605Z" fill="#FF872C"/>
</svg>
