<svg width="66" height="66" viewBox="0 0 66 66" fill="none" xmlns="http://www.w3.org/2000/svg">
<path d="M55.3 21.0999C55.2 18.9999 53.5 17.3999 51.4 17.3999C51.3 17.3999 51.3 17.3999 51.2 17.3999C49.3 12.4999 44.4 9.19985 39.2 9.39985C34.3 0.199856 22 -1.90014 14.4 5.19986C13.9 4.89986 13.3 4.79986 12.7 4.79986C10.6 4.79986 8.8 6.49986 8.8 8.69985C8.8 9.89985 9.3 10.8999 10.2 11.5999C8.9 15.0999 8.9 19.0999 10.2 22.5999C4.9 23.2999 1 27.8999 1 33.3999C1 39.4999 5.9 44.3999 12 44.3999H14.7C14.6 45.0999 14.6 45.8998 14.6 46.5998C14.6 56.7998 22.8 64.9998 33 64.9998C43.2 64.9998 51.4 56.6998 51.4 46.5998C51.4 45.8998 51.3 45.0999 51.3 44.3999H53.2C59.7 44.3999 65 39.0999 65 32.5999C65 26.8999 60.9 22.0999 55.3 21.0999ZM53.4 21.2999C53.4 22.3999 52.5 23.1999 51.5 23.1999C50.4 23.1999 49.6 22.2999 49.6 21.2999C49.6 20.1999 50.5 19.3999 51.5 19.3999C52.5 19.2999 53.4 20.1999 53.4 21.2999ZM12.7 6.69986C13.8 6.69986 14.6 7.59986 14.6 8.59986C14.6 9.69986 13.7 10.4999 12.7 10.4999C11.6 10.4999 10.8 9.59986 10.8 8.59986C10.8 7.49986 11.6 6.69986 12.7 6.69986ZM33 63.0998C23.9 63.0998 16.5 55.6998 16.5 46.5998C16.5 37.4998 23.9 30.0999 33 30.0999C42.1 30.0999 49.5 37.4998 49.5 46.5998C49.5 55.6998 42.1 63.0998 33 63.0998ZM53.2 42.3999H51C49.1 34.1999 41.8 28.0999 33 28.0999C24.3 28.0999 16.9 34.1999 15 42.3999H12C7 42.3999 2.9 38.2998 2.9 33.2999C2.9 28.3999 6.7 24.3999 11.6 24.1999C11.9 24.1999 12.2 23.9999 12.4 23.6999C12.6 23.3999 12.6 23.0999 12.4 22.7999C10.9 19.5999 10.7 15.6999 11.8 12.2999C12.1 12.3999 12.3 12.3999 12.6 12.3999C14.7 12.3999 16.5 10.6999 16.5 8.49986C16.5 7.69986 16.3 6.89986 15.8 6.29986C22.7 0.199856 33.6 2.29986 37.7 10.5999C37.9 10.9999 38.3 11.1999 38.6 11.0999C43.2 10.6999 47.6 13.4999 49.3 17.6999C48.2 18.3999 47.5 19.5999 47.5 20.9999C47.5 23.0999 49.2 24.8999 51.4 24.8999C52.9 24.8999 54.2 23.9999 54.9 22.6999C59.6 23.4999 63 27.4999 63 32.2999C63.1 37.9999 58.7 42.3999 53.2 42.3999Z" fill="#FF872C"/>
<path d="M38.8998 44.0008V41.8008C38.8998 38.5008 36.1998 35.9008 32.9998 35.9008C29.6998 35.9008 27.0998 38.6008 27.0998 41.8008V44.0008C25.6998 44.1008 24.6998 45.2008 24.6998 46.6008V54.6008C24.6998 56.0008 25.8998 57.2008 27.2998 57.2008H38.8998C40.2998 57.2008 41.4998 56.0008 41.4998 54.6008V46.6008C41.3998 45.2008 40.2998 44.1008 38.8998 44.0008ZM32.9998 37.8008C35.1998 37.8008 36.9998 39.6008 36.9998 41.8008V44.0008H28.9998V41.8008C28.9998 39.6008 30.7998 37.8008 32.9998 37.8008ZM39.3998 54.5008C39.3998 54.9008 39.0998 55.1008 38.7998 55.1008H27.1998C26.7998 55.1008 26.5998 54.8008 26.5998 54.5008V46.5008C26.5998 46.1008 26.8998 45.9008 27.1998 45.9008H38.7998C39.1998 45.9008 39.3998 46.2008 39.3998 46.5008V54.5008ZM31.0998 17.1008L23.5998 24.6008L19.9998 20.9008C19.5998 20.5008 18.9998 20.5008 18.5998 20.9008C18.1998 21.3008 18.1998 21.9008 18.5998 22.3008L22.8998 26.6008C23.0998 26.8008 23.2998 26.9008 23.5998 26.9008C23.7998 26.9008 24.0998 26.8008 24.2998 26.6008L32.3998 18.5008C32.7998 18.1008 32.7998 17.5008 32.3998 17.1008C32.0998 16.7008 31.4998 16.7008 31.0998 17.1008Z" fill="#FF872C"/>
</svg>
