<svg width="60" height="60" viewBox="0 0 60 60" fill="none" xmlns="http://www.w3.org/2000/svg">
<path d="M26.336 18.4503C26.2064 18.4503 26.0855 18.3811 26.025 18.2688L24.8239 16.1346C23.8476 16.1692 22.923 15.6594 22.4391 14.7953C21.722 13.5252 22.1713 11.9094 23.4414 11.1922C24.0549 10.8466 24.7721 10.7602 25.4547 10.9503C26.1373 11.1404 26.6989 11.581 27.0532 12.1945C27.5371 13.0586 27.5025 14.1041 26.9668 14.9336L28.6517 17.9232C28.7467 18.096 28.6863 18.312 28.5135 18.4157C28.3406 18.5107 28.1246 18.4503 28.0209 18.2775L26.2237 15.0891C26.1546 14.9595 26.1632 14.804 26.2583 14.6916C26.7421 14.0695 26.8113 13.2314 26.4224 12.5574C26.1719 12.1081 25.7571 11.7884 25.2646 11.6502C24.7721 11.5119 24.2537 11.5724 23.8044 11.8316C22.8798 12.3501 22.5515 13.5338 23.0699 14.4583C23.4587 15.1409 24.2105 15.5211 24.9881 15.4174C25.135 15.4002 25.2732 15.4693 25.3424 15.5989L26.6557 17.9318C26.7508 18.1046 26.6903 18.3207 26.5175 18.4243C26.4656 18.4589 26.3965 18.4675 26.3447 18.4675L26.336 18.4503Z" fill="#FF872C"/>
<path d="M31.9841 18.45C31.9236 18.45 31.8631 18.4327 31.8112 18.4068C31.6384 18.3117 31.578 18.0871 31.673 17.9143L32.995 15.5813C33.0641 15.4517 33.211 15.3826 33.3493 15.3999C34.1269 15.4949 34.8787 15.1234 35.2675 14.4408C35.5181 13.9915 35.5872 13.473 35.449 12.9805C35.3107 12.488 34.991 12.0733 34.5417 11.8227C34.0924 11.5721 33.5739 11.503 33.0814 11.6412C32.5889 11.7795 32.1742 12.0992 31.9236 12.5485C31.5434 13.2311 31.6039 14.0692 32.0877 14.6827C32.1742 14.795 32.1914 14.9592 32.1223 15.0802L30.3251 18.2685C30.23 18.4414 30.0054 18.5018 29.8325 18.4068C29.6597 18.3117 29.5992 18.0871 29.6943 17.9143L31.3792 14.9246C30.8435 14.1038 30.8089 13.0496 31.2928 12.1856C31.6384 11.5721 32.2087 11.1228 32.8913 10.9327C33.5739 10.7426 34.2825 10.829 34.9046 11.1746C35.5181 11.5203 35.9588 12.0905 36.1488 12.7732C36.3389 13.4558 36.2525 14.1643 35.9069 14.7864C35.423 15.6505 34.4985 16.1602 33.5221 16.1257L32.321 18.2599C32.2519 18.3809 32.131 18.4414 32.01 18.4414L31.9841 18.45Z" fill="#FF872C"/>
<path d="M47.1673 30.775C47.0031 30.775 46.8476 30.654 46.8131 30.4898L45.059 22.0912C44.6184 19.9829 42.7347 18.4535 40.5832 18.4535H17.7462C15.5947 18.4535 13.7111 19.9829 13.2704 22.0912L11.525 30.438C11.4818 30.6367 11.2917 30.7577 11.1016 30.7145C10.9029 30.6713 10.7819 30.4812 10.8251 30.2911L12.5705 21.9443C13.0803 19.5076 15.2577 17.7363 17.7549 17.7363H40.5919C43.0803 17.7363 45.2664 19.5076 45.7762 21.9443L47.5302 30.343C47.5734 30.5417 47.4438 30.7318 47.2537 30.7663C47.2278 30.775 47.2019 30.775 47.176 30.775H47.1673Z" fill="#FF872C"/>
<path d="M24.5451 44.5291C23.9921 44.5291 23.4391 44.5291 22.8861 44.5205C17.9351 44.4341 9.45869 43.3108 8.24901 36.7095C7.78242 34.1605 9.17355 31.1968 11.4892 29.8143C11.9472 29.5378 12.3619 29.2268 12.768 28.8552C13.9431 27.7579 14.7381 26.2717 15.0146 24.6818L15.2133 23.5067C15.4984 21.8218 16.9414 20.6035 18.6436 20.6035H39.6661C41.3683 20.6035 42.8199 21.8218 43.105 23.5067L43.3037 24.6732C43.5802 26.3063 44.4097 27.827 45.6367 28.933C46.0082 29.27 46.3971 29.5637 46.8291 29.8143C49.6978 31.5165 50.8902 35.0073 49.6632 38.1006V38.1092C49.62 38.2129 49.5768 38.308 49.5249 38.4117C49.4385 38.5931 49.2139 38.6622 49.0411 38.5672C48.8596 38.4808 48.7905 38.2561 48.8855 38.0833C48.9201 38.0055 48.9633 37.9278 48.9892 37.85C48.9892 37.85 48.9892 37.8414 48.9979 37.8414C50.0952 35.0764 49.0238 31.9572 46.4662 30.4278C45.9996 30.1513 45.5676 29.8316 45.1615 29.4601C43.8222 28.2417 42.9063 26.5828 42.6039 24.7855L42.4051 23.6191C42.1805 22.2884 41.0313 21.3207 39.6834 21.3207H18.6609C17.3043 21.3207 16.1638 22.2884 15.9391 23.6191L15.7404 24.7942C15.4466 26.5396 14.5653 28.164 13.2778 29.3737C12.8371 29.7798 12.3792 30.1254 11.878 30.4278C9.83888 31.6375 8.56871 34.3333 8.97482 36.5712C10.0895 42.6714 18.1857 43.7083 22.9207 43.7861C24.6488 43.812 26.4115 43.7861 28.1136 43.7688C28.4679 43.7601 28.8222 43.7601 29.1764 43.7515C36.6851 43.8379 36.927 43.7861 38.2577 43.5096C38.5687 43.4404 38.9575 43.3627 39.5192 43.2676C39.7179 43.2331 39.8994 43.3627 39.9339 43.5614C39.9685 43.7601 39.8389 43.9416 39.6401 43.9762C39.0958 44.0712 38.7329 44.1403 38.4045 44.2095C37.0048 44.5032 36.7542 44.5551 29.1764 44.4687C28.8308 44.4773 28.4766 44.4773 28.1223 44.4859C26.9558 44.5032 25.7634 44.5205 24.5624 44.5205L24.5451 44.5291Z" fill="#FF872C"/>
<path d="M26.6599 42.3104C25.9082 42.3104 25.191 42.3018 24.517 42.2931C24.3701 42.2931 24.2578 42.1722 24.2578 42.0253C24.2578 41.8784 24.3788 41.7574 24.5257 41.7661C25.2083 41.7833 25.9254 41.7833 26.6685 41.7833H26.729C26.8759 41.7833 26.9882 41.8957 26.9882 42.0426C26.9882 42.1894 26.8673 42.3018 26.729 42.3018H26.6772C26.6685 42.3018 26.6685 42.3018 26.6599 42.3018V42.3104Z" fill="#FF872C"/>
<path d="M31.5716 42.3013C31.2173 42.3013 30.8544 42.3013 30.4829 42.3013C30.336 42.3013 30.2236 42.1804 30.2236 42.0335C30.2236 41.8866 30.3446 41.7743 30.4829 41.7743C30.8544 41.7743 31.2087 41.7743 31.5716 41.7743C31.9345 41.7743 32.2888 41.7743 32.6344 41.7656C32.7813 41.7656 32.8936 41.878 32.8936 42.0248C32.8936 42.1717 32.7813 42.2841 32.6344 42.2927C32.2888 42.2927 31.9345 42.3013 31.5716 42.3013Z" fill="#FF872C"/>
<path d="M36.4062 42.1659C36.268 42.1659 36.1556 42.0622 36.147 41.9239C36.1383 41.777 36.242 41.6561 36.3889 41.6388C37.1579 41.5783 37.8492 41.5092 38.5059 41.4141C38.6441 41.3969 38.7824 41.4919 38.7996 41.6388C38.8169 41.7857 38.7219 41.9153 38.575 41.9326C37.901 42.0276 37.2011 42.1054 36.4235 42.1572C36.4148 42.1572 36.4062 42.1572 36.4062 42.1572V42.1659Z" fill="#FF872C"/>
<path d="M20.766 42.0852C20.7573 42.0852 20.7487 42.0852 20.7401 42.0852C19.9624 42.0074 19.2539 41.9037 18.5886 41.7741C18.4503 41.7482 18.3553 41.61 18.3812 41.4717C18.4071 41.3248 18.5454 41.2384 18.6923 41.2643C19.3403 41.3853 20.0315 41.489 20.8005 41.5668C20.9474 41.584 21.0511 41.7136 21.0338 41.8519C21.0166 41.9901 20.9042 42.0852 20.7746 42.0852H20.766Z" fill="#FF872C"/>
<path d="M15.0593 40.6374C15.0248 40.6374 14.9816 40.6288 14.947 40.6115C14.2817 40.3004 13.6596 39.9375 13.0547 39.5055C12.9338 39.4191 12.9078 39.2549 12.9942 39.1426C13.0806 39.0216 13.2448 38.9957 13.3571 39.0821C13.9447 39.4969 14.5323 39.8425 15.1717 40.1363C15.3013 40.1968 15.3617 40.3523 15.2926 40.4819C15.2494 40.5769 15.1544 40.6288 15.0593 40.6288V40.6374Z" fill="#FF872C"/>
<path d="M47.1396 37.09C47.3297 36.6061 47.4248 36.1136 47.4248 35.6124C47.4248 35.4655 47.5458 35.3359 47.684 35.3359C47.8309 35.3359 47.9432 35.4396 47.9432 35.5779V35.6124C47.9432 36.1827 47.8395 36.7357 47.6322 37.2714L47.1396 37.09Z" fill="#FF872C"/>
<path d="M10.7495 36.8446C10.6285 36.8446 10.5248 36.7668 10.4903 36.6372C10.4125 36.3003 10.3779 35.9633 10.3779 35.6177C10.3779 35.1943 10.4384 34.7795 10.5507 34.3821C10.5939 34.2438 10.7322 34.1574 10.8704 34.2006C11.0087 34.2438 11.0865 34.3821 11.0519 34.529C10.9482 34.8832 10.8964 35.2548 10.8964 35.6263C10.8964 35.9287 10.9309 36.2311 11.0001 36.5249C11.0346 36.6631 10.9482 36.81 10.8013 36.836C10.784 36.8446 10.7668 36.8446 10.7408 36.8446H10.7495Z" fill="#FF872C"/>
<path d="M46.1082 32.5608C46.0477 32.5608 45.9872 32.5435 45.944 32.5003C45.7885 32.3707 45.6157 32.2583 45.4429 32.146C44.9936 31.8782 44.5875 31.593 44.19 31.2647C44.0777 31.1696 44.0604 31.0055 44.1554 30.8931C44.2505 30.7808 44.4147 30.7635 44.527 30.8586C44.9072 31.1696 45.296 31.4461 45.7194 31.6967C45.9181 31.8177 46.1082 31.9473 46.281 32.0942C46.3933 32.1892 46.4106 32.3534 46.3156 32.4657C46.2637 32.5262 46.186 32.5608 46.1082 32.5608Z" fill="#FF872C"/>
<path d="M13.1755 31.9249C13.0891 31.9249 13.0113 31.8817 12.9595 31.8039C12.8817 31.683 12.9163 31.5188 13.0373 31.441C13.4347 31.1732 13.8063 30.888 14.1692 30.5597C14.3333 30.4128 14.4889 30.2573 14.6444 30.1018C14.7481 29.9981 14.9123 29.9894 15.0159 30.0931C15.1196 30.1968 15.1283 30.361 15.0246 30.4647C14.8604 30.6288 14.6962 30.793 14.5234 30.9485C14.1432 31.2941 13.7544 31.5966 13.331 31.8731C13.2878 31.899 13.236 31.9163 13.1841 31.9163L13.1755 31.9249Z" fill="#FF872C"/>
<path d="M41.9711 28.4369C41.8761 28.4369 41.7897 28.385 41.7378 28.2986C41.3836 27.6506 41.0984 26.968 40.8911 26.2595C40.8479 26.1212 40.9343 25.9743 41.0725 25.9311C41.2108 25.8879 41.3577 25.9743 41.4009 26.1126C41.5996 26.7779 41.8675 27.4346 42.2044 28.0394C42.2736 28.169 42.2304 28.3245 42.1007 28.3937C42.0575 28.4196 42.0143 28.4282 41.9711 28.4282V28.4369Z" fill="#FF872C"/>
<path d="M16.6825 27.5712C16.5529 27.5107 16.4924 27.3552 16.5529 27.2256C16.8466 26.5862 17.0713 25.9208 17.2182 25.2469C17.2527 25.1086 17.391 25.0136 17.5292 25.0481C17.6675 25.0827 17.7625 25.221 17.728 25.3592C17.5724 26.0764 17.3392 26.7763 17.0281 27.4502C16.9849 27.5366 16.8985 27.5971 16.8121 27.6058C16.7689 27.6058 16.7257 27.5971 16.6825 27.5798V27.5712Z" fill="#FF872C"/>
<path d="M39.6871 23.3153H37.5356C37.3887 23.3153 37.2764 23.1943 37.2764 23.0561C37.2764 22.9092 37.3973 22.7969 37.5356 22.7969H39.6784C39.8253 22.7969 39.9463 22.9178 39.9463 23.0561C39.9463 23.203 39.834 23.3153 39.6871 23.3153Z" fill="#FF872C"/>
<path d="M33.7642 23.3153H31.6127C31.4658 23.3153 31.3535 23.1943 31.3535 23.0561C31.3535 22.9092 31.4745 22.7969 31.6127 22.7969H33.7642C33.9111 22.7969 34.0234 22.9178 34.0234 23.0561C34.0234 23.203 33.9111 23.3153 33.7642 23.3153Z" fill="#FF872C"/>
<path d="M27.859 23.3153H25.7075C25.5606 23.3153 25.4482 23.1943 25.4482 23.0561C25.4482 22.9092 25.5692 22.7969 25.7075 22.7969H27.859C28.0058 22.7969 28.1182 22.9178 28.1182 23.0561C28.1182 23.203 27.9972 23.3153 27.859 23.3153Z" fill="#FF872C"/>
<path d="M21.9351 23.3153H19.7836C19.6367 23.3153 19.5244 23.1943 19.5244 23.0561C19.5244 22.9092 19.6454 22.7969 19.7836 22.7969H21.9351C22.082 22.7969 22.1943 22.9178 22.1943 23.0561C22.1943 23.203 22.0734 23.3153 21.9351 23.3153Z" fill="#FF872C"/>
<path d="M45.3635 37.177C42.322 37.177 39.8422 39.6482 39.8422 42.6983C39.8422 45.7398 42.3134 48.2196 45.3635 48.2196C48.405 48.2196 50.8848 45.7484 50.8848 42.6983C50.8848 39.6568 48.4136 37.177 45.3635 37.177ZM45.3635 48.9281C41.9245 48.9281 39.125 46.1286 39.125 42.6896C39.125 39.2507 41.9245 36.4512 45.3635 36.4512C48.8024 36.4512 51.602 39.2507 51.602 42.6896C51.602 46.1286 48.8024 48.9281 45.3635 48.9281Z" fill="#FF872C"/>
<path d="M44.7592 40.2806C44.5864 40.3325 44.4395 40.393 44.3358 40.4621C44.2235 40.5312 44.1716 40.6262 44.1716 40.7818C44.1716 40.92 44.2235 41.0151 44.3272 41.0842C44.4309 41.1533 44.5778 41.2138 44.7678 41.2743V40.2806H44.7592ZM45.0011 41.8359C44.9839 41.8359 44.9579 41.8359 44.9407 41.8273C44.5518 41.7236 44.2581 41.6113 44.0593 41.4817C43.8174 41.3261 43.6878 41.0756 43.6878 40.7731C43.6878 40.4534 43.826 40.2029 44.0852 40.0473C44.3013 39.9177 44.5864 39.814 44.9493 39.7363C45.0184 39.719 45.0962 39.7363 45.148 39.7881C45.1999 39.8313 45.2344 39.9004 45.2344 39.9782V41.594C45.2344 41.6717 45.1999 41.7409 45.1394 41.7841C45.0962 41.8186 45.0443 41.8359 44.9925 41.8359H45.0011ZM46.0034 43.1579V44.4108C46.2367 44.3589 46.4182 44.2725 46.5564 44.1689C46.7206 44.0479 46.7984 43.9096 46.7984 43.7627C46.7984 43.5986 46.7379 43.4863 46.591 43.3998C46.4527 43.3134 46.254 43.2357 46.0034 43.1666V43.1579ZM45.7615 44.9379C45.701 44.9379 45.6492 44.9206 45.606 44.8774C45.5541 44.8342 45.5196 44.765 45.5196 44.6959V42.8469C45.5196 42.7777 45.5541 42.7086 45.606 42.6568C45.6665 42.6136 45.7356 42.5963 45.8047 42.6136C46.254 42.7172 46.591 42.8382 46.8329 42.9851C47.1181 43.1666 47.265 43.4258 47.265 43.7541C47.265 43.9615 47.1872 44.2725 46.8416 44.5404C46.591 44.7391 46.2367 44.8687 45.7874 44.9292C45.7788 44.9292 45.7615 44.9292 45.7529 44.9292L45.7615 44.9379ZM42.9792 43.4603C42.8064 43.4603 42.6595 43.5035 42.5559 43.5813C42.4263 43.6763 42.4263 43.7368 42.4263 43.7541C42.4263 43.8924 42.4695 44.0392 42.5645 44.1948C42.6595 44.3589 42.8151 44.5231 43.0225 44.6786C43.2385 44.8342 43.5063 44.9724 43.8347 45.0847C44.1716 45.1971 44.5605 45.2662 45.0098 45.3008C45.1307 45.3094 45.2344 45.4131 45.2344 45.5427V46.6832C45.2344 46.7783 45.2517 46.8042 45.2517 46.8042C45.2517 46.8042 45.2863 46.8215 45.3813 46.8215C45.4418 46.8215 45.4764 46.8128 45.485 46.8128C45.4936 46.7869 45.5109 46.7264 45.5109 46.5882V45.534C45.5109 45.4044 45.606 45.3008 45.7356 45.2921C46.2799 45.2576 46.7552 45.1625 47.144 44.9897C47.5242 44.8255 47.8093 44.6268 47.9994 44.3762C48.1809 44.1343 48.2759 43.8924 48.2759 43.6159C48.2759 43.3998 48.2241 43.2098 48.1117 43.0369C47.9994 42.8555 47.8266 42.6913 47.6106 42.5617C47.3946 42.4235 47.1526 42.3198 46.8848 42.2507C46.5996 42.1729 46.2195 42.0865 45.7097 41.9914C45.5973 41.9655 45.5109 41.8705 45.5109 41.7582V40.0041C45.5109 39.935 45.5455 39.8659 45.5973 39.814C45.6578 39.7708 45.7269 39.7536 45.7961 39.7708C46.3836 39.9004 46.7638 40.1942 46.928 40.6176C46.9798 40.7559 47.0922 40.9114 47.4723 40.9114C47.6365 40.9114 47.7661 40.8768 47.8698 40.7991C47.9908 40.7126 47.9908 40.6522 47.9908 40.6262C47.9908 40.5485 47.9562 40.4448 47.8784 40.3411C47.792 40.2115 47.6711 40.0819 47.5069 39.9523C47.2995 39.7795 47.0576 39.6585 46.7811 39.5721C46.496 39.4857 46.1417 39.4252 45.7269 39.3993C45.5973 39.3907 45.5023 39.287 45.5023 39.1574V38.6994C45.5023 38.6216 45.5023 38.5957 45.3554 38.5957C45.2172 38.5957 45.2172 38.6216 45.2172 38.7081V39.1574C45.2172 39.287 45.1221 39.3907 44.9925 39.3993C44.2062 39.4511 43.61 39.6153 43.2039 39.9004C42.8237 40.1683 42.6423 40.488 42.6423 40.8941C42.6423 41.2052 42.7287 41.4471 42.9188 41.6372C43.1175 41.8446 43.3767 42.0087 43.7051 42.1211C44.0593 42.242 44.5 42.363 45.0184 42.458C45.1307 42.484 45.2172 42.579 45.2172 42.6913V44.6527C45.2172 44.7218 45.1826 44.791 45.1307 44.8342C45.0789 44.8774 45.0011 44.8947 44.932 44.886C44.6382 44.8255 44.3877 44.7391 44.2062 44.6182C44.0075 44.4972 43.8692 44.3676 43.7655 44.2121C43.6791 44.0738 43.5754 43.8837 43.4631 43.6504C43.4458 43.6159 43.4113 43.564 43.3162 43.5122C43.2212 43.469 43.1089 43.443 42.962 43.443L42.9792 43.4603ZM45.3813 47.2881C45.1653 47.2881 45.0011 47.2276 44.8975 47.1153C44.8024 47.0116 44.7506 46.8647 44.7506 46.666V45.7414C44.3531 45.6982 43.9988 45.6205 43.6791 45.5168C43.3076 45.3872 42.9879 45.2316 42.7287 45.0415C42.4695 44.8428 42.2707 44.6354 42.1411 44.4194C42.0029 44.1948 41.9424 43.9615 41.9424 43.7368C41.9424 43.5899 42.0029 43.3653 42.2707 43.1752C42.4608 43.0369 42.6941 42.9678 42.9706 42.9678C43.1866 42.9678 43.3767 43.0024 43.5322 43.0801C43.7051 43.1666 43.8347 43.2875 43.9038 43.443C44.0075 43.6591 44.0939 43.8232 44.1716 43.9442C44.2321 44.0392 44.3272 44.1256 44.4654 44.2034C44.5432 44.2553 44.6382 44.2898 44.7506 44.333V42.8728C44.2926 42.7777 43.8951 42.674 43.5582 42.5531C43.1607 42.4148 42.8324 42.2075 42.5818 41.9482C42.3139 41.6717 42.1757 41.3088 42.1757 40.8682C42.1757 40.3065 42.4349 39.8313 42.936 39.4771C43.3681 39.1746 43.9729 38.9845 44.7419 38.9068V38.6821C44.7419 38.3106 44.9752 38.0859 45.364 38.0859C45.7529 38.0859 45.9948 38.3106 45.9948 38.6735V38.9068C46.3491 38.9413 46.6688 39.0018 46.928 39.0796C47.265 39.1833 47.5674 39.3388 47.818 39.5462C48.0253 39.7104 48.1722 39.8745 48.2845 40.0473C48.4055 40.2374 48.4746 40.4189 48.4746 40.5917C48.4746 40.7472 48.4228 40.9632 48.1549 41.1533C47.9648 41.2829 47.7402 41.352 47.481 41.352C46.8589 41.352 46.5996 41.0237 46.4873 40.7559C46.4095 40.5485 46.2454 40.393 45.9948 40.2893V41.5249C46.4182 41.6113 46.7552 41.6804 47.0057 41.7495C47.3254 41.8359 47.6106 41.9569 47.8698 42.1211C48.1463 42.2939 48.371 42.5099 48.5178 42.7518C48.6734 43.011 48.7598 43.2875 48.7598 43.5899C48.7598 43.9615 48.6302 44.3157 48.3882 44.6354C48.1463 44.9465 47.8007 45.2057 47.3427 45.3958C46.9539 45.56 46.5046 45.6637 46.0034 45.7155V46.545C46.0034 46.761 45.9689 46.9165 45.8998 47.0375C45.8393 47.1412 45.701 47.2621 45.39 47.2621L45.3813 47.2881Z" fill="#FF872C"/>
</svg>
