<?xml version="1.0" encoding="utf-8"?><svg xmlns="http://www.w3.org/2000/svg" xmlns:xlink="http://www.w3.org/1999/xlink"><symbol viewBox="0 0 60 60" id="admin" xmlns="http://www.w3.org/2000/svg"><path d="M57 0H3a2.946 2.946 0 0 0-3 3v40a2.946 2.946 0 0 0 3 3h20v8h-6a2.946 2.946 0 0 0-3 3v3h32v-3a2.946 2.946 0 0 0-3-3h-6v-8h20a2.946 2.946 0 0 0 3-3V3a2.946 2.946 0 0 0-3-3zM43 56a.945.945 0 0 1 1 1v1H16v-1a.945.945 0 0 1 1-1h26zm-8-2H25v-8h10v8zm23-11a.945.945 0 0 1-1 1H3a.945.945 0 0 1-1-1V3a.945.945 0 0 1 1-1h54a.945.945 0 0 1 1 1v40z"/><path d="M4 38h52V4H4v34zm46-22H10v-6h40v6zm-40 2h6v18h-6V18zm8 18V18h32v18H18zM6 6h48v30h-2V8H8v28H6V6z"/><circle cx="47" cy="13" r="1"/><circle cx="43" cy="13" r="1"/><circle cx="39" cy="13" r="1"/><path d="M20 34h28V20H20v14zm26-2H35V22h11v10zM22 22h11v10H22V22z"/><path d="M24 24h7v2h-7zm13 0h7v2h-7z"/></symbol><symbol viewBox="0 0 25 30" id="android" xmlns="http://www.w3.org/2000/svg"><path d="M5 22.492c0 .751.5 1.251 1.25 1.251H7.5v4.38C7.5 29.124 8.375 30 9.375 30s1.875-.876 1.875-1.877v-4.38h2.5v4.38c0 1.001.875 1.877 1.875 1.877s1.875-.876 1.875-1.877v-4.38h1.25c.75 0 1.25-.5 1.25-1.25V9.978H5v12.513zM1.875 9.98c-1 0-1.875.876-1.875 1.877v8.76c0 1 .875 1.876 1.875 1.876s1.875-.876 1.875-1.877v-8.759c0-1-.875-1.877-1.875-1.877zm21.25 0c-1 0-1.875.876-1.875 1.877v8.76c0 1 .875 1.876 1.875 1.876S25 21.616 25 20.615v-8.759c0-1-.875-1.877-1.875-1.877zm-6.25-7.257L18.5 1.095a.605.605 0 0 0 0-.876.604.604 0 0 0-.875 0L15.75 2.096c-.875-.626-2-.876-3.25-.876s-2.375.25-3.375.75L7.375.095c-.25-.125-.75-.125-1 0-.125.25-.125.75 0 1L8 2.723C6.25 4.098 5 6.225 5 8.728h15c0-2.503-1.25-4.755-3.125-6.006zM10 6.225H8.75V4.974H10v1.251zm6.25 0H15V4.974h1.25v1.251z" fill-rule="evenodd"/></symbol><symbol viewBox="0 0 24 29" id="apple" xmlns="http://www.w3.org/2000/svg"><path d="M13.525 2.194C14.59.967 16.386.058 17.862 0c.195 1.7-.495 3.4-1.531 4.632-1.034 1.223-2.716 2.182-4.375 2.054-.22-1.67.614-3.403 1.57-4.492zM21.96 25.4c-1.235 1.768-2.506 3.533-4.522 3.563-1.97.035-2.605-1.151-4.86-1.151-2.255 0-2.963 1.121-4.828 1.186-1.938.07-3.41-1.904-4.651-3.672-2.531-3.597-4.464-10.173-1.864-14.608C2.523 8.51 4.828 7.115 7.33 7.081c1.9-.039 3.7 1.26 4.867 1.26 1.16 0 3.349-1.559 5.638-1.325.96.036 3.662.378 5.396 2.868-.14.087-3.224 1.852-3.19 5.526.045 4.389 3.919 5.85 3.958 5.863-.04.102-.624 2.085-2.04 4.127z" fill-rule="evenodd"/></symbol><symbol viewBox="0 0 25.047 7.573" id="arrow" xmlns="http://www.w3.org/2000/svg"><defs><clipPath id="ada" transform="translate(41.88 9.417)"><path d="M-41.88-9.417h25.046v7.573H-41.88z"/></clipPath></defs><g clip-path="url(#ada)"><path d="M21.529.114a.38.38 0 0 0-.543 0 .385.385 0 0 0 0 .538l2.752 2.752H.381A.379.379 0 0 0 0 3.785a.385.385 0 0 0 .381.386h23.357l-2.752 2.745a.391.391 0 0 0 0 .543.38.38 0 0 0 .543 0l3.404-3.404a.372.372 0 0 0 0-.536z"/></g></symbol><symbol viewBox="0 0 52 20" id="arrow-big" xmlns="http://www.w3.org/2000/svg"><path d="M.486.124l25.455 19.458L51.822 0h-5.536L26.21 15.141 6.088.154" fill-rule="evenodd"/></symbol><symbol viewBox="0 0 459 459" id="back-arrow" xmlns="http://www.w3.org/2000/svg"><path d="M178.5 140.25v-102L0 216.75l178.5 178.5V290.7c127.5 0 216.75 40.8 280.5 130.05-25.5-127.5-102-255-280.5-280.5z"/></symbol><symbol viewBox="0 0 14.605 16.99" id="bell" xmlns="http://www.w3.org/2000/svg"><path d="M7.303 16.99a2.102 2.102 0 0 1-2.1-2.099v-.3H0v-1.506l1.6-1.6v-4.19a5.6 5.6 0 0 1 4.003-5.417v-.179A1.723 1.723 0 0 1 7.303 0a1.723 1.723 0 0 1 1.7 1.7v.178a5.6 5.6 0 0 1 4.002 5.418v4.19l1.6 1.599v1.507H9.404v.3a2.043 2.043 0 0 1-.212.861 1.854 1.854 0 0 1-1.497 1.232zm-.98-1.599a1.102 1.102 0 0 0 .98.6h.32a.884.884 0 0 0 .64-.6h-1.94zM1 13.591h12.605V13.5l-1.6-1.6V7.297a4.628 4.628 0 0 0-3.619-4.551l-.383-.093V1.7a.728.728 0 0 0-.7-.699.727.727 0 0 0-.7.7v.952l-.383.093a4.629 4.629 0 0 0-3.62 4.55V11.9L1 13.499v.093z" data-name="Capa 1"/></symbol><symbol viewBox="0 0 22 22" id="close" xmlns="http://www.w3.org/2000/svg"><path d="M21.707 1.707A1 1 0 0 0 20.293.293l1.414 1.414zM.293 20.293a1 1 0 1 0 1.414 1.414L.293 20.293zm1.414-20A1 1 0 0 0 .293 1.707L1.707.293zm18.586 21.414a1 1 0 0 0 1.414-1.414l-1.414 1.414zm0-21.414l-20 20 1.414 1.414 20-20L20.293.293zm-20 1.414l20 20 1.414-1.414-20-20L.293 1.707z"/></symbol><symbol viewBox="0 0 433.5 316.999" id="confidentiality" xmlns="http://www.w3.org/2000/svg"><path d="M255.879 153.369h-11.763v-26.598a50.674 50.674 0 0 0-50.617-50.617 50.675 50.675 0 0 0-50.617 50.617v26.598h-11.761a7.5 7.5 0 0 0-7.5 7.5v110.575a7.5 7.5 0 0 0 7.5 7.5h124.758a7.5 7.5 0 0 0 7.5-7.5V160.869a7.5 7.5 0 0 0-7.5-7.5zm-97.997-26.597a35.658 35.658 0 0 1 35.617-35.617 35.658 35.658 0 0 1 35.617 35.617v26.598h-71.234v-26.598zm90.497 137.173H138.621V168.37h109.758v95.575z"/><path d="M186 225.891v18.22a7.5 7.5 0 0 0 7.5 7.5 7.5 7.5 0 0 0 7.5-7.5v-18.22a23.133 23.133 0 0 0 15.596-21.839 23.122 23.122 0 0 0-23.096-23.096 23.122 23.122 0 0 0-23.095 23.096A23.13 23.13 0 0 0 186 225.891zm7.5-29.934a8.105 8.105 0 0 1 8.096 8.096 8.105 8.105 0 0 1-8.096 8.096 8.105 8.105 0 0 1-8.095-8.096 8.104 8.104 0 0 1 8.095-8.096z"/><path d="M429.073 89.835a20.462 20.462 0 0 0-16.159-7.836H387V55.03a19.053 19.053 0 0 0-19.031-19.031H186.86a2.961 2.961 0 0 1-2.782-1.959l-7.784-21.783A18.51 18.51 0 0 0 158.898 0H68.102a18.514 18.514 0 0 0-17.396 12.257l-7.785 21.784A2.96 2.96 0 0 1 40.14 36H19.031A19.05 19.05 0 0 0 0 55.03v242.938a19.053 19.053 0 0 0 19.031 19.031h348.938a19.039 19.039 0 0 0 18.974-17.908l45.982-191.713a20.465 20.465 0 0 0-3.852-17.543zM372 297.967a4.036 4.036 0 0 1-4.031 4.031H19.031A4.036 4.036 0 0 1 15 297.967V55.03a4.036 4.036 0 0 1 4.031-4.031H40.14a17.992 17.992 0 0 0 16.906-11.912l7.785-21.784a3.481 3.481 0 0 1 3.271-2.304h90.796a3.48 3.48 0 0 1 3.271 2.305l7.784 21.784a17.993 17.993 0 0 0 16.907 11.911h181.109A4.036 4.036 0 0 1 372 55.03v242.937zm46.339-194.088L387 234.541V96.998h25.914a5.49 5.49 0 0 1 4.381 2.125 5.492 5.492 0 0 1 1.044 4.756z"/></symbol><symbol viewBox="0 0 48.625 48.625" id="device-browser" xmlns="http://www.w3.org/2000/svg"><path d="M35.432 10.815l.047.361-.541.112-.072.769h.648l.862-.083.445-.529-.473-.184-.259-.298-.389-.63-.186-.891-.731.149-.205.314v.354l.352.241z"/><path d="M34.809 11.111l.039-.482-.429-.185-.6.139-.445.714v.463h.519zm-12.35 2.047l-.132.34h-.639v.33h.152l.022.162.392-.033.245-.152.064-.307.317-.027.125-.258-.291-.06-.255.005zm-1.647.599l-.025.323.463-.039.048-.324-.278-.219z"/><path d="M48.619 24.061a24.552 24.552 0 0 0-.11-2.112 24.165 24.165 0 0 0-1.609-6.62c-.062-.155-.119-.312-.185-.465a24.341 24.341 0 0 0-4.939-7.441 24.19 24.19 0 0 0-1.11-1.086A24.22 24.22 0 0 0 24.312 0c-6.345 0-12.126 2.445-16.46 6.44a24.6 24.6 0 0 0-2.78 3.035A24.18 24.18 0 0 0 0 24.312c0 13.407 10.907 24.313 24.313 24.313 9.43 0 17.617-5.4 21.647-13.268a24.081 24.081 0 0 0 2.285-6.795c.245-1.381.379-2.801.379-4.25.001-.084-.004-.167-.005-.251zm-4.576-9.717l.141-.158c.185.359.358.724.523 1.094l-.23-.009-.434.06v-.987zm-3.513-4.242l.004-1.086c.382.405.75.822 1.102 1.254l-.438.652-1.531-.014-.096-.319.959-.487zM11.202 7.403v-.041h.487l.042-.167h.797v.348l-.229.306h-1.098l.001-.446zm.778 1.085s.487-.083.529-.083 0 .486 0 .486l-1.098.069-.209-.25.778-.222zm33.612 9.651h-1.779l-1.084-.807-1.141.111v.696h-.361l-.39-.278-1.976-.501v-1.28l-2.504.195-.776.417h-.994l-.487-.049-1.207.67v1.261l-2.467 1.78.205.76h.5l-.131.724-.352.129-.019 1.892 2.132 2.428h.928l.056-.148h1.668l.481-.445h.946l.519.52 1.41.146-.187 1.875 1.565 2.763-.824 1.575.056.742.649.647v1.784l.852 1.146v1.482h.736c-4.096 5.029-10.33 8.25-17.305 8.25C12.009 46.625 2 36.615 2 24.312c0-3.097.636-6.049 1.781-8.732v-.696l.798-.969c.277-.523.574-1.033.891-1.53l.036.405-.926 1.125a22.14 22.14 0 0 0-.798 1.665v1.27l.927.446v1.765l.889 1.517.723.111.093-.52-.853-1.316-.167-1.279h.5l.211 1.316 1.233 1.799-.318.581.784 1.199 1.947.482v-.315l.779.111-.074.556.612.112.945.258 1.335 1.521 1.705.129.167 1.391-1.167.816-.055 1.242-.167.76 1.688 2.113.129.724s.612.166.687.166c.074 0 1.372.983 1.372.983v3.819l.463.13-.315 1.762.779 1.039-.144 1.746 1.029 1.809 1.321 1.154 1.328.024.13-.427-.976-.822.056-.408.175-.5.037-.51-.66-.02-.333-.418.548-.527.074-.398-.612-.175.036-.37.872-.132 1.326-.637.445-.816 1.391-1.78-.316-1.392.427-.741 1.279.039.861-.682.278-2.686.955-1.213.167-.779-.871-.279-.575-.943-1.965-.02-1.558-.594-.074-1.111-.52-.909-1.409-.021-.814-1.278-.723-.353-.037.39-1.316.078-.482-.671-1.373-.279-1.131 1.307-1.78-.302-.129-2.006-1.299-.222.521-.984-.149-.565-1.707 1.141-1.074-.131-.383-.839.234-.865.592-1.091 1.363-.69 2.632-.001-.007.803.946.44-.075-1.372.682-.686 1.376-.904.094-.636 1.372-1.428 1.459-.808-.129-.106.988-.93.362.096.166.208.375-.416.092-.041-.411-.058-.417-.139v-.4l.221-.181h.487l.223.098.193.39.236-.036v-.034l.068.023.684-.105.097-.334.39.098v.362l-.362.249h.001l.053.397 1.239.382.003.015.285-.024.019-.537-.982-.447-.056-.258.815-.278.036-.78-.852-.519-.056-1.315-1.168.574h-.426l.112-1.001-1.59-.375-.658.497v1.516l-1.183.375-.474.988-.514.083v-1.264l-1.112-.154-.556-.362-.224-.819 1.989-1.164.973-.296.098.654.542-.028.042-.329.567-.081.01-.115-.244-.101-.056-.348.697-.059.421-.438.023-.032.005.002.128-.132 1.465-.185.648.55-1.699.905 2.162.51.28-.723h.945l.334-.63-.668-.167v-.797l-2.095-.928-1.446.167-.816.427.056 1.038-.853-.13-.131-.574.817-.742-1.483-.074-.426.129-.185.5.556.094-.111.556-.945.056-.148.37-1.371.038s-.038-.778-.093-.778l1.075-.019.817-.798-.446-.223-.593.576-.984-.056-.593-.816h-1.261l-1.316.983h1.206l.11.353-.313.291 1.335.037.204.482-1.503-.056-.073-.371-.945-.204-.501-.278-1.125.009A22.188 22.188 0 0 1 24.312 2c5.642 0 10.797 2.109 14.73 5.574l-.265.474-1.029.403-.434.471.1.549.531.074.32.8.916-.369.151 1.07h-.276l-.752-.111-.834.14-.807 1.14-1.154.181-.167.988.487.115-.141.635-1.146-.23-1.051.23-.223.585.182 1.228.617.289 1.035-.006.699-.063.213-.556 1.092-1.419.719.147.708-.64.132.5 1.742 1.175-.213.286-.785-.042.302.428.483.106.566-.236-.012-.682.251-.126-.202-.214-1.162-.648-.306-.861h.966l.309.306.832.717.035.867.862.918.321-1.258.597-.326.112 1.029.583.64 1.163-.02c.225.579.427 1.168.604 1.769l-.121.112zm-32.331-7.093l.584-.278.528.126-.182.709-.57.181-.36-.738zm3.099 1.669v.459h-1.334l-.5-.139.125-.32.641-.265h.876v.265h.192zm.614.64v.445l-.334.215-.416.077v-.737h.75zm-.376-.181v-.529l.459.418-.459.111zm.209 1.07v.433l-.319.32h-.709l.111-.486.335-.029.069-.167.513-.071zm-1.766-.889h.737l-.945 1.321-.39-.209.084-.556.514-.556zm3.018.737v.432h-.709l-.194-.28v-.402h.056l.847.25zm-.655-.594l.202-.212.341.212-.273.225-.27-.225zm28.55 5.767l.07-.082c.029.126.06.252.088.38l-.158-.298z"/><path d="M3.782 14.884v.696c.243-.568.511-1.122.798-1.665l-.798.969z"/></symbol><symbol viewBox="0 0 19 17" id="device-desktop" xmlns="http://www.w3.org/2000/svg"><path d="M18.679 3.09H6.442v1.54h11.265v8.195H6.442v2.026h2.047l-1.442 1.401a.247.247 0 0 0-.075.177v.314c0 .136.11.246.244.246h7.375c.134 0 .243-.11.243-.246v-.314a.247.247 0 0 0-.074-.177l-1.442-1.401h5.36a.323.323 0 0 0 .322-.324V3.414a.323.323 0 0 0-.321-.324zm-7.776 10.45c.195 0 .354.16.354.356a.355.355 0 0 1-.354.357.355.355 0 0 1-.353-.357c0-.197.158-.356.353-.356zM4.95.011H.393A.395.395 0 0 0 0 .408v16.168c0 .219.176.396.393.396H4.95a.395.395 0 0 0 .394-.396V.408A.395.395 0 0 0 4.95.011zm-2.7 2.016c0-.035.027-.063.061-.063h.721c.035 0 .062.028.062.063v6.26a.063.063 0 0 1-.062.063h-.72a.062.062 0 0 1-.063-.063v-6.26zm.792 9.551a.372.372 0 0 1-.37.373.372.372 0 0 1-.37-.373c0-.206.165-.373.37-.373.204 0 .37.167.37.373zm-.37 2.98a.875.875 0 0 1-.872-.88c0-.485.39-.878.872-.878.481 0 .871.393.871.879 0 .485-.39.879-.871.879z" fill-rule="evenodd"/></symbol><symbol viewBox="0 0 13 20" id="device-phone" xmlns="http://www.w3.org/2000/svg"><path d="M11.05 0h-9.1C.877 0 0 .844 0 1.875v16.25C0 19.156.877 20 1.95 20h9.1c1.072 0 1.95-.844 1.95-1.875V1.875C13 .844 12.123 0 11.05 0zM3.9.938h5.2v.625H3.9V.938zM6.5 18.75c-.718 0-1.3-.56-1.3-1.25s.582-1.25 1.3-1.25c.718 0 1.3.56 1.3 1.25s-.582 1.25-1.3 1.25zM11.7 15H1.3V2.5h10.4V15z" fill-rule="evenodd"/></symbol><symbol viewBox="0 0 17 21" id="device-tablet" xmlns="http://www.w3.org/2000/svg"><path d="M16.28.7a2.25 2.25 0 0 0-1.662-.7H2.381A2.25 2.25 0 0 0 .72.7a2.315 2.315 0 0 0-.691 1.686v16.227c0 .657.23 1.218.691 1.686.461.467 1.015.7 1.662.7h12.237a2.25 2.25 0 0 0 1.662-.7c.461-.468.692-1.03.692-1.686V2.386c0-.656-.231-1.218-.692-1.685zM9.162 19.763a.898.898 0 0 1-.662.283.899.899 0 0 1-.662-.283.924.924 0 0 1-.28-.671c0-.259.093-.483.28-.671a.899.899 0 0 1 .662-.284.9.9 0 0 1 .662.284c.186.188.28.412.28.67a.925.925 0 0 1-.28.672zm5.927-3.058c0 .13-.047.241-.14.336a.448.448 0 0 1-.33.142H2.38a.45.45 0 0 1-.33-.142.462.462 0 0 1-.14-.336V2.386c0-.129.046-.24.14-.335a.45.45 0 0 1 .33-.142h12.237c.128 0 .238.047.331.142.093.094.14.206.14.335v14.318z" fill-rule="evenodd"/></symbol><symbol viewBox="0 0 54.65 31.86" id="double-arrow" xmlns="http://www.w3.org/2000/svg"><path d="M54.65 4.54L31.86 27.32l-4.54 4.54-4.54-4.54L0 4.54 4.54 0l22.78 22.78L50.11 0l4.54 4.54z"/></symbol><symbol viewBox="0 0 59.414 31.122" id="down-arrow" xmlns="http://www.w3.org/2000/svg"><path d="M29.707 31.122L0 1.415 1.414 0l28.293 28.293L58 0l1.414 1.415-29.707 29.707z"/></symbol><symbol viewBox="0 0 548.176 548.176" id="download" xmlns="http://www.w3.org/2000/svg"><path d="M524.326 297.352c-15.896-19.89-36.21-32.782-60.959-38.684 7.81-11.8 11.704-24.934 11.704-39.399 0-20.177-7.139-37.401-21.409-51.678-14.273-14.272-31.498-21.411-51.675-21.411-18.083 0-33.879 5.901-47.39 17.703-11.225-27.41-29.171-49.393-53.817-65.95-24.646-16.562-51.818-24.842-81.514-24.842-40.349 0-74.802 14.279-103.353 42.83-28.553 28.544-42.825 62.999-42.825 103.351 0 2.474.191 6.567.571 12.275-22.459 10.469-40.349 26.171-53.676 47.106C6.661 299.594 0 322.43 0 347.179c0 35.214 12.517 65.329 37.544 90.358 25.028 25.037 55.15 37.548 90.362 37.548h310.636c30.259 0 56.096-10.711 77.512-32.12 21.413-21.409 32.121-47.246 32.121-77.516-.003-25.505-7.952-48.201-23.849-68.097zm-161.731 10.992L262.38 408.565c-1.711 1.707-3.901 2.566-6.567 2.566-2.664 0-4.854-.859-6.567-2.566L148.75 308.063c-1.713-1.711-2.568-3.901-2.568-6.567 0-2.474.9-4.616 2.708-6.423 1.812-1.808 3.949-2.711 6.423-2.711h63.954V191.865c0-2.474.905-4.616 2.712-6.427 1.809-1.805 3.949-2.708 6.423-2.708h54.823c2.478 0 4.609.9 6.427 2.708 1.804 1.811 2.707 3.953 2.707 6.427v100.497h63.954c2.665 0 4.855.855 6.563 2.566 1.714 1.711 2.562 3.901 2.562 6.567 0 2.294-.944 4.569-2.843 6.849z"/></symbol><symbol viewBox="0 0 11 11" id="edit" xmlns="http://www.w3.org/2000/svg"><path d="M0 8.71v2.293h2.292l6.76-6.76-2.293-2.292L0 8.711zm10.824-6.24a.609.609 0 0 0 0-.861L9.394.179a.609.609 0 0 0-.862 0L7.413 1.297 9.705 3.59l1.119-1.118z" fill-rule="evenodd"/></symbol><symbol viewBox="0 0 11.694 9.972" id="folder" xmlns="http://www.w3.org/2000/svg"><path d="M11 2.416a1.45 1.45 0 0 0-1.063-.444h-4.52v-.215A1.516 1.516 0 0 0 3.91.25H1.757A1.516 1.516 0 0 0 .25 1.757v6.458a1.516 1.516 0 0 0 1.507 1.507h8.18a1.516 1.516 0 0 0 1.507-1.507V3.479A1.45 1.45 0 0 0 11 2.416z"/></symbol><symbol viewBox="0 0 441.947 441.949" id="high-speed" xmlns="http://www.w3.org/2000/svg"><path d="M55.237 336.353a10.001 10.001 0 0 0 0-14.143 10.003 10.003 0 0 0-14.143 0L2.929 360.377a10.001 10.001 0 0 0 0 14.143 9.97 9.97 0 0 0 7.07 2.929 9.97 9.97 0 0 0 7.072-2.93zM306.916 68.629a46.65 46.65 0 0 0-13.752 33.2 46.646 46.646 0 0 0 13.752 33.202 46.807 46.807 0 0 0 33.2 13.729 46.805 46.805 0 0 0 33.2-13.73 46.642 46.642 0 0 0 13.753-33.2 46.65 46.65 0 0 0-13.752-33.201 47.007 47.007 0 0 0-66.401 0zm52.259 52.26a26.98 26.98 0 0 1-38.117 0 26.774 26.774 0 0 1-7.894-19.06 26.781 26.781 0 0 1 7.894-19.058 26.867 26.867 0 0 1 19.059-7.882 26.87 26.87 0 0 1 19.058 7.882 26.776 26.776 0 0 1 7.895 19.059 26.774 26.774 0 0 1-7.895 19.059zm-272.4 232.859a10.002 10.002 0 0 0-14.142 0l-53.536 53.537a10.001 10.001 0 0 0 0 14.143 9.972 9.972 0 0 0 7.07 2.929 9.97 9.97 0 0 0 7.072-2.93l53.536-53.536a10.001 10.001 0 0 0 0-14.143z"/><path d="M435.58 13.329a10 10 0 0 0-6.96-6.962c-36.445-10.115-75.921-8.147-114.161 5.688-29.631 10.72-58.45 28.693-79.065 49.31L204.298 92.46 91.644 110.058a10.004 10.004 0 0 0-5.528 2.809l-72.051 72.05a10.001 10.001 0 0 0-2.247 10.704 10.001 10.001 0 0 0 8.897 6.359l71.073 2.989-17.813 17.813a10.001 10.001 0 0 0 0 14.143l10.397 10.396-31.053 47.599a10 10 0 0 0 1.304 12.535l79.87 79.87a10 10 0 0 0 12.537 1.304l47.597-31.054 10.397 10.397a10.003 10.003 0 0 0 14.143 0l17.813-17.813 2.989 71.07a10 10 0 0 0 6.359 8.898 9.984 9.984 0 0 0 3.63.683 10.004 10.004 0 0 0 7.073-2.93l72.05-72.05a10.009 10.009 0 0 0 2.81-5.528l17.599-112.653 31.095-31.096c20.616-20.616 38.589-49.434 49.31-79.064 13.833-38.24 15.8-77.716 5.686-114.16zM142.899 367.444L74.504 299.05l24.32-37.278 33.605 33.604-3.952 3.952a10 10 0 0 0 0 14.143 10.003 10.003 0 0 0 14.143 0l3.952-3.952 33.604 33.604zM366.44 192.412l-33.401 33.402-.012.012-34.754 34.754a10.001 10.001 0 0 0 0 14.143 10.003 10.003 0 0 0 14.143 0l13.082-13.082-12.865 82.354-53.64 53.64-2.804-66.685 27.943-27.943a10.001 10.001 0 0 0 0-14.143 10.003 10.003 0 0 0-14.143 0l-31.021 31.02-.05.05-26.824 26.824-8.917-8.917a11.29 11.29 0 0 0-.31-.31l-42.155-42.155 120.945-120.944a10 10 0 0 0 0-14.143 10.003 10.003 0 0 0-14.142 0L146.57 281.235l-42.157-42.157c-.1-.104-.202-.206-.307-.307l-8.917-8.918 26.824-26.824a.773.773 0 0 0 .049-.05l31.02-31.02a10 10 0 0 0 0-14.143 10.002 10.002 0 0 0-14.141 0l-27.943 27.943-66.686-2.805 53.64-53.64 82.354-12.864-13.082 13.08 14.142 14.144 34.649-34.65c.075-.072.15-.146.223-.222l33.296-33.296c27.828-27.827 93.904-69.058 168.203-51.297 17.76 74.3-23.47 140.377-51.297 168.203zM105.595 386.71l-38.166 38.167a10.001 10.001 0 0 0 0 14.143 9.972 9.972 0 0 0 7.07 2.929 9.97 9.97 0 0 0 7.072-2.93l38.166-38.165a10.001 10.001 0 0 0 0-14.143 10 10 0 0 0-14.142 0z"/></symbol><symbol viewBox="0 0 19 19" id="info" xmlns="http://www.w3.org/2000/svg"><path d="M9.5 14a.987.987 0 0 0 .9-1V9.2a1.063 1.063 0 0 0-.9-1 .987.987 0 0 0-.9 1V13a1.063 1.063 0 0 0 .9 1zm0-7.6a.987.987 0 0 0 .9-1 .896.896 0 0 0-.892-.9H9.5a.967.967 0 0 0-.9.9.987.987 0 0 0 .9 1z"/><path d="M9.5 19A9.433 9.433 0 0 1 0 9.636V9.5A9.433 9.433 0 0 1 9.365 0H9.5A9.433 9.433 0 0 1 19 9.365V9.5A9.56 9.56 0 0 1 9.5 19zm0-17.5a8.024 8.024 0 0 0-8 8 8.024 8.024 0 0 0 8 8 8.024 8.024 0 0 0 8-8 7.96 7.96 0 0 0-7.919-8h-.08z"/></symbol><symbol viewBox="0 0 24 24" id="lock" xmlns="http://www.w3.org/2000/svg"><path d="M12 17a2 2 0 0 0 2-2 2 2 0 0 0-2-2 2 2 0 0 0-2 2 2 2 0 0 0 2 2m6-9a2 2 0 0 1 2 2v10a2 2 0 0 1-2 2H6a2 2 0 0 1-2-2V10a2 2 0 0 1 2-2h1V6a5 5 0 0 1 5-5 5 5 0 0 1 5 5v2h1m-6-5a3 3 0 0 0-3 3v2h6V6a3 3 0 0 0-3-3z"/></symbol><symbol viewBox="0 0 511.998 512.186" id="people" xmlns="http://www.w3.org/2000/svg"><path d="M175.231 376.25a7.743 7.743 0 0 0 1.084-.341 16.18 16.18 0 0 0 2.56-1.886 8.469 8.469 0 0 0 1.237-1.852 7.362 7.362 0 0 0 .469-.853 8.251 8.251 0 0 0 .452-2.253c0-.282.162-.53.162-.853 0-.128-.043-.24-.051-.367-.009-.128.068-.3.051-.47l-2.637-25.462a8.532 8.532 0 0 0-4.963-7.071 8.533 8.533 0 0 0-8.594.886 8.535 8.535 0 0 0-3.416 7.935l.623 6.033a144.568 144.568 0 0 1-49.126-85.632 132.872 132.872 0 0 1-2.15-24.943 140.774 140.774 0 0 1 1.169-17.067h63.215a12.425 12.425 0 0 0 12.416-12.407v-11.034a39.431 39.431 0 0 0-21.914-35.44l-37.06-18.525a5.58 5.58 0 0 1-3.089-5.01v-7.611c.623-.802 1.271-1.707 1.937-2.62a93.354 93.354 0 0 0 11.435-21.914 19.994 19.994 0 0 0 9.907-17.297V74.665a20.093 20.093 0 0 0-3.883-11.81V44.08a39.787 39.787 0 0 0-9.267-28.621A53.204 53.204 0 0 0 93.865.186a53.176 53.176 0 0 0-41.932 15.283 39.753 39.753 0 0 0-9.267 28.57v18.816a20.1 20.1 0 0 0-3.883 11.81v15.514a20.027 20.027 0 0 0 6.332 14.626 87.347 87.347 0 0 0 13.065 27.034v7.424a5.581 5.581 0 0 1-2.918 4.915l-34.603 18.876A39.62 39.62 0 0 0 0 197.853v11.793a12.423 12.423 0 0 0 12.416 12.407h82.49a156.258 156.258 0 0 0-1.041 17.067 151.818 151.818 0 0 0 2.509 27.895 161.528 161.528 0 0 0 54.11 94.899l-4.028.41a8.545 8.545 0 0 0-8.107 8.96 8.544 8.544 0 0 0 8.96 8.107h.853l25.463-2.637a8.05 8.05 0 0 0 1.606-.504zM17.065 204.986v-7.134a22.544 22.544 0 0 1 11.767-19.814l34.603-18.876a22.638 22.638 0 0 0 11.81-19.883v-13.39l-1.954-2.371A69.124 69.124 0 0 1 61.02 98.046l-.776-3.413-2.918-1.877a3.09 3.09 0 0 1-1.459-2.56V74.665a3.116 3.116 0 0 1 1.067-2.27l2.816-2.56V43.629l-.094-1.118a22.245 22.245 0 0 1 5.12-15.795 37.437 37.437 0 0 1 29.09-9.464 37.648 37.648 0 0 1 28.962 9.318 22.603 22.603 0 0 1 5.248 15.94l-.077 27.34 2.816 2.56a3.116 3.116 0 0 1 1.067 2.27v15.515a3.132 3.132 0 0 1-2.244 2.918l-4.267 1.306-1.357 4.224a76.41 76.41 0 0 1-10.368 20.898 46.89 46.89 0 0 1-2.935 3.797l-2.133 2.423v13.858a22.544 22.544 0 0 0 12.595 20.275l37.052 18.526a22.461 22.461 0 0 1 12.442 20.19v6.374H17.065v.002zm310.887 248.32l-37.06-18.526a5.58 5.58 0 0 1-3.089-5.01v-7.611c.623-.802 1.271-1.707 1.937-2.62a93.354 93.354 0 0 0 11.435-21.914 19.994 19.994 0 0 0 9.907-17.297v-15.531a20.093 20.093 0 0 0-3.883-11.81v-18.773a39.785 39.785 0 0 0-9.267-28.578 53.202 53.202 0 0 0-41.933-15.317 53.182 53.182 0 0 0-41.933 15.283 39.753 39.753 0 0 0-9.267 28.57v18.773a20.1 20.1 0 0 0-3.883 11.81v15.514a20.027 20.027 0 0 0 6.332 14.626 87.347 87.347 0 0 0 13.065 27.034v7.424a5.58 5.58 0 0 1-2.918 4.958l-34.603 18.876a39.62 39.62 0 0 0-20.659 34.799v11.793a12.423 12.423 0 0 0 12.416 12.407H337.45a12.425 12.425 0 0 0 12.416-12.407v-11.034a39.433 39.433 0 0 0-21.914-35.44zm-148.753 41.813v-7.134a22.544 22.544 0 0 1 11.767-19.814l34.603-18.876a22.638 22.638 0 0 0 11.81-19.883l-.017-13.406-1.954-2.372a69.123 69.123 0 0 1-12.271-25.472l-.776-3.413-2.918-1.877a3.09 3.09 0 0 1-1.459-2.56v-15.514a3.116 3.116 0 0 1 1.067-2.27l2.816-2.56v-26.206l-.077-1.118a22.245 22.245 0 0 1 5.12-15.795 37.437 37.437 0 0 1 29.09-9.464 37.648 37.648 0 0 1 28.962 9.318 22.603 22.603 0 0 1 5.248 15.94l-.077 27.34 2.816 2.56a3.116 3.116 0 0 1 1.067 2.27v15.515a3.132 3.132 0 0 1-2.244 2.918l-4.267 1.306-1.357 4.267a76.41 76.41 0 0 1-10.368 20.898 46.889 46.889 0 0 1-2.935 3.797l-2.133 2.423v13.815a22.544 22.544 0 0 0 12.595 20.275l37.052 18.526a22.46 22.46 0 0 1 12.442 20.19v6.374H179.199v.002zm310.886-331.947l-37.052-18.543a5.563 5.563 0 0 1-3.089-5.01V132c.623-.793 1.263-1.706 1.92-2.61a92.725 92.725 0 0 0 11.443-21.914 19.987 19.987 0 0 0 9.899-17.297V74.665a20.088 20.088 0 0 0-3.874-11.81V44.08a39.8 39.8 0 0 0-9.276-28.621A53.188 53.188 0 0 0 418.132.186a53.181 53.181 0 0 0-41.933 15.283 39.754 39.754 0 0 0-9.267 28.57v18.816a20.1 20.1 0 0 0-3.883 11.81v15.514a20.027 20.027 0 0 0 6.332 14.626 87.347 87.347 0 0 0 13.065 27.034v7.424a5.581 5.581 0 0 1-2.918 4.915l-34.603 18.876a39.62 39.62 0 0 0-20.659 34.799v11.793a12.423 12.423 0 0 0 12.416 12.407h63.215a140.763 140.763 0 0 1 1.169 17.067 134.992 134.992 0 0 1-2.27 25.088 144.966 144.966 0 0 1-48.99 85.333l.623-5.973a8.534 8.534 0 0 0-7.63-9.18 8.533 8.533 0 0 0-9.342 7.43l-2.637 25.465a1.205 1.205 0 0 1 0 .393 1.499 1.499 0 0 0-.06.444 7.307 7.307 0 0 0 .205.98 7.96 7.96 0 0 0 .418 2.066 9.495 9.495 0 0 0 .486.913 8.376 8.376 0 0 0 1.28 1.877c.196.205.435.358.648.546a8.348 8.348 0 0 0 1.997 1.34c.29.128.597.179.905.282a8.155 8.155 0 0 0 1.707.529l25.463 2.637h.853a8.544 8.544 0 0 0 8.96-8.107 8.544 8.544 0 0 0-8.107-8.96l-4.079-.418a161.933 161.933 0 0 0 54.076-94.524 152.774 152.774 0 0 0 2.56-28.16 156.26 156.26 0 0 0-1.041-17.067h82.5a12.416 12.416 0 0 0 12.407-12.407v-11.034a39.431 39.431 0 0 0-21.913-35.441zm-148.753 41.814v-7.134a22.544 22.544 0 0 1 11.767-19.814l34.603-18.876a22.638 22.638 0 0 0 11.81-19.883v-13.39l-1.954-2.371a69.124 69.124 0 0 1-12.271-25.472l-.777-3.413-2.918-1.877a3.09 3.09 0 0 1-1.459-2.56V74.665a3.116 3.116 0 0 1 1.067-2.27l2.816-2.56V43.629l-.077-1.118a22.245 22.245 0 0 1 5.12-15.795 37.447 37.447 0 0 1 29.073-9.464 37.68 37.68 0 0 1 28.962 9.31 22.631 22.631 0 0 1 5.248 15.949l-.077 27.332 2.807 2.56a3.126 3.126 0 0 1 1.067 2.278v15.514a3.138 3.138 0 0 1-2.236 2.918l-4.267 1.306-1.357 4.267a76.349 76.349 0 0 1-10.368 20.907 51.223 51.223 0 0 1-2.944 3.806l-2.108 2.415v13.807a22.546 22.546 0 0 0 12.578 20.275l37.052 18.526a22.461 22.461 0 0 1 12.442 20.19v6.374H341.332z"/><path d="M162.832 113.295a7.952 7.952 0 0 0 .529 1.758.409.409 0 0 0 .094.316 6.918 6.918 0 0 0 .683.853 5.797 5.797 0 0 0 2.5 2.32 7.752 7.752 0 0 0 1.417.76c.162.06.282.188.452.239l24.491 7.44a8.394 8.394 0 0 0 2.483.368 8.533 8.533 0 0 0 8.44-7.282 8.533 8.533 0 0 0-5.966-9.417l-5.675-1.707a144.292 144.292 0 0 1 127.625.043l-5.547 1.707a8.533 8.533 0 0 0-5.966 9.417 8.532 8.532 0 0 0 8.44 7.282 8.39 8.39 0 0 0 2.483-.367l24.499-7.441a1.313 1.313 0 0 0 .375-.196 8.109 8.109 0 0 0 1.417-.76 5.2 5.2 0 0 0 2.219-1.928 7.372 7.372 0 0 0 1.033-1.263c.094-.162.085-.358.162-.521a6.704 6.704 0 0 0 .213-.708 8.414 8.414 0 0 0 .529-2.628v-.145a7.99 7.99 0 0 0-.171-1.271 8.44 8.44 0 0 0-.12-1.23l-7.45-24.49a8.533 8.533 0 0 0-6.225-5.984 8.533 8.533 0 0 0-8.261 2.513 8.535 8.535 0 0 0-1.838 8.437l1.229 4.045a161.444 161.444 0 0 0-141.551-.137l1.186-3.908a8.532 8.532 0 0 0-.596-6.538 8.533 8.533 0 0 0-5.062-4.18 8.533 8.533 0 0 0-6.502.635 8.535 8.535 0 0 0-4.147 5.048l-7.441 24.49v.103a8.408 8.408 0 0 0-.375 2.398c0 .162.077.29.085.444a8.945 8.945 0 0 0 .309 1.485z"/></symbol><symbol viewBox="0 0 74 73" id="platforms" xmlns="http://www.w3.org/2000/svg"><path d="M45.696 46.895l10.35-1.45.005 10.272-10.346.06zM56.043 59.29l.008 10.265-10.355-1.462v-8.872zm3.46-15.02L74 42v13.654l-14.497.124V44.27zM74 59.248L73.997 73l-14.474-2.222-.02-11.556z"/><path data-name="Shape" d="M5.617 25.266a1.327 1.327 0 0 0 1.404 1.406h1.404v4.92a2.16 2.16 0 0 0 2.106 2.108 2.16 2.16 0 0 0 2.106-2.108v-4.92h2.809v4.92a2.106 2.106 0 1 0 4.212 0v-4.92h1.404a1.327 1.327 0 0 0 1.405-1.406V11.21H5.617v14.056zM2.107 11.21A2.16 2.16 0 0 0 0 13.318v9.84a2.16 2.16 0 0 0 2.106 2.108 2.16 2.16 0 0 0 2.107-2.108v-9.84a2.16 2.16 0 0 0-2.107-2.108zm23.87 0a2.16 2.16 0 0 0-2.106 2.108v9.84a2.106 2.106 0 1 0 4.212 0v-9.84a2.16 2.16 0 0 0-2.106-2.108zm-7.02-8.153l1.825-1.827a.68.68 0 0 0 0-.984.678.678 0 0 0-.983 0l-2.107 2.108a6.182 6.182 0 0 0-3.65-.984 8.354 8.354 0 0 0-3.792.844L8.285.105a1.549 1.549 0 0 0-1.124 0 1.554 1.554 0 0 0 0 1.125l1.826 1.827a8.59 8.59 0 0 0-3.37 6.747h16.85a8.127 8.127 0 0 0-3.51-6.747zm-7.724 3.936H9.83V5.587h1.404v1.406zm7.021 0H16.85V5.587h1.404v1.406z"/><path d="M15.808 43.652a7.263 7.263 0 0 1 4.748-2.402 6.874 6.874 0 0 1-1.676 5.07 6.033 6.033 0 0 1-4.79 2.25 6.609 6.609 0 0 1 1.718-4.918zm9.234 25.406c-1.352 1.936-2.744 3.869-4.95 3.902-2.157.038-2.852-1.261-5.32-1.261-2.47 0-3.245 1.228-5.287 1.3-2.122.074-3.733-2.086-5.093-4.021-2.77-3.939-4.887-11.138-2.04-15.994a7.899 7.899 0 0 1 6.674-3.982c2.08-.042 4.05 1.38 5.328 1.38 1.27 0 3.667-1.706 6.174-1.451a7.58 7.58 0 0 1 5.907 3.14 7.189 7.189 0 0 0-3.493 6.05 7.03 7.03 0 0 0 4.334 6.42 17.738 17.738 0 0 1-2.234 4.517z"/><path data-name="&lt;Compound Path>" d="M73.096 27.3a1.754 1.754 0 0 1-1.388-1.76 2.691 2.691 0 0 0-.75-1.908 8.242 8.242 0 0 0 .001-4.38c-.65-1.887-2.632-4.77-4.678-7.603a6.509 6.509 0 0 1-.922-3.893 11.798 11.798 0 0 0-.875-4.74A4.921 4.921 0 0 0 59.804 0a6.422 6.422 0 0 0-3.56 1.08c-2.043 1.405-1.773 4.47-1.594 6.498.024.277.047.54.06.764a10.014 10.014 0 0 1-.13 3.35 13.756 13.756 0 0 1-1.02 1.427c-.494.648-1.054 1.382-1.513 2.066a16.157 16.157 0 0 0-1.417 3.3 15.786 15.786 0 0 1-.895 2.234 3.033 3.033 0 0 0-.296 2.286 2.35 2.35 0 0 0-.756.954c-.304.647-.921.994-2.204 1.24a1.7 1.7 0 0 0-1.21.734 2.075 2.075 0 0 0 .014 1.664 2.58 2.58 0 0 1-.172 1.876c-.06.178-.127.38-.195.604a1.086 1.086 0 0 0 .115.952c.485.738 1.899.999 3.354 1.17a12.964 12.964 0 0 1 2.74.784 12.899 12.899 0 0 0 2.681.77 3.058 3.058 0 0 0 .38.025 2.231 2.231 0 0 0 2.04-1.193 22.757 22.757 0 0 1 3.677-.433 16.028 16.028 0 0 1 3.656.374 2.934 2.934 0 0 0 1.101 1.196A2.68 2.68 0 0 0 65.9 34a2.993 2.993 0 0 0 2.177-.896 19.521 19.521 0 0 1 3.95-2.514c.302-.163.585-.316.832-.453a1.856 1.856 0 0 0 1.139-1.647 1.393 1.393 0 0 0-.902-1.19zm-16.835-.152c-.094-.664-.952-1.323-1.946-2.086a6.87 6.87 0 0 1-1.986-1.93 5.8 5.8 0 0 1 .61-4.526 11.47 11.47 0 0 0 .927-2.23 8.003 8.003 0 0 1 .97-2.206 5.616 5.616 0 0 0 1.16-2.807 3.52 3.52 0 0 0 2.075 1.124 1.227 1.227 0 0 0 .334-.045 11.226 11.226 0 0 0 1.988-.997 8.504 8.504 0 0 1 1.688-.846c.499.713 3.394 7.096 3.69 9.146a9.659 9.659 0 0 1-.138 3.488 2.584 2.584 0 0 0-.345-.025.938.938 0 0 0-1.075.7 28.257 28.257 0 0 0-.16 3.345 6.672 6.672 0 0 1-3.883 2.42 16.87 16.87 0 0 1-2.393.188 8.114 8.114 0 0 1-1.18-.072l-1.064-1.213a1.287 1.287 0 0 0 .728-1.428zm1.35-19.997q-.05.021-.098.046a1.967 1.967 0 0 0-.022-.218 1.238 1.238 0 0 0-1.054-1.15.747.747 0 0 0-.114.01.88.88 0 0 0-.651.58 1.224 1.224 0 0 1 .962-1.191 1.424 1.424 0 0 1 1.001 1.59 2.345 2.345 0 0 1-.024.333zm4.216.514a1.682 1.682 0 0 0 .077-.506 1.27 1.27 0 0 0-1.134-1.394 1.284 1.284 0 0 0-1.126 1.394q0 .079.007.158l-.096-.037a2.125 2.125 0 0 1-.108-.67 1.375 1.375 0 1 1 2.674 0 1.99 1.99 0 0 1-.294 1.055zm-.543 1.82a.435.435 0 0 1-.283.197 7.647 7.647 0 0 0-.48.266l-.132.08a12.18 12.18 0 0 1-2.099 1.109.94.94 0 0 1-.686-.272 9.887 9.887 0 0 0-.228-.152 2.683 2.683 0 0 1-.98-.946c.185-.143.647-.502.884-.715a2.557 2.557 0 0 1 1.201-.743.19.19 0 0 1 .036.003 11.986 11.986 0 0 1 1.48.526c.233.093.435.173.577.224a1.385 1.385 0 0 1 .71.422zm4.021 20.775a16.452 16.452 0 0 0 .497-3.589c-.011-.207-.03-.432-.047-.65a5.95 5.95 0 0 1-.032-1.19.219.219 0 0 1 .034-.013 2.019 2.019 0 0 0 .948 1.92 2.105 2.105 0 0 0 .844.163 3.45 3.45 0 0 0 2.14-.785 3.88 3.88 0 0 0 .542-.71.855.855 0 0 1 .037.334 2.396 2.396 0 0 0 1.037 2.161l.104.054a2.604 2.604 0 0 1 .939.653.149.149 0 0 1-.044.054 9.738 9.738 0 0 1-1.337.749 11.698 11.698 0 0 0-2.694 1.65 3.683 3.683 0 0 1-2.056 1.28.542.542 0 0 1-.163-.022 1.66 1.66 0 0 1-.749-2.059zm-18.472-2.895a1.507 1.507 0 0 1-.052-.658 2.546 2.546 0 0 1 1.067-.37 4.167 4.167 0 0 0 1.177-.369 2.38 2.38 0 0 0 .802-1.072 1.665 1.665 0 0 1 .448-.67.095.095 0 0 1 .052-.011 2.905 2.905 0 0 1 1.362 1.255c.097.15.277.45.485.796a25.43 25.43 0 0 0 1.918 2.932 2.58 2.58 0 0 1 .89 1.955 2.144 2.144 0 0 1-.886 1.09.91.91 0 0 1-.197.02 12.614 12.614 0 0 1-3.44-1.085l-.134-.056a10.94 10.94 0 0 0-2.128-.473 6.972 6.972 0 0 1-1.648-.37 1.456 1.456 0 0 1 .138-.929 6.011 6.011 0 0 0 .223-.838 3.042 3.042 0 0 0-.077-1.147z"/></symbol><symbol viewBox="0 0 8 14" id="right" xmlns="http://www.w3.org/2000/svg"><path d="M1 14a.997.997 0 0 1-.707-.293 1 1 0 0 1 0-1.414L5.586 7 .293 1.707a1 1 0 0 1 0-1.414 1 1 0 0 1 1.414 0l6 6a1 1 0 0 1 0 1.414l-6 6A.997.997 0 0 1 1 14z"/></symbol><symbol viewBox="0 0 87.484 72.431" id="round-arrows" xmlns="http://www.w3.org/2000/svg"><path d="M79.102 42.865a2 2 0 0 0-2.74-.701 2 2 0 0 0-.926 1.252 33.198 33.198 0 0 1-15.65 20.512c-15.768 9.103-35.631 4.026-44.467-11.278a31.105 31.105 0 0 1-4.076-12.998l8.68 5.52a2 2 0 0 0 2.771-.57 2 2 0 0 0-.569-2.77q-.027-.019-.056-.036l-11.859-7.54a2 2 0 0 0-2.76.614q-.023.035-.044.072L.27 47.283a2 2 0 0 0 .727 2.734 2 2 0 0 0 2.734-.727l.002-.005 3.848-6.655a35.138 35.138 0 0 0 4.274 12.02c9.944 17.224 32.338 22.9 49.93 12.742A37.225 37.225 0 0 0 79.311 44.41a2 2 0 0 0-.21-1.544zm8.086-19.083a2 2 0 0 0-2.75-.66 2 2 0 0 0-.69.708l-3.708 6.243a35.213 35.213 0 0 0-4.324-12.293C65.772.557 43.378-5.118 25.786 5.04A37.178 37.178 0 0 0 8.298 27.903a2 2 0 0 0 1.39 2.464 2 2 0 0 0 2.464-1.39l.018-.072A33.154 33.154 0 0 1 27.785 8.503C43.553-.601 63.415 4.476 72.252 19.78a31.159 31.159 0 0 1 4.093 13.115l-8.572-5.601a2 2 0 0 0-2.775.548 2 2 0 0 0 .549 2.775l.037.025 11.775 7.694a2 2 0 0 0 2.768-.58q.024-.036.045-.073l7.015-11.81a1.993 1.993 0 0 0 0-2.09z"/></symbol><symbol viewBox="0 0 65.304 57.8" id="schedule" xmlns="http://www.w3.org/2000/svg"><path d="M58.6 3.4h1.5v1.5h-1.5zm-3.8 0h1.5v1.5h-1.5zm-3.8 0h1.5v1.5H51zm-45.1 0H46v1.5H5.9zM60.2 33h-2V18.2h-1.5V33h-3.2V19.9h-1.4V33h-3.2v-8h-1.5v8h-3.2v-9.3h-1.5V33h-3.1V21.8h-1.5V33h-3.2v-7.4h-1.5V33h-2v1.5h28.8V33zM19.6 18h4.6v-1.5h2V15h-2v-1.6h-4.6v1.5H5.1v1.5h14.5V18zm1.5-3.1h1.6v1.6h-1.6v-1.6zM9.1 24h4.6v-1.5h12.5V21H13.7v-1.6H9.1v1.5h-4v1.5h4V24zm1.5-3.1h1.6v1.6h-1.6v-1.6zm5.8 9.1H21v-1.5h5.2V27H21v-1.6h-4.6v1.5H5.1v1.5h11.3V30zm1.5-3.1h1.6v1.6h-1.6v-1.6zm-4.3 7.6V36h4.6v-1.5h8V33h-8v-1.6h-4.6v1.5H5.1v1.5h8.5v.1zm1.5-1.6h1.6v1.6h-1.6v-1.6z"/><path d="M61.7 0h-58A3.691 3.691 0 0 0 0 3.7v38a3.691 3.691 0 0 0 3.7 3.7h20.2v7.7h-3.4a1.685 1.685 0 0 0-1.7 1.7v3h27.7v-3a1.685 1.685 0 0 0-1.7-1.7h-3.4v-7.7h20.2a3.691 3.691 0 0 0 3.7-3.7v-38A3.607 3.607 0 0 0 61.7 0zm-58 1.5h57.9a2.22 2.22 0 0 1 2.2 2.2v3.1H1.5V3.7a2.22 2.22 0 0 1 2.2-2.2zm60.2 6.9v30.5H1.5V8.4h62.4zM44.8 54.6a.215.215 0 0 1 .2.2v1.5H20.3v-1.5a.215.215 0 0 1 .2-.2h24.3zm-4.9-1.5H25.5v-7.7H40v7.7h-.1zM61.7 44h-58a2.22 2.22 0 0 1-2.2-2.2v-1.4h62.4v1.3a2.308 2.308 0 0 1-2.2 2.3z"/></symbol><symbol viewBox="0 0 291.234 374" id="security" xmlns="http://www.w3.org/2000/svg"><path d="M287.528 75.725L146.962.825a6.984 6.984 0 0 0-6.654.038L3.632 75.763A6.998 6.998 0 0 0 0 81.904v97.839A202.583 202.583 0 0 0 121.423 365.15l18.97 8.267a6.99 6.99 0 0 0 5.57.008l21.376-9.231A202.185 202.185 0 0 0 291.234 177.8V81.903a7 7 0 0 0-3.706-6.178zM277.238 177.8A188.221 188.221 0 0 1 161.86 351.318l-.047.024-18.615 8.037-16.175-7.057a188.569 188.569 0 0 1-113.03-172.58V86.046l129.724-71.097 133.52 71.148V177.8z"/><path d="M92.087 175.204a6.998 6.998 0 0 0-9.868-.777 6.993 6.993 0 0 0-.777 9.865l36.966 43.288a6.996 6.996 0 0 0 9.735.886l86.093-70.042a6.995 6.995 0 0 0 1.011-9.845 6.999 6.999 0 0 0-9.844-1.011l-80.79 65.723z"/></symbol><symbol viewBox="0 0 88 103" id="shield" xmlns="http://www.w3.org/2000/svg"><g fill-rule="evenodd"><path d="M43.525 6h.328l1.412.71c.942.472 1.564.782 1.866.93.303.146 1.333.623 3.09 1.43 1.757.808 2.664 1.215 2.723 1.223.06.009.526.2 1.4.575.874.376 1.547.653 2.017.832.471.18 1.152.424 2.043.734l1.69.587a46.1 46.1 0 0 0 2.244.71 87.33 87.33 0 0 0 2.119.587c.857.228 1.69.432 2.496.611.807.18 1.329.294 1.564.343.235.049.983.187 2.244.416 1.261.228 2.051.367 2.37.416.32.049 1.102.171 2.346.367 1.244.195 1.875.293 1.892.293.016 0 .622.114 1.815.343 1.194.228 1.795.346 1.803.354l.013.013-.076 3.645c-.05 2.43-.176 5.57-.378 9.419-.202 3.848-.361 6.54-.48 8.073a66.28 66.28 0 0 1-.403 3.938 48.035 48.035 0 0 1-.53 3.107c-.2.979-.42 1.965-.655 2.96-.235.995-.445 1.868-.63 2.618-.185.75-.404 1.557-.656 2.422a359.89 359.89 0 0 0-.454 1.565 9.58 9.58 0 0 1-.227.685c-.1.278-.218.62-.353 1.028a52.83 52.83 0 0 1-.63 1.761 74.065 74.065 0 0 1-.706 1.835c-.185.457-.412 1.003-.681 1.64a67.81 67.81 0 0 1-1.034 2.299c-.42.897-.673 1.419-.757 1.565l-.92 1.603c-.53.921-.85 1.468-.959 1.639-.109.171-.37.603-.781 1.297a36.88 36.88 0 0 1-.807 1.32c-.126.188-.32.482-.58.881-.261.4-.471.71-.63.93-.16.22-.346.481-.556.783-.21.302-.412.579-.605.832a9.556 9.556 0 0 0-.454.636c-.11.171-.269.391-.479.66-.21.27-.412.538-.605.808-.194.269-.404.546-.63.831-.228.286-.421.53-.58.734-.16.204-.5.592-1.022 1.162a104.45 104.45 0 0 1-3.707 3.841c-.538.522-.896.852-1.072.991-.177.139-.589.49-1.236 1.052-.647.563-1.042.905-1.185 1.027l-1.06.906c-.563.48-.932.79-1.109.93-.176.138-.378.301-.605.489a120.2 120.2 0 0 1-.946.77c-.403.326-.71.567-.92.722-.21.155-.412.293-.606.416a45.46 45.46 0 0 1-1.059.636c-.513.302-.849.505-1.009.611-.16.106-.34.216-.542.33a9.735 9.735 0 0 0-.63.392c-.219.147-.378.253-.48.318-.1.065-.319.18-.655.343-.336.163-.74.35-1.21.562-.471.212-.8.35-.984.416L43.45 95l-.303-.073a3.304 3.304 0 0 1-.656-.245c-.235-.114-.63-.31-1.185-.587-.555-.277-.874-.449-.958-.514a11.773 11.773 0 0 0-.643-.428c-.345-.22-.606-.383-.782-.49-.177-.105-.521-.31-1.034-.61a45.399 45.399 0 0 1-1.06-.637 10.565 10.565 0 0 1-.605-.416c-.21-.155-.45-.338-.718-.55a67.565 67.565 0 0 1-1.072-.869l-1.16-.954a78.642 78.642 0 0 1-1.438-1.223 45.07 45.07 0 0 0-1.21-1.028 45.058 45.058 0 0 1-1.16-.978 49.388 49.388 0 0 1-.996-.869l-.896-.868c-.53-.514-.899-.88-1.11-1.1-.21-.221-.672-.71-1.386-1.469a48.52 48.52 0 0 1-1.286-1.394 375.49 375.49 0 0 1-.63-.759 38.984 38.984 0 0 1-.656-.807c-.16-.204-.32-.416-.48-.636a62.35 62.35 0 0 0-.983-1.321 12.854 12.854 0 0 1-.366-.501c-.1-.147-.24-.339-.416-.575a16.035 16.035 0 0 1-.454-.636 56.539 56.539 0 0 0-.504-.734c-.21-.302-.37-.539-.48-.71-.109-.171-.285-.44-.529-.807a12.56 12.56 0 0 1-.48-.759 33.353 33.353 0 0 0-.63-1.051c-.344-.563-.571-.93-.68-1.101a46.71 46.71 0 0 1-.82-1.407 297.33 297.33 0 0 1-.984-1.737 23.615 23.615 0 0 1-.58-1.101 45.74 45.74 0 0 1-.706-1.541 27.596 27.596 0 0 1-.454-1.052c0-.016-.151-.392-.454-1.125A145.72 145.72 0 0 1 11.8 59.6a55.357 55.357 0 0 1-.706-1.933 79.14 79.14 0 0 1-.908-2.765 90.208 90.208 0 0 1-1.008-3.571 88.131 88.131 0 0 1-.782-3.132c-.152-.685-.362-1.68-.63-2.984-.27-1.305-.43-2.161-.48-2.569-.05-.408-.16-1.655-.328-3.743a157.196 157.196 0 0 1-.328-4.721 381.4 381.4 0 0 0-.176-3.376c-.067-1.191-.16-3.14-.277-5.847C6.059 22.252 6 20.336 6 19.21v-1.687l.164-.086c.11-.057.408-.126.895-.208a134.1 134.1 0 0 1 2.018-.318c.857-.13 2.16-.343 3.909-.636 1.748-.294 3-.506 3.757-.636.757-.13 1.757-.335 3.001-.612a76.885 76.885 0 0 0 3.228-.783c.908-.244 1.69-.473 2.345-.685.656-.212 1.169-.375 1.539-.489.37-.114.723-.228 1.059-.342a93.852 93.852 0 0 0 2.017-.734 57.11 57.11 0 0 0 2.838-1.138c.882-.383 1.353-.579 1.412-.587.059-.008.483-.192 1.273-.55.79-.36 1.505-.685 2.144-.979.639-.294 1.27-.587 1.891-.88a83.852 83.852 0 0 0 2.32-1.15L43.197 6h.328z"/><path d="M42.525 7h.328l1.412.71c.942.472 1.564.782 1.866.93.303.146 1.333.623 3.09 1.43 1.757.808 2.664 1.215 2.723 1.223.06.009.526.2 1.4.575.874.376 1.547.653 2.017.832.471.18 1.152.424 2.043.734l1.69.587a46.1 46.1 0 0 0 2.244.71 87.33 87.33 0 0 0 2.119.587c.857.228 1.69.432 2.496.611.807.18 1.329.294 1.564.343.235.049.983.187 2.244.416 1.261.228 2.051.367 2.37.416.32.049 1.102.171 2.346.367 1.244.195 1.875.293 1.892.293.016 0 .622.114 1.815.343 1.194.228 1.795.346 1.803.354l.013.013-.076 3.645c-.05 2.43-.176 5.57-.378 9.419-.202 3.848-.361 6.54-.48 8.073a66.28 66.28 0 0 1-.403 3.938 48.035 48.035 0 0 1-.53 3.107c-.2.979-.42 1.965-.655 2.96-.235.995-.445 1.868-.63 2.618-.185.75-.404 1.557-.656 2.422a359.89 359.89 0 0 0-.454 1.565 9.58 9.58 0 0 1-.227.685c-.1.278-.218.62-.353 1.028a52.83 52.83 0 0 1-.63 1.761 74.065 74.065 0 0 1-.706 1.835c-.185.457-.412 1.003-.681 1.64a67.81 67.81 0 0 1-1.034 2.299c-.42.897-.673 1.419-.757 1.565l-.92 1.603c-.53.921-.85 1.468-.959 1.639-.109.171-.37.603-.781 1.297a36.88 36.88 0 0 1-.807 1.32c-.126.188-.32.482-.58.881-.261.4-.471.71-.63.93-.16.22-.346.481-.556.783-.21.302-.412.579-.605.832a9.556 9.556 0 0 0-.454.636c-.11.171-.269.391-.479.66-.21.27-.412.538-.605.808-.194.269-.404.546-.63.831-.228.286-.421.53-.58.734-.16.204-.5.592-1.022 1.162a104.45 104.45 0 0 1-3.707 3.841c-.538.522-.896.852-1.072.991-.177.139-.589.49-1.236 1.052-.647.563-1.042.905-1.185 1.027l-1.06.906c-.563.48-.932.79-1.109.93-.176.138-.378.301-.605.489-.227.187-.542.444-.946.77-.403.326-.71.567-.92.722-.21.155-.412.293-.606.416a45.46 45.46 0 0 1-1.059.636c-.513.302-.849.505-1.009.611-.16.106-.34.216-.542.33a9.735 9.735 0 0 0-.63.392c-.219.147-.378.253-.48.318-.1.065-.319.18-.655.343-.336.163-.74.35-1.21.562-.471.212-.8.35-.984.416L42.45 96l-.303-.073a3.304 3.304 0 0 1-.656-.245c-.235-.114-.63-.31-1.185-.587-.555-.277-.874-.449-.958-.514a11.773 11.773 0 0 0-.643-.428c-.345-.22-.606-.383-.782-.49-.177-.105-.521-.31-1.034-.61a45.398 45.398 0 0 1-1.06-.637 10.565 10.565 0 0 1-.605-.416c-.21-.155-.45-.338-.718-.55a67.566 67.566 0 0 1-1.072-.869l-1.16-.954a78.642 78.642 0 0 1-1.438-1.223 45.07 45.07 0 0 0-1.21-1.028 45.058 45.058 0 0 1-1.16-.978 49.388 49.388 0 0 1-.996-.869l-.896-.868c-.53-.514-.899-.88-1.11-1.1-.21-.221-.672-.71-1.386-1.469a48.52 48.52 0 0 1-1.286-1.394l-.63-.759a38.984 38.984 0 0 1-.656-.807c-.16-.204-.32-.416-.48-.636a62.35 62.35 0 0 0-.983-1.321 12.854 12.854 0 0 1-.366-.501c-.1-.147-.24-.339-.416-.575a16.035 16.035 0 0 1-.454-.636 56.539 56.539 0 0 0-.504-.734c-.21-.302-.37-.539-.48-.71-.109-.171-.285-.44-.529-.807a12.56 12.56 0 0 1-.48-.759 33.353 33.353 0 0 0-.63-1.051c-.344-.563-.571-.93-.68-1.101a46.71 46.71 0 0 1-.82-1.407 242.49 242.49 0 0 1-.984-1.737 23.615 23.615 0 0 1-.58-1.101 45.741 45.741 0 0 1-.706-1.541 27.596 27.596 0 0 1-.454-1.052c0-.016-.151-.392-.454-1.125A145.72 145.72 0 0 1 10.8 60.6a55.357 55.357 0 0 1-.706-1.933 79.14 79.14 0 0 1-.908-2.765 90.208 90.208 0 0 1-1.008-3.571 88.131 88.131 0 0 1-.782-3.132c-.152-.685-.362-1.68-.63-2.984-.27-1.305-.43-2.161-.48-2.569-.05-.408-.16-1.655-.328-3.743a157.196 157.196 0 0 1-.328-4.721 381.4 381.4 0 0 0-.176-3.376c-.067-1.191-.16-3.14-.277-5.847C5.059 23.252 5 21.336 5 20.21v-1.687l.164-.086c.11-.057.408-.126.895-.208a134.1 134.1 0 0 1 2.018-.318c.857-.13 2.16-.343 3.909-.636 1.748-.294 3-.506 3.757-.636.757-.13 1.757-.335 3.001-.612a76.885 76.885 0 0 0 3.228-.783c.908-.244 1.69-.473 2.345-.685.656-.212 1.169-.375 1.539-.489.37-.114.723-.228 1.059-.342a93.807 93.807 0 0 0 2.017-.734 57.11 57.11 0 0 0 2.838-1.138c.882-.383 1.353-.579 1.412-.587.059-.008.483-.192 1.273-.55.79-.36 1.505-.685 2.144-.979.639-.294 1.27-.587 1.891-.88a83.852 83.852 0 0 0 2.32-1.15L42.197 7h.328z"/><path d="M43.527 3h.354l1.526.765c1.016.51 1.688.845 2.015 1.003.327.158 1.44.673 3.337 1.544 1.897.87 2.877 1.31 2.941 1.32.064.008.567.215 1.512.62.944.404 1.67.703 2.178.896.509.194 1.244.458 2.207.792l1.824.633a49.839 49.839 0 0 0 2.424.766c.6.176 1.362.387 2.288.633a67.04 67.04 0 0 0 2.697.66c.871.193 1.434.316 1.688.37.254.052 1.062.202 2.424.448 1.362.246 2.215.396 2.56.448.345.053 1.19.185 2.533.396 1.344.211 2.025.317 2.043.317.018 0 .672.123 1.961.37 1.29.246 1.938.373 1.947.382l.014.013-.082 3.932c-.054 2.621-.19 6.008-.408 10.16-.218 4.151-.39 7.054-.518 8.707a71.404 71.404 0 0 1-.436 4.249 51.757 51.757 0 0 1-.571 3.351c-.218 1.056-.454 2.12-.709 3.193a313.926 313.926 0 0 1-.68 2.824c-.2.809-.436 1.68-.709 2.612a281.82 281.82 0 0 0-.49 1.689c-.054.193-.136.44-.245.739-.109.299-.236.668-.381 1.108a56.9 56.9 0 0 1-.681 1.9 79.681 79.681 0 0 1-.763 1.98c-.2.492-.445 1.081-.735 1.767-.29.686-.663 1.513-1.117 2.48-.454.968-.726 1.531-.817 1.69l-.994 1.728a72.547 72.547 0 0 1-1.035 1.768c-.118.185-.4.65-.844 1.398a40.365 40.365 0 0 1-.872 1.425c-.136.203-.345.52-.626.95-.282.431-.509.766-.681 1.003-.173.238-.372.52-.6.845a25.01 25.01 0 0 1-.653.897 9.97 9.97 0 0 0-.49.686 9.74 9.74 0 0 1-.518.712 25 25 0 0 0-.653.871c-.21.29-.436.59-.681.897-.246.308-.454.572-.627.792-.172.22-.54.638-1.103 1.253-.563.616-1.226 1.32-1.988 2.111a84.539 84.539 0 0 1-2.016 2.032c-.58.563-.967.92-1.157 1.07-.19.149-.636.527-1.335 1.134-.699.607-1.125.976-1.28 1.108l-1.144.976c-.608.52-1.007.854-1.198 1.003-.19.15-.409.326-.654.528-.245.202-.585.48-1.021.831-.436.352-.767.611-.994.779a11.17 11.17 0 0 1-.654.448c-.209.132-.59.36-1.144.686a29.82 29.82 0 0 0-1.09.66 9.717 9.717 0 0 1-.585.356 10.27 10.27 0 0 0-.68.422c-.237.159-.41.273-.518.344a8.28 8.28 0 0 1-.708.369c-.363.176-.8.378-1.308.607-.508.229-.862.378-1.062.448l-.3.106-.326-.08a3.573 3.573 0 0 1-.708-.263c-.255-.123-.681-.334-1.28-.633-.6-.3-.945-.484-1.035-.555-.091-.07-.323-.224-.695-.461a39.293 39.293 0 0 0-.844-.528c-.191-.114-.563-.334-1.117-.66a49.136 49.136 0 0 1-1.144-.686 11.17 11.17 0 0 1-.654-.448 30.717 30.717 0 0 1-.776-.594c-.29-.229-.676-.541-1.157-.937l-1.253-1.03c-.354-.29-.872-.73-1.553-1.319a48.132 48.132 0 0 0-1.307-1.108c-.19-.15-.608-.501-1.253-1.055a53.496 53.496 0 0 1-1.076-.937l-.967-.937c-.572-.554-.971-.95-1.198-1.187-.227-.238-.726-.766-1.498-1.584-.772-.818-1.235-1.32-1.389-1.504l-.68-.818c-.3-.36-.537-.65-.71-.87-.172-.22-.344-.45-.517-.687a67.14 67.14 0 0 0-1.062-1.425 13.88 13.88 0 0 1-.395-.54 20.5 20.5 0 0 0-.45-.62 17.31 17.31 0 0 1-.49-.687 60.965 60.965 0 0 0-.544-.791c-.227-.326-.4-.581-.518-.766a63.22 63.22 0 0 0-.571-.87 13.555 13.555 0 0 1-.518-.819 97.61 97.61 0 0 0-1.416-2.322c-.118-.184-.413-.69-.885-1.517-.472-.827-.827-1.451-1.063-1.874a25.481 25.481 0 0 1-.626-1.187c-.182-.37-.436-.924-.763-1.662-.326-.74-.49-1.118-.49-1.135 0-.018-.163-.422-.49-1.214a160.53 160.53 0 0 1-.763-1.874 59.675 59.675 0 0 1-.762-2.084 85.292 85.292 0 0 1-.98-2.982 97.213 97.213 0 0 1-1.09-3.853 95.323 95.323 0 0 1-.845-3.378c-.163-.738-.39-1.812-.68-3.219-.291-1.407-.463-2.33-.518-2.77-.054-.44-.172-1.786-.354-4.038-.182-2.252-.3-3.95-.354-5.093a410.893 410.893 0 0 0-.19-3.642 550.75 550.75 0 0 1-.3-6.306C3.064 20.53 3 18.463 3 17.25v-1.821l.177-.093c.118-.061.44-.136.967-.224.526-.088 1.253-.202 2.179-.343.926-.14 2.333-.37 4.221-.686 1.889-.317 3.241-.545 4.059-.686.817-.14 1.897-.36 3.24-.66a83.043 83.043 0 0 0 3.487-.844c.98-.264 1.825-.51 2.533-.739a138.49 138.49 0 0 1 1.661-.528c.4-.123.781-.246 1.144-.37.363-.122 1.09-.386 2.18-.79a63.526 63.526 0 0 0 3.063-1.228c.953-.413 1.462-.624 1.525-.633.064-.01.522-.207 1.376-.594a543.39 543.39 0 0 0 2.315-1.056c.69-.316 1.37-.633 2.042-.95.672-.316 1.507-.73 2.506-1.24L43.173 3h.354z"/><path d="M43.522 12h.284l1.224.622c.816.414 1.355.686 1.617.814.263.13 1.155.547 2.678 1.255 1.522.707 2.31 1.065 2.36 1.072.051.007.455.175 1.213.504.758.328 1.34.571 1.749.729.408.157.998.371 1.77.643l1.464.514a39.592 39.592 0 0 0 1.946.622c.48.143 1.092.315 1.835.515.744.2 1.465.378 2.164.536.7.157 1.151.257 1.355.3.204.043.853.164 1.945.364 1.093.2 1.778.322 2.055.365l2.033.321c1.078.172 1.624.258 1.639.258.014 0 .539.1 1.573.3 1.035.2 1.556.304 1.563.31l.011.011-.066 3.195c-.043 2.13-.153 4.881-.327 8.254-.175 3.374-.314 5.732-.416 7.076a58.722 58.722 0 0 1-.35 3.452 42.526 42.526 0 0 1-.458 2.723 92.5 92.5 0 0 1-.569 2.594c-.204.872-.386 1.637-.546 2.294-.16.658-.35 1.365-.568 2.123-.219.757-.35 1.215-.394 1.372a8.673 8.673 0 0 1-.196.6c-.088.243-.19.543-.306.9-.117.358-.3.873-.547 1.544a65.235 65.235 0 0 1-.612 1.608c-.16.4-.357.88-.59 1.437-.233.557-.532 1.23-.896 2.015-.364.787-.583 1.244-.656 1.373l-.797 1.404a59.125 59.125 0 0 1-.83 1.436c-.096.15-.321.53-.678 1.137-.357.607-.59.993-.7 1.158-.11.164-.277.421-.503.771-.225.35-.408.622-.546.815-.138.193-.299.422-.48.686a20.32 20.32 0 0 1-.525.73 8.38 8.38 0 0 0-.394.557c-.094.15-.233.343-.415.579a21.84 21.84 0 0 0-.525.707c-.167.236-.35.479-.546.73l-.503.642c-.138.179-.433.518-.885 1.019a90.889 90.889 0 0 1-3.213 3.366c-.466.457-.776.747-.929.868-.153.122-.51.429-1.07.922-.562.493-.904.793-1.028.9l-.918.794c-.488.422-.808.693-.961.815a27.5 27.5 0 0 0-.525.428c-.197.165-.47.39-.82.676-.35.286-.615.497-.797.632a8.966 8.966 0 0 1-.525.365 39.27 39.27 0 0 1-.918.557 23.9 23.9 0 0 0-.874.536c-.138.093-.295.19-.47.29-.175.1-.357.214-.546.343-.19.128-.328.221-.416.278a6.614 6.614 0 0 1-.568.3c-.291.144-.641.308-1.049.494-.408.186-.692.307-.852.364l-.24.086-.263-.064a2.844 2.844 0 0 1-.568-.215 96.88 96.88 0 0 1-1.027-.514c-.481-.243-.758-.393-.831-.45a10.193 10.193 0 0 0-.557-.376 31.515 31.515 0 0 0-.678-.429l-.896-.536a40.85 40.85 0 0 1-.918-.557 8.963 8.963 0 0 1-.524-.364 24.74 24.74 0 0 1-.623-.483c-.233-.186-.543-.44-.93-.761-.385-.322-.72-.6-1.005-.836a66.401 66.401 0 0 1-1.245-1.072 39.277 39.277 0 0 0-1.05-.9 39.15 39.15 0 0 1-1.005-.858 42.31 42.31 0 0 1-.863-.761l-.776-.762c-.459-.45-.78-.771-.962-.964a359.92 359.92 0 0 1-1.202-1.287c-.62-.664-.99-1.072-1.114-1.222l-.547-.665c-.24-.293-.43-.528-.568-.707a18.89 18.89 0 0 1-.415-.558 54.662 54.662 0 0 0-.853-1.157c-.124-.165-.23-.311-.317-.44a16.662 16.662 0 0 0-.36-.504 14.071 14.071 0 0 1-.394-.557 47.67 47.67 0 0 0-.437-.643c-.182-.265-.32-.472-.415-.622-.095-.15-.248-.386-.46-.708a11.19 11.19 0 0 1-.414-.664 79.666 79.666 0 0 0-1.137-1.887c-.095-.15-.331-.561-.71-1.233-.38-.672-.663-1.179-.853-1.522a20.523 20.523 0 0 1-.502-.965c-.146-.3-.35-.75-.612-1.35-.263-.6-.394-.908-.394-.923 0-.014-.13-.343-.393-.986-.262-.643-.466-1.15-.612-1.522-.146-.372-.35-.936-.612-1.694a69.97 69.97 0 0 1-.787-2.423 79.726 79.726 0 0 1-.874-3.13 77.88 77.88 0 0 1-.678-2.744c-.13-.6-.313-1.472-.546-2.616-.233-1.143-.372-1.894-.415-2.251-.044-.358-.139-1.451-.284-3.28-.146-1.83-.24-3.21-.285-4.139a338.18 338.18 0 0 0-.153-2.958 452.79 452.79 0 0 1-.24-5.125c-.102-2.372-.153-4.052-.153-5.038v-1.48l.142-.075c.095-.05.353-.11.776-.182a126.47 126.47 0 0 1 1.748-.278c.744-.115 1.873-.3 3.388-.558 1.516-.257 2.601-.443 3.257-.557a56.86 56.86 0 0 0 2.6-.536 66.037 66.037 0 0 0 2.798-.686 43.171 43.171 0 0 0 2.033-.6c.568-.187 1.012-.33 1.333-.43.32-.1.627-.2.918-.3.291-.1.874-.314 1.748-.643a49.16 49.16 0 0 0 2.46-.997c.764-.336 1.172-.507 1.223-.514.051-.008.42-.168 1.104-.483a216.18 216.18 0 0 0 3.497-1.629 72.35 72.35 0 0 0 2.01-1.008L43.239 12h.284z"/><path d="M60.189 30L67 33.756 43.239 62 27 50.487l4.148-6.077 11.204 6.9z"/></g></symbol><symbol viewBox="0 0 11 13" id="system-android" xmlns="http://www.w3.org/2000/svg"><path d="M2.196 9.763c0 .325.22.542.549.542h.549V12.2c0 .434.384.813.823.813.44 0 .823-.38.823-.813v-1.895h1.098V12.2c0 .434.384.813.824.813.439 0 .823-.38.823-.813v-1.895h.549c.33 0 .549-.217.549-.542V4.346H2.196v5.417zM.823 4.346c-.439 0-.823.38-.823.813V8.95c0 .434.384.813.823.813.44 0 .824-.38.824-.813V5.16c0-.434-.384-.813-.824-.813zm9.332 0c-.44 0-.823.38-.823.813V8.95c0 .434.384.813.823.813.44 0 .823-.38.823-.813V5.16c0-.434-.384-.813-.823-.813zM7.41 1.205L8.124.5a.26.26 0 0 0 0-.379.268.268 0 0 0-.384 0l-.824.813C6.532.663 6.038.554 5.49.554S4.446.664 4.007.88L3.24.067a.614.614 0 0 0-.44 0A.59.59 0 0 0 2.8.5l.714.705c-.768.595-1.317 1.516-1.317 2.6h6.587c0-1.084-.55-2.059-1.373-2.6zM4.391 2.72h-.549v-.54h.55v.541zm2.745 0h-.549v-.54h.549v.541z" fill-rule="evenodd"/></symbol><symbol viewBox="0 0 305 305" id="system-darwin" xmlns="http://www.w3.org/2000/svg"><path d="M40.738 112.119c-25.785 44.745-9.393 112.648 19.121 153.82C74.092 286.523 88.502 305 108.239 305c.372 0 .745-.007 1.127-.022 9.273-.37 15.974-3.225 22.453-5.984 7.274-3.1 14.797-6.305 26.597-6.305 11.226 0 18.39 3.101 25.318 6.099 6.828 2.954 13.861 6.01 24.253 5.815 22.232-.414 35.882-20.352 47.925-37.941 12.567-18.365 18.871-36.196 20.998-43.01l.086-.271a2.5 2.5 0 0 0-1.328-3.066c-.032-.015-.15-.064-.183-.078-3.915-1.601-38.257-16.836-38.618-58.36-.335-33.736 25.763-51.601 30.997-54.839l.244-.152a2.498 2.498 0 0 0 .71-3.511c-18.014-26.362-45.624-30.335-56.74-30.813a50.043 50.043 0 0 0-4.95-.242c-13.056 0-25.563 4.931-35.611 8.893-6.936 2.735-12.927 5.097-17.059 5.097-4.643 0-10.668-2.391-17.645-5.159-9.33-3.703-19.905-7.899-31.1-7.899-.267 0-.53.003-.789.008-26.03.383-50.626 15.275-64.186 38.859z"/><path d="M212.101.002c-15.763.642-34.672 10.345-45.974 23.583-9.605 11.127-18.988 29.679-16.516 48.379a2.499 2.499 0 0 0 2.284 2.164c1.064.083 2.15.125 3.232.126 15.413 0 32.04-8.527 43.395-22.257 11.951-14.498 17.994-33.104 16.166-49.77a2.515 2.515 0 0 0-2.587-2.225z"/></symbol><symbol viewBox="0 0 305 305" id="system-ios" xmlns="http://www.w3.org/2000/svg"><path d="M40.738 112.119c-25.785 44.745-9.393 112.648 19.121 153.82C74.092 286.523 88.502 305 108.239 305c.372 0 .745-.007 1.127-.022 9.273-.37 15.974-3.225 22.453-5.984 7.274-3.1 14.797-6.305 26.597-6.305 11.226 0 18.39 3.101 25.318 6.099 6.828 2.954 13.861 6.01 24.253 5.815 22.232-.414 35.882-20.352 47.925-37.941 12.567-18.365 18.871-36.196 20.998-43.01l.086-.271a2.5 2.5 0 0 0-1.328-3.066c-.032-.015-.15-.064-.183-.078-3.915-1.601-38.257-16.836-38.618-58.36-.335-33.736 25.763-51.601 30.997-54.839l.244-.152a2.498 2.498 0 0 0 .71-3.511c-18.014-26.362-45.624-30.335-56.74-30.813a50.043 50.043 0 0 0-4.95-.242c-13.056 0-25.563 4.931-35.611 8.893-6.936 2.735-12.927 5.097-17.059 5.097-4.643 0-10.668-2.391-17.645-5.159-9.33-3.703-19.905-7.899-31.1-7.899-.267 0-.53.003-.789.008-26.03.383-50.626 15.275-64.186 38.859z"/><path d="M212.101.002c-15.763.642-34.672 10.345-45.974 23.583-9.605 11.127-18.988 29.679-16.516 48.379a2.499 2.499 0 0 0 2.284 2.164c1.064.083 2.15.125 3.232.126 15.413 0 32.04-8.527 43.395-22.257 11.951-14.498 17.994-33.104 16.166-49.77a2.515 2.515 0 0 0-2.587-2.225z"/></symbol><symbol viewBox="0 0 24 28" id="system-unix" xmlns="http://www.w3.org/2000/svg"><path d="M23.255 22.482c-.824-.337-1.176-.783-1.142-1.449.035-.777-.408-1.346-.618-1.571.127-.483.498-2.155 0-3.607-.534-1.554-2.167-3.928-3.851-6.262-.69-.958-.723-2-.76-3.206-.036-1.15-.077-2.454-.721-3.904C15.463.905 14.058 0 12.309 0c-1.04 0-2.11.324-2.931.889C7.695 2.047 7.918 4.57 8.064 6.24c.02.23.04.445.05.63.099 1.635.01 2.497-.107 2.76-.076.17-.447.658-.84 1.174a35.564 35.564 0 0 0-1.246 1.702c-.45.678-.815 1.714-1.166 2.717-.258.733-.501 1.426-.738 1.84a2.498 2.498 0 0 0-.244 1.882c-.17.118-.415.35-.622.786-.25.533-.759.819-1.816 1.021-.485.099-.82.302-.995.605-.255.44-.116.992.01 1.37.188.555.071.907-.14 1.545-.05.147-.105.314-.161.497-.089.29-.057.554.094.785.4.607 1.564.822 2.762.963.716.084 1.5.37 2.257.646.742.27 1.51.55 2.208.634.106.014.21.02.312.02 1.054 0 1.53-.696 1.68-.982.379-.077 1.684-.324 3.03-.357 1.342-.038 2.641.226 3.01.308.115.221.42.725.907.985.267.146.639.229 1.02.229.407 0 1.18-.096 1.793-.738.612-.645 2.138-1.469 3.253-2.07.249-.134.482-.26.686-.373.626-.346.968-.84.937-1.356-.025-.429-.31-.805-.743-.981zm-13.863-.125c-.078-.547-.785-1.09-1.603-1.718-.669-.513-1.427-1.096-1.636-1.589-.431-1.017-.091-2.806.502-3.727.293-.462.533-1.161.764-1.837.25-.73.509-1.486.798-1.817.458-.516.882-1.52.957-2.311.428.408 1.094.925 1.708.925.095 0 .187-.012.275-.037.42-.12 1.039-.477 1.637-.821.516-.297 1.151-.663 1.39-.696.411.587 2.795 5.843 3.039 7.531a7.954 7.954 0 0 1-.114 2.873 2.128 2.128 0 0 0-.283-.02c-.664 0-.84.36-.886.576-.118.56-.13 2.352-.131 2.755-.24.304-1.455 1.735-3.198 1.993-.71.102-1.373.155-1.97.155-.512 0-.838-.04-.973-.06l-.876-.999c.345-.17.69-.529.6-1.176zM10.503 5.89a1.402 1.402 0 0 0-.08.038 1.62 1.62 0 0 0-.019-.18c-.095-.548-.46-.946-.868-.946a.61.61 0 0 0-.093.007c-.243.04-.433.222-.537.479.092-.564.412-.982.793-.982.447 0 .824.6.824 1.31 0 .09-.006.179-.02.274zm3.472.423c.041-.13.063-.27.063-.416 0-.644-.41-1.148-.933-1.148-.511 0-.928.515-.928 1.148 0 .043.002.086.007.13l-.08-.03a1.75 1.75 0 0 1-.088-.553c0-.77.493-1.396 1.1-1.396.608 0 1.102.626 1.102 1.396 0 .32-.09.626-.243.87zm-.447 1.499c-.009.039-.028.056-.233.163a6.296 6.296 0 0 0-.396.219l-.108.065c-.434.263-1.452.878-1.729.914-.187.025-.303-.048-.564-.224a8.15 8.15 0 0 0-.189-.125c-.47-.308-.773-.647-.807-.78.153-.118.534-.413.728-.588.395-.366.793-.612.99-.612.01 0 .02 0 .03.002.23.04.801.268 1.218.433.192.077.359.143.476.185.368.126.56.287.584.348zm3.312 17.11c.208-.935.447-2.207.409-2.957a18.96 18.96 0 0 0-.04-.534c-.027-.335-.067-.834-.025-.981a.18.18 0 0 1 .027-.01c.002.428.096 1.283.782 1.581.204.089.438.134.694.134.687 0 1.45-.336 1.762-.647.184-.183.339-.408.447-.585.024.069.038.16.03.276-.04.632.268 1.47.855 1.78l.085.044c.21.11.764.4.773.537 0 0-.004.017-.035.045-.14.127-.629.376-1.102.617-.84.427-1.79.91-2.218 1.359-.602.63-1.282 1.054-1.693 1.054a.446.446 0 0 1-.135-.019c-.446-.138-.814-.78-.616-1.695zM1.627 22.535c-.045-.213-.081-.38-.043-.542.028-.12.624-.25.879-.305.357-.077.727-.157.97-.303.327-.198.504-.562.66-.883.113-.233.23-.473.369-.552a.078.078 0 0 1 .043-.01c.26 0 .807.546 1.122 1.034.08.123.227.37.399.656.512.853 1.213 2.022 1.579 2.414.33.353.864 1.03.732 1.61-.096.451-.608.818-.729.899a.75.75 0 0 1-.162.015c-.7 0-2.088-.581-2.833-.893l-.11-.046c-.416-.174-1.096-.284-1.753-.39-.523-.084-1.238-.2-1.357-.304-.096-.107.015-.457.114-.765.07-.222.144-.451.184-.69.057-.384-.01-.695-.064-.945z" fill-rule="evenodd"/></symbol><symbol viewBox="0 0 9 10" id="system-windows" xmlns="http://www.w3.org/2000/svg"><path d="M0 1.62l3.314-.457.002 3.237-3.313.019L0 1.619zm3.313 3.983l.003 3.234L0 8.377V5.58l3.313.022zM4.5.728L9 0v4.379l-4.5.04V.729zM9 5.59L8.999 10l-4.493-.712L4.5 5.58l4.5.01z" fill-rule="evenodd"/></symbol><symbol viewBox="0 0 512 416" id="twitter" xmlns="http://www.w3.org/2000/svg"><path d="M512 49.248a218.843 218.843 0 0 1-60.48 16.576 104.375 104.375 0 0 0 46.176-58.016 209.766 209.766 0 0 1-66.56 25.408A105.184 105.184 0 0 0 354.464 0a104.932 104.932 0 0 0-104.896 104.992A108.08 108.08 0 0 0 252 128.928c-87.264-4.256-164.48-46.08-216.352-109.792A105.677 105.677 0 0 0 21.28 72.192a105.116 105.116 0 0 0 46.624 87.232 103.66 103.66 0 0 1-47.424-12.928v1.152a105.447 105.447 0 0 0 84.096 103.136 104.763 104.763 0 0 1-27.52 3.456 92.808 92.808 0 0 1-19.872-1.792c13.6 41.568 52.192 72.128 98.08 73.12A210.907 210.907 0 0 1 25.12 370.336 196.6 196.6 0 0 1 0 368.896 295.503 295.503 0 0 0 161.024 416c193.152 0 298.752-160 298.752-298.688 0-4.64-.16-9.12-.384-13.568A209.398 209.398 0 0 0 512 49.248z"/></symbol><symbol viewBox="0 0 512 512" id="warning" xmlns="http://www.w3.org/2000/svg"><path d="M507.494 426.066L282.864 53.537a31.372 31.372 0 0 0-53.73 0L4.506 426.066a31.37 31.37 0 0 0 26.864 47.569h449.259a31.372 31.372 0 0 0 26.865-47.569zM256.167 167.227c12.901 0 23.817 7.278 23.817 20.178 0 39.363-4.631 95.929-4.631 135.292 0 10.255-11.247 14.554-19.186 14.554-10.584 0-19.516-4.3-19.516-14.554 0-39.363-4.63-95.929-4.63-135.292 0-12.9 10.584-20.178 24.146-20.178zm.331 243.791c-14.554 0-25.471-11.908-25.471-25.47 0-13.893 10.916-25.47 25.471-25.47 13.562 0 25.14 11.577 25.14 25.47 0 13.562-11.578 25.47-25.14 25.47z"/></symbol><symbol viewBox="0 0 21 23" id="windows" xmlns="http://www.w3.org/2000/svg"><path d="M0 3.632l7.68-1.076.003 7.621-7.676.045L0 3.632zm7.677 9.197l.006 7.615L0 19.36v-6.582l7.677.05zm2.567-11.144L21 0v10.13l-10.756.092V1.685zM21 12.797L20.997 23 10.26 21.352l-.015-8.574L21 12.797z" fill-rule="evenodd"/></symbol></svg>