<?xml version="1.0" encoding="UTF-8"?>
<svg width="15px" height="18px" viewBox="0 0 15 18" version="1.1" xmlns="http://www.w3.org/2000/svg" xmlns:xlink="http://www.w3.org/1999/xlink">
    <!-- Generator: Sketch 39.1 (31720) - http://www.bohemiancoding.com/sketch -->
    <title>turn-notifications-on-button</title>
    <desc>Created with Sketch.</desc>
    <defs></defs>
    <g id="Page-1" stroke="none" stroke-width="1" fill="none" fill-rule="evenodd">
        <g id="companyName" transform="translate(-931.000000, -86.000000)" stroke="#FF6A00">
            <g id="turn-notifications-on-button" transform="translate(931.000000, 87.000000)">
                <g id="Capa_1">
                    <g id="notifications-on">
                        <path d="M12.6923577,6.81051859 C12.6923577,4.33203523 11.0116623,2.33325832 8.69070196,1.77360078 L8.69070196,1.21394325 C8.69070196,0.574334638 8.13047015,0.0146771037 7.49020522,0.0146771037 C6.8499403,0.0146771037 6.28970849,0.574334638 6.28970849,1.21394325 L6.28970849,1.77360078 C3.96874813,2.33325832 2.28805271,4.33203523 2.28805271,6.81051859 L2.28805271,11.2078278 L0.687390392,12.8068493 L0.687390392,13.6063601 L14.2930201,13.6063601 L14.2930201,12.8068493 L12.6923577,11.2078278 L12.6923577,6.81051859 Z M7.49020522,16.0048924 L7.81033769,16.0048924 C8.3705695,15.9249413 8.77073507,15.5251859 8.93080131,15.0454795 C9.01083442,14.8855459 9.09086754,14.6457241 9.09086754,14.4058708 L5.88954291,14.4058708 C5.88954291,15.2853327 6.60984095,16.0048924 7.49020522,16.0048924 Z" id="Shape"></path>
                    </g>
                </g>
            </g>
        </g>
    </g>
</svg>