<?xml version="1.0" encoding="UTF-8"?>
<svg width="17px" height="21px" viewBox="0 0 17 21" version="1.1" xmlns="http://www.w3.org/2000/svg" xmlns:xlink="http://www.w3.org/1999/xlink">
    <!-- Generator: Sketch 39.1 (31720) - http://www.bohemiancoding.com/sketch -->
    <title>computer-tablet</title>
    <desc>Created with Sketch.</desc>
    <defs></defs>
    <g id="Page-1" stroke="none" stroke-width="1" fill="none" fill-rule="evenodd">
        <g id="devices" transform="translate(-105.000000, -281.000000)" fill="#727272">
            <g id="computer-tablet" transform="translate(105.000000, 281.000000)">
                <g id="Capa_1">
                    <path d="M16.2802818,0.700940299 C15.8191182,0.233559701 15.2655879,0 14.6182485,0 L2.38118485,0 C1.734,0 1.18000606,0.233559701 0.7191,0.700940299 C0.25829697,1.16842537 0.027869697,1.73004478 0.027869697,2.38637313 L0.027869697,18.6134701 C0.027869697,19.269903 0.25829697,19.8311045 0.7191,20.2987463 C1.18000606,20.7662313 1.734,20.9995299 2.38118485,20.9995299 L14.618197,20.9995299 C15.2655364,20.9995299 15.8191182,20.7662313 16.2802818,20.2987463 C16.7411364,19.8311045 16.9717182,19.2695896 16.9717182,18.6134701 L16.9717182,2.38642537 C16.9717182,1.73004478 16.7406212,1.16826866 16.2802818,0.700940299 Z M9.16160909,19.7618881 C8.97548485,19.9506791 8.75474242,20.0450746 8.49969091,20.0450746 C8.24458788,20.0450746 8.02405152,19.9506791 7.83772121,19.7618881 C7.65139091,19.5727836 7.55830303,19.3489925 7.55830303,19.0907761 C7.55830303,18.8322985 7.65139091,18.6081418 7.83772121,18.4196642 C8.02425758,18.2305597 8.24479394,18.1357985 8.49969091,18.1357985 C8.75469091,18.1357985 8.97543333,18.2305075 9.16160909,18.4196642 C9.34778485,18.6080896 9.44123333,18.8322463 9.44123333,19.0907761 C9.44123333,19.3489925 9.34778485,19.5726269 9.16160909,19.7618881 Z M15.0888909,16.7042463 C15.0888909,16.833694 15.0420121,16.9452239 14.9492848,17.0399851 C14.8558879,17.1347463 14.7458515,17.1816045 14.618197,17.1816045 L2.38118485,17.1816045 C2.25373636,17.1816045 2.14344242,17.1343806 2.05030303,17.0399851 C1.95716364,16.9455896 1.91059394,16.833694 1.91059394,16.7042463 L1.91059394,2.38642537 C1.91059394,2.25713433 1.95711212,2.14523881 2.05030303,2.05084328 C2.14349394,1.95634328 2.25373636,1.90917164 2.38118485,1.90917164 L14.618197,1.90917164 C14.7458515,1.90917164 14.8558364,1.95618657 14.9492848,2.05084328 C15.0423727,2.14523881 15.0888909,2.25713433 15.0888909,2.38642537 L15.0888909,16.7042463 Z" id="Shape"></path>
                </g>
            </g>
        </g>
    </g>
</svg>