<?xml version="1.0" encoding="UTF-8"?>
<svg width="19px" height="17px" viewBox="0 0 19 17" version="1.1" xmlns="http://www.w3.org/2000/svg" xmlns:xlink="http://www.w3.org/1999/xlink">
    <!-- Generator: Sketch 39.1 (31720) - http://www.bohemiancoding.com/sketch -->
    <title>Capa_1</title>
    <desc>Created with Sketch.</desc>
    <defs></defs>
    <g id="Page-1" stroke="none" stroke-width="1" fill="none" fill-rule="evenodd">
        <g id="devices" transform="translate(-104.000000, -204.000000)" fill="#727272">
            <g id="desktop-pc" transform="translate(104.000000, 204.000000)">
                <g id="Capa_1">
                    <g id="Group">
                        <path d="M18.6788513,3.09036416 L6.44197436,3.09036416 L6.44197436,4.62979769 L17.7074154,4.62979769 L17.7074154,12.8254191 L6.44197436,12.8254191 L6.44197436,14.8509249 L8.48881026,14.8509249 L7.04690513,16.252 C6.99925897,16.2982832 6.97236667,16.3621561 6.97236667,16.4289277 L6.97236667,16.7431821 C6.97236667,16.8788382 7.08139744,16.9888468 7.21595641,16.9888468 L14.5906359,16.9888468 C14.7251949,16.9888468 14.8342256,16.8788382 14.8342256,16.7431821 L14.8342256,16.4289277 C14.8342256,16.3622052 14.8072846,16.2983324 14.7596385,16.252 L13.3177333,14.8509249 L18.6788513,14.8509249 C18.8561846,14.8509249 19,14.7059335 19,14.5268439 L19,3.41424855 C19,3.23540462 18.8561846,3.09036416 18.6788513,3.09036416 Z M10.9032231,13.5386821 C11.0984846,13.5386821 11.2566231,13.6982168 11.2566231,13.8950925 C11.2566231,14.0919191 11.0984846,14.2515029 10.9032231,14.2515029 C10.7082051,14.2515029 10.5500179,14.0919191 10.5500179,13.8950925 C10.5500179,13.6982168 10.7082051,13.5386821 10.9032231,13.5386821 Z" id="Shape"></path>
                        <path d="M4.95008462,0.0112023121 L0.393446154,0.0112023121 C0.176115385,0.0112023121 0,0.188817919 0,0.408 L0,16.5756387 C0,16.7948208 0.176115385,16.9724364 0.393446154,16.9724364 L4.95008462,16.9724364 C5.16741538,16.9724364 5.34353077,16.7948208 5.34353077,16.5756387 L5.34353077,0.408 C5.34357949,0.188817919 5.16741538,0.0112023121 4.95008462,0.0112023121 Z M2.24921026,2.02678324 C2.24921026,1.99214451 2.27702821,1.96404046 2.31142308,1.96404046 L3.03220513,1.96404046 C3.06655128,1.96404046 3.09441795,1.99214451 3.09441795,2.02678324 L3.09441795,8.28740173 C3.09441795,8.3220896 3.06655128,8.35019364 3.03220513,8.35019364 L2.31142308,8.35019364 C2.27702821,8.35019364 2.24921026,8.3220896 2.24921026,8.28740173 L2.24921026,2.02678324 Z M3.0419,11.5780318 C3.0419,11.7841445 2.87625897,11.9513439 2.67174103,11.9513439 C2.46732051,11.9513439 2.30158205,11.7841936 2.30158205,11.5780318 C2.30158205,11.3718699 2.46727179,11.2047197 2.67174103,11.2047197 C2.87625897,11.2047197 3.0419,11.3718208 3.0419,11.5780318 Z M2.67178974,14.5575029 C2.19060256,14.5575029 1.80046923,14.1640954 1.80046923,13.6787601 C1.80046923,13.193474 2.19060256,12.8000173 2.67178974,12.8000173 C3.15297692,12.8000173 3.54311026,13.193474 3.54311026,13.6787601 C3.54311026,14.1640954 3.15297692,14.5575029 2.67178974,14.5575029 Z" id="Shape"></path>
                    </g>
                </g>
            </g>
        </g>
    </g>
</svg>