<?xml version="1.0" encoding="UTF-8"?>
<svg width="20px" height="16px" viewBox="0 0 20 16" version="1.1" xmlns="http://www.w3.org/2000/svg" xmlns:xlink="http://www.w3.org/1999/xlink">
    <!-- Generator: Sketch 39.1 (31720) - http://www.bohemiancoding.com/sketch -->
    <title>Group 11</title>
    <desc>Created with Sketch.</desc>
    <defs></defs>
    <g id="Page-1" stroke="none" stroke-width="1" fill="none" fill-rule="evenodd">
        <g id="adminPanelMockup" transform="translate(-87.000000, -180.000000)" fill="#4D4D4D">
            <g id="Group-8" transform="translate(70.000000, 107.000000)">
                <g id="Group-11" transform="translate(17.000000, 73.000000)">
                    <path d="M10.0064502,3.25821739 L2.89982684,9.14234783 C2.89982684,9.15065217 2.89774892,9.16286957 2.89359307,9.17952174 C2.88952381,9.19604348 2.88735931,9.20804348 2.88735931,9.21656522 L2.88735931,15.1748696 C2.88735931,15.39 2.965671,15.5764348 3.12225108,15.7334348 C3.27878788,15.8905217 3.46415584,15.9695652 3.67839827,15.9695652 L8.42428571,15.9695652 L8.42428571,11.2027826 L11.588658,11.2027826 L11.588658,15.9697391 L16.3345022,15.9697391 C16.5487013,15.9697391 16.734329,15.8908696 16.8906494,15.7334348 C17.0472294,15.5766087 17.1258009,15.3900435 17.1258009,15.1748696 L17.1258009,9.21656522 C17.1258009,9.18352174 17.1212987,9.15856522 17.1133333,9.14234783 L10.0064502,3.25821739 Z" id="Shape"></path>
                    <path d="M19.8321212,7.80165217 L17.1255411,5.54243478 L17.1255411,0.477782609 C17.1255411,0.362 17.0884848,0.266782609 17.0141126,0.19226087 C16.9403463,0.117826087 16.8455411,0.0806086957 16.73,0.0806086957 L14.357013,0.0806086957 C14.2416017,0.0806086957 14.1468398,0.117826087 14.0725974,0.19226087 C13.9985281,0.266782609 13.9615152,0.362043478 13.9615152,0.477782609 L13.9615152,2.89834783 L10.9458442,0.365956522 C10.6824675,0.150782609 10.3693074,0.0432173913 10.00671,0.0432173913 C9.64415584,0.0432173913 9.33103896,0.150782609 9.0674026,0.365956522 L0.180606061,7.80165217 C0.0982251082,7.86773913 0.0530735931,7.95669565 0.0446753247,8.06843478 C0.0363203463,8.18008696 0.0651082251,8.2776087 0.131125541,8.36030435 L0.897402597,9.27891304 C0.963419913,9.35334783 1.04982684,9.39886957 1.1569697,9.41552174 C1.25588745,9.42386957 1.35480519,9.39482609 1.45372294,9.32865217 L10.0064502,2.16595652 L18.5592641,9.3286087 C18.6253247,9.38634783 18.7116883,9.41517391 18.8188312,9.41517391 L18.855974,9.41517391 C18.9629437,9.39882609 19.0491775,9.353 19.1155411,9.27873913 L19.8819048,8.36026087 C19.9477922,8.2773913 19.9766667,8.18004348 19.9680952,8.06826087 C19.9596537,7.95682609 19.914329,7.86786957 19.8321212,7.80165217 Z" id="Shape"></path>
                </g>
            </g>
        </g>
    </g>
</svg>