<?xml version="1.0" encoding="UTF-8"?>
<svg width="17px" height="21px" viewBox="0 0 17 21" version="1.1" xmlns="http://www.w3.org/2000/svg" xmlns:xlink="http://www.w3.org/1999/xlink">
    <!-- Generator: Sketch 39.1 (31720) - http://www.bohemiancoding.com/sketch -->
    <title>Shape</title>
    <desc>Created with Sketch.</desc>
    <defs></defs>
    <g id="Page-1" stroke="none" stroke-width="1" fill="none" fill-rule="evenodd">
        <g id="adminPanelMockup" transform="translate(-264.000000, -177.000000)" fill="#4D4D4D">
            <g id="Group-8" transform="translate(70.000000, 107.000000)">
                <path d="M209.111111,71.9090909 L205.163333,71.9090909 C204.766667,70.8018182 203.727778,70 202.5,70 C201.272222,70 200.233333,70.8018182 199.836667,71.9090909 L195.888889,71.9090909 C194.85,71.9090909 194,72.7681818 194,73.8181818 L194,89.0909091 C194,90.1409091 194.85,91 195.888889,91 L209.111111,91 C210.15,91 211,90.1409091 211,89.0909091 L211,73.8181818 C211,72.7681818 210.15,71.9090909 209.111111,71.9090909 L209.111111,71.9090909 Z M202.5,71.9090909 C203.019444,71.9090909 203.444444,72.3386364 203.444444,72.8636364 C203.444444,73.3886364 203.019444,73.8181818 202.5,73.8181818 C201.980556,73.8181818 201.555556,73.3886364 201.555556,72.8636364 C201.555556,72.3386364 201.980556,71.9090909 202.5,71.9090909 L202.5,71.9090909 Z M209.111111,89.0909091 L195.888889,89.0909091 L195.888889,73.8181818 L197.777778,73.8181818 L197.777778,76.6818182 L207.222222,76.6818182 L207.222222,73.8181818 L209.111111,73.8181818 L209.111111,89.0909091 L209.111111,89.0909091 Z" id="Shape"></path>
            </g>
        </g>
    </g>
</svg>