<?xml version="1.0" encoding="UTF-8"?>
<svg width="19px" height="17px" viewBox="0 0 19 17" version="1.1" xmlns="http://www.w3.org/2000/svg" xmlns:xlink="http://www.w3.org/1999/xlink">
    <!-- Generator: Sketch 39.1 (31720) - http://www.bohemiancoding.com/sketch -->
    <title>Group 12</title>
    <desc>Created with Sketch.</desc>
    <defs></defs>
    <g id="Page-1" stroke="none" stroke-width="1" fill="none" fill-rule="evenodd">
        <g id="adminPanelMockup" transform="translate(-307.000000, -179.000000)" fill="#4D4D4D">
            <g id="Group-8" transform="translate(70.000000, 107.000000)">
                <g id="Group-12" transform="translate(237.000000, 72.000000)">
                    <path d="M9.69065068,7.828415 C9.3031895,6.876415 8.91859132,5.9640675 8.53681279,5.1083725 C8.15499087,4.25272 7.7674863,3.4425 7.37421233,2.5925 L4.7890411,2.5925 C4.38414155,3.4425 3.99368721,4.25272 3.61772146,5.1083725 C3.24175571,5.9640675 2.85997717,6.872165 2.47234247,7.8241225 C2.08470776,8.7761225 1.68857078,9.8011375 1.28380137,10.87779 C0.879118721,11.9545275 0.451141553,13.1325 0,14.4075 L2.81074201,14.4075 C2.9381895,13.9825 3.07990868,13.5799825 3.23594292,13.1493725 C3.39197717,12.7187625 3.54519178,12.2825 3.69558676,11.8575 L8.3808653,11.8575 C8.53126027,12.2825 8.68443151,12.7187625 8.84050913,13.1493725 C8.99654338,13.5799825 9.13826256,13.9825 9.26571005,14.4075 L12.1632968,14.4075 C11.7121119,13.1325 11.2840913,11.9566525 10.8791918,10.8799575 C10.4742489,9.8032625 10.0780685,8.780415 9.69065068,7.828415 L9.69065068,7.828415 Z M4.32041781,9.7325 C4.50538584,9.2225 4.68753425,8.735025 4.86690639,8.27033 C5.04623516,7.8056775 5.21107534,7.38072 5.36147032,6.995415 C5.5118653,6.61011 5.6448653,6.2701525 5.76047032,5.9754575 C5.87607534,5.680805 5.96283333,5.4483725 6.02074429,5.2782025 C6.09028082,5.4483725 6.1828516,5.680805 6.2985,5.9754575 C6.41410502,6.2701525 6.55001142,6.6101525 6.70621918,6.995415 C6.86242694,7.38072 7.02726712,7.805635 7.20078311,8.2702875 C7.37429909,8.7349825 7.5535411,9.2224575 7.73850913,9.7324575 L4.32041781,9.7324575 L4.32041781,9.7325 Z" id="Shape"></path>
                    <polygon id="Shape" points="19 1.7 19 0 13.7945205 0 13.7945205 1.7 15.5296804 1.7 15.5296804 15.3 13.7945205 15.3 13.7945205 17 19 17 19 15.3 17.2648402 15.3 17.2648402 1.7"></polygon>
                </g>
            </g>
        </g>
    </g>
</svg>