<?xml version="1.0" encoding="UTF-8"?>
<svg width="18px" height="11px" viewBox="0 0 18 11" version="1.1" xmlns="http://www.w3.org/2000/svg" xmlns:xlink="http://www.w3.org/1999/xlink">
    <!-- Generator: Sketch 39.1 (31720) - http://www.bohemiancoding.com/sketch -->
    <title>Shape</title>
    <desc>Created with Sketch.</desc>
    <defs></defs>
    <g id="Page-1" stroke="none" stroke-width="1" fill="none" fill-rule="evenodd">
        <g id="adminPanelMockup" transform="translate(-1131.000000, -183.000000)" fill="#4D4D4D">
            <g id="Group-8" transform="translate(70.000000, 107.000000)">
                <path d="M1070,76 C1066.33333,76 1063.202,78.2806667 1061.93333,81.5 C1063.202,84.7193333 1066.33333,87 1070,87 C1073.66667,87 1076.798,84.7193333 1078.06667,81.5 C1076.798,78.2806667 1073.66667,76 1070,76 L1070,76 Z M1070,85.1666667 C1067.976,85.1666667 1066.33333,83.524 1066.33333,81.5 C1066.33333,79.476 1067.976,77.8333333 1070,77.8333333 C1072.024,77.8333333 1073.66667,79.476 1073.66667,81.5 C1073.66667,83.524 1072.024,85.1666667 1070,85.1666667 L1070,85.1666667 Z M1070,79.3 C1068.78267,79.3 1067.8,80.2826667 1067.8,81.5 C1067.8,82.7173333 1068.78267,83.7 1070,83.7 C1071.21733,83.7 1072.2,82.7173333 1072.2,81.5 C1072.2,80.2826667 1071.21733,79.3 1070,79.3 L1070,79.3 Z" id="Shape"></path>
            </g>
        </g>
    </g>
</svg>