<?xml version="1.0" encoding="UTF-8"?>
<svg width="18px" height="18px" viewBox="0 0 18 18" version="1.1" xmlns="http://www.w3.org/2000/svg" xmlns:xlink="http://www.w3.org/1999/xlink">
    <!-- Generator: Sketch 39.1 (31720) - http://www.bohemiancoding.com/sketch -->
    <title>Shape</title>
    <desc>Created with Sketch.</desc>
    <defs></defs>
    <g id="Page-1" stroke="none" stroke-width="1" fill="none" fill-rule="evenodd">
        <g id="adminPanelMockup" transform="translate(-220.000000, -179.000000)" fill="#4D4D4D">
            <g id="Group-8" transform="translate(70.000000, 107.000000)">
                <path d="M156.876,77.076 C157.083,76.626 157.2,76.131 157.2,75.6 C157.2,73.611 155.589,72 153.6,72 C151.611,72 150,73.611 150,75.6 C150,77.589 151.611,79.2 153.6,79.2 C154.131,79.2 154.626,79.083 155.076,78.876 L157.2,81 L155.076,83.124 C154.626,82.917 154.131,82.8 153.6,82.8 C151.611,82.8 150,84.411 150,86.4 C150,88.389 151.611,90 153.6,90 C155.589,90 157.2,88.389 157.2,86.4 C157.2,85.869 157.083,85.374 156.876,84.924 L159,82.8 L165.3,89.1 L168,89.1 L168,88.2 L156.876,77.076 L156.876,77.076 Z M154,78 C152.9,78 152,77.11 152,76 C152,74.89 152.9,74 154,74 C155.1,74 156,74.89 156,76 C156,77.11 155.1,78 154,78 L154,78 Z M154,89 C152.9,89 152,88.11 152,87 C152,85.89 152.9,85 154,85 C155.1,85 156,85.89 156,87 C156,88.11 155.1,89 154,89 L154,89 Z M159.5,82 C159.22,82 159,81.78 159,81.5 C159,81.22 159.22,81 159.5,81 C159.78,81 160,81.22 160,81.5 C160,81.78 159.78,82 159.5,82 L159.5,82 Z M165.333333,73 L160,78.25 L161.777778,80 L168,73.875 L168,73 L165.333333,73 Z" id="Shape"></path>
            </g>
        </g>
    </g>
</svg>