<?xml version="1.0" encoding="UTF-8"?>
<svg width="134px" height="29px" viewBox="0 0 134 29" version="1.1" xmlns="http://www.w3.org/2000/svg" xmlns:xlink="http://www.w3.org/1999/xlink">
    <!-- Generator: Sketch 54.1 (76490) - https://sketchapp.com -->
    <title>logo-big</title>
    <desc>Created with Sketch.</desc>
    <g id="Page-1" stroke="none" stroke-width="1" fill="none" fill-rule="evenodd">
        <g id="Artboard" transform="translate(0.000000, -9.000000)" fill-rule="nonzero">
            <g id="logo-big" transform="translate(0.000000, 9.000000)">
                <path d="M81.1781887,21.6531733 L85.023494,21.6531733 L85.023494,11.3703367 L89.1864148,11.3703367 L89.1864148,8.07222685 L77.0156764,8.07222685 L77.0156764,11.3703367 L81.1781887,11.3703367 L81.1781887,21.6531733 Z M66.1167727,21.75 L69.6845234,21.75 L75.3137048,8.07222685 L71.0919211,8.07222685 L67.940299,16.6669978 L64.7890862,8.07222685 L60.487592,8.07222685 L66.1167727,21.75 Z M50.9263869,14.8240894 L50.9263869,11.2346993 L52.7302919,11.2346993 C54.1176596,11.2346993 54.9503255,11.8552704 54.9503255,13.0195916 C54.9503255,14.1254967 54.1176596,14.8240894 52.7499128,14.8240894 L50.9263869,14.8240894 Z M47.0810811,21.6531733 L50.9263869,21.6531733 L50.9263869,17.7729029 L52.8292144,17.7729029 C56.2780126,17.7729029 58.7956313,16.0848372 58.7956313,12.8835541 C58.7956313,9.83751376 56.5359469,8.07222685 53.0274682,8.07222685 L47.0810811,8.07222685 L47.0810811,21.6531733 L47.0810811,21.6531733 Z" id="Fill-1" fill="#2D3130"></path>
                <path d="M121.036901,21.4850511 L125.363997,21.4850511 L128.043513,17.4928687 L130.703381,21.4850511 L135.129946,21.4850511 L130.365679,14.7114908 L134.931008,8.24033905 L130.604322,8.24033905 L128.122515,11.9675727 L125.661584,8.24033905 L121.235429,8.24033905 L125.800759,14.7493407 L121.036901,21.4850511 Z M113.613176,18.4387245 C111.509186,18.4387245 110.060135,16.7741119 110.060135,14.8628902 C110.060135,12.9138186 111.46948,11.2866658 113.57347,11.2866658 C115.697517,11.2866658 117.146567,12.9516685 117.146567,14.8628902 C117.146567,16.8111814 115.737631,18.4387245 113.613176,18.4387245 Z M113.57347,21.75 C117.86086,21.75 121.076607,18.6654333 121.076607,14.8628902 C121.076607,11.0217169 117.900975,7.975 113.613176,7.975 C109.326195,7.975 106.110447,11.0595667 106.110447,14.8628902 C106.110447,18.7036733 109.286489,21.75 113.57347,21.75 Z M96.1459699,13.519416 L96.1459699,11.1922363 L98.6474254,11.1922363 C99.7984796,11.1922363 100.393655,11.6081943 100.393655,12.3273412 C100.393655,13.1409177 99.7391255,13.519416 98.5680141,13.519416 L96.1459699,13.519416 Z M96.1459699,18.5335441 L96.1459699,16.0928148 L99.0841871,16.0928148 C100.374006,16.0928148 100.969182,16.5657427 100.969182,17.2844995 C100.969182,18.0980759 100.294595,18.5335441 99.1238924,18.5335441 L96.1459699,18.5335441 Z M92.3948108,21.4850511 L99.5602457,21.4850511 C102.875461,21.4850511 104.820628,20.1041173 104.820628,17.833127 C104.820628,15.9979951 103.748576,15.089599 102.061291,14.5597013 C103.291757,14.0489236 104.204986,13.1409177 104.204986,11.6081943 C104.204986,10.6619483 103.867693,9.96192144 103.311814,9.43241385 C102.498053,8.65668727 101.267178,8.24033905 99.5201304,8.24033905 L92.3948108,8.24033905 L92.3948108,21.4850511 L92.3948108,21.4850511 Z" id="Fill-2" fill="#FC8F42"></path>
                <path d="M0,10.414211 L0.000412178797,10.4150291 L11.9659626,1.8875425 L11.9659626,6.43294446 L3.18985171,12.6875256 L16.3511329,22.0675563 L16.3511329,29 L0,17.3462455 L0,10.414211 Z M35.4918919,10.414211 L35.4910675,10.4150291 L23.5259293,1.8875425 L23.5259293,6.43294446 L32.3020401,12.6875256 L19.1403468,22.0675563 L19.1403468,29 L35.4918919,17.3462455 L35.4918919,10.414211 Z M20.2524052,0 L15.2398989,0 L15.2398989,12.399526 L12.4082305,10.3810746 L9.18045835,12.6813892 L17.7459459,18.7862433 L26.3118458,12.6813892 L23.0840735,10.3810746 L20.2524052,12.399526 L20.2524052,0 L20.2524052,0 Z" id="Fill-3" fill="#FC8F42"></path>
            </g>
        </g>
    </g>
</svg>