<?xml version="1.0" encoding="UTF-8"?>
<svg width="187px" height="40px" viewBox="0 0 187 40" version="1.1" xmlns="http://www.w3.org/2000/svg" xmlns:xlink="http://www.w3.org/1999/xlink">
    <!-- Generator: Sketch 54.1 (76490) - https://sketchapp.com -->
    <title>logo-big</title>
    <desc>Created with Sketch.</desc>
    <g id="Page-1" stroke="none" stroke-width="1" fill="none" fill-rule="evenodd">
        <g id="logo-big" fill-rule="nonzero">
            <path d="M112.074365,29.8664459 L117.383182,29.8664459 L117.383182,15.683223 L123.130498,15.683223 L123.130498,11.134106 L106.327613,11.134106 L106.327613,15.683223 L112.074365,15.683223 L112.074365,29.8664459 Z M91.280619,30 L96.206245,30 L103.977876,11.134106 L98.149294,11.134106 L93.798174,22.9889625 L89.447619,11.134106 L83.508989,11.134106 L91.280619,30 Z M70.3088177,20.4470199 L70.3088177,15.4961369 L72.7992836,15.4961369 C74.7146793,15.4961369 75.8642553,16.3520971 75.8642553,17.9580574 C75.8642553,19.4834437 74.7146793,20.4470199 72.8263722,20.4470199 L70.3088177,20.4470199 Z M65,29.8664459 L70.3088177,29.8664459 L70.3088177,24.5143488 L72.9358557,24.5143488 C77.6972562,24.5143488 81.173073,22.1859823 81.173073,17.7704194 C81.173073,13.5689845 78.0533595,11.134106 73.2095643,11.134106 L65,11.134106 L65,29.8664459 L65,29.8664459 Z" id="Fill-1" fill="#2D3130"></path>
            <path d="M167.103184,29.6345533 L173.07716,29.6345533 L176.776492,24.1280947 L180.448698,29.6345533 L186.56,29.6345533 L179.982467,20.2917115 L186.285347,11.3659849 L180.311937,11.3659849 L176.885562,16.5069968 L173.488008,11.3659849 L167.377272,11.3659849 L173.680152,20.3439182 L167.103184,29.6345533 Z M156.854011,25.4327234 C153.949249,25.4327234 151.948694,23.1367061 151.948694,20.5005382 C151.948694,17.8121636 153.894432,15.5678149 156.799193,15.5678149 C159.731646,15.5678149 161.732201,17.8643703 161.732201,20.5005382 C161.732201,23.1878364 159.787028,25.4327234 156.854011,25.4327234 Z M156.799193,30 C162.718351,30 167.158002,25.7454252 167.158002,20.5005382 C167.158002,15.2023681 162.773734,11 156.854011,11 C150.935418,11 146.495767,15.2545748 146.495767,20.5005382 C146.495767,25.7981701 150.8806,30 156.799193,30 Z M132.738839,18.6474704 L132.738839,15.4375673 L136.192341,15.4375673 C137.781483,15.4375673 138.60318,16.0113025 138.60318,17.0032293 C138.60318,18.1254037 137.699539,18.6474704 136.082706,18.6474704 L132.738839,18.6474704 Z M132.738839,25.5635091 L132.738839,22.196986 L136.795333,22.196986 C138.576053,22.196986 139.397751,22.8493003 139.397751,23.8406889 C139.397751,24.9628633 138.466419,25.5635091 136.85015,25.5635091 L132.738839,25.5635091 Z M127.56,29.6345533 L137.452578,29.6345533 C142.029555,29.6345533 144.715046,27.729817 144.715046,24.5974166 C144.715046,22.0662002 143.234974,20.81324 140.905514,20.0823466 C142.604291,19.3778256 143.865093,18.1254037 143.865093,16.0113025 C143.865093,14.7061356 143.399427,13.7405813 142.631982,13.010226 C141.508506,11.9402583 139.809164,11.3659849 137.397195,11.3659849 L127.56,11.3659849 L127.56,29.6345533 L127.56,29.6345533 Z" id="Fill-2" fill="#FC8F42"></path>
            <path d="M0,14.3644289 L0.000569052817,14.3655574 L16.5201723,2.60350689 L16.5201723,8.87302684 L4.40389975,17.5000353 L22.5743253,30.4380087 L22.5743253,40 L0,23.9258559 L0,14.3644289 Z M49,14.3644289 L48.9988619,14.3655574 L32.4798277,2.60350689 L32.4798277,8.87302684 L44.5961002,17.5000353 L26.4251057,30.4380087 L26.4251057,40 L49,23.9258559 L49,14.3644289 Z M27.9604102,0 L21.0401589,0 L21.0401589,17.1027945 L17.130766,14.3187236 L12.6745134,17.4915713 L24.5,25.9120597 L36.3260557,17.4915713 L31.869803,14.3187236 L27.9604102,17.1027945 L27.9604102,0 L27.9604102,0 Z" id="Fill-3" fill="#FC8F42"></path>
        </g>
    </g>
</svg>