<?xml version="1.0" encoding="UTF-8"?>
<svg width="188px" height="29px" viewBox="0 0 188 29" version="1.1" xmlns="http://www.w3.org/2000/svg" xmlns:xlink="http://www.w3.org/1999/xlink">
    <!-- Generator: Sketch 39.1 (31720) - http://www.bohemiancoding.com/sketch -->
    <title>PrivateBox-Logo-END</title>
    <desc>Created with Sketch.</desc>
    <defs></defs>
    <g id="Page-1" stroke="none" stroke-width="1" fill="none" fill-rule="evenodd">
        <g id="main" transform="translate(-80.000000, -2178.000000)">
            <g id="Group-25" transform="translate(0.000000, 2110.000000)">
                <g id="PrivateBox-Logo-END" transform="translate(80.000000, 68.000000)">
                    <path d="M127.803177,21.9015917 L139,21.9015917 L139,18.6480191 L131.587892,18.6480191 L131.587892,16.459045 L138.211348,16.459045 L138.211348,13.4421401 L131.587892,13.4421401 L131.587892,11.3523876 L138.901622,11.3523876 L138.901622,8.09881492 L127.803177,8.09881492 L127.803177,21.9015917 Z M118.163737,21.9015917 L121.987886,21.9015917 L121.987886,11.4507959 L126.127901,11.4507959 L126.127901,8.09881492 L114.024128,8.09881492 L114.024128,11.4507959 L118.163737,11.4507959 L118.163737,21.9015917 Z M105.92256,16.459045 L107.479944,12.5353201 L109.017409,16.459045 L105.92256,16.459045 Z M99.7922149,21.9015917 L103.81312,21.9015917 L104.798934,19.4369118 L110.121521,19.4369118 L111.126443,21.9015917 L115.226619,21.9015917 L109.352382,8 L105.666045,8 L99.7922149,21.9015917 Z M92.3801072,22 L95.9282274,22 L101.526436,8.09881492 L97.3278812,8.09881492 L94.1935999,16.8339723 L91.0597252,8.09881492 L86.7818988,8.09881492 L92.3801072,22 Z M81.5186641,21.9015917 L85.362732,21.9015917 L85.362732,8.09881492 L81.5186641,8.09881492 L81.5186641,21.9015917 Z M71.090573,14.7242942 L71.090573,11.4113512 L73.5939328,11.4113512 C74.8756953,11.4113512 75.6639406,11.9635762 75.6639406,13.0481004 C75.6639406,14.0927733 74.9151279,14.7242942 73.6138523,14.7242942 L71.090573,14.7242942 Z M67.2668312,21.9015917 L71.090573,21.9015917 L71.090573,17.7212734 L72.7662549,17.7212734 L75.5456428,21.9015917 L79.96128,21.9015917 L76.6692684,17.0905658 C78.3843829,16.3606367 79.5080085,14.960962 79.5080085,12.8508772 C79.5080085,11.4507959 79.093763,10.3861973 78.2860047,9.57737888 C77.3591355,8.65103985 75.9005361,8.09881492 73.7915023,8.09881492 L67.2668312,8.09881492 L67.2668312,21.9015917 Z M57.8241483,14.960962 L57.8241483,11.312943 L59.618128,11.312943 C60.9978622,11.312943 61.8259466,11.9436505 61.8259466,13.1269897 C61.8259466,14.2509585 60.9978622,14.960962 59.637641,14.960962 L57.8241483,14.960962 Z M54,21.9015917 L57.8241483,21.9015917 L57.8241483,17.9579412 L59.7165062,17.9579412 C63.1463286,17.9579412 65.6500949,16.2423028 65.6500949,12.9887301 C65.6500949,9.89293598 63.4028437,8.09881492 59.9136692,8.09881492 L54,8.09881492 L54,21.9015917 L54,21.9015917 Z" id="Fill-1" fill="#FFFFFF"></path>
                    <path d="M174.149386,21.7307235 L178.402046,21.7307235 L181.035469,17.673333 L183.649582,21.7307235 L188,21.7307235 L183.317689,14.8465243 L187.804485,8.26967311 L183.552227,8.26967311 L181.113112,12.0577871 L178.694514,8.26967311 L174.344499,8.26967311 L178.831295,14.8849924 L174.149386,21.7307235 Z M166.853363,18.6346383 C164.785567,18.6346383 163.361443,16.9428361 163.361443,15.0003966 C163.361443,13.019489 164.746545,11.3657583 166.814341,11.3657583 C168.90185,11.3657583 170.325974,13.0579571 170.325974,15.0003966 C170.325974,16.980511 168.941275,18.6346383 166.853363,18.6346383 Z M166.814341,22 C171.027979,22 174.188408,18.8650501 174.188408,15.0003966 C174.188408,11.0964818 171.067404,8 166.853363,8 C162.640128,8 159.479698,11.1349499 159.479698,15.0003966 C159.479698,18.9039148 162.601105,22 166.814341,22 Z M149.686631,13.6349782 L149.686631,11.2697864 L152.145056,11.2697864 C153.27631,11.2697864 153.861247,11.6925387 153.861247,12.4234321 C153.861247,13.2502974 153.217977,13.6349782 152.067011,13.6349782 L149.686631,13.6349782 Z M149.686631,18.7310067 L149.686631,16.2504107 L152.574305,16.2504107 C153.841936,16.2504107 154.426873,16.7310634 154.426873,17.4615603 C154.426873,18.2884256 153.763891,18.7310067 152.613327,18.7310067 L149.686631,18.7310067 Z M146,21.7307235 L153.042174,21.7307235 C156.300361,21.7307235 158.212067,20.3272336 158.212067,18.0191491 C158.212067,16.1540423 157.158456,15.2308085 155.500196,14.6922554 C156.709495,14.1731347 157.607015,13.2502974 157.607015,11.6925387 C157.607015,10.7308368 157.275524,10.0193757 156.729208,9.48121919 C155.929445,8.69282194 154.719744,8.26967311 153.002749,8.26967311 L146,8.26967311 L146,21.7307235 L146,21.7307235 Z" id="Fill-2" fill="#FC8F42"></path>
                    <path d="M0,10.4142109 L0.000406466298,10.4150291 L11.8001231,1.8875425 L11.8001231,6.43294446 L3.14564268,12.6875256 L16.124518,22.0675563 L16.124518,29 L0,17.3462455 L0,10.4142109 Z M35,10.4142109 L34.9991871,10.4150291 L23.1998769,1.8875425 L23.1998769,6.43294446 L31.8543573,12.6875256 L18.8750755,22.0675563 L18.8750755,29 L35,17.3462455 L35,10.4142109 Z M19.9717216,0 L15.0286849,0 L15.0286849,12.399526 L12.2362614,10.3810746 L9.05322386,12.6813892 L17.5,18.7862433 L25.9471826,12.6813892 L22.764145,10.3810746 L19.9717216,12.399526 L19.9717216,0 L19.9717216,0 Z" id="Fill-3" fill="#FC8F42"></path>
                </g>
            </g>
        </g>
    </g>
</svg>