<?xml version="1.0" encoding="utf-8"?>
<!-- Generator: Adobe Illustrator 17.0.0, SVG Export Plug-In . SVG Version: 6.00 Build 0)  -->
<!DOCTYPE svg PUBLIC "-//W3C//DTD SVG 1.1//EN" "http://www.w3.org/Graphics/SVG/1.1/DTD/svg11.dtd">
<svg version="1.1" id="Слой_1" xmlns="http://www.w3.org/2000/svg" xmlns:xlink="http://www.w3.org/1999/xlink" x="0px" y="0px"
	 width="188px" height="29px" viewBox="0 0 188 29" enable-background="new 0 0 188 29" xml:space="preserve">
<title>PrivateBox-Logo-END</title>
<desc>Created with Sketch.</desc>
<g id="Page-1">
	<g id="example" transform="translate(-565.000000, -450.000000)">
	</g>
	<g id="main" transform="translate(-80.000000, -35.000000)">
		<rect id="Rectangle-6" y="25" display="none" fill="#FFFFFF" width="1280" height="46"/>
		<g id="PrivateBox-Logo-END" transform="translate(80.000000, 35.000000)">
			<path id="Fill-1" fill="#2D3130" d="M127.803,21.902H139v-3.254h-7.412v-2.189h6.623v-3.017h-6.623v-2.09h7.314V8.099h-11.098
				V21.902z M118.164,21.902h3.824V11.451h4.14V8.099h-12.104v3.352h4.14V21.902z M105.923,16.459l1.557-3.924l1.537,3.924H105.923z
				 M99.792,21.902h4.021l0.986-2.465h5.323l1.005,2.465h4.1L109.352,8h-3.686L99.792,21.902z M92.38,22h3.548l5.598-13.901h-4.199
				l-3.134,8.735L91.06,8.099h-4.278L92.38,22z M81.519,21.902h3.844V8.099h-3.844V21.902z M71.091,14.724v-3.313h2.503
				c1.282,0,2.07,0.552,2.07,1.637c0,1.045-0.749,1.676-2.05,1.676H71.091z M67.267,21.902h3.824v-4.18h1.676l2.779,4.18h4.416
				l-3.292-4.811c1.715-0.73,2.839-2.13,2.839-4.24c0-1.4-0.414-2.465-1.222-3.273c-0.927-0.926-2.385-1.479-4.494-1.479h-6.525
				V21.902z M57.824,14.961v-3.648h1.794c1.38,0,2.208,0.631,2.208,1.814c0,1.124-0.828,1.834-2.188,1.834H57.824z M54,21.902h3.824
				v-3.944h1.892c3.43,0,5.934-1.716,5.934-4.969c0-3.096-2.247-4.89-5.736-4.89H54V21.902L54,21.902z"/>
			<path id="Fill-2" fill="#FC8F42" d="M174.149,21.731h4.253l2.633-4.057l2.614,4.057H188l-4.682-6.884l4.487-6.577h-4.252
				l-2.439,3.788l-2.419-3.788h-4.35l4.487,6.615L174.149,21.731z M166.853,18.635c-2.068,0-3.492-1.692-3.492-3.634
				c0-1.981,1.385-3.635,3.453-3.635c2.088,0,3.512,1.692,3.512,3.635C170.326,16.981,168.941,18.635,166.853,18.635z M166.814,22
				c4.214,0,7.374-3.135,7.374-7c0-3.904-3.121-7-7.335-7c-4.213,0-7.374,3.135-7.374,7C159.48,18.904,162.601,22,166.814,22z
				 M149.687,13.635V11.27h2.458c1.131,0,1.716,0.423,1.716,1.154c0,0.827-0.643,1.212-1.794,1.212H149.687z M149.687,18.731V16.25
				h2.888c1.268,0,1.853,0.481,1.853,1.211c0,0.827-0.663,1.269-1.814,1.269H149.687z M146,21.731h7.042
				c3.258,0,5.17-1.403,5.17-3.712c0-1.865-1.054-2.788-2.712-3.327c1.209-0.519,2.107-1.442,2.107-3
				c0-0.962-0.331-1.673-0.878-2.211c-0.8-0.788-2.009-1.212-3.726-1.212H146V21.731L146,21.731z"/>
			<path id="Fill-3" fill="#FC8F42" d="M0,10.414L0,10.414l11.8-8.527v4.545l-8.654,6.255l12.979,9.38V29L0,17.346V10.414z
				 M35,10.414L35,10.414L23.2,1.888v4.545l8.654,6.255l-12.979,9.38V29L35,17.346V10.414z M19.972,0h-4.943v12.4l-2.792-2.018
				l-3.183,2.3l8.447,6.105l8.447-6.105l-3.183-2.3L19.972,12.4V0L19.972,0z"/>
		</g>
	</g>
</g>
</svg>
