<?xml version="1.0" encoding="UTF-8"?>
<svg width="252px" height="40px" viewBox="0 0 252 40" version="1.1" xmlns="http://www.w3.org/2000/svg" xmlns:xlink="http://www.w3.org/1999/xlink">
    <!-- Generator: Sketch 39.1 (31720) - http://www.bohemiancoding.com/sketch -->
    <title>PrivateBox-Logo-END</title>
    <desc>Created with Sketch.</desc>
    <defs></defs>
    <g id="Page-1" stroke="none" stroke-width="1" fill="none" fill-rule="evenodd">
        <g id="main" transform="translate(-80.000000, -155.000000)">
            <g id="PrivateBox-Logo-END" transform="translate(80.000000, 155.000000)">
                <path d="M167.456175,29.8664459 L183,29.8664459 L183,25.450883 L172.710251,25.450883 L172.710251,22.4801325 L181.905166,22.4801325 L181.905166,18.3857616 L172.710251,18.3857616 L172.710251,15.5496689 L182.863428,15.5496689 L182.863428,11.134106 L167.456175,11.134106 L167.456175,29.8664459 Z M154.074365,29.8664459 L159.383182,29.8664459 L159.383182,15.683223 L165.130498,15.683223 L165.130498,11.134106 L148.327613,11.134106 L148.327613,15.683223 L154.074365,15.683223 L154.074365,29.8664459 Z M137.08073,22.4801325 L139.242746,17.1550773 L141.377109,22.4801325 L137.08073,22.4801325 Z M128.570369,29.8664459 L134.152331,29.8664459 L135.520874,26.5215232 L142.909877,26.5215232 L144.304944,29.8664459 L149.996953,29.8664459 L141.842131,11 L136.724627,11 L128.570369,29.8664459 Z M118.280619,30 L123.206245,30 L130.977876,11.134106 L125.149294,11.134106 L120.798174,22.9889625 L116.447619,11.134106 L110.508989,11.134106 L118.280619,30 Z M103.202381,29.8664459 L108.538852,29.8664459 L108.538852,11.134106 L103.202381,11.134106 L103.202381,29.8664459 Z M88.7257366,20.1258278 L88.7257366,15.6296909 L92.200989,15.6296909 C93.980377,15.6296909 95.0746469,16.3791391 95.0746469,17.8509934 C95.0746469,19.2687638 94.0351187,20.1258278 92.2286421,20.1258278 L88.7257366,20.1258278 Z M83.4174833,29.8664459 L88.7257366,29.8664459 L88.7257366,24.1931567 L91.0519774,24.1931567 L94.9104218,29.8664459 L101.040365,29.8664459 L96.4702785,23.3371965 C98.8512609,22.3465784 100.411118,20.4470199 100.411118,17.5833333 C100.411118,15.683223 99.8360475,14.2384106 98.7146888,13.1407285 C97.4279763,11.8835541 95.4030972,11.134106 92.475262,11.134106 L83.4174833,11.134106 L83.4174833,29.8664459 Z M70.3088177,20.4470199 L70.3088177,15.4961369 L72.7992836,15.4961369 C74.7146793,15.4961369 75.8642553,16.3520971 75.8642553,17.9580574 C75.8642553,19.4834437 74.7146793,20.4470199 72.8263722,20.4470199 L70.3088177,20.4470199 Z M65,29.8664459 L70.3088177,29.8664459 L70.3088177,24.5143488 L72.9358557,24.5143488 C77.6972562,24.5143488 81.173073,22.1859823 81.173073,17.7704194 C81.173073,13.5689845 78.0533595,11.134106 73.2095643,11.134106 L65,11.134106 L65,29.8664459 L65,29.8664459 Z" id="Fill-1" fill="#2D3130"></path>
                <path d="M232.543184,29.6345533 L238.51716,29.6345533 L242.216492,24.1280947 L245.888698,29.6345533 L252,29.6345533 L245.422467,20.2917115 L251.725347,11.3659849 L245.751937,11.3659849 L242.325562,16.5069968 L238.928008,11.3659849 L232.817272,11.3659849 L239.120152,20.3439182 L232.543184,29.6345533 Z M222.294011,25.4327234 C219.389249,25.4327234 217.388694,23.1367061 217.388694,20.5005382 C217.388694,17.8121636 219.334432,15.5678149 222.239193,15.5678149 C225.171646,15.5678149 227.172201,17.8643703 227.172201,20.5005382 C227.172201,23.1878364 225.227028,25.4327234 222.294011,25.4327234 Z M222.239193,30 C228.158351,30 232.598002,25.7454252 232.598002,20.5005382 C232.598002,15.2023681 228.213734,11 222.294011,11 C216.375418,11 211.935767,15.2545748 211.935767,20.5005382 C211.935767,25.7981701 216.3206,30 222.239193,30 Z M198.178839,18.6474704 L198.178839,15.4375673 L201.632341,15.4375673 C203.221483,15.4375673 204.04318,16.0113025 204.04318,17.0032293 C204.04318,18.1254037 203.139539,18.6474704 201.522706,18.6474704 L198.178839,18.6474704 Z M198.178839,25.5635091 L198.178839,22.196986 L202.235333,22.196986 C204.016053,22.196986 204.837751,22.8493003 204.837751,23.8406889 C204.837751,24.9628633 203.906419,25.5635091 202.29015,25.5635091 L198.178839,25.5635091 Z M193,29.6345533 L202.892578,29.6345533 C207.469555,29.6345533 210.155046,27.729817 210.155046,24.5974166 C210.155046,22.0662002 208.674974,20.81324 206.345514,20.0823466 C208.044291,19.3778256 209.305093,18.1254037 209.305093,16.0113025 C209.305093,14.7061356 208.839427,13.7405813 208.071982,13.010226 C206.948506,11.9402583 205.249164,11.3659849 202.837195,11.3659849 L193,11.3659849 L193,29.6345533 L193,29.6345533 Z" id="Fill-2" fill="#FC8F42"></path>
                <path d="M0,14.3644289 L0.000569052817,14.3655574 L16.5201723,2.60350689 L16.5201723,8.87302684 L4.40389975,17.5000353 L22.5743253,30.4380087 L22.5743253,40 L0,23.9258559 L0,14.3644289 Z M49,14.3644289 L48.9988619,14.3655574 L32.4798277,2.60350689 L32.4798277,8.87302684 L44.5961002,17.5000353 L26.4251057,30.4380087 L26.4251057,40 L49,23.9258559 L49,14.3644289 Z M27.9604102,0 L21.0401589,0 L21.0401589,17.1027945 L17.130766,14.3187236 L12.6745134,17.4915713 L24.5,25.9120597 L36.3260557,17.4915713 L31.869803,14.3187236 L27.9604102,17.1027945 L27.9604102,0 L27.9604102,0 Z" id="Fill-3" fill="#FC8F42"></path>
            </g>
        </g>
    </g>
</svg>