<?xml version="1.0" encoding="UTF-8"?>
<svg width="12px" height="15px" viewBox="0 0 12 15" version="1.1" xmlns="http://www.w3.org/2000/svg" xmlns:xlink="http://www.w3.org/1999/xlink">
    <!-- Generator: Sketch 39.1 (31720) - http://www.bohemiancoding.com/sketch -->
    <title>Apple_3_</title>
    <desc>Created with Sketch.</desc>
    <defs></defs>
    <g id="Page-1" stroke="none" stroke-width="1" fill="none" fill-rule="evenodd">
        <g id="devices" transform="translate(-257.000000, -204.000000)" fill="#212121">
            <g id="Group-11" transform="translate(71.000000, 153.000000)">
                <g id="Group-7" transform="translate(186.000000, 8.000000)">
                    <path d="M6.74318599,44.1330167 C7.27420913,43.4991336 8.16970527,43.0299374 8.90537622,43 C9.00248676,43.8778288 8.65831196,44.7550626 8.14203432,45.3914509 C7.62637365,46.0228601 6.78803946,46.5182359 5.96077982,46.4520981 C5.85077468,45.5898643 6.26688779,44.6951566 6.74318599,44.1330167 Z M10.9483377,56.1146033 C10.3325125,57.02738 9.6988261,57.938904 8.69397263,57.954499 C7.71182353,57.9725992 7.39531967,57.3599165 6.27117571,57.3599165 C5.14644563,57.3599165 4.79366414,57.938904 3.86377211,57.9725992 C2.89760245,58.0081733 2.16378239,56.9893006 1.54487237,56.076524 C0.283083165,54.2191545 -0.680618634,50.8238309 0.615597304,48.5340605 C1.25785951,47.3941858 2.40717571,46.6735595 3.65483638,46.6560856 C4.60194178,46.6361065 5.49928882,47.3068163 6.08130424,47.3068163 C6.65964872,47.3068163 7.75118599,46.5019833 8.89251247,46.6223904 C9.37127854,46.6411169 10.7179006,46.8176722 11.582641,48.1035386 C11.5132014,48.1484447 9.97544306,49.0593737 9.99203946,50.9566701 C10.0147747,53.2227035 11.9458801,53.9770251 11.9655305,53.9838831 C11.9458492,54.0363361 11.6545176,55.0601879 10.9483377,56.1146033 Z" id="Apple_3_"></path>
                </g>
            </g>
        </g>
    </g>
</svg>