<?xml version="1.0" encoding="UTF-8"?>
<svg width="11px" height="13px" viewBox="0 0 11 13" version="1.1" xmlns="http://www.w3.org/2000/svg" xmlns:xlink="http://www.w3.org/1999/xlink">
    <!-- Generator: Sketch 39.1 (31720) - http://www.bohemiancoding.com/sketch -->
    <title>Shape</title>
    <desc>Created with Sketch.</desc>
    <defs></defs>
    <g id="Page-1" stroke="none" stroke-width="1" fill="none" fill-rule="evenodd">
        <g id="devices" transform="translate(-257.000000, -288.000000)" fill="#2D3130">
            <g id="Group-11" transform="translate(71.000000, 153.000000)">
                <g id="Group-7" transform="translate(186.000000, 8.000000)">
                    <path d="M2.19569472,136.762975 C2.19569472,137.087975 2.41526419,137.304641 2.7446184,137.304641 L3.29354207,137.304641 L3.29354207,139.200475 C3.29354207,139.633808 3.67778865,140.012975 4.11692759,140.012975 C4.55606654,140.012975 4.94031311,139.633808 4.94031311,139.200475 L4.94031311,137.304641 L6.03816047,137.304641 L6.03816047,139.200475 C6.03816047,139.633808 6.42240705,140.012975 6.86154599,140.012975 C7.30068493,140.012975 7.68493151,139.633808 7.68493151,139.200475 L7.68493151,137.304641 L8.23385519,137.304641 C8.56320939,137.304641 8.78277886,137.087975 8.78277886,136.762975 L8.78277886,131.346308 L2.19569472,131.346308 L2.19569472,136.762975 L2.19569472,136.762975 Z M0.823385519,131.346308 C0.384246575,131.346308 0,131.725496 0,132.158808 L0,135.950475 C0,136.383808 0.384246575,136.762975 0.823385519,136.762975 C1.26252446,136.762975 1.64677104,136.383808 1.64677104,135.950475 L1.64677104,132.158808 C1.64677104,131.725475 1.26252446,131.346308 0.823385519,131.346308 Z M10.1550881,131.346308 C9.71594912,131.346308 9.33170254,131.725496 9.33170254,132.158808 L9.33170254,135.950475 C9.33170254,136.383808 9.71594912,136.762975 10.1550881,136.762975 C10.594227,136.762975 10.9784736,136.383808 10.9784736,135.950475 L10.9784736,132.158808 C10.9784736,131.725475 10.594227,131.346308 10.1550881,131.346308 Z M7.41046967,128.204641 L8.12407045,127.500475 C8.23385519,127.392141 8.23385519,127.229641 8.12407045,127.121308 C8.01426419,127.012953 7.84960861,127.012953 7.73980235,127.121308 L6.91641683,127.933808 C6.53217025,127.662975 6.03813894,127.55462 5.48921526,127.55462 C4.94029159,127.55462 4.44626027,127.662975 4.00712133,127.87962 L3.23862818,127.06712 C3.12884344,127.012953 2.90927397,127.012953 2.79948924,127.06712 C2.74459687,127.175475 2.74459687,127.392141 2.79948924,127.500453 L3.51309002,128.20462 C2.74459687,128.800453 2.19567319,129.721265 2.19567319,130.804599 L8.78275734,130.804599 C8.78277886,129.721308 8.23385519,128.746308 7.41046967,128.204641 Z M4.39138943,129.721308 L3.84246575,129.721308 L3.84246575,129.179641 L4.39138943,129.179641 L4.39138943,129.721308 Z M7.13600783,129.721308 L6.58708415,129.721308 L6.58708415,129.179641 L7.13600783,129.179641 L7.13600783,129.721308 Z" id="Shape"></path>
                </g>
            </g>
        </g>
    </g>
</svg>