<?xml version="1.0" encoding="UTF-8"?>
<svg width="10px" height="12px" viewBox="0 0 10 12" version="1.1" xmlns="http://www.w3.org/2000/svg" xmlns:xlink="http://www.w3.org/1999/xlink">
    <!-- Generator: Sketch 39.1 (31720) - http://www.bohemiancoding.com/sketch -->
    <title>XMLID_92_</title>
    <desc>Created with Sketch.</desc>
    <defs></defs>
    <g id="Page-1" stroke="none" stroke-width="1" fill="none" fill-rule="evenodd">
        <g id="devices" transform="translate(-257.000000, -328.000000)" fill="#2D3130">
            <g id="Group-11" transform="translate(71.000000, 153.000000)">
                <g id="Group-7" transform="translate(186.000000, 8.000000)">
                    <path d="M9.67732014,176.310289 C9.33439932,176.171618 9.18770712,175.987593 9.20189325,175.713013 C9.21650112,175.392513 9.03234988,175.157759 8.94489434,175.065009 C8.99772807,174.865727 9.15212679,174.176344 8.9450477,173.577554 C8.72251724,172.936628 8.04311688,171.95775 7.34209225,170.995529 C7.05511078,170.600373 7.04153811,170.170843 7.02585669,169.673473 C7.01082706,169.199082 6.99388039,168.661356 6.72595433,168.063588 C6.43464034,167.412706 5.85009531,167.03947 5.12211704,167.03947 C4.68905682,167.03947 4.24453268,167.173106 3.90245536,167.406081 C3.20196751,167.883424 3.29456073,168.924162 3.35582945,169.612826 C3.3642261,169.707128 3.37212432,169.796207 3.37672523,169.872262 C3.41751993,170.546729 3.38040595,170.90221 3.3318664,171.010255 C3.30046522,171.080859 3.1458748,171.281806 2.98227427,171.494565 C2.81307597,171.714592 2.62125656,171.963996 2.46402062,172.196403 C2.2764187,172.476055 2.12497223,172.903503 1.97851007,173.316868 C1.87134732,173.619349 1.7701274,173.905058 1.67159134,174.075795 C1.48483292,174.404246 1.53130206,174.710512 1.57010303,174.852061 C1.49940245,174.900556 1.39726235,174.996032 1.31103372,175.176006 C1.20682321,175.395579 0.995373264,175.513581 0.555680069,175.597056 C0.353623639,175.637867 0.214292886,175.721759 0.141445217,175.846385 C0.0354326878,176.02776 0.0931740509,176.255661 0.145854418,176.411407 C0.223686401,176.640368 0.17518519,176.785286 0.0870011694,177.048395 C0.0666805038,177.109118 0.0436376358,177.177867 0.0202880408,177.253696 C-0.0164808617,177.373363 -0.00321491777,177.482165 0.0596257822,177.577073 C0.225680127,177.827727 0.71023215,177.916124 1.20904698,177.974273 C1.50687892,178.009178 1.83285307,178.1268 2.14813012,178.2406 C2.45704258,178.352052 2.77646044,178.467328 3.06681591,178.502308 C3.11094626,178.507797 3.15465486,178.510561 3.19679149,178.510561 C3.63518109,178.510561 3.83325007,178.223337 3.89605243,178.105335 C4.05351842,178.073611 4.59661696,177.972002 5.15635545,177.958373 C5.71521209,177.942624 6.2559335,178.051578 6.40910531,178.08546 C6.45726146,178.176469 6.58420811,178.384344 6.78657126,178.491443 C6.89779815,178.551485 7.05258028,178.585897 7.21111981,178.585897 L7.21115815,178.585897 C7.38047147,178.585897 7.70257319,178.546374 7.95750169,178.281561 C8.2117784,178.0155 8.84708676,177.675843 9.31101139,177.42784 C9.41453176,177.372492 9.51138082,177.320703 9.59630587,177.273949 C9.85690882,177.131303 9.99911514,176.927478 9.98642431,176.714758 C9.97584222,176.538077 9.85740725,176.383089 9.67732014,176.310289 Z M3.90816815,176.259068 C3.87573176,176.033438 3.58177225,175.809663 3.24134359,175.550567 C2.96298881,175.33868 2.64748172,175.09855 2.56056295,174.89518 C2.38093593,174.475645 2.5225288,173.737956 2.76940571,173.358095 C2.89140639,173.167899 2.99105433,172.879464 3.0874433,172.600531 C3.19150045,172.299337 3.29912329,171.987922 3.41947531,171.851598 C3.61006782,171.638764 3.78620581,171.224642 3.81741529,170.898273 C3.99589208,171.066511 4.27275156,171.279989 4.52852356,171.279989 C4.56789964,171.279989 4.6061255,171.274916 4.64266436,171.264733 C4.81765213,171.214837 5.07503445,171.067988 5.32394343,170.926023 C5.53853733,170.803592 5.80316607,170.652617 5.90273733,170.638874 C6.07346926,170.880934 7.0655395,173.048686 7.16691278,173.744846 C7.2471219,174.295671 7.16238856,174.751019 7.11979184,174.929366 C7.08551509,174.924747 7.04464372,174.920999 7.00170193,174.920999 C6.72537922,174.920999 6.65222483,175.06993 6.63316941,175.158857 C6.58416977,175.389901 6.57899375,176.128688 6.57845697,176.294692 C6.47854065,176.420038 5.97324621,177.01031 5.24779844,177.116425 C4.95230529,177.158825 4.67636599,177.180328 4.42768705,177.180328 C4.21512522,177.180328 4.07947519,177.164125 4.02315244,177.155683 L3.65860737,176.743832 C3.80234732,176.673758 3.94604894,176.525887 3.90816815,176.259068 Z M4.37075085,169.467983 C4.35936361,169.472829 4.34816807,169.478015 4.33716424,169.483543 C4.33605235,169.459162 4.33348351,169.434442 4.3295344,169.409645 C4.28973657,169.183447 4.13783001,169.01926 3.96840167,169.01926 C3.9558642,169.01926 3.94325005,169.020206 3.92940899,169.022288 C3.82861082,169.03887 3.74955193,169.113638 3.70622674,169.219639 C3.74422255,168.987043 3.87768715,168.81483 4.03603498,168.81483 C4.22198824,168.81483 4.37907082,169.062266 4.37907082,169.35513 C4.37907082,169.392041 4.37634862,169.428763 4.37075085,169.467983 Z M5.8156652,169.642392 C5.83268855,169.588862 5.84189036,169.53094 5.84189036,169.470823 C5.84189036,169.205291 5.67127345,168.997264 5.45345892,168.997264 C5.24059036,168.997264 5.06740461,169.209682 5.06740461,169.470823 C5.06740461,169.488615 5.06828645,169.506446 5.06997345,169.524239 C5.05870123,169.519961 5.0476974,169.515797 5.03696195,169.511784 C5.01246213,169.43853 5.00007803,169.362096 5.00007803,169.284072 C5.00007803,168.966562 5.20558514,168.708223 5.45825153,168.708223 C5.71087958,168.708223 5.91642503,168.966562 5.91642503,169.284072 C5.91642503,169.416156 5.87950276,169.542222 5.8156652,169.642392 Z M5.62936687,170.260376 C5.62572448,170.276428 5.61797963,170.283545 5.5323261,170.327535 C5.48907759,170.349757 5.435247,170.377431 5.36788208,170.417939 L5.32286988,170.444855 C5.14197762,170.553127 4.71842593,170.806734 4.60344164,170.821612 C4.52534127,170.831985 4.47703176,170.802078 4.36841205,170.729202 C4.34391223,170.712734 4.31784044,170.695244 4.2900433,170.67764 C4.09423643,170.55078 3.96828665,170.411049 3.95406218,170.35642 C4.01789974,170.307698 4.17613255,170.185759 4.25714682,170.113565 C4.42159085,169.96259 4.58707008,169.861132 4.6689662,169.861132 C4.67329872,169.861132 4.67720949,169.861435 4.68127362,169.862192 C4.77750923,169.878963 5.01487761,169.972509 5.18825506,170.040803 C5.2683875,170.072376 5.33759278,170.099634 5.3862857,170.116897 C5.53968755,170.168913 5.61966663,170.235466 5.62936687,170.260376 Z M7.00760643,177.315857 C7.09414179,176.930431 7.19382808,176.406107 7.17768657,176.097001 C7.1739675,176.026776 7.1676796,175.950341 7.1615834,175.876444 C7.15019616,175.738264 7.13328783,175.532888 7.15073293,175.471976 C7.15418361,175.470385 7.1580177,175.469023 7.16227353,175.467849 C7.16300201,175.644567 7.20187966,175.997057 7.48736584,176.11998 C7.57244425,176.156626 7.66967672,176.175176 7.77634104,176.175176 C8.06232566,176.175176 8.37963477,176.036656 8.50961035,175.90832 C8.58613874,175.832756 8.65051307,175.740309 8.69560195,175.667092 C8.70545555,175.695599 8.71151341,175.732851 8.70833112,175.780854 C8.69134611,176.041502 8.81963469,176.387291 9.0637894,176.514719 L9.0993314,176.533156 C9.18628851,176.578206 9.41725396,176.697949 9.42097303,176.754735 C9.42093469,176.754773 9.41901764,176.761436 9.40613511,176.773247 C9.34827872,176.825453 9.14465032,176.928122 8.94773156,177.027422 C8.59840782,177.203535 8.20246157,177.403157 8.02463657,177.587825 C7.77427064,177.847981 7.49108491,178.022731 7.32008459,178.022731 C7.29949554,178.022731 7.28074685,178.020156 7.26406857,178.014932 C7.07834535,177.957767 6.92548027,177.693182 7.00760643,177.315857 Z M0.677105631,176.332587 C0.658165237,176.245061 0.643212294,176.175971 0.659277123,176.10904 C0.67093275,176.059446 0.918883211,176.006295 1.02478072,175.983618 C1.17365835,175.951704 1.32763532,175.918731 1.42831846,175.858386 C1.56446692,175.776955 1.63819643,175.626774 1.70322256,175.494274 C1.75030516,175.398456 1.7989214,175.299384 1.85677778,175.266864 C1.86003676,175.264971 1.86502107,175.262776 1.87452961,175.262776 C1.98291927,175.262776 2.21035736,175.487762 2.34140649,175.689125 C2.37464803,175.739892 2.43622348,175.841615 2.50746083,175.959389 C2.72052109,176.311387 3.01225684,176.793501 3.16462349,176.955076 C3.30192218,177.100335 3.52418425,177.379609 3.46951016,177.619133 C3.42948228,177.804975 3.21638368,177.956102 3.16611878,177.98953 C3.14786853,177.993618 3.12528575,177.9957 3.09871552,177.9957 C2.8070948,177.9957 2.22983453,177.756139 1.91969516,177.627424 L1.87380113,177.608381 C1.70061538,177.53668 1.41788975,177.491516 1.14448094,177.447828 C0.926934796,177.413037 0.629026169,177.365451 0.579643118,177.322445 C0.539615241,177.278114 0.586046045,177.133991 0.626994103,177.006828 C0.656478238,176.91544 0.686920896,176.820948 0.703599178,176.722026 C0.7272555,176.564237 0.699420022,176.435787 0.677105631,176.332587 Z" id="XMLID_92_"></path>
                </g>
            </g>
        </g>
    </g>
</svg>