<svg width="22" height="24" viewBox="0 0 22 24" fill="none" xmlns="http://www.w3.org/2000/svg">
<path d="M21.294 6.17955C21.2814 5.53158 21.2693 4.91946 21.2693 4.32727C21.2693 3.86333 20.8837 3.48721 20.4079 3.48721C16.7237 3.48721 13.9188 2.45472 11.5807 0.237863C11.2462 -0.0793436 10.7139 -0.0792316 10.3796 0.237863C8.04174 2.45472 5.23721 3.48721 1.55332 3.48721C1.07757 3.48721 0.691873 3.86333 0.691873 4.32727C0.691873 4.91957 0.679927 5.53192 0.667178 6.17999C0.549102 12.21 0.38738 20.4685 10.698 23.9536C10.7894 23.9845 10.8847 24 10.9801 24C11.0754 24 11.1709 23.9845 11.2622 23.9536C21.5736 20.4684 21.4121 12.2097 21.294 6.17955Z" fill="#38AB43"/>
<path d="M19.5278 7.18798C19.5174 6.65218 19.5075 6.14601 19.5075 5.65634C19.5075 5.27271 19.1899 4.96169 18.7979 4.96169C15.7633 4.96169 13.4528 4.10793 11.5269 2.27481C11.2514 2.01252 10.813 2.01261 10.5376 2.27481C8.61192 4.10793 6.30183 4.96169 3.26741 4.96169C2.87554 4.96169 2.55784 5.27271 2.55784 5.65634C2.55784 6.14611 2.548 6.65246 2.5375 7.18835C2.44024 12.1746 2.30703 19.0035 10.7999 21.8853C10.8752 21.9109 10.9537 21.9237 11.0322 21.9237C11.1107 21.9237 11.1894 21.9109 11.2646 21.8853C19.7581 19.0034 19.6251 12.1743 19.5278 7.18798Z" fill="#222222"/>
<path d="M7.71451 8.66738C7.84316 8.53883 8.0517 8.53891 8.18028 8.6676L8.19967 8.68703C8.32822 8.81568 8.32811 9.02422 8.19945 9.15276C8.13513 9.21702 8.05089 9.24911 7.9667 9.24911C7.88235 9.24911 7.79805 9.21691 7.73372 9.15254L7.71433 9.13311C7.58578 9.00442 7.58589 8.79589 7.71451 8.66738ZM10.7267 7.61648V7.64392C10.7267 7.82582 10.8741 7.97324 11.056 7.97324C11.2379 7.97324 11.3853 7.82582 11.3853 7.64392V7.61648C11.3853 7.43458 11.2379 7.28716 11.056 7.28716C10.8741 7.28716 10.7267 7.43458 10.7267 7.61648ZM15.403 11.6615C15.2211 11.6615 15.0736 11.8089 15.0736 11.9908C15.0736 12.1727 15.2211 12.3201 15.403 12.3201H15.4304C15.6123 12.3201 15.7597 12.1727 15.7597 11.9908C15.7597 11.8089 15.6123 11.6615 15.4304 11.6615H15.403ZM9.90494 5.64201C9.90494 5.01231 10.4172 4.5 11.0469 4.5C11.6766 4.5 12.1889 5.01228 12.1889 5.64201C12.1889 6.27168 11.6766 6.78395 11.0469 6.78395C10.4172 6.78395 9.90494 6.27168 9.90494 5.64201ZM10.5636 5.64201C10.5636 5.90851 10.7804 6.12531 11.0469 6.12531C11.3134 6.12531 11.5303 5.90851 11.5303 5.64201C11.5303 5.37548 11.3134 5.15864 11.0469 5.15864C10.7804 5.15864 10.5636 5.37548 10.5636 5.64201ZM14.7352 8.31171C14.5195 8.09601 14.4007 7.80924 14.4007 7.50422C14.4007 7.19919 14.5195 6.91239 14.7352 6.69672C15.1805 6.25144 15.9049 6.25144 16.3502 6.69672C16.7954 7.142 16.7954 7.86647 16.3502 8.31171C16.1276 8.5343 15.8351 8.64561 15.5427 8.64561C15.2502 8.64561 14.9578 8.53433 14.7352 8.31171ZM15.0593 7.50422C15.0593 7.63331 15.1096 7.75468 15.2009 7.84598C15.3893 8.03442 15.6959 8.03439 15.8845 7.84598C16.0729 7.65753 16.0729 7.3509 15.8844 7.16242C15.7902 7.06819 15.6664 7.0211 15.5427 7.0211C15.4189 7.0211 15.2951 7.06819 15.2009 7.16242C15.1096 7.25375 15.0593 7.37512 15.0593 7.50422ZM5.74359 8.31167C5.29835 7.86636 5.29835 7.14193 5.74363 6.69668C6.18887 6.25137 6.91342 6.25144 7.35866 6.69668C7.8039 7.14189 7.8039 7.86636 7.35866 8.31164C7.14292 8.52734 6.85619 8.64616 6.55113 8.64616C6.2461 8.64619 5.95934 8.52738 5.74359 8.31167ZM6.20936 7.84594C6.39781 8.03442 6.70444 8.03435 6.89293 7.84594C7.08137 7.6575 7.08137 7.35086 6.89293 7.16242C6.70448 6.97397 6.39785 6.97394 6.20936 7.16242C6.02088 7.35086 6.02088 7.6575 6.20936 7.84594ZM14.1271 9.24911C14.2115 9.24911 14.2959 9.21687 14.3602 9.15243L14.3796 9.13304C14.508 9.00431 14.5079 8.79581 14.3791 8.66731C14.2504 8.53883 14.0419 8.53898 13.9134 8.66774L13.894 8.68714C13.7655 8.81587 13.7657 9.02436 13.8944 9.15287C13.9588 9.21705 14.043 9.24911 14.1271 9.24911ZM12.1889 18.3579C12.1889 18.9876 11.6766 19.4999 11.0469 19.4999C10.4172 19.4999 9.90494 18.9876 9.90494 18.3579C9.90494 17.7283 10.4172 17.2159 11.0469 17.2159C11.6766 17.2159 12.1889 17.7283 12.1889 18.3579ZM11.5303 18.3579C11.5303 18.0914 11.3134 17.8746 11.0469 17.8746C10.7804 17.8746 10.5636 18.0914 10.5636 18.3579C10.5636 18.6244 10.7804 18.8412 11.0469 18.8412C11.3134 18.8413 11.5303 18.6244 11.5303 18.3579ZM6.66339 11.6615C6.48149 11.6615 6.33407 11.8089 6.33407 11.9908C6.33407 12.1727 6.48149 12.3201 6.66339 12.3201H6.69083C6.87273 12.3201 7.02015 12.1727 7.02015 11.9908C7.02015 11.8089 6.87273 11.6615 6.69083 11.6615H6.66339ZM16.3501 15.6882C16.7954 16.1334 16.7954 16.8579 16.3502 17.3032C16.1275 17.5258 15.8351 17.6371 15.5427 17.6371C15.2502 17.6371 14.9578 17.5258 14.7352 17.3032C14.7352 17.3032 14.7352 17.3032 14.7352 17.3032C14.5195 17.0875 14.4007 16.8007 14.4007 16.4957C14.4007 16.1907 14.5195 15.9039 14.7352 15.6882C15.1804 15.243 15.9049 15.243 16.3501 15.6882ZM15.8844 16.1539C15.6961 15.9655 15.3894 15.9655 15.2009 16.1539C15.1096 16.2452 15.0593 16.3666 15.0593 16.4957C15.0593 16.6248 15.1096 16.7462 15.2009 16.8375H15.2009C15.3893 17.026 15.696 17.026 15.8845 16.8375C16.0729 16.649 16.0729 16.3424 15.8844 16.1539ZM14.3795 14.8668L14.3601 14.8474C14.2316 14.7187 14.023 14.7186 13.8944 14.8472C13.7657 14.9757 13.7656 15.1842 13.8942 15.3129L13.9135 15.3323C13.9778 15.3967 14.0622 15.4289 14.1465 15.4289C14.2307 15.4289 14.3149 15.3968 14.3792 15.3325C14.5079 15.204 14.508 14.9954 14.3795 14.8668ZM18.5469 12C18.5469 12.6297 18.0346 13.142 17.4049 13.142C16.7752 13.142 16.2629 12.6297 16.2629 12C16.2629 11.3703 16.7752 10.858 17.4049 10.858C18.0346 10.858 18.5469 11.3703 18.5469 12ZM17.8882 12C17.8882 11.7334 17.6714 11.5166 17.4049 11.5166C17.1384 11.5166 16.9215 11.7334 16.9215 12C16.9215 12.2665 17.1384 12.4833 17.4049 12.4833C17.6714 12.4833 17.8882 12.2665 17.8882 12ZM14.3858 12.1795V11.4496C14.3858 11.1465 14.1209 10.9028 13.7132 10.8178C13.2942 9.75985 12.2584 9.00969 11.0531 9.00969C9.84624 9.00969 8.80226 9.7619 8.38417 10.8219C7.98752 10.9105 7.72622 11.1513 7.72622 11.4495V12.1794C7.72622 12.4967 8.01946 12.7489 8.46053 12.8221C8.55585 12.8379 8.66197 12.811 8.73581 12.7484C8.80961 12.6858 8.86055 12.5939 8.86055 12.4972V11.8669C8.86055 10.6546 9.84258 9.66826 11.0549 9.66826C12.2673 9.66826 13.2514 10.6546 13.2514 11.8669C13.2514 12.8083 12.6583 13.6247 11.7867 13.9319C11.6831 13.8444 11.5481 13.7837 11.4022 13.7837H10.699C10.3708 13.7837 10.1037 14.0592 10.1037 14.3874C10.1037 14.7157 10.3708 14.9912 10.699 14.9912H11.4022C11.6685 14.9912 11.8944 14.815 11.9703 14.5734C12.819 14.2865 13.4736 13.6243 13.7569 12.8015C14.1394 12.7087 14.3858 12.4715 14.3858 12.1795ZM7.35866 15.6882C7.8039 16.1335 7.80387 16.858 7.35866 17.3032C7.136 17.5258 6.84356 17.6371 6.55113 17.6371C6.25873 17.6371 5.96629 17.5258 5.74367 17.3032C5.29843 16.858 5.29839 16.1335 5.74363 15.6883C5.74363 15.6883 5.74363 15.6883 5.74367 15.6883C6.18887 15.243 6.91334 15.243 7.35866 15.6882ZM6.89289 16.1539C6.70437 15.9655 6.39777 15.9655 6.20929 16.1539H6.20933C6.02088 16.3424 6.02088 16.6491 6.20933 16.8375C6.39774 17.026 6.70444 17.0259 6.89289 16.8375C7.08137 16.6491 7.08137 16.3424 6.89289 16.1539ZM4.68889 13.142C4.05919 13.142 3.54688 12.6297 3.54688 12C3.54688 11.3703 4.05919 10.858 4.68889 10.858C5.31859 10.858 5.8309 11.3703 5.8309 12C5.8309 12.6297 5.31859 13.142 4.68889 13.142ZM5.17226 12C5.17226 11.7334 4.95542 11.5166 4.68889 11.5166C4.42236 11.5166 4.20552 11.7334 4.20552 12C4.20552 12.2665 4.42236 12.4833 4.68889 12.4833C4.95542 12.4833 5.17226 12.2665 5.17226 12ZM7.73383 14.8473L7.71444 14.8667C7.58582 14.9953 7.58582 15.2038 7.71444 15.3324C7.77876 15.3967 7.86303 15.4289 7.9473 15.4289C8.03157 15.4289 8.11584 15.3967 8.18017 15.3324L8.19956 15.313C8.32818 15.1844 8.32818 14.9759 8.19956 14.8473C8.07094 14.7187 7.86245 14.7187 7.73383 14.8473ZM11.3853 16.3834V16.356C11.3853 16.1741 11.2379 16.0267 11.056 16.0267C10.8741 16.0267 10.7267 16.1741 10.7267 16.356V16.3834C10.7267 16.5653 10.8741 16.7128 11.056 16.7128C11.2379 16.7128 11.3853 16.5653 11.3853 16.3834Z" fill="#FF872C"/>
</svg>
