<svg width="24" height="24" viewBox="0 0 24 24" fill="none" xmlns="http://www.w3.org/2000/svg">
<path d="M22.294 6.17955C22.2814 5.53158 22.2693 4.91946 22.2693 4.32727C22.2693 3.86333 21.8837 3.48721 21.4079 3.48721C17.7237 3.48721 14.9188 2.45472 12.5807 0.237863C12.2462 -0.0793436 11.7139 -0.0792316 11.3796 0.237863C9.04174 2.45472 6.23721 3.48721 2.55332 3.48721C2.07757 3.48721 1.69187 3.86333 1.69187 4.32727C1.69187 4.91957 1.67993 5.53192 1.66718 6.17999C1.5491 12.21 1.38738 20.4685 11.698 23.9536C11.7894 23.9845 11.8847 24 11.9801 24C12.0754 24 12.1709 23.9845 12.2622 23.9536C22.5736 20.4684 22.4121 12.2097 22.294 6.17955Z" fill="#38AB43"/>
<path d="M20.5278 7.18798C20.5174 6.65218 20.5075 6.14601 20.5075 5.65634C20.5075 5.27271 20.1899 4.96169 19.7979 4.96169C16.7633 4.96169 14.4528 4.10793 12.5269 2.27481C12.2514 2.01252 11.813 2.01261 11.5376 2.27481C9.61192 4.10793 7.30183 4.96169 4.26741 4.96169C3.87554 4.96169 3.55784 5.27271 3.55784 5.65634C3.55784 6.14611 3.548 6.65246 3.5375 7.18835C3.44024 12.1746 3.30703 19.0035 11.7999 21.8853C11.8752 21.9109 11.9537 21.9237 12.0322 21.9237C12.1107 21.9237 12.1894 21.9109 12.2646 21.8853C20.7581 19.0034 20.6251 12.1743 20.5278 7.18798Z" fill="#222222"/>
<path d="M8.71451 8.66738C8.84316 8.53883 9.0517 8.53891 9.18028 8.6676L9.19967 8.68703C9.32822 8.81568 9.32811 9.02422 9.19945 9.15276C9.13513 9.21702 9.05089 9.24911 8.9667 9.24911C8.88235 9.24911 8.79805 9.21691 8.73372 9.15254L8.71433 9.13311C8.58578 9.00442 8.58589 8.79589 8.71451 8.66738ZM11.7267 7.61648V7.64392C11.7267 7.82582 11.8741 7.97324 12.056 7.97324C12.2379 7.97324 12.3853 7.82582 12.3853 7.64392V7.61648C12.3853 7.43458 12.2379 7.28716 12.056 7.28716C11.8741 7.28716 11.7267 7.43458 11.7267 7.61648ZM16.403 11.6615C16.2211 11.6615 16.0736 11.8089 16.0736 11.9908C16.0736 12.1727 16.2211 12.3201 16.403 12.3201H16.4304C16.6123 12.3201 16.7597 12.1727 16.7597 11.9908C16.7597 11.8089 16.6123 11.6615 16.4304 11.6615H16.403ZM10.9049 5.64201C10.9049 5.01231 11.4172 4.5 12.0469 4.5C12.6766 4.5 13.1889 5.01228 13.1889 5.64201C13.1889 6.27168 12.6766 6.78395 12.0469 6.78395C11.4172 6.78395 10.9049 6.27168 10.9049 5.64201ZM11.5636 5.64201C11.5636 5.90851 11.7804 6.12531 12.0469 6.12531C12.3134 6.12531 12.5303 5.90851 12.5303 5.64201C12.5303 5.37548 12.3134 5.15864 12.0469 5.15864C11.7804 5.15864 11.5636 5.37548 11.5636 5.64201ZM15.7352 8.31171C15.5195 8.09601 15.4007 7.80924 15.4007 7.50422C15.4007 7.19919 15.5195 6.91239 15.7352 6.69672C16.1805 6.25144 16.9049 6.25144 17.3502 6.69672C17.7954 7.142 17.7954 7.86647 17.3502 8.31171C17.1276 8.5343 16.8351 8.64561 16.5427 8.64561C16.2502 8.64561 15.9578 8.53433 15.7352 8.31171ZM16.0593 7.50422C16.0593 7.63331 16.1096 7.75468 16.2009 7.84598C16.3893 8.03442 16.6959 8.03439 16.8845 7.84598C17.0729 7.65753 17.0729 7.3509 16.8844 7.16242C16.7902 7.06819 16.6664 7.0211 16.5427 7.0211C16.4189 7.0211 16.2951 7.06819 16.2009 7.16242C16.1096 7.25375 16.0593 7.37512 16.0593 7.50422ZM6.74359 8.31167C6.29835 7.86636 6.29835 7.14193 6.74363 6.69668C7.18887 6.25137 7.91342 6.25144 8.35866 6.69668C8.8039 7.14189 8.8039 7.86636 8.35866 8.31164C8.14292 8.52734 7.85619 8.64616 7.55113 8.64616C7.2461 8.64619 6.95934 8.52738 6.74359 8.31167ZM7.20936 7.84594C7.39781 8.03442 7.70444 8.03435 7.89293 7.84594C8.08137 7.6575 8.08137 7.35086 7.89293 7.16242C7.70448 6.97397 7.39785 6.97394 7.20936 7.16242C7.02088 7.35086 7.02088 7.6575 7.20936 7.84594ZM15.1271 9.24911C15.2115 9.24911 15.2959 9.21687 15.3602 9.15243L15.3796 9.13304C15.508 9.00431 15.5079 8.79581 15.3791 8.66731C15.2504 8.53883 15.0419 8.53898 14.9134 8.66774L14.894 8.68714C14.7655 8.81587 14.7657 9.02436 14.8944 9.15287C14.9588 9.21705 15.043 9.24911 15.1271 9.24911ZM13.1889 18.3579C13.1889 18.9876 12.6766 19.4999 12.0469 19.4999C11.4172 19.4999 10.9049 18.9876 10.9049 18.3579C10.9049 17.7283 11.4172 17.2159 12.0469 17.2159C12.6766 17.2159 13.1889 17.7283 13.1889 18.3579ZM12.5303 18.3579C12.5303 18.0914 12.3134 17.8746 12.0469 17.8746C11.7804 17.8746 11.5636 18.0914 11.5636 18.3579C11.5636 18.6244 11.7804 18.8412 12.0469 18.8412C12.3134 18.8413 12.5303 18.6244 12.5303 18.3579ZM7.66339 11.6615C7.48149 11.6615 7.33407 11.8089 7.33407 11.9908C7.33407 12.1727 7.48149 12.3201 7.66339 12.3201H7.69083C7.87273 12.3201 8.02015 12.1727 8.02015 11.9908C8.02015 11.8089 7.87273 11.6615 7.69083 11.6615H7.66339ZM17.3501 15.6882C17.7954 16.1334 17.7954 16.8579 17.3502 17.3032C17.1275 17.5258 16.8351 17.6371 16.5427 17.6371C16.2502 17.6371 15.9578 17.5258 15.7352 17.3032C15.7352 17.3032 15.7352 17.3032 15.7352 17.3032C15.5195 17.0875 15.4007 16.8007 15.4007 16.4957C15.4007 16.1907 15.5195 15.9039 15.7352 15.6882C16.1804 15.243 16.9049 15.243 17.3501 15.6882ZM16.8844 16.1539C16.6961 15.9655 16.3894 15.9655 16.2009 16.1539C16.1096 16.2452 16.0593 16.3666 16.0593 16.4957C16.0593 16.6248 16.1096 16.7462 16.2009 16.8375H16.2009C16.3893 17.026 16.696 17.026 16.8845 16.8375C17.0729 16.649 17.0729 16.3424 16.8844 16.1539ZM15.3795 14.8668L15.3601 14.8474C15.2316 14.7187 15.023 14.7186 14.8944 14.8472C14.7657 14.9757 14.7656 15.1842 14.8942 15.3129L14.9135 15.3323C14.9778 15.3967 15.0622 15.4289 15.1465 15.4289C15.2307 15.4289 15.3149 15.3968 15.3792 15.3325C15.5079 15.204 15.508 14.9954 15.3795 14.8668ZM19.5469 12C19.5469 12.6297 19.0346 13.142 18.4049 13.142C17.7752 13.142 17.2629 12.6297 17.2629 12C17.2629 11.3703 17.7752 10.858 18.4049 10.858C19.0346 10.858 19.5469 11.3703 19.5469 12ZM18.8882 12C18.8882 11.7334 18.6714 11.5166 18.4049 11.5166C18.1384 11.5166 17.9215 11.7334 17.9215 12C17.9215 12.2665 18.1384 12.4833 18.4049 12.4833C18.6714 12.4833 18.8882 12.2665 18.8882 12ZM15.3858 12.1795V11.4496C15.3858 11.1465 15.1209 10.9028 14.7132 10.8178C14.2942 9.75985 13.2584 9.00969 12.0531 9.00969C10.8462 9.00969 9.80226 9.7619 9.38417 10.8219C8.98752 10.9105 8.72622 11.1513 8.72622 11.4495V12.1794C8.72622 12.4967 9.01946 12.7489 9.46053 12.8221C9.55585 12.8379 9.66197 12.811 9.73581 12.7484C9.80961 12.6858 9.86055 12.5939 9.86055 12.4972V11.8669C9.86055 10.6546 10.8426 9.66826 12.0549 9.66826C13.2673 9.66826 14.2514 10.6546 14.2514 11.8669C14.2514 12.8083 13.6583 13.6247 12.7867 13.9319C12.6831 13.8444 12.5481 13.7837 12.4022 13.7837H11.699C11.3708 13.7837 11.1037 14.0592 11.1037 14.3874C11.1037 14.7157 11.3708 14.9912 11.699 14.9912H12.4022C12.6685 14.9912 12.8944 14.815 12.9703 14.5734C13.819 14.2865 14.4736 13.6243 14.7569 12.8015C15.1394 12.7087 15.3858 12.4715 15.3858 12.1795ZM8.35866 15.6882C8.8039 16.1335 8.80387 16.858 8.35866 17.3032C8.136 17.5258 7.84356 17.6371 7.55113 17.6371C7.25873 17.6371 6.96629 17.5258 6.74367 17.3032C6.29843 16.858 6.29839 16.1335 6.74363 15.6883C6.74363 15.6883 6.74363 15.6883 6.74367 15.6883C7.18887 15.243 7.91334 15.243 8.35866 15.6882ZM7.89289 16.1539C7.70437 15.9655 7.39777 15.9655 7.20929 16.1539H7.20933C7.02088 16.3424 7.02088 16.6491 7.20933 16.8375C7.39774 17.026 7.70444 17.0259 7.89289 16.8375C8.08137 16.6491 8.08137 16.3424 7.89289 16.1539ZM5.68889 13.142C5.05919 13.142 4.54688 12.6297 4.54688 12C4.54688 11.3703 5.05919 10.858 5.68889 10.858C6.31859 10.858 6.8309 11.3703 6.8309 12C6.8309 12.6297 6.31859 13.142 5.68889 13.142ZM6.17226 12C6.17226 11.7334 5.95542 11.5166 5.68889 11.5166C5.42236 11.5166 5.20552 11.7334 5.20552 12C5.20552 12.2665 5.42236 12.4833 5.68889 12.4833C5.95542 12.4833 6.17226 12.2665 6.17226 12ZM8.73383 14.8473L8.71444 14.8667C8.58582 14.9953 8.58582 15.2038 8.71444 15.3324C8.77876 15.3967 8.86303 15.4289 8.9473 15.4289C9.03157 15.4289 9.11584 15.3967 9.18017 15.3324L9.19956 15.313C9.32818 15.1844 9.32818 14.9759 9.19956 14.8473C9.07094 14.7187 8.86245 14.7187 8.73383 14.8473ZM12.3853 16.3834V16.356C12.3853 16.1741 12.2379 16.0267 12.056 16.0267C11.8741 16.0267 11.7267 16.1741 11.7267 16.356V16.3834C11.7267 16.5653 11.8741 16.7128 12.056 16.7128C12.2379 16.7128 12.3853 16.5653 12.3853 16.3834Z" fill="#FF872C"/>
</svg>
