<svg width="24" height="24" viewBox="0 0 24 24" fill="none" xmlns="http://www.w3.org/2000/svg">
<path d="M6.66826 6.66785C6.87411 6.46218 7.20777 6.4623 7.4135 6.66821L7.44453 6.69929C7.6502 6.90514 7.65003 7.2388 7.44418 7.44447C7.34125 7.54728 7.20648 7.59862 7.07177 7.59862C6.93682 7.59862 6.80192 7.5471 6.699 7.44412L6.66797 7.41303C6.4623 7.20713 6.46247 6.87347 6.66826 6.66785ZM11.4878 4.9864V5.03031C11.4878 5.32134 11.7237 5.55723 12.0147 5.55723C12.3058 5.55723 12.5416 5.32134 12.5416 5.03031V4.9864C12.5416 4.69537 12.3058 4.45948 12.0147 4.45948C11.7237 4.45948 11.4878 4.69537 11.4878 4.9864ZM18.9699 11.4585C18.6788 11.4585 18.4429 11.6944 18.4429 11.9854C18.4429 12.2764 18.6788 12.5123 18.9699 12.5123H19.0138C19.3048 12.5123 19.5407 12.2764 19.5407 11.9854C19.5407 11.6944 19.3048 11.4585 19.0138 11.4585H18.9699ZM10.173 1.82723C10.173 0.819709 10.9926 0 12.0001 0C13.0077 0 13.8274 0.81965 13.8274 1.82723C13.8274 2.8347 13.0077 3.65435 12.0001 3.65435C10.9926 3.65435 10.173 2.8347 10.173 1.82723ZM11.2268 1.82723C11.2268 2.25363 11.5737 2.60052 12.0001 2.60052C12.4265 2.60052 12.7735 2.25363 12.7735 1.82723C12.7735 1.40078 12.4265 1.05384 12.0001 1.05384C11.5737 1.05384 11.2268 1.40078 11.2268 1.82723ZM17.9015 6.09878C17.5563 5.75365 17.3662 5.29482 17.3662 4.80678C17.3662 4.31874 17.5563 3.85985 17.9014 3.51478C18.6139 2.80233 19.7729 2.80233 20.4855 3.51478C21.1978 4.22723 21.1978 5.38639 20.4855 6.09878C20.1293 6.45492 19.6613 6.63302 19.1935 6.63302C18.7255 6.63302 18.2576 6.45498 17.9015 6.09878ZM18.4201 4.80678C18.4201 5.01333 18.5005 5.20753 18.6465 5.3536C18.9481 5.65512 19.4386 5.65506 19.7403 5.3536C20.0417 5.05209 20.0417 4.56147 19.7402 4.2599C19.5895 4.10914 19.3914 4.03379 19.1934 4.03379C18.9953 4.03379 18.7973 4.10914 18.6466 4.2599C18.5005 4.40603 18.4201 4.60023 18.4201 4.80678ZM3.51478 6.09872C2.80238 5.38621 2.80238 4.22711 3.51484 3.51472C4.22723 2.80221 5.38651 2.80233 6.0989 3.51472C6.81129 4.22705 6.81129 5.38621 6.0989 6.09867C5.75371 6.4438 5.29494 6.6339 4.80684 6.6339C4.31879 6.63396 3.85997 6.44386 3.51478 6.09872ZM4.26001 5.35355C4.56153 5.65512 5.05215 5.655 5.35372 5.35355C5.65523 5.05203 5.65523 4.56141 5.35372 4.2599C5.05221 3.95838 4.56159 3.95832 4.26001 4.2599C3.95844 4.56141 3.95844 5.05203 4.26001 5.35355ZM16.9285 7.59862C17.0635 7.59862 17.1985 7.54705 17.3015 7.44395L17.3324 7.41292C17.538 7.20695 17.5377 6.87335 17.3317 6.66774C17.1257 6.46218 16.7922 6.46241 16.5865 6.66844L16.5555 6.69947C16.35 6.90544 16.3503 7.23903 16.5562 7.44465C16.6592 7.54734 16.7939 7.59862 16.9285 7.59862ZM13.8274 22.1728C13.8274 23.1803 13.0077 24 12.0001 24C10.9926 24 10.173 23.1803 10.173 22.1728C10.173 21.1654 10.9926 20.3456 12.0001 20.3456C13.0077 20.3456 13.8274 21.1654 13.8274 22.1728ZM12.7735 22.1728C12.7735 21.7464 12.4265 21.3995 12.0001 21.3995C11.5737 21.3995 11.2268 21.7464 11.2268 22.1728C11.2268 22.5993 11.5737 22.9462 12.0001 22.9462C12.4265 22.9462 12.7735 22.5993 12.7735 22.1728ZM4.98646 11.4585C4.69542 11.4585 4.45954 11.6944 4.45954 11.9854C4.45954 12.2764 4.69542 12.5123 4.98646 12.5123H5.03037C5.3214 12.5123 5.55729 12.2764 5.55729 11.9854C5.55729 11.6944 5.3214 11.4585 5.03037 11.4585H4.98646ZM20.4853 17.9012C21.1977 18.6136 21.1978 19.7728 20.4854 20.4853C20.1292 20.8415 19.6613 21.0196 19.1934 21.0196C18.7255 21.0196 18.2576 20.8415 17.9015 20.4853C17.9014 20.4853 17.9014 20.4853 17.9014 20.4853C17.5563 20.1402 17.3662 19.6813 17.3662 19.1933C17.3662 18.7052 17.5563 18.2463 17.9015 17.9012C18.6138 17.1889 19.7729 17.1889 20.4853 17.9012ZM19.7402 18.6464C19.4388 18.345 18.9482 18.3449 18.6465 18.6465C18.5005 18.7925 18.4201 18.9867 18.4201 19.1933C18.4201 19.3998 18.5005 19.594 18.6466 19.7402H18.6465C18.948 20.0417 19.4387 20.0417 19.7403 19.7402C20.0417 19.4386 20.0417 18.948 19.7402 18.6464ZM17.3323 16.587L17.3014 16.5559C17.0956 16.35 16.762 16.3499 16.5561 16.5556C16.3503 16.7613 16.3501 17.0949 16.5558 17.3008L16.5867 17.3318C16.6897 17.4348 16.8246 17.4863 16.9595 17.4863C17.0943 17.4863 17.229 17.435 17.3319 17.3321C17.5378 17.1265 17.538 16.7928 17.3323 16.587ZM24.0002 12C24.0002 13.0076 23.1805 13.8273 22.173 13.8273C21.1655 13.8273 20.3458 13.0076 20.3458 12C20.3458 10.9926 21.1655 10.1729 22.173 10.1729C23.1805 10.1729 24.0002 10.9925 24.0002 12ZM22.9463 12C22.9463 11.5736 22.5994 11.2267 22.173 11.2267C21.7465 11.2267 21.3996 11.5736 21.3996 12C21.3996 12.4265 21.7465 12.7734 22.173 12.7734C22.5994 12.7734 22.9463 12.4265 22.9463 12ZM17.3424 12.2873V11.1194C17.3424 10.6344 16.9186 10.2445 16.2663 10.1086C15.5958 8.41582 13.9385 7.21556 12.01 7.21556C10.0791 7.21556 8.40867 8.41909 7.73972 10.1152C7.10508 10.2568 6.687 10.6421 6.687 11.1193V12.2872C6.687 12.7947 7.15619 13.1984 7.86191 13.3154C8.01442 13.3408 8.18421 13.2977 8.30235 13.1975C8.42044 13.0974 8.50194 12.9504 8.50194 12.7956V11.7872C8.50194 9.84739 10.0732 8.26927 12.013 8.26927C13.9527 8.26927 15.5273 9.84739 15.5273 11.7872C15.5273 13.2934 14.5784 14.5996 13.1838 15.0912C13.018 14.9512 12.8021 14.854 12.5686 14.854H11.4435C10.9183 14.854 10.491 15.2948 10.491 15.82C10.491 16.3452 10.9183 16.786 11.4435 16.786H12.5686C12.9946 16.786 13.3562 16.5041 13.4776 16.1176C14.8355 15.6585 15.8828 14.599 16.3362 13.2825C16.9482 13.1341 17.3424 12.7545 17.3424 12.2873ZM6.0989 17.9013C6.81129 18.6137 6.81123 19.7729 6.0989 20.4853C5.74264 20.8415 5.27474 21.0196 4.80684 21.0196C4.33899 21.0196 3.87109 20.8415 3.51489 20.4853C2.8025 19.7729 2.80244 18.6138 3.51484 17.9013C3.51484 17.9013 3.51484 17.9013 3.51489 17.9013C4.22723 17.189 5.38639 17.1889 6.0989 17.9013ZM5.35366 18.6465C5.05203 18.3449 4.56147 18.3449 4.2599 18.6465H4.25996C3.95844 18.948 3.95844 19.4386 4.25996 19.7402C4.56141 20.0417 5.05215 20.0416 5.35366 19.7402C5.65523 19.4386 5.65523 18.948 5.35366 18.6465ZM1.82723 13.8273C0.819709 13.8273 0 13.0076 0 12C0 10.9926 0.819709 10.1729 1.82723 10.1729C2.83476 10.1729 3.65447 10.9925 3.65447 12C3.65447 13.0076 2.83476 13.8273 1.82723 13.8273ZM2.60063 12C2.60063 11.5736 2.25369 11.2267 1.82723 11.2267C1.40078 11.2267 1.05384 11.5736 1.05384 12C1.05384 12.4265 1.40078 12.7734 1.82723 12.7734C2.25369 12.7734 2.60063 12.4265 2.60063 12ZM6.69918 16.5558L6.66815 16.5869C6.46236 16.7926 6.46236 17.1262 6.66815 17.332C6.77107 17.4349 6.9059 17.4864 7.04074 17.4864C7.17557 17.4864 7.3104 17.4349 7.41333 17.332L7.44435 17.301C7.65015 17.0952 7.65015 16.7616 7.44435 16.5558C7.23856 16.35 6.90497 16.35 6.69918 16.5558ZM12.5416 19.0137V18.9697C12.5416 18.6787 12.3058 18.4428 12.0147 18.4428C11.7237 18.4428 11.4878 18.6787 11.4878 18.9697V19.0137C11.4878 19.3047 11.7237 19.5406 12.0147 19.5406C12.3058 19.5406 12.5416 19.3047 12.5416 19.0137Z" fill="#FF872C"/>
</svg>
