<svg id="Capa_1" data-name="Capa 1" xmlns="http://www.w3.org/2000/svg" width="47.9019" height="16.378" viewBox="0 0 47.9019 16.378"><title>american-express</title><polygon points="34.554 1.798 33.673 3.937 35.444 3.937 34.554 1.798" style="fill:#fff"/><polygon points="4.105 1.798 3.234 3.937 4.983 3.937 4.105 1.798" style="fill:#fff"/><path d="M-38.547,13.985a1.329,1.329,0,0,0-.608-0.097h-1.58v1.191h1.559a1.2072,1.2072,0,0,0,.634-0.11,0.55134,0.55134,0,0,0,.264-0.51A0.49064,0.49064,0,0,0-38.547,13.985Z" transform="translate(62.86691 -11.884)" style="fill:#fff"/><path d="M-33.051,23.215a1.25885,1.25885,0,0,0-.612-0.097h-1.58v1.205h1.559a1.24864,1.24864,0,0,0,.636-0.109,0.58044,0.58044,0,0,0,.265-0.516A0.516,0.516,0,0,0-33.051,23.215Z" transform="translate(62.86691 -11.884)" style="fill:#fff"/><path d="M-39.296,23.116h-1.672v1.367h1.656a0.68979,0.68979,0,0,0,.8-0.707A0.65419,0.65419,0,0,0-39.296,23.116Z" transform="translate(62.86691 -11.884)" style="fill:#fff"/><path d="M-15.605,23.922a0.332,0.332,0,0,0-.028-0.026,0.88686,0.88686,0,0,0,.405-0.744V22.009a0.8862,0.8862,0,0,0-.887-0.887h-2.57a2.84818,2.84818,0,0,0-1.845.592,0.87549,0.87549,0,0,0-.826-0.592h-2.57a2.94275,2.94275,0,0,0-1.688.463,0.87223,0.87223,0,0,0-.763-0.463h-4.28a0.87985,0.87985,0,0,0-.783.488c-0.061-.043-0.106-0.093-0.17-0.131a3.99066,3.99066,0,0,0-1.961-.357h-2.963a0.87873,0.87873,0,0,0-.783.492,3.54994,3.54994,0,0,0-1.979-.492h-4.098a0.88444,0.88444,0,0,0-.651.282l-0.971,1.047-0.932-1.035a0.86885,0.86885,0,0,0-.659-0.295h-5.158a0.886,0.886,0,0,0-.886.887v5.367a0.886,0.886,0,0,0,.886.887h5.081a0.88349,0.88349,0,0,0,.65-0.285l0.979-1.059,0.929,1.045a0.88423,0.88423,0,0,0,.663.297h2.493a0.88578,0.88578,0,0,0,.887-0.885V26.459h0.713a3.75413,3.75413,0,0,0,1.95-.449v1.365a0.88578,0.88578,0,0,0,.887.885h1.289a0.88578,0.88578,0,0,0,.887-0.885V26.299h0.483c0.118,0,.201.004,0.261,0.008,0.004,0.096.004,0.211,0.002,0.287v0.781a0.88706,0.88706,0,0,0,.887.885h1.287a0.84451,0.84451,0,0,0,.392-0.1,0.87879,0.87879,0,0,0,.391.1h4.281a0.87678,0.87678,0,0,0,.385-0.096,0.86654,0.86654,0,0,0,.385.096h2.498a3.28041,3.28041,0,0,0,1.928-.539,0.88255,0.88255,0,0,0,.814.539h2.498c1.817,0,2.9-.965,2.9-2.58A2.3672,2.3672,0,0,0-15.605,23.922Zm-23.764,1.65h-1.6v1.801h-2.493l-1.58-1.776-1.642,1.776h-5.081V22.005h5.158l1.58,1.76,1.632-1.76h4.098c1.017,0,2.162.285,2.162,1.771C-37.135,25.265-38.247,25.575-39.369,25.572Zm7.093-.691a1.36141,1.36141,0,0,1,.625.451,1.55386,1.55386,0,0,1,.213.979v1.064h-1.287V26.703a1.58089,1.58089,0,0,0-.209-1.051,1.23727,1.23727,0,0,0-.939-0.236h-1.37v1.959h-1.289V22.008h2.963a3.17825,3.17825,0,0,1,1.543.252,1.25759,1.25759,0,0,1,.659,1.191A1.50835,1.50835,0,0,1-32.276,24.881Zm5.901-1.764h-3.004v0.977h2.93V25.19h-2.93v1.066l3.004,0.006v1.113h-4.28V22.008h4.28v1.109Zm3.271,4.252h-2.498V26.216h2.487a0.74124,0.74124,0,0,0,.523-0.133,0.47681,0.47681,0,0,0,.15-0.351,0.45316,0.45316,0,0,0-.156-0.354,0.6754,0.6754,0,0,0-.457-0.119c-1.198-.039-2.701.037-2.701-1.66a1.59426,1.59426,0,0,1,1.834-1.598h2.57v1.142h-2.353a0.86388,0.86388,0,0,0-.514.098,0.41414,0.41414,0,0,0-.194.387,0.413,0.413,0,0,0,.28.4,1.48651,1.48651,0,0,0,.5.061l0.689,0.02a2.0792,2.0792,0,0,1,1.463.432,1.49029,1.49029,0,0,1,.385,1.138C-21.096,26.836-21.815,27.375-23.104,27.369Zm5.241,0h-2.498V26.216h2.488a0.73686,0.73686,0,0,0,.522-0.133,0.47681,0.47681,0,0,0,.15-0.351,0.45316,0.45316,0,0,0-.156-0.354,0.67192,0.67192,0,0,0-.457-0.119c-1.199-.039-2.701.037-2.701-1.66a1.59426,1.59426,0,0,1,1.834-1.598h2.57v1.142h-2.352a0.86385,0.86385,0,0,0-.515.098,0.41339,0.41339,0,0,0-.193.387,0.41474,0.41474,0,0,0,.279.4,1.49013,1.49013,0,0,0,.5.061l0.689,0.02a2.08318,2.08318,0,0,1,1.465.432,1.498,1.498,0,0,1,.385,1.138C-15.853,26.836-16.574,27.375-17.863,27.369Z" transform="translate(62.86691 -11.884)" style="fill:#fff"/><path d="M-19.631,11.884h-1.313a0.886,0.886,0,0,0-.887.886v0.554l-0.609-1.011a0.89033,0.89033,0,0,0-.758-0.428h-1.955a0.88578,0.88578,0,0,0-.886.886v0.753l-0.471-1.102a0.88513,0.88513,0,0,0-.813-0.537h-1.922a0.878,0.878,0,0,0-.529.176,0.87948,0.87948,0,0,0-.531-0.176h-1.239a3.51911,3.51911,0,0,0-2.408.753,0.87468,0.87468,0,0,0-.859-0.753h-1.31a0.883,0.883,0,0,0-.789.499,1.81815,1.81815,0,0,0-.159-0.124,3.7712,3.7712,0,0,0-1.998-.375h-2.95a0.86679,0.86679,0,0,0-.445.137,0.85459,0.85459,0,0,0-.444-0.137H-47.19a0.86249,0.86249,0,0,0-.478.159,0.86779,0.86779,0,0,0-.478-0.159h-2.138a0.88547,0.88547,0,0,0-.814.541l-0.762,1.796L-52.699,12.4a0.88967,0.88967,0,0,0-.805-0.515h-2.094a0.88578,0.88578,0,0,0-.886.886v0.771l-0.481-1.122a0.887,0.887,0,0,0-.815-0.536h-1.904a0.88792,0.88792,0,0,0-.815.537l-2.296,5.367a0.88714,0.88714,0,0,0,.074.837,0.88771,0.88771,0,0,0,.74.398h1.394a0.88557,0.88557,0,0,0,.816-0.546l0.271-.652h1.486l0.267,0.648a0.88559,0.88559,0,0,0,.82.549h2.609a0.88577,0.88577,0,0,0,.886-0.886V18.115l0.168,0.381a0.88715,0.88715,0,0,0,.81.527l1.127,0.002a0.88433,0.88433,0,0,0,.81-0.528l0.17-.38v0.022a0.88492,0.88492,0,0,0,.886.885h1.315a0.87577,0.87577,0,0,0,.478-0.159,0.87037,0.87037,0,0,0,.478.159h4.284a0.8546,0.8546,0,0,0,.444-0.137,0.86387,0.86387,0,0,0,.445.137h1.284a0.88577,0.88577,0,0,0,.886-0.886V17.072h0.49c0.111,0,.19.003,0.249,0.007,0.006,0.091.004,0.199,0.004,0.271l-0.002.118,0.005,0.677a0.88775,0.88775,0,0,0,.887.879h1.294a0.86467,0.86467,0,0,0,.397-0.107,0.872,0.872,0,0,0,.401.107h1.31a0.87439,0.87439,0,0,0,.853-0.714,3.71971,3.71971,0,0,0,2.321.714h1.503a0.88349,0.88349,0,0,0,.817-0.555l0.261-.643h1.478l0.271,0.652a0.88585,0.88585,0,0,0,.818.545h2.61a0.88577,0.88577,0,0,0,.886-0.886V17.29l0.787,1.305a0.88865,0.88865,0,0,0,.76.428h1.816a0.88577,0.88577,0,0,0,.886-0.886V12.77A0.88706,0.88706,0,0,0-19.631,11.884Zm-28.516,6.252h-1.315l-0.005-4.203-1.86,4.203h-1.127l-1.863-4.207v4.207h-2.611l-0.493-1.197h-2.67l-0.498,1.197h-1.394l2.297-5.367h1.904l2.183,5.082V12.769h2.094l1.679,3.641,1.541-3.641h2.138v5.367Zm5.24-4.249h-3.002v0.967h2.931v1.1h-2.931v1.072h3.002v1.11h-4.284V12.769h4.284v1.118Zm5.137,1.759a1.49949,1.49949,0,0,1,.635.452,1.53607,1.53607,0,0,1,.213.984v1.053h-1.294l-0.006-.677a1.61356,1.61356,0,0,0-.202-1.045,1.25729,1.25729,0,0,0-.935-0.229h-1.375v1.952h-1.285V12.77h2.95a3.01514,3.01514,0,0,1,1.553.257,1.25233,1.25233,0,0,1,.649,1.189A1.51081,1.51081,0,0,1-37.77,15.646Zm2.959,2.49h-1.31V12.769h1.31v5.367Zm15.18,0h-1.817l-2.433-4.028v4.028h-2.61l-0.5-1.197h-2.666l-0.482,1.197h-1.502a2.688,2.688,0,0,1-1.856-.593,2.69145,2.69145,0,0,1-.688-2.049,2.88034,2.88034,0,0,1,.687-2.1,2.59876,2.59876,0,0,1,1.948-.625h1.239v1.15h-1.215a1.231,1.231,0,0,0-.986.318,1.77054,1.77054,0,0,0-.368,1.216,1.851,1.851,0,0,0,.354,1.259,1.24062,1.24062,0,0,0,.894.277h0.575l1.812-4.22h1.922l2.17,5.076V12.769h1.955l2.254,3.738V12.769h1.313v5.367Zm-11.448-3.33-0.557,1.299a1.02885,1.02885,0,0,1-.252-0.026,1.36323,1.36323,0,0,1-.102-0.625,1.30233,1.30233,0,0,1,.102-0.582,0.44769,0.44769,0,0,1,.369-0.067Z" transform="translate(62.86691 -11.884)" style="fill:#fff"/><polygon points="18.651 12.816 20.621 15.004 20.621 10.701 18.651 12.816" style="fill:#fff"/><polygon points="15.597 11.234 12.383 11.234 12.383 12.209 15.198 12.209 15.198 13.305 12.383 13.305 12.383 14.373 15.535 14.373 17 12.796 15.597 11.234" style="fill:#fff"/></svg>