<svg width="55" height="33" viewBox="0 0 55 33" fill="none" xmlns="http://www.w3.org/2000/svg">
<path d="M27.7462 28.7682C30.9616 25.8066 32.9923 21.5758 32.9923 16.922C32.9923 12.1835 30.9616 7.95277 27.7462 5.07584C24.8693 2.53738 21.1462 0.929688 17 0.929688C8.1154 0.929688 0.923096 8.122 0.923096 16.922C0.923096 25.8066 8.1154 32.9989 17 32.9989C21.1462 32.9143 24.8693 31.3066 27.7462 28.7682Z" fill="#3362AB"/>
<path d="M27.7461 28.7685C30.9615 25.8069 32.9923 21.5762 32.9923 16.9223C32.9923 12.1839 30.9615 7.95309 27.7461 5.07617" fill="#3362AB"/>
<path d="M27.7461 28.7685C30.9615 25.8069 32.9923 21.5762 32.9923 16.9223C32.9923 12.1839 30.9615 7.95309 27.7461 5.07617" stroke="#3362AB" stroke-width="0.3097"/>
<path d="M38.4923 0.845703C34.3461 0.845703 30.5384 2.45339 27.7461 4.99185C27.1538 5.49954 26.6461 6.09185 26.1384 6.68416H29.3538C29.7769 7.19185 30.1999 7.78416 30.5384 8.37647H24.8692C24.5307 8.88416 24.1922 9.47647 23.9384 10.0688H31.4692C31.723 10.6611 31.9769 11.1688 32.1461 11.7611H23.2615C23.0923 12.3534 22.923 12.8611 22.7538 13.4534H32.5692C32.823 14.5534 32.9076 15.6534 32.9076 16.838C32.9076 18.6149 32.6538 20.3072 32.0615 21.9149H23.1769C23.3461 22.5072 23.5999 23.0995 23.8538 23.6072H31.3845C31.1307 24.1995 30.7923 24.7919 30.4538 25.2995H24.7845C25.123 25.8919 25.5461 26.4842 25.9692 26.9919H29.1846C28.6769 27.5842 28.1692 28.1765 27.5768 28.6842C30.4538 31.2226 34.1769 32.8303 38.323 32.8303C47.2076 32.8303 54.3153 25.638 54.3153 16.7534C54.5692 8.03801 47.3769 0.845703 38.4923 0.845703Z" fill="#C9191B"/>
<path d="M14.9691 20.8155H12.9384L14.123 14.5539L11.4153 20.8155H9.63837L9.29992 14.6385L8.11528 20.8155H6.33838L7.86145 12.6924H10.9922L11.1614 17.7693L13.3614 12.6924H16.5768L14.9691 20.8155Z" fill="white"/>
<path d="M37.3077 20.8148C36.8 20.9841 36.2924 21.0687 35.8693 21.0687C34.8539 21.0687 34.2616 20.561 34.2616 19.6302C34.2616 19.461 34.2616 19.2071 34.3462 19.0379L34.4308 18.361L34.5154 17.8533L35.4462 12.7764H37.3924L37.1385 14.2994H38.1539L37.9 15.9071H36.8847L36.377 18.6994C36.377 18.7841 36.377 18.9533 36.377 18.9533C36.377 19.2918 36.6308 19.461 37.0539 19.461C37.3077 19.461 37.477 19.461 37.5616 19.3764L37.3077 20.8148Z" fill="white"/>
<path d="M43.0615 14.2995C42.8923 14.2148 42.8923 14.2148 42.8077 14.2148C42.7231 14.2148 42.6385 14.2148 42.6385 14.2148C42.5538 14.2148 42.4692 14.2148 42.3846 14.2148C41.7077 14.2148 41.2846 14.4687 40.6077 15.3148L40.7769 14.2995H39.1692L37.9846 20.8995H40.0154C40.6923 16.8379 41.0308 16.161 41.9615 16.161C42.0461 16.161 42.1308 16.161 42.2154 16.161L42.4692 16.2456L43.0615 14.2995Z" fill="white"/>
<path d="M29.3538 16.3309C29.3538 17.177 29.8615 17.7693 30.8769 18.1924C31.7231 18.5309 31.8077 18.6155 31.8077 18.9539C31.8077 19.377 31.4692 19.5462 30.623 19.5462C30.0307 19.5462 29.4384 19.4616 28.8461 19.2924L28.5923 20.8155H28.6769L29.0154 20.9001C29.1 20.9001 29.3538 20.9847 29.5231 20.9847C30.0308 20.9847 30.3692 21.0693 30.623 21.0693C32.7384 21.0693 33.7538 20.3924 33.7538 18.8693C33.7538 17.9386 33.3307 17.4309 32.3154 17.0078C31.4692 16.6693 31.3846 16.5847 31.3846 16.2462C31.3846 15.9078 31.7231 15.7385 32.4 15.7385C32.8231 15.7385 33.3308 15.7386 33.8384 15.8232L34.0923 14.3001C33.5846 14.2155 32.823 14.1309 32.3154 14.1309C30.1154 14.1309 29.3538 15.1462 29.3538 16.3309Z" fill="white"/>
<path d="M20.0461 17.9386C19.7923 17.9386 19.7077 17.9386 19.6231 17.9386C18.5231 17.9386 17.9308 18.277 17.9308 18.9539C17.9308 19.377 18.1846 19.6309 18.6077 19.6309C19.3692 19.5462 19.9615 18.8693 20.0461 17.9386ZM21.4846 20.8155H19.7923L19.8769 20.1386C19.3692 20.6462 18.6923 20.9001 17.7615 20.9001C16.6615 20.9001 15.9846 20.1385 15.9846 19.1232C15.9846 17.5155 17.2539 16.5847 19.4539 16.5847C19.7077 16.5847 19.9615 16.5847 20.3 16.6693C20.3846 16.4155 20.3846 16.3309 20.3846 16.2462C20.3846 15.8232 20.0461 15.6539 19.1154 15.6539C18.5231 15.6539 17.9308 15.7386 17.5077 15.8232L17.2538 15.9078L17.0846 15.9924L17.3385 14.4693C18.3539 14.2155 18.9462 14.1309 19.7077 14.1309C21.4 14.1309 22.3308 14.8078 22.3308 16.077C22.3308 16.4155 22.3308 16.6693 22.1615 17.3462L21.7385 19.7155L21.6538 20.1386L21.5692 20.477V20.7309L21.4846 20.8155Z" fill="white"/>
<path d="M26.9846 16.7536C26.9846 16.5844 26.9846 16.4997 26.9846 16.4151C26.9846 15.9074 26.6461 15.569 26.0538 15.569C25.3769 15.569 24.9538 15.9921 24.7846 16.7536H26.9846ZM28 20.7305C27.3231 20.8998 26.6461 20.9844 25.9692 20.9844C23.7692 20.9844 22.5846 19.969 22.5846 18.0228C22.5846 15.7382 24.0231 14.0459 26.0538 14.0459C27.6615 14.0459 28.7615 14.9767 28.7615 16.4151C28.7615 16.9228 28.6769 17.3459 28.5077 18.0228H24.5308C24.5308 18.1074 24.5308 18.1921 24.5308 18.1921C24.5308 18.9536 25.1231 19.3767 26.3077 19.3767C26.9846 19.3767 27.6615 19.2074 28.4231 18.9536L28 20.7305Z" fill="white"/>
<path d="M47.2077 17.0078C47.2077 16.3309 46.9539 15.6539 46.1077 15.6539C45.0924 15.6539 44.5 16.8386 44.5 17.9386C44.5 18.8693 44.9231 19.4616 45.6847 19.4616C46.1077 19.4616 47.0385 18.8693 47.2077 17.8539C47.2077 17.6001 47.2077 17.2616 47.2077 17.0078ZM49.3231 17.8539C48.9847 20.0539 47.4616 21.0693 45.4308 21.0693C43.1462 21.0693 42.3 19.7155 42.3 18.0232C42.3 15.6539 43.8231 14.1309 46.1923 14.1309C48.3077 14.1309 49.3231 15.4001 49.3231 17.0924C49.4077 17.4309 49.4077 17.4309 49.3231 17.8539Z" fill="white"/>
</svg>
