<svg width="55" height="33" viewBox="0 0 55 33" fill="none" xmlns="http://www.w3.org/2000/svg">
<path d="M55 16.5C55 25.5538 47.6385 33 38.5 33C29.4462 33 22 25.5538 22 16.5C22 7.44615 29.3615 0 38.4154 0C47.6385 0 55 7.44615 55 16.5Z" fill="#F9B50B"/>
<path d="M32.9154 16.5846C32.9154 15.4 32.7462 14.2154 32.5769 13.1154H22.4231C22.5077 12.5231 22.6769 12.0154 22.8462 11.3385H31.9C31.7308 10.7462 31.4769 10.1538 31.2231 9.56154H23.5231C23.7769 8.96923 24.1154 8.46154 24.4538 7.78462H30.2923C29.9538 7.19231 29.5308 6.6 29.0231 6.00769H25.8077C26.3154 5.41538 26.8231 4.90769 27.5 4.31538C24.6231 1.60769 20.7308 0 16.4154 0C7.44615 0.253846 0 7.44615 0 16.5C0 25.5538 7.36154 33 16.5 33C20.8154 33 24.6231 31.3077 27.5846 28.6846C28.1769 28.1769 28.6846 27.5846 29.2769 26.9077H25.8923C25.4692 26.4 25.0462 25.8077 24.7077 25.2154H30.4615C30.8 24.7077 31.1385 24.1154 31.3923 23.4385H23.6923C23.4385 22.9308 23.1846 22.3385 23.0154 21.6615H32.0692C32.5769 20.1385 32.9154 18.4462 32.9154 16.5846Z" fill="#C8191C"/>
<path d="M22.3385 20.7313L22.5924 19.2082C22.5077 19.2082 22.3385 19.2928 22.1693 19.2928C21.577 19.2928 21.4924 18.9543 21.577 18.7851L22.0847 15.7389H23.0154L23.2693 14.0466H22.4231L22.5924 13.0312H20.8154C20.8154 13.0312 19.8 18.7851 19.8 19.462C19.8 20.4774 20.3924 20.9851 21.2385 20.9851C21.7462 20.9851 22.1693 20.8159 22.3385 20.7313Z" fill="white"/>
<path d="M22.9308 17.9382C22.9308 20.3921 24.6231 20.9844 25.9769 20.9844C27.2462 20.9844 27.8385 20.7305 27.8385 20.7305L28.1769 19.0382C28.1769 19.0382 27.2462 19.4613 26.3154 19.4613C24.3692 19.4613 24.7077 18.0228 24.7077 18.0228H28.2616C28.2616 18.0228 28.5154 16.9228 28.5154 16.4151C28.5154 15.3151 27.9231 13.8767 25.9769 13.8767C24.2846 13.7921 22.9308 15.7382 22.9308 17.9382ZM25.9769 15.3998C26.9077 15.3998 26.7385 16.4998 26.7385 16.5844H24.7923C24.8769 16.4998 25.0462 15.3998 25.9769 15.3998Z" fill="white"/>
<path d="M37.0615 20.7317L37.3999 18.7855C37.3999 18.7855 36.5538 19.2086 35.8769 19.2086C34.6923 19.2086 34.0999 18.2779 34.0999 17.1779C34.0999 15.0625 35.1153 13.9625 36.3846 13.9625C37.2307 13.9625 37.9923 14.4702 37.9923 14.4702L38.2461 12.6086C38.2461 12.6086 37.2307 12.1855 36.2153 12.1855C34.1846 12.1855 32.2384 13.9625 32.2384 17.2625C32.2384 19.4625 33.2538 20.9009 35.3692 20.9009C36.1307 20.9855 37.0615 20.7317 37.0615 20.7317Z" fill="white"/>
<path d="M12.7768 13.792C11.5922 13.792 10.6614 14.1305 10.6614 14.1305L10.4076 15.6535C10.4076 15.6535 11.1691 15.3151 12.3537 15.3151C12.946 15.3151 13.4537 15.3997 13.4537 15.9074C13.4537 16.2458 13.3691 16.3305 13.3691 16.3305H12.6076C11.0845 16.3305 9.47681 16.9228 9.47681 18.9535C9.47681 20.5612 10.4922 20.8997 11.1691 20.8997C12.3537 20.8997 12.946 20.1381 13.0307 20.1381L12.946 20.8151H14.3845L15.0614 15.992C15.0614 13.8766 13.3691 13.792 12.7768 13.792ZM13.1153 17.6843C13.1153 17.9381 12.946 19.3766 11.9307 19.3766C11.423 19.3766 11.2537 18.9535 11.2537 18.6997C11.2537 18.2766 11.5076 17.6843 12.8614 17.6843C13.0307 17.6843 13.1153 17.6843 13.1153 17.6843Z" fill="white"/>
<path d="M16.7539 20.9003C17.177 20.9003 19.377 20.9849 19.377 18.6157C19.377 16.4157 17.2616 16.8388 17.2616 15.9926C17.2616 15.5695 17.6001 15.4003 18.1924 15.4003C18.4462 15.4003 19.377 15.4849 19.377 15.4849L19.6309 13.8772C19.6309 13.8772 19.0386 13.708 17.9386 13.708C16.6693 13.708 15.3155 14.2157 15.3155 15.9926C15.3155 18.0234 17.5155 17.8542 17.5155 18.6157C17.5155 19.1234 16.9232 19.208 16.5001 19.208C15.7386 19.208 14.8924 18.9542 14.8924 18.9542L14.6385 20.5619C14.8078 20.7311 15.3155 20.9003 16.7539 20.9003Z" fill="white"/>
<path d="M51.6155 12.4385L51.277 14.8077C51.277 14.8077 50.6001 13.9616 49.5847 13.9616C47.977 13.9616 46.6232 15.9077 46.6232 18.1923C46.6232 19.6308 47.3001 21.0692 48.8232 21.0692C49.8386 21.0692 50.5155 20.3923 50.5155 20.3923L50.4309 20.9846H52.2078L53.477 12.6077L51.6155 12.4385ZM50.7693 17.0077C50.7693 17.9385 50.3462 19.2077 49.3309 19.2077C48.7386 19.2077 48.4001 18.7 48.4001 17.7692C48.4001 16.3308 48.9924 15.4846 49.8386 15.4846C50.4309 15.5692 50.7693 15.9923 50.7693 17.0077Z" fill="white"/>
<path d="M3.21538 20.8154L4.23076 14.5539L4.39999 20.8154H5.58461L7.86922 14.5539L6.93846 20.8154H8.79999L10.2385 12.4385H7.36153L5.58461 17.6L5.49999 12.4385H2.96153L1.52307 20.8154H3.21538Z" fill="white"/>
<path d="M30.2923 20.8158C30.8 17.9388 30.8847 15.5696 32.1539 15.9927C32.3231 14.8927 32.577 14.385 32.7462 13.9619H32.4077C31.6462 13.9619 30.9693 14.9773 30.9693 14.9773L31.1385 14.0465H29.4462L28.3462 20.8158H30.2923Z" fill="white"/>
<path d="M41.123 13.792C39.9384 13.792 39.0076 14.1305 39.0076 14.1305L38.7538 15.6535C38.7538 15.6535 39.5153 15.3151 40.6999 15.3151C41.2922 15.3151 41.7999 15.3997 41.7999 15.9074C41.7999 16.2458 41.7153 16.3305 41.7153 16.3305H40.9538C39.4307 16.3305 37.823 16.9228 37.823 18.9535C37.823 20.5612 38.8384 20.8997 39.5153 20.8997C40.6999 20.8997 41.2922 20.1381 41.3768 20.1381L41.2922 20.8151H42.8999L43.5768 15.992C43.5768 13.8766 41.7153 13.792 41.123 13.792ZM41.5461 17.6843C41.5461 17.9381 41.3768 19.3766 40.3615 19.3766C39.8538 19.3766 39.6845 18.9535 39.6845 18.6997C39.6845 18.2766 39.9384 17.6843 41.2922 17.6843C41.4615 17.6843 41.4615 17.6843 41.5461 17.6843Z" fill="white"/>
<path d="M44.9308 20.8158C45.4385 17.9388 45.5231 15.5696 46.7923 15.9927C46.9615 14.8927 47.2154 14.385 47.3846 13.9619H47.0462C46.2846 13.9619 45.6077 14.9773 45.6077 14.9773L45.7769 14.0465H44.0846L42.9846 20.8158H44.9308Z" fill="white"/>
</svg>
