<svg id="Capa_1" data-name="Capa 1" xmlns="http://www.w3.org/2000/svg" width="45.75424" height="12.798" viewBox="0 0 45.75424 12.798"><title>paypal</title><path d="M-67.965,21.77067a2.04331,2.04331,0,0,0-.75-0.809,3.51331,3.51331,0,0,0-1.193-.438,9.7501,9.7501,0,0,0-1.621-.128l-2.867.002a0.71829,0.71829,0,0,0-.66.524l-1.929,8.402a0.40607,0.40607,0,0,0,.415.522h1.373a0.70281,0.70281,0,0,0,.659-0.522l0.471-2.04a0.70332,0.70332,0,0,1,.658-0.521h0.393a6.50211,6.50211,0,0,0,3.913-1.032,3.21391,3.21391,0,0,0,1.402-2.723A2.55384,2.55384,0,0,0-67.965,21.77067Zm-2.961,2.745a2.88726,2.88726,0,0,1-1.736.456h-0.336a0.4091,0.4091,0,0,1-.417-0.524l0.413-1.784a0.69483,0.69483,0,0,1,.654-0.521l0.45-.003a2.197,2.197,0,0,1,1.194.267,0.90782,0.90782,0,0,1,.396.818A1.48632,1.48632,0,0,1-70.926,24.51567Z" transform="translate(76.99969 -20.39567)" style="fill:#fff"/><path d="M-61.344,22.97167a5.21089,5.21089,0,0,0-2.454-.438,10.84523,10.84523,0,0,0-1.661.129c-0.411.063-.451,0.075-0.704,0.13a0.80537,0.80537,0,0,0-.604.635l-0.168.691c-0.095.441,0.159,0.424,0.265,0.387a7.13528,7.13528,0,0,1,.821-0.242,5.886,5.886,0,0,1,1.286-.172,3.38958,3.38958,0,0,1,1.249.176,0.63077,0.63077,0,0,1,.414.624l-0.024.194-0.198.122c-0.779.049-1.342,0.121-2.025,0.22a6.28093,6.28093,0,0,0-1.741.479,2.70636,2.70636,0,0,0-1.182.932,2.54,2.54,0,0,0-.393,1.436,1.69643,1.69643,0,0,0,.559,1.304,2.09891,2.09891,0,0,0,1.447.494,3.94746,3.94746,0,0,0,.862-0.08l0.665-.229,0.563-.312,0.518-.342,0.007,0.01-0.052.22-0.003.009v0.002a0.40825,0.40825,0,0,0,.367.514l0.005,0.006h1.275l0.018-.008a0.7101,0.7101,0,0,0,.591-0.514l1.001-4.333,0.052-.353,0.024-.331A1.44869,1.44869,0,0,0-61.344,22.97167Zm-2.214,4.872-0.214.282-0.54.279a1.92281,1.92281,0,0,1-.718.155,1.64753,1.64753,0,0,1-.782-0.149l-0.265-.515a1.02932,1.02932,0,0,1,.201-0.67l0.582-.396a5.03372,5.03372,0,0,1,.905-0.204c0.314-.039.934-0.11,1.015-0.112l0.095,0.167C-63.298,26.77567-63.474,27.51167-63.558,27.84367Z" transform="translate(76.99969 -20.39567)" style="fill:#fff"/><path d="M-36.406,22.97767a5.22089,5.22089,0,0,0-2.453-.439,10.45363,10.45363,0,0,0-1.66.132c-0.412.06-.453,0.073-0.707,0.127a0.80283,0.80283,0,0,0-.602.636l-0.168.69c-0.094.441,0.154,0.421,0.27,0.387a8.13445,8.13445,0,0,1,.814-0.243,6.14085,6.14085,0,0,1,1.289-.172,3.37188,3.37188,0,0,1,1.246.177,0.62948,0.62948,0,0,1,.414.623l-0.021.193-0.196.125c-0.787.047-1.351,0.119-2.027,0.218a6.28318,6.28318,0,0,0-1.742.479,2.70409,2.70409,0,0,0-1.182.934,2.50834,2.50834,0,0,0-.394,1.43,1.67754,1.67754,0,0,0,.562,1.306,2.10111,2.10111,0,0,0,1.444.497,3.82531,3.82531,0,0,0,.861-0.081l0.663-.226,0.568-.312,0.514-.346,0.009,0.011-0.047.222-0.005.004,0.002,0.004a0.40173,0.40173,0,0,0,.365.514l0.002,0.005h1.274l0.021-.007a0.70284,0.70284,0,0,0,.584-0.518l1.004-4.327,0.053-.355,0.029-.332A1.44636,1.44636,0,0,0-36.406,22.97767Zm-2.209,4.872-0.223.285-0.535.277a1.94475,1.94475,0,0,1-.715.155,1.59888,1.59888,0,0,1-.781-0.15l-0.268-.513a1.07312,1.07312,0,0,1,.196-0.672,1.40681,1.40681,0,0,1,.588-0.395,5.10053,5.10053,0,0,1,.904-0.203c0.312-.039.93-0.112,1.01-0.113l0.097,0.167C-38.356,26.78267-38.533,27.51567-38.615,27.84967Z" transform="translate(76.99969 -20.39567)" style="fill:#fff"/><path d="M-43.031,21.80167a2.12439,2.12439,0,0,0-.756-0.812,3.36985,3.36985,0,0,0-1.193-.438,9.43927,9.43927,0,0,0-1.615-.126l-2.871.002a0.71332,0.71332,0,0,0-.655.522l-1.931,8.406a0.40678,0.40678,0,0,0,.414.521l1.375-.002a0.71192,0.71192,0,0,0,.66-0.52l0.465-2.041a0.712,0.712,0,0,1,.66-0.521h0.393a6.536,6.536,0,0,0,3.922-1.031,3.24992,3.24992,0,0,0,1.396-2.727A2.67854,2.67854,0,0,0-43.031,21.80167Zm-2.961,2.749a2.92339,2.92339,0,0,1-1.732.45h-0.342a0.411,0.411,0,0,1-.42-0.523l0.416-1.781a0.69812,0.69812,0,0,1,.656-0.521l0.445-.003a2.22263,2.22263,0,0,1,1.194.266,0.91546,0.91546,0,0,1,.399.818A1.50712,1.50712,0,0,1-45.992,24.55067Z" transform="translate(76.99969 -20.39567)" style="fill:#fff"/><path d="M-31.258,21.01667a0.40153,0.40153,0,0,0-.412-0.516H-32.9a0.69663,0.69663,0,0,0-.59.417l-0.068.106-0.062.272-1.719,7.814-0.056.24,0.002,0.006a0.38926,0.38926,0,0,0,.345.488l0.021,0.029h1.277a0.69727,0.69727,0,0,0,.592-0.424l0.066-.1,1.838-8.331Z" transform="translate(76.99969 -20.39567)" style="fill:#fff"/><path d="M-52.014,22.63867c-0.325.004-1.646,0-1.646,0a1.19015,1.19015,0,0,0-.864.524s-1.966,3.374-2.157,3.713l-0.228-.003-0.612-3.687a0.75608,0.75608,0,0,0-.748-0.538l-1.23.002a0.40592,0.40592,0,0,0-.411.524s0.934,5.315,1.121,6.566a1.40625,1.40625,0,0,1-.011.813l-1.216,2.118c-0.18.288-.083,0.523,0.212,0.523l1.422-.002a1.14922,1.14922,0,0,0,.861-0.522l5.47-9.252C-52.051,23.41867-51.525,22.62767-52.014,22.63867Z" transform="translate(76.99969 -20.39567)" style="fill:#fff"/></svg>