<svg id="Layer_1" data-name="Layer 1" xmlns="http://www.w3.org/2000/svg" width="57.87698" height="17.76927" viewBox="0 0 57.87698 17.76927"><title>visa</title><path d="M-74.5922-13.13086h-3.6384a2.394,2.394,0,0,0-2.4539,1.43846L-87.6229,4.1307h4.9077s0.8461-2.1154,1.0154-2.6231h6.0076c0.1693,0.5923.5924,2.5385,0.5924,2.5385h4.4ZM-80.346-2.0462c0.4231-1.0154,1.8615-4.82312,1.8615-4.82312A11.82279,11.82279,0,0,0-77.8922-8.477l0.3385,1.52307s0.9308,4.14614,1.1,4.99234H-80.346V-2.0462Z" transform="translate(128.57678 13.38477)" style="fill:#fff"/><path d="M-87.2846-1.5386c0,3.5538-3.2153,5.9231-8.2077,5.9231a13.87332,13.87332,0,0,1-5.2461-.9308l0.6769-3.8923,0.5923,0.2538a9.33406,9.33406,0,0,0,4.4.9308c1.3539,0,2.7923-.5077,2.7923-1.6923,0-.7615-0.5923-1.2692-2.4538-2.1154-1.7769-.8461-4.1462-2.2-4.1462-4.65384,0-3.38461,3.3-5.66923,7.9539-5.66923a10.79683,10.79683,0,0,1,4.2307.76154l-0.6769,3.72308-0.3384-.33846a9.09309,9.09309,0,0,0-3.5539-.67693c-1.7769.08462-2.6231,0.84616-2.6231,1.52308,0,0.76154,1.0154,1.35385,2.6231,2.11539C-88.5538-5.00784-87.2846-3.5694-87.2846-1.5386Z" transform="translate(128.57678 13.38477)" style="fill:#fff"/><path d="M-128.57678-12.96232l0.08461-.33846h7.27693a1.79388,1.79388,0,0,1,2.03074,1.43846l1.6077,7.61539C-119.1845-8.30847-122.90755-11.60847-128.57678-12.96232Z" transform="translate(128.57678 13.38477)" style="fill:#f9b50b"/><path d="M-107.3384-13.13121L-114.6999,4.0457h-4.9923L-123.923-10.3389a18.64537,18.64537,0,0,1,6.51537,7.1077l0.5077,1.7769,4.5692-11.76152h4.9923v0.08461Z" transform="translate(128.57678 13.38477)" style="fill:#fff"/><path d="M-105.3921-13.21582h4.6538L-103.6998,4.0457h-4.6538Z" transform="translate(128.57678 13.38477)" style="fill:#fff"/></svg>