<?xml version="1.0" encoding="UTF-8"?>
<svg width="15px" height="15px" viewBox="0 0 15 15" version="1.1" xmlns="http://www.w3.org/2000/svg" xmlns:xlink="http://www.w3.org/1999/xlink">
    <!-- Generator: Sketch 39.1 (31720) - http://www.bohemiancoding.com/sketch -->
    <title>Shape</title>
    <desc>Created with Sketch.</desc>
    <defs></defs>
    <g id="Page-1" stroke="none" stroke-width="1" fill="none" fill-rule="evenodd">
        <g id="adminPanelMockup" transform="translate(-364.000000, -315.000000)" fill="#4D4D4D">
            <g id="Group-8" transform="translate(70.000000, 107.000000)">
                <g id="play-button-(1)" transform="translate(294.000000, 208.000000)">
                    <g id="Capa_1">
                        <path d="M7.5,0 C3.3645,0 0,3.3645 0,7.5 C0,11.6355 3.3645,15 7.5,15 C11.6355,15 15,11.6355 15,7.5 C15,3.3645 11.6355,0 7.5,0 Z M11.1427009,7.97526688 L5.74091518,11.74202 C5.69941964,11.7708984 5.65104911,11.7857143 5.60267857,11.7857143 C5.56339286,11.7857143 5.52386161,11.7761718 5.48801339,11.7565847 C5.40747768,11.7131415 5.35714286,11.6277618 5.35714286,11.5345974 L5.35714286,4.00109127 C5.35714286,3.90792691 5.40747768,3.82254717 5.48801339,3.77910395 C5.56854911,3.73540962 5.66578125,3.74143642 5.74116071,3.79366873 L11.1429464,7.5604218 C11.2097321,7.60712954 11.25,7.68472466 11.25,7.76784434 C11.25,7.85096403 11.2097321,7.92855914 11.1427009,7.97526688 Z" id="Shape"></path>
                    </g>
                </g>
            </g>
        </g>
    </g>
</svg>