<?xml version="1.0" encoding="UTF-8"?>
<svg width="25px" height="23px" viewBox="0 0 25 23" version="1.1" xmlns="http://www.w3.org/2000/svg" xmlns:xlink="http://www.w3.org/1999/xlink">
    <!-- Generator: Sketch 39.1 (31720) - http://www.bohemiancoding.com/sketch -->
    <title>folder</title>
    <desc>Created with Sketch.</desc>
    <defs></defs>
    <g id="Page-1" stroke="none" stroke-width="1" fill="none" fill-rule="evenodd">
        <g id="adminPanelAll" transform="translate(-358.000000, -390.000000)">
            <g id="Group-8" transform="translate(70.000000, 72.000000)">
                <g id="Group-7" transform="translate(289.000000, 200.000000)">
                    <g id="folder" transform="translate(0.000000, 119.000000)">
                        <g id="Capa_1">
                            <path d="M22.1993621,20.7980769 L0.800637931,20.7980769 C0.358482759,20.7980769 0,20.433 0,19.9827115 L0,7.06730769 L23,7.06730769 L23,19.9827115 C23,20.433 22.6415172,20.7980769 22.1993621,20.7980769 Z" id="Shape" stroke="#BDBDBD"></path>
                            <g id="group" transform="translate(3.000000, 9.000000)" fill="#D1D1D1">
                                <g id="Capa_1">
                                    <g id="Group">
                                        <path d="M8.47566462,4.88440273 L8.47566462,4.88440273 L8.48957055,4.88440273 L8.50347648,4.88440273 L8.50347648,4.88440273 C10.7319018,4.86051195 10.408589,1.93901024 10.408589,1.93901024 C10.3182004,-0.0132081911 8.65296524,0.00385665529 8.48957055,0.0106825939 C8.32617587,0.00385665529 6.66441718,-0.0132081911 6.57055215,1.93901024 C6.57055215,1.94242321 6.24723926,4.86392491 8.47566462,4.88440273 Z" id="Shape"></path>
                                        <path d="M13.6903885,5.88098976 L13.6903885,5.88098976 L13.700818,5.88098976 L13.7112474,5.88098976 L13.7112474,5.88098976 C15.501636,5.86392491 15.2443763,3.51238908 15.2443763,3.51238908 C15.1713701,1.94242321 13.8329243,1.95607509 13.700818,1.95948805 C13.5687117,1.95266212 12.2302658,1.94242321 12.1572597,3.51238908 C12.1572597,3.51580205 11.8965235,5.86392491 13.6903885,5.88098976 Z" id="Shape"></path>
                                        <path d="M16.9756646,8.26324232 C16.9617587,7.75812287 16.8609407,7.40658703 16.3359918,7.08235495 C15.6372188,6.65232082 14.8550102,6.28030717 14.8550102,6.28030717 L14.2327198,8.21204778 L13.8711656,7.1983959 C14.507362,6.32467577 13.8259714,6.28030717 13.7042945,6.28030717 L13.7042945,6.28030717 L13.700818,6.28030717 L13.6973415,6.28030717 L13.6973415,6.28030717 C13.5756646,6.28030717 12.894274,6.32467577 13.5304703,7.1983959 L13.1689162,8.20863481 L12.5466258,6.2768942 C12.5466258,6.2768942 12.3241309,6.38269625 12.0112474,6.54651877 C11.9382413,6.48849829 11.8582822,6.43047782 11.7678937,6.37587031 C10.898773,5.84003413 9.92883436,5.37587031 9.92883436,5.37587031 L9.15705521,7.77518771 L8.70511247,6.51580205 C9.49775051,5.43047782 8.64948875,5.37587031 8.49652352,5.37245734 L8.49652352,5.37245734 L8.49304703,5.37245734 L8.48957055,5.37245734 L8.48957055,5.37245734 C8.33660532,5.37245734 7.48834356,5.42706485 8.2809816,6.51580205 L7.82903885,7.77518771 L7.05725971,5.37587031 C7.05725971,5.37587031 6.08732106,5.84003413 5.21820041,6.37587031 C5.12433538,6.43389078 5.04437628,6.49191126 4.97137014,6.54993174 C4.65501022,6.38269625 4.42903885,6.2768942 4.42903885,6.2768942 L3.80674847,8.20863481 L3.44519427,7.1983959 C4.08139059,6.32467577 3.4,6.28030717 3.27832311,6.28030717 L3.27832311,6.28030717 L3.27484663,6.28030717 L3.27137014,6.28030717 L3.27137014,6.28030717 C3.14969325,6.28030717 2.46830266,6.32467577 3.10449898,7.1983959 L2.74294479,8.20863481 L2.1206544,6.2768942 C2.1206544,6.2768942 1.33844581,6.64890785 0.639672802,7.07894198 C0.111247444,7.40317406 0.0139059305,7.7547099 0,8.25982935 L0,9.96972696 L3.26789366,9.96972696 L4.41165644,9.96972696 L6.54274029,9.96972696 L8.48261759,9.96972696 L10.4224949,9.96972696 L12.5605317,9.96972696 L13.6973415,9.96972696 L16.9791411,9.96972696 L16.9756646,8.26324232 Z" id="Shape"></path>
                                        <path d="M3.25398773,5.88098976 L3.25398773,5.88098976 L3.26441718,5.88098976 L3.27484663,5.88098976 L3.27484663,5.88098976 C5.06871166,5.86392491 4.80797546,3.51238908 4.80797546,3.51238908 C4.73496933,1.94242321 3.39652352,1.95607509 3.26441718,1.95948805 C3.13231084,1.95266212 1.79386503,1.94242321 1.7208589,3.51238908 C1.7208589,3.51580205 1.46359918,5.86392491 3.25398773,5.88098976 Z" id="Shape"></path>
                                    </g>
                                </g>
                            </g>
                            <path d="M10.3178793,3.43269231 L10.3178793,1.01728846 C10.3178793,0.567 9.95939655,0.201923077 9.51724138,0.201923077 L0.800637931,0.201923077 C0.358482759,0.201923077 0,0.567 0,1.01728846 L0,3.02884615 L0,7.06730769 L23,7.06730769 L23,4.24805769 C23,3.79776923 22.6415172,3.43269231 22.1993621,3.43269231 L10.3178793,3.43269231 Z" id="Shape" stroke="#BDBDBD"></path>
                        </g>
                    </g>
                </g>
            </g>
        </g>
    </g>
</svg>