<?xml version="1.0" encoding="UTF-8"?>
<svg width="112px" height="164px" viewBox="0 0 112 164" version="1.1" xmlns="http://www.w3.org/2000/svg" xmlns:xlink="http://www.w3.org/1999/xlink">
    <!-- Generator: Sketch 39.1 (31720) - http://www.bohemiancoding.com/sketch -->
    <title>Group 11</title>
    <desc>Created with Sketch.</desc>
    <defs></defs>
    <g id="Page-1" stroke="none" stroke-width="1" fill="none" fill-rule="evenodd">
        <g id="main" transform="translate(-958.000000, -905.000000)">
            <g id="Group-11" transform="translate(926.000000, 903.000000)">
                <g id="rocket" transform="translate(91.000000, 91.000000) rotate(-21.000000) translate(-91.000000, -91.000000) translate(21.000000, 21.000000)">
                    <g id="Layer_1" transform="translate(0.916321, 0.835804)">
                        <path d="M69.1733135,88.5894743 C63.4030755,93.9858464 47.1742811,133.559242 47.1742811,133.559242 C44.6498019,137.876339 48.2562007,141.114162 56.5509179,136.797065 L85.7627478,120.967707 C101.630902,112.333511 104.516021,109.815204 104.516021,92.1870557 L101.630902,70.9613256 C100.548983,63.7661628 95.1393846,62.3271303 89.7297865,68.0832605 L69.1733135,88.5894743 Z" id="Shape" stroke="#FF6A00" stroke-width="4" fill="#FFFFFF"></path>
                        <path d="M51.1413197,70.6015674 C45.3710817,76.3576976 6.06133516,92.5468138 6.06133516,92.5468138 C1.73365664,95.0651208 -1.51210225,91.4675394 2.81557627,83.1931022 L18.323091,53.692935 C26.978448,37.8635769 29.5029271,34.9855118 47.1742811,34.9855118 L68.4520338,37.8635769 C75.6648313,38.9428513 77.1073908,44.3392234 71.3371528,49.7355954 L51.1413197,70.6015674 Z" id="Shape" stroke="#FF6A00" stroke-width="4" fill="#FFFFFF"></path>
                        <path d="M110.646899,79.2357627 C82.516989,107.296897 39.2402038,99.7419766 39.2402038,99.7419766 C39.2402038,99.7419766 31.6667664,56.5710001 59.7966767,28.5098653 C87.9265871,0.44873058 130.482093,-2.42933452 136.252331,2.96703754 C141.661929,8.36340961 138.77681,51.174628 110.646899,79.2357627 Z" id="Shape" stroke="#FF6A00" stroke-width="5" fill="#FFFFFF"></path>
                        <path d="M29.1422872,114.851818 C26.2571682,117.729883 24.4539689,120.24819 21.5688498,117.370125 L21.5688498,117.370125 C18.6837308,114.49206 21.20821,112.69327 24.093329,109.815204 L59.7966767,64.1259209 C62.6817958,61.2478558 74.9435516,58.7295489 77.4680307,61.607614 L77.4680307,61.607614 C80.3531497,64.4856791 77.8286706,76.7174558 74.9435516,79.2357627 L29.1422872,114.851818 Z" id="Shape" stroke="#FF6A00" stroke-width="4" fill="#FFFFFF"></path>
                        <ellipse id="Oval" fill="#FF6A00" cx="92.3827517" cy="46.1350192" rx="14.4255951" ry="14.3903255"></ellipse>
                        <ellipse id="Oval" fill="#FF6A00" cx="113.898863" cy="25.9885635" rx="7.21279753" ry="7.19516275"></ellipse>
                    </g>
                </g>
            </g>
        </g>
    </g>
</svg>