<?xml version="1.0" encoding="UTF-8"?>
<svg width="130px" height="153px" viewBox="0 0 130 153" version="1.1" xmlns="http://www.w3.org/2000/svg" xmlns:xlink="http://www.w3.org/1999/xlink">
    <!-- Generator: Sketch 39.1 (31720) - http://www.bohemiancoding.com/sketch -->
    <title>shield</title>
    <desc>Created with Sketch.</desc>
    <defs></defs>
    <g id="Page-1" stroke="none" stroke-width="1" fill="none" fill-rule="evenodd">
        <g id="main" transform="translate(-573.000000, -918.000000)">
            <g id="shield" transform="translate(576.000000, 921.000000)">
                <g id="shield-308943">
                    <g id="Group">
                        <g transform="translate(2.380645, 4.760870)" id="Shape" stroke="#000000" stroke-width="2" fill="#FFFF00">
                            <path d="M58.9493681,0.0722060035 L59.4467997,0.0722060035 L61.5895941,1.14896689 C63.0181238,1.86680748 63.9619641,2.33712707 64.4211153,2.55992568 C64.8802902,2.78270646 66.442724,3.50672764 69.1084168,4.73198924 C71.7741334,5.95729243 73.1516462,6.57612462 73.2409554,6.58848581 C73.3302347,6.60086305 74.0381076,6.89171359 75.3645739,7.46103742 C76.69107,8.03036542 77.7114356,8.45118082 78.4256706,8.72348362 C79.1399057,8.9957686 80.1730255,9.3670798 81.52503,9.83741723 C82.8770344,10.3077309 83.7315954,10.6047709 84.0887129,10.7285374 C84.4458424,10.8523038 84.892269,11.0008223 85.4279929,11.174093 C85.963693,11.3473636 86.6524494,11.5577654 87.4942622,11.8052983 C88.3360987,12.0528252 89.4075108,12.3498623 90.7084985,12.6964095 C92.0094861,13.0429508 93.2721815,13.3523668 94.4965845,13.6246578 C95.7210469,13.8969368 96.511837,14.0702074 96.8689545,14.1444697 C97.2260839,14.218726 98.3612373,14.4291277 100.274415,14.7756749 C102.187604,15.1222281 103.386528,15.3326328 103.871188,15.4068891 C104.355859,15.4811514 105.542029,15.666804 107.429698,15.963847 C109.317379,16.2608841 110.273973,16.4094026 110.299482,16.4094026 C110.324988,16.4094026 111.24332,16.5826792 113.054478,16.9292324 C114.865633,17.2757796 115.777573,17.4552397 115.790298,17.4676128 L115.809438,17.4861813 L115.69465,23.0185875 C115.618119,26.7067988 115.426797,31.4718008 115.120685,37.3135933 C114.814572,43.1553264 114.572236,47.2395714 114.393677,49.5663281 C114.215107,51.8931443 114.011031,53.8857923 113.781449,55.5442721 C113.551868,57.2027518 113.284021,58.7745844 112.977908,60.2597698 C112.671795,61.7449552 112.340186,63.2425017 111.983081,64.7524095 C111.625951,66.2623173 111.307096,67.5865991 111.026516,68.7252551 C110.745917,69.8639111 110.414308,71.0891846 110.031688,72.4010756 C109.649044,73.713026 109.41946,74.5051228 109.342935,74.7773662 C109.266404,75.0496512 109.15161,75.3961806 108.998554,75.8169544 C108.845497,76.2377638 108.666933,76.7575876 108.462859,77.3764258 C108.258792,77.995258 107.939937,78.8863632 107.506295,80.0497416 C107.07264,81.21312 106.715522,82.1413683 106.434942,82.8344865 C106.154338,83.5275453 105.809945,84.3567852 105.401763,85.3222062 C104.993622,86.2875677 104.470671,87.4509758 103.832907,88.8124304 C103.195197,90.173885 102.812571,90.9659819 102.685029,91.1887211 C102.557487,91.4115019 102.091944,92.2221703 101.2884,93.6207263 C100.484856,95.0192823 100.000196,95.8485222 99.8344215,96.1084459 C99.668605,96.3683697 99.2732249,97.0243449 98.6482811,98.0763715 C98.0232956,99.1283803 97.6151613,99.7967167 97.4238781,100.081381 C97.2325651,100.366045 96.9392096,100.811612 96.5438116,101.418083 C96.1484137,102.024554 95.8295587,102.494874 95.5872468,102.829042 C95.3449051,103.163204 95.0643009,103.559268 94.745434,104.017232 C94.4265672,104.475167 94.1204664,104.895982 93.8271318,105.279678 C93.5337793,105.663368 93.3041948,105.985175 93.1383783,106.245099 C92.9725678,106.505005 92.7302351,106.839173 92.4113801,107.247604 C92.0925073,107.656034 91.7864066,108.064459 91.4930779,108.472877 C91.1997194,108.881308 90.8808645,109.302123 90.536513,109.735323 C90.1921318,110.168506 89.8987734,110.539817 89.6564377,110.849257 C89.414096,111.158661 88.8975361,111.746561 88.106758,112.612955 C87.3159383,113.479309 86.3848224,114.469452 85.3134103,115.583386 C84.2419982,116.69726 83.2981281,117.65026 82.4817999,118.442387 C81.6655313,119.234454 81.123463,119.735706 80.8555951,119.946144 C80.5877391,120.156545 79.9627537,120.68873 78.9806388,121.542699 C77.9985239,122.396667 77.3990469,122.916491 77.1822077,123.10217 C76.9653804,123.28782 76.4296743,123.745748 75.5750895,124.475956 C74.7205048,125.206164 74.1592903,125.676483 73.8914462,125.886915 C73.6236021,126.097317 73.3175014,126.344847 72.973144,126.629505 C72.6287687,126.914163 72.1504714,127.304016 71.5382521,127.799064 C70.9260506,128.294129 70.4605075,128.65923 70.1416228,128.894366 C69.822756,129.12952 69.5166552,129.339922 69.2233206,129.525572 C68.9299621,129.711215 68.3942561,130.033022 67.6162024,130.490993 C66.8381666,130.948927 66.327969,131.258343 66.0856095,131.419241 C65.8432738,131.580132 65.5690496,131.747211 65.2629369,131.920475 C64.9568243,132.093758 64.6379693,132.291787 64.3063721,132.514561 C63.974751,132.73733 63.7324153,132.898225 63.579365,132.997245 C63.4263027,133.096259 63.0946935,133.269533 62.5845375,133.517066 C62.0743518,133.764605 61.4621205,134.049272 60.7478438,134.371067 C60.0336087,134.69285 59.5361653,134.903249 59.2555134,135.002263 L58.8346071,135.150785 L58.375447,135.039391 C58.0693344,134.965141 57.7377252,134.841375 57.3806196,134.668092 C57.0234901,134.494827 56.4240131,134.197787 55.5821885,133.776972 C54.7403519,133.356168 54.2556924,133.096256 54.1282099,132.997236 C54.000662,132.898222 53.6754151,132.681637 53.1524692,132.34748 C52.6295292,132.0133 52.2341491,131.765761 51.9663287,131.604864 C51.6984846,131.443972 51.1755328,131.134556 50.3974732,130.676615 C49.6194374,130.218669 49.0837313,129.896862 48.7903551,129.711194 C48.4970025,129.525551 48.1909018,129.315152 47.8720528,129.079998 C47.553186,128.844844 47.1896764,128.566367 46.7815243,128.244566 C46.3733721,127.922771 45.8313038,127.483413 45.1553194,126.926494 C44.4793172,126.369539 43.8925944,125.886858 43.3951509,125.478452 C42.8977253,125.070021 42.1707063,124.451189 41.2140939,123.621955 C40.2574993,122.792686 39.6452978,122.272862 39.3774893,122.062484 C39.1096452,121.852088 38.5229521,121.357046 37.61741,120.577358 C36.7118322,119.797652 36.2080265,119.358295 36.105993,119.259286 C36.0039534,119.16026 35.5511645,118.720873 34.7476263,117.941126 C33.9440821,117.16142 33.3828676,116.604483 33.0639829,116.270314 C32.7451161,115.936152 32.0436055,115.193559 30.9594511,114.042536 C29.8752967,112.891513 29.2248029,112.186034 29.0079696,111.926098 C28.7911423,111.666192 28.4722873,111.28252 28.0514047,110.775081 C27.6305043,110.267636 27.2988952,109.859212 27.0565773,109.549807 C26.8142416,109.240379 26.5719029,108.918572 26.3295613,108.584386 C26.0872196,108.25023 25.8321267,107.903701 25.5642826,107.544798 C25.2964385,107.185884 25.0541028,106.864077 24.8372755,106.579377 C24.6204422,106.294719 24.4355004,106.041006 24.28245,105.818237 C24.1293937,105.59545 23.9189405,105.304597 23.6510905,104.945676 C23.3832464,104.58675 23.1536649,104.264943 22.9623459,103.980255 C22.771027,103.695597 22.5159342,103.324286 22.1970673,102.866322 C21.8782005,102.408375 21.6358618,102.049455 21.4700513,101.789561 C21.3042407,101.529649 21.0363937,101.121224 20.66651,100.564287 C20.2966264,100.007338 20.0542877,99.623666 19.939494,99.4132701 C19.8247003,99.2028624 19.5058453,98.6706775 18.9829291,97.8167152 C18.4599892,96.9627232 18.1156258,96.4057564 17.9498391,96.1458148 C17.7840286,95.8859148 17.3695023,95.1742548 16.7062602,94.0108348 C16.0430181,92.8474148 15.5455747,91.9686707 15.2139298,91.3746025 C14.8823088,90.7805165 14.5889533,90.2235497 14.3338634,89.7037021 C14.0787735,89.1838902 13.721656,88.4041545 13.2625108,87.364495 C12.8033418,86.3248474 12.5737573,85.7926624 12.5737573,85.7679401 C12.5737573,85.7431802 12.3441728,85.1738522 11.8850039,84.0599561 C11.4258409,82.9460225 11.0687233,82.0672784 10.8136512,81.4237238 C10.5585613,80.7801098 10.2014438,79.8023573 9.74229862,78.4904663 C9.28312965,77.178516 8.82397852,75.7799481 8.36484523,74.2947627 C7.90567626,72.8095773 7.39547861,71.0025849 6.83425228,68.8737855 C6.27304973,66.7450456 5.87763986,65.1608518 5.64802267,64.1212042 C5.41844116,63.0816161 5.09958621,61.5716786 4.69145782,59.5913918 C4.28331159,57.611105 4.04097291,56.3115455 3.96444178,55.6927133 C3.88791659,55.0738811 3.72210607,53.1802713 3.46701022,50.0118837 C3.21192031,46.8434962 3.04610979,44.4548146 2.96957865,42.845839 C2.89305347,41.2368634 2.80377111,39.5288795 2.70173158,37.7218871 C2.59969205,35.9148947 2.45938992,32.9568851 2.2808252,28.8478584 C2.10226049,24.7388316 2.01297813,21.8303263 2.01297813,20.1223423 L2.01297813,17.5603663 L2.26169391,17.4304223 C2.42750443,17.343781 2.88029332,17.2385772 3.62006059,17.1148107 C4.35982786,16.9910443 5.38019343,16.8301467 6.68115731,16.632118 C7.98212118,16.4340894 9.95908133,16.1122824 12.6120378,15.666697 C15.2650299,15.2211355 17.1654648,14.8993285 18.3133427,14.701276 C19.4612799,14.5032473 20.979089,14.1938312 22.8667697,13.7730277 C24.7544505,13.3522242 26.3870473,12.9561609 27.7645602,12.5848378 C29.142073,12.2135385 30.3282431,11.8670091 31.3230706,11.5452497 C32.3179575,11.2234545 33.0959933,10.9759217 33.657178,10.802651 C34.2183806,10.6293804 34.7540866,10.4561068 35.2642962,10.2828302 C35.7744819,10.1095536 36.7948475,9.73824243 38.3253929,9.16889661 C39.8559561,8.59957455 41.290848,8.02406596 42.6300685,7.44237083 C43.969289,6.86066976 44.6835538,6.56362972 44.7728629,6.55125069 C44.8621423,6.53887346 45.5062442,6.26040194 46.7051685,5.71583615 C47.9041226,5.1712662 48.9882592,4.6761945 49.9575782,4.23062106 C50.9268973,3.78506544 51.8834919,3.33949795 52.827362,2.89391856 C53.7712321,2.44836295 54.944648,1.86667376 56.3476098,1.148851 L58.4521417,0.0720901173 L58.9495732,0.0720901173 L58.9493681,0.0722060035 Z"></path>
                            <path d="M57.0228599,1.33358248 L57.5202914,1.33358248 L59.6630859,2.41034337 C61.0916155,3.12818396 62.0354559,3.59850355 62.494607,3.82130216 C62.9537819,4.04408294 64.5162158,4.76810412 67.1819086,5.99336572 C69.8476252,7.21866891 71.225138,7.8375011 71.3144471,7.8498623 C71.4037265,7.86223953 72.1115994,8.15309007 73.4380657,8.7224139 C74.7645618,9.2917419 75.7849273,9.7125573 76.4991624,9.9848601 C77.2133975,10.2571451 78.2465173,10.6284563 79.5985217,11.0987937 C80.9505262,11.5691074 81.8050872,11.8661474 82.1622047,11.9899138 C82.5193341,12.1136803 82.9657608,12.2621988 83.5014847,12.4354695 C84.0371848,12.6087401 84.7259412,12.8191419 85.567754,13.0666747 C86.4095905,13.3142017 87.4810026,13.6112387 88.7819902,13.957786 C90.0829779,14.3043272 91.3456732,14.6137433 92.5700762,14.8860342 C93.7945387,15.1583133 94.5853287,15.3315839 94.9424463,15.4058462 C95.2995757,15.4801025 96.4347291,15.6905042 98.3479063,16.0370514 C100.261095,16.3836046 101.46002,16.5940093 101.944679,16.6682656 C102.429351,16.7425279 103.615521,16.9281805 105.50319,17.2252235 C107.390871,17.5222606 108.347465,17.6707791 108.372974,17.6707791 C108.39848,17.6707791 109.316812,17.8440557 111.12797,18.1906089 C112.939125,18.5371561 113.851065,18.7166162 113.86379,18.7289893 L113.88293,18.7475578 L113.768142,24.279964 C113.691611,27.9681753 113.500289,32.7331773 113.194176,38.5749698 C112.888064,44.4167029 112.645728,48.5009478 112.467169,50.8277046 C112.288599,53.1545208 112.084522,55.1471687 111.854941,56.8056485 C111.625359,58.4641283 111.357512,60.0359609 111.0514,61.5211463 C110.745287,63.0063316 110.413678,64.5038782 110.056572,66.013786 C109.699443,67.5236937 109.380588,68.8479756 109.100007,69.9866316 C108.819409,71.1252876 108.4878,72.3505611 108.10518,73.662452 C107.722536,74.9744024 107.492952,75.7664993 107.416427,76.0387427 C107.339895,76.3110277 107.225102,76.6575571 107.072045,77.0783309 C106.918989,77.4991403 106.740424,78.0189641 106.536351,78.6378023 C106.332284,79.2566344 106.013429,80.1477397 105.579786,81.3111181 C105.146132,82.4744965 104.789014,83.4027448 104.508434,84.095863 C104.227829,84.7889217 103.883436,85.6181616 103.475254,86.5835826 C103.067114,87.5489442 102.544162,88.7123523 101.906399,90.0738069 C101.268689,91.4352615 100.886063,92.2273584 100.758521,92.4500976 C100.630979,92.6728783 100.165436,93.4835467 99.3618918,94.8821027 C98.5583476,96.2806587 98.0736881,97.1098986 97.9079133,97.3698224 C97.7420968,97.6297462 97.3467166,98.2857214 96.7217728,99.337748 C96.0967874,100.389757 95.6886531,101.058093 95.4973698,101.342757 C95.3060569,101.627421 95.0127014,102.072989 94.6173034,102.67946 C94.2219054,103.285931 93.9030505,103.75625 93.6607386,104.090418 C93.4183969,104.424581 93.1377927,104.820644 92.8189258,105.278608 C92.500059,105.736543 92.1939582,106.157358 91.9006236,106.541055 C91.6072711,106.924745 91.3776866,107.246552 91.2118701,107.506476 C91.0460596,107.766382 90.8037268,108.10055 90.4848719,108.50898 C90.1659991,108.917411 89.8598984,109.325835 89.5665696,109.734254 C89.2732112,110.142684 88.9543562,110.563499 88.6100048,110.9967 C88.2656236,111.429882 87.9722652,111.801194 87.7299294,112.110633 C87.4875878,112.420038 86.9710279,113.007937 86.1802498,113.874332 C85.3894301,114.740685 84.4583141,115.730829 83.386902,116.844762 C82.31549,117.958636 81.3716198,118.911637 80.5552917,119.703763 C79.739023,120.49583 79.1969548,120.997083 78.9290869,121.20752 C78.6612309,121.417922 78.0362454,121.950107 77.0541306,122.804075 C76.0720157,123.658043 75.4725387,124.177867 75.2556995,124.363547 C75.0388721,124.549196 74.5031661,125.007125 73.6485813,125.737333 C72.7939965,126.46754 72.2327821,126.93786 71.964938,127.148291 C71.6970939,127.358693 71.3909931,127.606223 71.0466357,127.890881 C70.7022605,128.175539 70.2239632,128.565392 69.6117439,129.06044 C68.9995424,129.555506 68.5339993,129.920607 68.2151146,130.155743 C67.8962477,130.390897 67.590147,130.601298 67.2968123,130.786948 C67.0034539,130.972592 66.4677478,131.294399 65.6896942,131.752369 C64.9116584,132.210304 64.4014607,132.51972 64.1591012,132.680617 C63.9167655,132.841509 63.6425413,133.008587 63.3364287,133.181852 C63.0303161,133.355134 62.7114611,133.553163 62.3798638,133.775938 C62.0482428,133.998707 61.8059071,134.159601 61.6528567,134.258622 C61.4997945,134.357636 61.1681853,134.53091 60.6580293,134.778442 C60.1478435,135.025981 59.5356123,135.310648 58.8213356,135.632443 C58.1071005,135.954227 57.609657,136.164625 57.3290052,136.26364 L56.9080988,136.412161 L56.4489388,136.300768 C56.1428262,136.226517 55.811217,136.102751 55.4541113,135.929469 C55.0969819,135.756204 54.4975049,135.459164 53.6556802,135.038348 C52.8138437,134.617545 52.3291842,134.357633 52.2017017,134.258613 C52.0741537,134.159598 51.7489068,133.943013 51.2259609,133.608857 C50.703021,133.274677 50.3076408,133.027138 50.0398205,132.86624 C49.7719764,132.705349 49.2490246,132.395933 48.470965,131.937992 C47.6929291,131.480045 47.1572231,131.158238 46.8638468,130.972571 C46.5704943,130.786927 46.2643936,130.576528 45.9455446,130.341375 C45.6266777,130.106221 45.2631682,129.827743 44.855016,129.505942 C44.4468639,129.184147 43.9047956,128.74479 43.2288112,128.187871 C42.552809,127.630916 41.9660861,127.148235 41.4686427,126.739828 C40.9712171,126.331398 40.244198,125.712566 39.2875856,124.883332 C38.330991,124.054062 37.7187895,123.534238 37.4509811,123.32386 C37.183137,123.113464 36.5964439,122.618423 35.6909018,121.838734 C34.785324,121.059028 34.2815183,120.619671 34.1794847,120.520663 C34.0774452,120.421637 33.6246563,119.98225 32.821118,119.202502 C32.0175738,118.422796 31.4563594,117.865859 31.1374747,117.531691 C30.8186079,117.197529 30.1170972,116.454936 29.0329428,115.303913 C27.9487884,114.15289 27.2982946,113.44741 27.0814614,113.187475 C26.864634,112.927569 26.5457791,112.543896 26.1248965,112.036457 C25.7039961,111.529013 25.3723869,111.120588 25.1300691,110.811184 C24.8877334,110.501756 24.6453947,110.179949 24.403053,109.845763 C24.1607114,109.511607 23.9056185,109.165077 23.6377744,108.806175 C23.3699303,108.44726 23.1275946,108.125453 22.9107673,107.840754 C22.693934,107.556096 22.5089922,107.302382 22.3559418,107.079613 C22.2028855,106.856827 21.9924323,106.565973 21.7245822,106.207053 C21.4567381,105.848127 21.2271566,105.52632 21.0358377,105.241632 C20.8445188,104.956974 20.5894259,104.585663 20.2705591,104.127698 C19.9516922,103.669752 19.7093536,103.310831 19.543543,103.050937 C19.3777325,102.791025 19.1098854,102.382601 18.7400018,101.825664 C18.3701182,101.268715 18.1277795,100.885042 18.0129858,100.674647 C17.898192,100.464239 17.5793371,99.9320539 17.0564209,99.0780917 C16.5334809,98.2240997 16.1891176,97.6671329 16.0233309,97.4071913 C15.8575203,97.1472912 15.442994,96.4356312 14.779752,95.2722113 C14.1165099,94.1087913 13.6190664,93.2300472 13.2874216,92.635979 C12.9558006,92.041893 12.6624451,91.4849262 12.4073552,90.9650786 C12.1522653,90.4452667 11.7951477,89.665531 11.3360026,88.6258715 C10.8768395,87.5862239 10.647258,87.0540389 10.647258,87.0293165 C10.647258,87.0045567 10.4176735,86.4352287 9.95850457,85.3213326 C9.49934155,84.207399 9.142224,83.3286549 8.88715194,82.6851003 C8.63206203,82.0414863 8.27494449,81.0637338 7.8157993,79.7518428 C7.35663034,78.4398924 6.89747921,77.0413245 6.43834592,75.5561392 C5.97917695,74.0709538 5.4689793,72.2639614 4.90775296,70.135162 C4.34655041,68.0064221 3.95114054,66.4222283 3.72152336,65.3825807 C3.49194185,64.3429925 3.1730869,62.8330551 2.76495851,60.8527683 C2.35681228,58.8724815 2.1144736,57.572922 2.03794246,56.9540898 C1.96141727,56.3352576 1.79560675,54.4416477 1.5405109,51.2732602 C1.285421,48.1048727 1.11961048,45.7161911 1.04307934,44.1072155 C0.966554153,42.4982399 0.877271794,40.7902559 0.775232264,38.9832636 C0.673192734,37.1762712 0.53289061,34.2182616 0.354325891,30.1092349 C0.175761173,26.0002081 0.086478814,23.0917028 0.086478814,21.3837188 L0.086478814,18.8217428 L0.335194594,18.6917987 C0.501005115,18.6051575 0.953794009,18.4999536 1.69356128,18.3761872 C2.43332855,18.2524208 3.45369412,18.0915232 4.75465799,17.8934945 C6.05562187,17.6954658 8.03258202,17.3736588 10.6855385,16.9280735 C13.3385306,16.482512 15.2389655,16.160705 16.3868433,15.9626525 C17.5347806,15.7646238 19.0525897,15.4552077 20.9402704,15.0344042 C22.8279512,14.6136007 24.460548,14.2175374 25.8380608,13.8462143 C27.2155737,13.474915 28.4017438,13.1283856 29.3965713,12.8066261 C30.3914582,12.484831 31.169494,12.2372982 31.7306787,12.0640275 C32.2918813,11.8907569 32.8275873,11.7174833 33.3377968,11.5442067 C33.8479826,11.3709361 34.8683482,10.9996249 36.3988936,10.4302731 C37.9294568,9.86095104 39.3643487,9.28544244 40.7035692,8.70374731 C42.0427897,8.12204624 42.7570545,7.8250062 42.8463636,7.81262717 C42.935643,7.80024934 43.5797449,7.52177783 44.7786692,6.97721263 C45.9776233,6.43264268 47.0617599,5.93757098 48.0310789,5.49199754 C49.000398,5.04643598 49.9569925,4.60086848 50.9008627,4.15529504 C51.8447328,3.70973943 53.0181487,3.12805024 54.4211105,2.41022748 L56.5256424,1.3334666 L57.0230739,1.3334666 L57.0228599,1.33358248 Z"></path>
                        </g>
                        <path d="M61.5415738,5.35587758e-05 L62.0792334,5.35587758e-05 L64.3952918,1.16388576 C65.9393307,1.93977389 66.9595099,2.44810618 67.4558294,2.68888263 C67.952131,2.92967099 69.6409273,3.71225397 72.5222182,5.03663157 C75.4035508,6.36096157 76.8924497,7.02982142 76.9889149,7.04321111 C77.0854218,7.05658831 77.8505339,7.37094857 79.2842511,7.98629189 C80.71801,8.60162271 81.8208695,9.05645574 82.5928294,9.35079097 C83.3648488,9.64509049 84.481523,10.0464242 85.9428519,10.5547922 C87.4041808,11.0631364 88.327865,11.3841915 88.7139045,11.5179576 C89.0999262,11.6517355 89.5824607,11.812266 90.161508,11.9995492 C90.7405256,12.1868323 91.484975,12.4142488 92.3948564,12.6817987 C93.3047258,12.9493545 94.462755,13.2704096 95.8689439,13.644964 C97.2751328,14.0195303 98.6399667,14.3539751 99.9634457,14.6482984 C101.286925,14.9425979 102.141654,15.1298811 102.527634,15.2101478 C102.913644,15.2904146 104.140598,15.5178311 106.208497,15.8923974 C108.276395,16.2669636 109.572304,16.4943801 110.096223,16.5746469 C110.620089,16.6549137 111.902183,16.8555746 113.942506,17.1766297 C115.982864,17.4976848 117.016828,17.6582123 117.044398,17.6582123 C117.071969,17.6582123 118.064578,17.8454955 120.022226,18.2200618 C121.979874,18.594628 122.965576,18.7886001 122.979331,18.8019779 L123,18.8220445 L122.875917,24.8017033 C122.793195,28.7881425 122.586402,33.9384139 122.255539,40.2525175 C121.924675,46.5666211 121.662742,50.9810544 121.46974,53.4958175 C121.276732,56.0107591 121.056154,58.1645062 120.808007,59.9570589 C120.559847,61.7496117 120.270335,63.448496 119.939471,65.0537121 C119.608608,66.6589876 119.250168,68.2776528 118.864152,69.9097077 C118.478142,71.5417626 118.133488,72.9731507 117.830188,74.2038718 C117.526888,75.434593 117.168448,76.7589528 116.754869,78.1769511 C116.341283,79.5949494 116.093132,80.4510865 116.010416,80.7453622 C115.927694,81.0396617 115.803624,81.4142161 115.638204,81.8690253 C115.472766,82.3238524 115.279755,82.8857137 115.059171,83.5546093 C114.838599,84.2234989 114.493944,85.1866642 114.025207,86.4441052 C113.556475,87.7016058 113.170466,88.7049104 112.867178,89.4540191 C112.563884,90.2031279 112.191659,91.0994043 111.750504,92.1428482 C111.309348,93.1862922 110.744103,94.443763 110.05477,95.9152606 C109.365437,97.3867582 108.951857,98.2428952 108.814031,98.4836717 C108.676163,98.724466 108.172966,99.6006876 107.30444,101.112336 C106.435913,102.623985 105.912054,103.520262 105.73286,103.801165 C105.553632,104.082093 105.126267,104.791092 104.450766,105.928163 C103.775266,107.065234 103.334116,107.787623 103.127317,108.09533 C102.920518,108.403007 102.603434,108.88459 102.176063,109.540078 C101.748692,110.195566 101.404038,110.703898 101.142099,111.065074 C100.88016,111.426257 100.57686,111.85434 100.2322,112.349325 C99.8875448,112.844291 99.5566751,113.299124 99.2395904,113.713824 C98.9225056,114.128523 98.6743548,114.476328 98.4951379,114.757238 C98.315927,115.038166 98.0539942,115.39936 97.7093394,115.840821 C97.3646787,116.282271 97.033809,116.723714 96.7167302,117.165151 C96.3996634,117.606606 96.0550086,118.061439 95.682766,118.52965 C95.3105354,118.997861 94.9934506,119.399195 94.7315118,119.733652 C94.469579,120.06809 93.9112419,120.703506 93.0565006,121.639898 C92.2017711,122.576343 91.1953769,123.646537 90.037318,124.850479 C88.879259,126.05442 87.8590798,127.084475 86.9767804,127.940641 C86.0944214,128.796808 85.5085143,129.338585 85.2190591,129.565972 C84.9295384,129.793394 84.254014,130.368615 83.1924857,131.291635 C82.1309515,132.214691 81.4830268,132.776523 81.2487116,132.97713 C81.0143488,133.177803 80.4353491,133.672775 79.5117125,134.462047 C78.5880283,135.251325 77.9814288,135.759657 77.6919141,135.987044 C77.4024053,136.214466 77.0715356,136.482016 76.6993049,136.789694 C76.3270802,137.097383 75.8100981,137.518771 75.1483586,138.053859 C74.4866192,138.588953 73.9834221,138.983592 73.6387673,139.237776 C73.2941126,139.491948 72.9632429,139.719362 72.6461581,139.920017 C72.3290734,140.12069 71.7500439,140.468494 70.9090697,140.963431 C70.0680955,141.458397 69.516636,141.792842 69.2546913,141.966765 C68.9927525,142.140677 68.6963512,142.321268 68.3654874,142.508539 C68.0346177,142.695828 67.6899629,142.90987 67.3315232,143.150664 C66.9730835,143.391459 66.7111477,143.565364 66.5457158,143.67238 C66.3802839,143.779397 66.0218442,143.966683 65.4703966,144.234239 C64.918955,144.501777 64.2572155,144.809442 63.4851782,145.157235 C62.7131588,145.50504 62.175514,145.732453 61.8722441,145.839475 L61.4173034,146 L60.9209988,145.8796 C60.590135,145.799333 60.2316953,145.665564 59.8456796,145.478293 C59.4596699,145.291004 58.8117154,144.969949 57.9018162,144.515128 C56.9919468,144.0603 56.4680871,143.779376 56.3302371,143.672353 C56.1923752,143.565337 55.8408131,143.331235 55.2755507,142.970046 C54.7103241,142.608852 54.2829594,142.341302 53.9934566,142.167396 C53.7039478,141.993497 53.1387033,141.659052 52.2977231,141.164062 C51.4567489,140.66909 50.8777194,140.321285 50.5606347,140.120648 C50.24355,139.919993 49.9126802,139.692579 49.5680255,139.438407 C49.2233767,139.184241 48.8304894,138.883241 48.3893635,138.535406 C47.9482078,138.18759 47.3623007,137.712702 46.6316422,137.110743 C45.9010075,136.508742 45.2668381,135.98702 44.7291338,135.545577 C44.1914772,135.104128 43.4056728,134.435268 42.3717205,133.538997 C41.3377682,132.642727 40.6760287,132.080866 40.3865021,131.853413 C40.0969933,131.625997 39.4628238,131.090885 38.4839937,130.248078 C37.5051635,129.405272 36.9606114,128.930384 36.8503374,128.823415 C36.7400455,128.716399 36.2506334,128.241511 35.3821011,127.398752 C34.5135688,126.555992 33.9069693,125.954021 33.5623027,125.592839 C33.2176479,125.231644 32.4594135,124.429007 31.2875993,123.184926 C30.1157851,121.940844 29.4126907,121.178346 29.1783159,120.89743 C28.9439531,120.616503 28.5992984,120.201809 28.1443517,119.653349 C27.6894111,119.104872 27.3309713,118.663428 27.0690325,118.329019 C26.8070997,117.994586 26.5451639,117.646782 26.2832251,117.285605 C26.0212923,116.924422 25.7455715,116.549868 25.4560627,116.161942 C25.1665539,115.774004 24.9046181,115.426199 24.6702553,115.118528 C24.4358924,114.810838 24.2359921,114.5366 24.0705542,114.295811 C23.9051224,114.055017 23.677652,113.740657 23.3881432,113.35273 C23.0986344,112.964792 22.8504836,112.616988 22.6436908,112.309316 C22.436898,112.001639 22.1611742,111.600305 21.8165194,111.105315 C21.4718647,110.610349 21.2099289,110.222404 21.030712,109.941483 C20.8514951,109.660555 20.5619863,109.219112 20.1621857,108.617153 C19.7623909,108.015152 19.5004551,107.600458 19.3763782,107.373072 C19.2523073,107.145661 18.9076526,106.57044 18.342414,105.647408 C17.7771815,104.724352 17.4049567,104.122381 17.2257399,103.841495 C17.046523,103.560568 16.5984659,102.791374 15.8815685,101.533915 C15.1646891,100.276415 14.6270444,99.3266095 14.2686344,98.6844993 C13.9101947,98.042389 13.59311,97.4404182 13.3173802,96.8785866 C13.0416564,96.3167372 12.6556467,95.4739601 12.159351,94.3502553 C11.6630494,93.2265922 11.4148986,92.6513709 11.4148986,92.6245916 C11.4148986,92.5978151 11.1667478,91.9824546 10.6704462,90.7785098 C10.1741445,89.5745651 9.78813482,88.6247597 9.51241699,87.9290937 C9.23669321,87.2334247 8.85068348,86.176591 8.35438781,84.7585927 C7.85808619,83.3405943 7.36179648,81.8289574 6.86551867,80.2236819 C6.36921705,78.6184063 5.81775757,76.6652963 5.21114024,74.3643518 C4.60454076,72.0634668 4.17717604,70.351163 3.92904607,69.2274403 C3.68089824,68.1037772 3.33624351,66.4717521 2.89508188,64.3313648 C2.4539262,62.1910371 2.1919904,60.7864285 2.10927445,60.1175389 C2.02655851,59.4486493 1.84733864,57.4019007 1.57161486,53.977293 C1.29589107,50.5526854 1.11667121,47.9708549 1.03395526,46.2318014 C0.951239317,44.492748 0.854735397,42.646696 0.744443501,40.6936455 C0.63415756,38.7405354 0.482510669,35.5433741 0.289502829,31.1021613 C0.0965009429,26.6608891 0,23.5172865 0,21.6713536 L0,18.9021863 L0.268825331,18.7617284 C0.448042219,18.6680839 0.937454319,18.5543756 1.73706163,18.4206037 C2.53666895,18.2868317 3.63955813,18.1129293 5.04572919,17.8988966 C6.45191811,17.6848578 8.58877149,17.3370531 11.4562893,16.8554823 C14.3238072,16.3738997 16.3779506,16.0260949 17.6187195,15.8120681 C18.8594884,15.5980235 20.5000521,15.2635787 22.5404105,14.8087337 C24.5807689,14.3539007 26.3453975,13.9258173 27.8342964,13.5244835 C29.3231954,13.1231557 30.6052895,12.7486014 31.6805789,12.4008204 C32.7558684,12.0530038 33.5968426,11.7854539 34.2035016,11.5981708 C34.8101011,11.4108876 35.3891305,11.2236045 35.94059,11.0363213 C36.4920376,10.8490323 37.5949268,10.4476985 39.2492576,9.83232007 C40.9035765,9.21698924 42.454493,8.59493382 43.9020071,7.96615379 C45.3495213,7.33743327 46.1215407,7.01637816 46.2180655,7.00298847 C46.3145724,6.98961127 47.0107595,6.68861095 48.3066267,6.09998751 C49.6025356,5.51138251 50.7743498,4.97630059 51.8220692,4.49474173 C52.8698482,4.01315312 53.9038124,3.53157046 54.9239618,3.04999375 C55.9441112,2.56840514 57.2124502,1.93968463 58.7289786,1.1638322 L61.003682,0 L61.5413416,0 L61.5413416,9.8191089e-07 L61.5415738,5.35587758e-05 Z" id="Shape" stroke="#FF6A00" stroke-width="6" fill="#FFFFFF"></path>
                        <path d="M61.5331898,13.8858696 L61.9630206,13.8858696 L63.8145548,14.8346026 C65.0489108,15.4670913 65.8644745,15.881491 66.2612456,16.0778017 C66.6580112,16.2741013 68.0080969,16.9120693 70.3115025,17.9917058 C72.614958,19.0713312 73.8052437,19.6165954 73.8823598,19.6274985 C73.9595092,19.6384037 74.571175,19.8946813 75.7173572,20.396331 C76.8635727,20.897983 77.7452556,21.2687705 78.3624059,21.5086934 C78.9796117,21.7486163 79.8723191,22.0757637 81.0405282,22.4901356 C82.2087927,22.9045464 82.9472125,23.1662783 83.2557877,23.2753311 C83.5643795,23.3843951 83.9501261,23.5152624 84.4130277,23.667933 C84.8759236,23.8206092 85.4710804,24.0060002 86.1984979,24.2241059 C86.9259154,24.4422116 87.8516963,24.7039434 88.9758406,25.0093014 C90.1000071,25.3146482 91.1911001,25.5872831 92.2491196,25.827206 C93.3071391,26.0671234 93.9904641,26.2197968 94.2990947,26.2852263 C94.607692,26.3506558 95.5885677,26.5360467 97.2417218,26.8413992 C98.894898,27.1467627 99.9308962,27.3321564 100.349716,27.3975803 C100.76852,27.4630154 101.793494,27.626603 103.424637,27.8883432 C105.055765,28.1500722 105.882353,28.2809368 105.904402,28.2809368 C105.926441,28.2809368 106.719956,28.4336157 108.284946,28.7389737 C109.849981,29.0443317 110.637984,29.2024594 110.648953,29.2133569 L110.665498,29.2297115 L110.566311,34.1044638 C110.50018,37.3542986 110.33486,41.5528108 110.070349,46.7000005 C109.805834,51.847357 109.596432,55.446201 109.442144,57.4965324 C109.28784,59.5467526 109.111498,61.3025345 108.913118,62.7638782 C108.714743,64.225222 108.483298,65.6102164 108.218782,66.9188617 C107.954277,68.2275069 107.667723,69.5470553 107.35912,70.8775066 C107.050523,72.207958 106.774994,73.3748078 106.532532,74.3780562 C106.290065,75.3813602 106.003512,76.4609855 105.672871,77.6169323 C105.34223,78.7729348 105.143847,79.4708974 105.077722,79.7108204 C105.011592,79.9507377 104.912402,80.256079 104.780152,80.6268442 C104.647897,80.9976261 104.493598,81.4556659 104.317256,82.0009635 C104.140925,82.5462221 103.865399,83.3314093 103.490676,84.3565249 C103.115954,85.3816406 102.807351,86.1995647 102.564868,86.8102973 C102.322395,87.4209799 102.024817,88.1516518 101.672133,89.0023129 C101.31946,89.8529184 100.867594,90.8780285 100.316535,92.0776432 C99.7654817,93.2772578 99.4348575,93.9752205 99.3246624,94.1715312 C99.2144506,94.3678308 98.8121672,95.082148 98.1178121,96.314483 C97.4234903,97.5468068 97.0046978,98.2774787 96.8614348,98.5064986 C96.718155,98.735524 96.3765064,99.3135252 95.8364888,100.240502 C95.2964434,101.167485 94.9437703,101.756361 94.7784693,102.007132 C94.6131572,102.257958 94.3596713,102.650551 94.0180115,103.184912 C93.6763573,103.719285 93.4008279,104.133684 93.1914234,104.428111 C92.9820189,104.722555 92.7395547,105.071537 92.4640308,105.475055 C92.1885015,105.878552 91.923991,106.249339 91.6704996,106.587418 C91.4170137,106.925496 91.2186309,107.209031 91.0753512,107.438023 C90.932077,107.667032 90.722678,107.96147 90.4471542,108.321338 C90.1716192,108.681217 89.9071088,109.041101 89.6536229,109.400991 C89.4001315,109.760876 89.1246021,110.131663 88.8270348,110.513354 C88.5294564,110.895038 88.275965,111.222186 88.0665604,111.494796 C87.8571559,111.767422 87.4108022,112.285429 86.7274993,113.048815 C86.0441964,113.812202 85.2396296,114.684641 84.3137989,115.666134 C83.3880179,116.647632 82.5724266,117.487362 81.8670249,118.185325 C81.1616786,118.883287 80.6932759,119.324945 80.4618168,119.510297 C80.2303632,119.695693 79.690329,120.164636 78.841714,120.917125 C77.9930991,121.669614 77.4751138,122.127654 77.2877583,122.291244 C77.1003917,122.454824 76.6375012,122.85832 75.8990869,123.501734 C75.1606726,124.145148 74.6757332,124.559548 74.4442686,124.744933 C74.2128261,124.930319 73.9483185,125.148427 73.6507456,125.399259 C73.3531728,125.650079 72.9398926,125.993609 72.410905,126.429848 C71.8818842,126.866065 71.4796008,127.187761 71.2040548,127.394936 C70.9285254,127.602133 70.6640178,127.787524 70.4105318,127.951109 C70.1570404,128.114688 69.6941499,128.398223 69.0218605,128.801714 C68.3495876,129.205211 67.9087462,129.477846 67.6993361,129.619619 C67.4899371,129.761386 67.2529824,129.908605 66.988472,130.061276 C66.7239671,130.213963 66.4484377,130.388451 66.1618839,130.58474 C65.87533,130.781034 65.6659282,130.922801 65.5336786,131.010042 C65.4014178,131.097295 65.1148639,131.249974 64.6740169,131.468079 C64.2331699,131.686191 63.7041602,131.937019 63.0869877,132.220566 C62.469782,132.504095 62.039965,132.689486 61.7975368,132.776739 L61.4338364,132.907609 L61.0370791,132.809456 C60.7725742,132.744027 60.4860203,132.634971 60.1774175,132.482289 C59.8688201,132.329619 59.3508349,132.06789 58.6234617,131.697102 C57.8960664,131.32632 57.4772739,131.097303 57.3670843,131.010051 C57.2568726,130.922804 56.975831,130.731964 56.5239595,130.437532 C56.072088,130.143077 55.7304393,129.924963 55.4990135,129.78319 C55.267571,129.641422 54.8157051,129.36879 54.1434156,128.965293 C53.4711428,128.56178 53.0082523,128.278245 52.7547442,128.114688 C52.5012583,127.951109 52.2367534,127.76572 51.9612296,127.558523 C51.6856947,127.351321 51.3715796,127.105946 51.0188843,126.8224 C50.6662055,126.538854 50.1978028,126.151712 49.6136761,125.660974 C49.0295439,125.170225 48.5225831,124.744922 48.0927939,124.385066 C47.6629714,124.025187 47.0347689,123.479922 46.2081863,122.749273 C45.3816037,122.018623 44.8525939,121.560584 44.621157,121.375154 C44.3897146,121.189768 43.8827538,120.753562 43.1002748,120.066536 C42.317757,119.379477 41.8824277,118.992335 41.7942872,118.90511 C41.7061189,118.817858 41.31486,118.430716 40.6205104,117.743684 C39.9261886,117.05668 39.4412491,116.565931 39.1656921,116.271437 C38.8901627,115.976993 38.2839814,115.322671 37.3471483,114.308469 C36.4103152,113.294268 35.848232,112.672654 35.6608986,112.443629 C35.4735375,112.21462 35.1980081,111.87657 34.8343105,111.429478 C34.4706128,110.982358 34.1840589,110.622473 33.9746489,110.349824 C33.7652499,110.077181 33.5558481,109.793646 33.3464436,109.499219 C33.1370335,109.204781 32.9166072,108.899439 32.6851648,108.583195 C32.4537223,108.266939 32.2443205,107.983404 32.0569594,107.732589 C31.8695984,107.481769 31.7097902,107.258215 31.577535,107.061926 C31.4452798,106.865621 31.263431,106.609338 31.0319885,106.293077 C30.8005461,105.976821 30.6021632,105.693286 30.4368401,105.442471 C30.271528,105.191651 30.0511073,104.864504 29.7755779,104.461029 C29.5000541,104.057516 29.2906551,103.741271 29.1473809,103.512296 C29.0041067,103.283282 28.7726615,102.923397 28.4530452,102.432643 C28.1334289,101.9419 27.9240272,101.603821 27.8248399,101.418408 C27.7256471,101.233006 27.4501177,100.764091 26.9982518,100.011663 C26.5463803,99.2591851 26.2488019,98.7684362 26.1055167,98.5394163 C25.9622425,98.3104132 25.6040571,97.6833482 25.0309604,96.6582214 C24.4578638,95.6330946 24.0280468,94.8588105 23.7415096,94.3353691 C23.4549557,93.8118999 23.2014698,93.321151 22.9810518,92.8631224 C22.7606283,92.4050937 22.4520254,91.7180619 22.0552432,90.8020269 C21.6584776,89.8859475 21.4600948,89.4170047 21.4600948,89.3951985 C21.4600948,89.3733874 21.261712,88.8717354 20.8649463,87.8902426 C20.4681918,86.9087447 20.1595889,86.1344606 19.9391377,85.5673903 C19.7187142,85.00032 19.4101114,84.1387836 19.0133291,82.9827812 C18.6165635,81.8267787 18.2197923,80.5944549 17.8230156,79.2858097 C17.42625,77.9771644 16.9854086,76.384984 16.5004913,74.5092684 C16.0155574,72.6335528 15.6739087,71.2376831 15.4755453,70.3216592 C15.2771652,69.4056353 15.0016359,68.075184 14.6489571,66.3303051 C14.296284,64.5854262 14.0868822,63.4403547 14.0207518,62.8950904 C13.954627,62.3498262 13.8113501,60.6812966 13.590921,57.8895015 C13.3704975,55.0977064 13.2272234,52.9929431 13.1610985,51.5752117 C13.0949682,50.1574802 13.0178188,48.6525242 12.9296505,47.0603438 C12.8414767,45.4681634 12.7202432,42.8617759 12.5659501,39.2411815 C12.4116514,35.620587 12.3345021,33.0578118 12.3345021,31.5528558 L12.3345021,29.2954219 L12.5494134,29.1809231 C12.6926875,29.104585 13.0839464,29.0118867 13.7231901,28.9028283 C14.3624448,28.7937755 15.2441277,28.6520051 16.3682388,28.4775172 C17.4924053,28.3030238 19.2007041,28.0194886 21.493135,27.6269117 C23.785566,27.2343126 25.4277177,26.9507774 26.4195902,26.7763062 C27.4115182,26.6018183 28.7230457,26.3291807 30.354173,25.9583932 C31.9853002,25.5876058 33.3960206,25.2386244 34.586334,24.9114492 C35.7766475,24.5842851 36.8016212,24.2789438 37.6612551,23.9954253 C38.5208891,23.7118846 39.1931896,23.4937761 39.6781568,23.3410999 C40.1630851,23.1884237 40.6259756,23.0357447 41.0668281,22.883063 C41.5076751,22.7303868 42.389358,22.4032393 43.7118769,21.9016207 C45.0344289,21.3999743 46.2742973,20.8928708 47.4314818,20.3803102 C48.5887218,19.8677552 49.2058999,19.6060261 49.283016,19.5951231 C49.3601598,19.5842139 49.9167308,19.3388422 50.952729,18.859008 C51.9886994,18.3791677 52.9255049,17.9429619 53.7631452,17.5503906 C54.6007301,17.1577914 55.4273182,16.7651979 56.2429095,16.3726098 C57.0585009,15.9800107 58.0724501,15.4674557 59.2847571,14.8349447 L61.1032178,13.8862117 L61.5330486,13.8862117 L61.5331898,13.8858696 Z" id="Shape" fill="#FFFFFF"></path>
                    </g>
                </g>
                <polygon id="Path" fill="#FF6A00" points="86.2998768 40.9455292 96.5550281 46.7389839 60.7792649 90.2974905 36.3298813 72.5413645 42.5746238 63.1696552 59.444921 73.8095715"></polygon>
            </g>
        </g>
    </g>
</svg>